<svg viewBox="0 0 21 21" fill="none" xmlns="http://www.w3.org/2000/svg">
<path d="M11.7275 4.47867L16.0513 9.45498L20.3752 4.47867L20.3863 4.46761C21.188 3.5387 20.9779 2.21169 19.9218 1.50948C18.8602 0.801738 17.3452 0.978673 16.5324 1.91311C16.2559 2.22828 15.8523 2.23381 15.5758 1.91311C14.7686 0.984202 13.2536 0.801738 12.1919 1.50948C11.1303 2.21722 10.9257 3.5387 11.7275 4.46761V4.47867ZM0.868088 6.81201C1.78041 7.42022 3.07978 7.2654 3.77093 6.46919C4.00869 6.19826 4.35703 6.19826 4.59479 6.46919C5.28594 7.2654 6.58531 7.42022 7.49763 6.81201C8.40442 6.20379 8.58136 5.0703 7.89573 4.27409L7.89021 4.26303L4.18562 0L0.481043 4.26303L0.475513 4.27409C-0.21564 5.07583 -0.0387046 6.20932 0.868088 6.81201ZM3.88152 7.6248L2.64297 9.08452C2.45498 9.30569 2.63744 9.61532 2.94708 9.61532H5.41864C5.72828 9.61532 5.90521 9.30569 5.72275 9.08452L4.48973 7.6248C4.33491 7.44787 4.03081 7.44787 3.88152 7.6248ZM4.48973 19.0095C4.34044 18.8325 4.03081 18.8325 3.88152 19.0095L2.64297 20.4692C2.45498 20.6904 2.63744 21 2.94708 21H5.41864C5.72828 21 5.90521 20.6904 5.72275 20.4692L4.48973 19.0095ZM6.4139 14.4036C6.44708 14.2654 6.47472 14.1216 6.47472 13.9668C6.47472 12.861 5.45182 11.9597 4.18562 11.9597C2.91943 11.9597 1.89652 12.8555 1.89652 13.9668C1.89652 14.1161 1.91864 14.2599 1.95182 14.4036C0.845972 14.5474 0 15.3712 0 16.3831C0 17.4889 1.02844 18.3902 2.2891 18.3902C3.07978 18.3902 3.77093 18.0419 4.18562 17.5111C4.60032 18.0419 5.29147 18.3902 6.08215 18.3902C7.34834 18.3902 8.37125 17.4945 8.37125 16.3831C8.37125 15.3712 7.51975 14.5474 6.4139 14.4036ZM20.2093 15.6919C19.0869 14.7907 17.3065 12.8499 16.4826 11.628C16.2615 11.3017 15.8136 11.3017 15.5924 11.628C14.7686 12.8499 12.9882 14.7907 11.8657 15.6919C11.5671 15.9297 11.5671 16.4218 11.8657 16.6651C12.9882 17.5664 14.7686 19.5071 15.5924 20.7291C15.8136 21.0553 16.2615 21.0553 16.4826 20.7291C17.3065 19.5071 19.0869 17.5664 20.2093 16.6651C20.5079 16.4218 20.5079 15.9297 20.2093 15.6919Z" fill="white"/>
</svg>
