<svg viewBox="0 0 24 21" fill="none" xmlns="http://www.w3.org/2000/svg">
<path d="M21.7652 1.64313C21.7081 1.62453 21.6446 1.61213 21.5811 1.59973L17.9194 0.905274C17.7988 0.861871 17.6782 0.824668 17.5513 0.806066C17.4878 0.793665 17.4243 0.787465 17.3672 0.787465L17.2593 0.781264L13.9783 0.161213L13.9402 0.886673C13.6483 0.35963 13.0327 0 12.322 0C12.2585 0 12.195 2.35607e-08 12.1316 0.00620053L1.61582 0.967279C1.1335 1.01068 0.708303 1.2153 0.403683 1.54393C0.0990625 1.87255 -0.0405551 2.28179 0.010215 2.70342L1.94582 19.079C2.04102 19.8912 2.81526 20.4989 3.73547 20.4989C3.79893 20.4989 3.86239 20.4989 3.92586 20.4927L12.9883 19.668L12.9629 20.1889L14.6193 20.3005L18.1351 20.9639C19.1124 21.1499 20.0263 20.5981 20.185 19.7362L23.0789 3.49089C23.2185 2.69102 22.6537 1.89736 21.7652 1.64313ZM13.7752 18.4899L4.39548 19.4014C3.78624 19.4572 3.25315 19.079 3.18969 18.5705L1.29851 3.04445C1.26677 2.79643 1.35562 2.55461 1.53966 2.35619C1.7237 2.16398 1.9839 2.03997 2.27583 2.01517L11.6619 1.10989C11.7 1.10369 11.7381 1.10369 11.7762 1.10369C12.341 1.10369 12.8043 1.46332 12.8614 1.94076L14.7526 17.4606C14.816 17.9753 14.3781 18.4403 13.7752 18.4899ZM17.0563 18.4217C17.0309 18.9364 16.5232 19.3208 15.9203 19.2836L15.311 19.2464C15.8124 18.924 16.117 18.3845 16.0472 17.8017L14.137 1.64313L16.7136 1.79815C16.7516 1.79815 16.7897 1.80435 16.8278 1.81055C17.3799 1.89736 17.7861 2.32519 17.7607 2.80883L17.0563 18.4217ZM21.7271 3.6521L19.0363 19.0604C18.9538 19.5254 18.4842 19.8168 17.9511 19.7796C18.1415 19.544 18.2621 19.265 18.2747 18.955L19.0807 2.4864C19.0871 2.3872 19.0807 2.29419 19.0617 2.20118L20.8132 2.52361C20.8513 2.52981 20.8894 2.54221 20.9275 2.54841C21.4669 2.70342 21.8096 3.18086 21.7271 3.6521ZM11.1923 9.26356L7.7463 6.0455L5.1253 9.8154L5.11895 9.82161C4.63664 10.5285 4.89049 11.4399 5.69011 11.874C6.49609 12.3018 7.54322 12.0786 8.03188 11.3717C8.19689 11.1299 8.48247 11.1051 8.70459 11.3097C9.34556 11.9112 10.4244 11.9422 11.1098 11.3779C11.7952 10.8137 11.8269 9.87121 11.1923 9.26976V9.26356ZM8.73632 12.2708C8.5967 12.1344 8.34285 12.1592 8.24131 12.3142L7.36553 13.6039C7.23226 13.7961 7.40995 14.038 7.6638 14.0132L9.68826 13.8271C9.94211 13.8023 10.0563 13.5357 9.88499 13.3683L8.73632 12.2708Z" fill="white"/>
</svg>
