<svg viewBox="0 0 21 21" fill="none" xmlns="http://www.w3.org/2000/svg">
<path d="M13.0622 0L12.3706 0.536053C13.3056 1.71316 13.6652 3.15 13.6874 4.63105C7.10925 5.49316 5.30566 9.90868 4.95158 11.0195C4.67495 10.9587 4.38726 10.9311 4.09404 10.9311C1.83679 10.9311 0 12.7437 0 14.9708C0 17.1979 1.83679 19.0105 4.09404 19.0105C4.86859 19.0105 5.58781 18.8005 6.20745 18.4303C6.81603 19.95 8.3264 21 10.0138 21C12.2711 21 14.1078 19.1874 14.1078 16.9603C14.1078 15.4626 13.278 14.1529 12.0442 13.4566C13.0235 11.655 16.5753 4.43211 13.0622 0ZM6.85475 16.59C6.84922 16.5955 6.84369 16.6066 6.83816 16.6121C6.81049 16.6563 6.7773 16.7061 6.74964 16.7503C6.73857 16.7668 6.72751 16.7779 6.72197 16.7945C6.69984 16.8276 6.67771 16.8553 6.65558 16.8829C6.64452 16.8995 6.62792 16.9161 6.61686 16.9326C6.59473 16.9603 6.5726 16.9824 6.556 17.01C6.5394 17.0266 6.52834 17.0432 6.51174 17.0597C6.48961 17.0874 6.46748 17.1095 6.44535 17.1316C6.42875 17.1482 6.41769 17.1647 6.40109 17.1758C6.37343 17.2034 6.3513 17.2255 6.32364 17.2532C6.30704 17.2642 6.29597 17.2808 6.27938 17.2918C6.25171 17.3195 6.21852 17.3471 6.19086 17.3692C5.62654 17.85 4.89625 18.1374 4.09404 18.1374C2.32365 18.1374 0.879666 16.7171 0.879666 14.9653C0.879666 13.2189 2.31811 11.7932 4.09404 11.7932C5.60441 11.7932 6.87688 12.8321 7.2199 14.2247L7.2365 14.2911C7.28629 14.5176 7.31395 14.7442 7.31395 14.9708C7.31395 15.0261 7.31395 15.0868 7.30842 15.1421C7.30842 15.1587 7.30842 15.1697 7.30289 15.1863C7.29735 15.2305 7.29735 15.2692 7.29182 15.3134C7.29182 15.33 7.28629 15.3466 7.28629 15.3576C7.28076 15.3963 7.27522 15.4405 7.26969 15.4792C7.26969 15.4958 7.26416 15.5068 7.26416 15.5234C7.25863 15.5621 7.24756 15.6063 7.24203 15.645C7.2365 15.6616 7.2365 15.6726 7.23096 15.6892C7.2199 15.7279 7.21437 15.7666 7.2033 15.8053C7.19777 15.8218 7.19224 15.8329 7.19224 15.8495C7.18117 15.8882 7.17011 15.9268 7.15904 15.9655C7.15351 15.9821 7.14798 15.9932 7.14244 16.0097C7.13138 16.0484 7.11478 16.0816 7.09818 16.1203C7.09265 16.1368 7.08712 16.1534 7.08159 16.1645C7.06499 16.2032 7.04839 16.2363 7.03179 16.2695C7.02626 16.2861 7.02073 16.2971 7.00966 16.3137C6.99307 16.3524 6.97647 16.3855 6.95434 16.4187C6.94881 16.4297 6.93774 16.4463 6.93221 16.4574C6.90455 16.5126 6.87688 16.5513 6.85475 16.59ZM13.2282 16.9603C13.2282 18.7066 11.7842 20.1324 10.0138 20.1324C8.59749 20.1324 7.34161 19.1984 6.93774 17.8776C6.94881 17.8666 6.95987 17.8555 6.97094 17.8445C6.98753 17.8279 7.00413 17.8113 7.02073 17.7947C7.05392 17.7616 7.08159 17.7339 7.11478 17.7008C7.12585 17.6842 7.14244 17.6732 7.15351 17.6566C7.1867 17.6234 7.21437 17.5847 7.24756 17.5516C7.25863 17.5405 7.26969 17.5239 7.28076 17.5129C7.31395 17.4742 7.34161 17.4355 7.37481 17.3968C7.38587 17.3858 7.39141 17.3747 7.40247 17.3637C7.43567 17.3195 7.46333 17.2808 7.49099 17.2366C7.49652 17.2255 7.50759 17.2145 7.51312 17.2034C7.54078 17.1592 7.56845 17.115 7.59611 17.0708C7.60717 17.0597 7.61271 17.0432 7.61824 17.0321C7.6459 16.9879 7.66803 16.9492 7.69016 16.905C7.70123 16.8829 7.71229 16.8608 7.72336 16.8387C7.73995 16.8 7.76208 16.7668 7.77868 16.7282C7.80081 16.6895 7.81741 16.6453 7.83401 16.6066C7.84507 16.59 7.8506 16.5679 7.86167 16.5513C8.04424 16.1258 8.15489 15.6671 8.18255 15.1808C8.18808 15.1145 8.18808 15.0426 8.18808 14.9763C8.18808 14.9155 8.18808 14.8603 8.18255 14.7995C8.18255 14.7718 8.17702 14.7442 8.17702 14.7166C8.17702 14.6889 8.17149 14.6668 8.17149 14.6392C8.16595 14.5508 8.15489 14.4679 8.14382 14.385C8.68601 13.9982 9.34437 13.7882 10.0138 13.7882C11.7842 13.7882 13.2282 15.2084 13.2282 16.9603ZM11.231 13.1029C10.8437 12.9813 10.4343 12.9205 10.0138 12.9205C9.26692 12.9205 8.53663 13.125 7.90593 13.5008C7.51865 12.5226 6.74964 11.7268 5.78698 11.2958C6.04701 10.4116 7.54632 6.37737 13.6652 5.51526C13.4329 8.7979 11.7787 12.0916 11.231 13.1029ZM2.15214 14.8879L1.28907 15.0537C1.30567 15.1255 1.64315 16.7668 3.04287 17.3582L3.38588 16.5568C2.4177 16.1534 2.15214 14.8989 2.15214 14.8879ZM8.70261 18.0434L8.04977 18.6237C8.0885 18.6679 8.99583 19.6461 10.3236 19.6461C10.3679 19.6461 10.4121 19.6461 10.4509 19.6405L10.4066 18.7729C9.43843 18.8226 8.70814 18.0489 8.70261 18.0434ZM20.9958 7.79211C20.4149 3.58105 17.0843 2.45921 15.2088 2.45921H15.1701C15.0484 2.46474 14.9322 2.51447 14.8492 2.60842C14.7662 2.70237 14.7275 2.82395 14.7441 2.94C15.159 6.52658 16.8022 8.34474 19.6237 8.34474C19.9336 8.34474 20.26 8.32263 20.6141 8.28395C20.7302 8.26737 20.8354 8.2121 20.9073 8.11816C20.9792 8.02421 21.0124 7.90816 20.9958 7.79211ZM19.6237 7.47711C18.1964 7.47711 16.271 7.035 15.6901 3.35447C16.8077 3.48158 19.3858 4.14474 20.0497 7.46053C19.9004 7.47158 19.7621 7.47711 19.6237 7.47711Z" fill="white"/>
</svg>
