<svg id="Layer_1" data-name="Layer 1" xmlns="http://www.w3.org/2000/svg" xmlns:xlink="http://www.w3.org/1999/xlink" viewBox="0 0 165.27 156.86"><defs><style>.cls-1{fill:url(#linear-gradient);}.cls-2{fill:url(#linear-gradient-2);}.cls-3{fill:url(#linear-gradient-3);}.cls-4{fill:url(#linear-gradient-4);}.cls-5{fill:url(#linear-gradient-5);}.cls-6{fill:url(#linear-gradient-6);}.cls-7{fill:url(#linear-gradient-7);}.cls-8{fill:url(#linear-gradient-8);}.cls-9{fill:url(#linear-gradient-9);}.cls-10{fill:url(#linear-gradient-10);}.cls-11{fill:url(#linear-gradient-11);}.cls-12{fill:url(#linear-gradient-12);}.cls-13{fill:url(#linear-gradient-13);}.cls-14{fill:url(#linear-gradient-14);}.cls-15{fill:url(#linear-gradient-15);}.cls-16{fill:url(#linear-gradient-16);}.cls-17{fill:url(#linear-gradient-17);}.cls-18{fill:url(#linear-gradient-18);}.cls-19{fill:url(#linear-gradient-19);}.cls-20{fill:url(#linear-gradient-20);}.cls-21{fill:url(#linear-gradient-21);}.cls-22{fill:url(#linear-gradient-22);}.cls-23{fill:url(#linear-gradient-23);}.cls-24{fill:url(#linear-gradient-24);}.cls-25{fill:url(#linear-gradient-25);}.cls-26{fill:url(#linear-gradient-26);}.cls-27{fill:url(#linear-gradient-27);}.cls-28{fill:url(#linear-gradient-28);}.cls-29{fill:url(#linear-gradient-29);}.cls-30{fill:url(#linear-gradient-30);}.cls-31{fill:url(#linear-gradient-31);}.cls-32{fill:url(#linear-gradient-32);}.cls-33{fill:url(#linear-gradient-33);}.cls-34{fill:url(#linear-gradient-34);}.cls-35{fill:url(#linear-gradient-35);}.cls-36{fill:url(#linear-gradient-36);}.cls-37{fill:url(#linear-gradient-37);}.cls-38{fill:url(#linear-gradient-38);}.cls-39{fill:url(#linear-gradient-39);}.cls-40{fill:url(#linear-gradient-40);}.cls-41{fill:url(#linear-gradient-41);}.cls-42{fill:url(#linear-gradient-42);}.cls-43{fill:url(#linear-gradient-43);}.cls-44{fill:#cb4432;}.cls-45{fill:#cd4734;}.cls-46{fill:#cf4a37;}.cls-47{fill:#d14d39;}.cls-48{fill:#d3503c;}.cls-49{fill:#d5533e;}.cls-50{fill:#d75641;}.cls-51{fill:#d95943;}.cls-52{fill:#db5c46;}.cls-53{fill:#dd5f48;}.cls-54{fill:#df624b;}.cls-55{fill:#e0664d;}.cls-56{fill:#e26950;}.cls-57{fill:#e46c52;}.cls-58{fill:#e66f55;}.cls-59{fill:#e87257;}.cls-60{fill:#ea755a;}.cls-61{fill:#ec785c;}.cls-62{fill:#ee7b5f;}.cls-63{fill:#f07e61;}.cls-64{fill:#f28164;}.cls-65{fill:#f48466;}.cls-66{fill:#843131;}.cls-67{fill:url(#linear-gradient-44);}.cls-68{fill:url(#linear-gradient-45);}.cls-69{fill:url(#linear-gradient-46);}.cls-70{fill:url(#linear-gradient-47);}.cls-71{fill:url(#linear-gradient-49);}.cls-72{fill:url(#linear-gradient-50);}.cls-73{fill:url(#linear-gradient-51);}.cls-74{fill:url(#linear-gradient-52);}.cls-75{fill:url(#linear-gradient-53);}.cls-76{fill:url(#linear-gradient-54);}.cls-77{fill:url(#linear-gradient-55);}.cls-78{fill:url(#linear-gradient-56);}.cls-79{fill:url(#linear-gradient-57);}.cls-80{fill:url(#linear-gradient-58);}.cls-81{fill:url(#linear-gradient-59);}.cls-82{fill:url(#linear-gradient-60);}.cls-83{fill:url(#linear-gradient-61);}.cls-84{fill:url(#linear-gradient-62);}.cls-85{fill:url(#linear-gradient-63);}.cls-86{fill:url(#linear-gradient-64);}.cls-87{fill:url(#linear-gradient-65);}.cls-88{fill:url(#linear-gradient-66);}.cls-89{fill:url(#linear-gradient-67);}.cls-90{fill:url(#linear-gradient-68);}.cls-91{fill:url(#linear-gradient-69);}.cls-92{fill:url(#linear-gradient-70);}.cls-93{fill:url(#linear-gradient-71);}.cls-94{fill:url(#linear-gradient-72);}.cls-95{fill:url(#linear-gradient-73);}.cls-96{fill:url(#linear-gradient-74);}.cls-97{fill:url(#linear-gradient-75);}.cls-98{fill:url(#linear-gradient-76);}.cls-99{fill:url(#linear-gradient-77);}.cls-100{fill:url(#linear-gradient-78);}.cls-101{fill:url(#radial-gradient);}.cls-102{fill:url(#radial-gradient-2);}.cls-103{fill:url(#radial-gradient-3);}.cls-104{fill:#e2e1e0;}.cls-105{fill:url(#radial-gradient-4);}.cls-106{fill:#fff;}.cls-107{fill:#d0cfcf;}.cls-108{fill:url(#linear-gradient-79);}.cls-109{fill:url(#linear-gradient-80);}</style><linearGradient id="linear-gradient" x1="-103.79" y1="-98.82" x2="-103.79" y2="31.23" gradientTransform="translate(27.08 -15.09) rotate(-138.12)" gradientUnits="userSpaceOnUse"><stop offset="0" stop-color="#bf4031"/><stop offset="1" stop-color="#f69b78"/></linearGradient><linearGradient id="linear-gradient-2" x1="-103.79" y1="-98.78" x2="-103.79" y2="30.94" gradientTransform="translate(27.08 -15.09) rotate(-138.12)" gradientUnits="userSpaceOnUse"><stop offset="0" stop-color="#bb3f31"/><stop offset="1" stop-color="#f39675"/></linearGradient><linearGradient id="linear-gradient-3" x1="-103.8" y1="-98.75" x2="-103.8" y2="30.64" gradientTransform="translate(27.08 -15.09) rotate(-138.12)" gradientUnits="userSpaceOnUse"><stop offset="0" stop-color="#b83e31"/><stop offset="1" stop-color="#f09271"/></linearGradient><linearGradient id="linear-gradient-4" x1="-103.81" y1="-98.7" x2="-103.81" y2="30.35" gradientTransform="translate(27.08 -15.09) rotate(-138.12)" gradientUnits="userSpaceOnUse"><stop offset="0" stop-color="#b43d30"/><stop offset="1" stop-color="#ec8d6e"/></linearGradient><linearGradient id="linear-gradient-5" x1="-103.81" y1="-98.66" x2="-103.81" y2="30.05" gradientTransform="translate(27.08 -15.09) rotate(-138.12)" gradientUnits="userSpaceOnUse"><stop offset="0" stop-color="#b03c30"/><stop offset="1" stop-color="#e9886a"/></linearGradient><linearGradient id="linear-gradient-6" x1="-103.83" y1="-98.61" x2="-103.83" y2="29.76" gradientTransform="translate(27.08 -15.09) rotate(-138.12)" gradientUnits="userSpaceOnUse"><stop offset="0" stop-color="#ad3b30"/><stop offset="1" stop-color="#e68467"/></linearGradient><linearGradient id="linear-gradient-7" x1="-103.79" y1="-98.56" x2="-103.79" y2="29.46" gradientTransform="translate(27.08 -15.09) rotate(-138.12)" gradientUnits="userSpaceOnUse"><stop offset="0" stop-color="#a93b30"/><stop offset="1" stop-color="#e37f63"/></linearGradient><linearGradient id="linear-gradient-8" x1="-103.78" y1="-98.51" x2="-103.78" y2="29.17" gradientTransform="translate(27.08 -15.09) rotate(-138.12)" gradientUnits="userSpaceOnUse"><stop offset="0" stop-color="#a53a2f"/><stop offset="1" stop-color="#e07a60"/></linearGradient><linearGradient id="linear-gradient-9" x1="-103.82" y1="-98.46" x2="-103.82" y2="28.87" gradientTransform="translate(27.08 -15.09) rotate(-138.12)" gradientUnits="userSpaceOnUse"><stop offset="0" stop-color="#a2392f"/><stop offset="1" stop-color="#dc765d"/></linearGradient><linearGradient id="linear-gradient-10" x1="-103.82" y1="-98.4" x2="-103.82" y2="28.58" gradientTransform="translate(27.08 -15.09) rotate(-138.12)" gradientUnits="userSpaceOnUse"><stop offset="0" stop-color="#9e382f"/><stop offset="1" stop-color="#d97159"/></linearGradient><linearGradient id="linear-gradient-11" x1="-103.82" y1="-98.34" x2="-103.82" y2="28.28" gradientTransform="translate(27.08 -15.09) rotate(-138.12)" gradientUnits="userSpaceOnUse"><stop offset="0" stop-color="#9a372f"/><stop offset="1" stop-color="#d66c56"/></linearGradient><linearGradient id="linear-gradient-12" x1="-103.84" y1="-98.28" x2="-103.84" y2="27.99" gradientTransform="translate(27.08 -15.09) rotate(-138.12)" gradientUnits="userSpaceOnUse"><stop offset="0" stop-color="#97362e"/><stop offset="1" stop-color="#d36852"/></linearGradient><linearGradient id="linear-gradient-13" x1="-103.83" y1="-98.21" x2="-103.83" y2="27.69" gradientTransform="translate(27.08 -15.09) rotate(-138.12)" gradientUnits="userSpaceOnUse"><stop offset="0" stop-color="#93352e"/><stop offset="1" stop-color="#d0634f"/></linearGradient><linearGradient id="linear-gradient-14" x1="-103.82" y1="-98.15" x2="-103.82" y2="27.4" gradientTransform="translate(27.08 -15.09) rotate(-138.12)" gradientUnits="userSpaceOnUse"><stop offset="0" stop-color="#8f342e"/><stop offset="1" stop-color="#cd5e4b"/></linearGradient><linearGradient id="linear-gradient-15" x1="-103.83" y1="-98.08" x2="-103.83" y2="27.1" gradientTransform="translate(27.08 -15.09) rotate(-138.12)" gradientUnits="userSpaceOnUse"><stop offset="0" stop-color="#8c332e"/><stop offset="1" stop-color="#c95a48"/></linearGradient><linearGradient id="linear-gradient-16" x1="-103.85" y1="-98" x2="-103.85" y2="26.81" gradientTransform="translate(27.08 -15.09) rotate(-138.12)" gradientUnits="userSpaceOnUse"><stop offset="0" stop-color="#88322d"/><stop offset="1" stop-color="#c65545"/></linearGradient><linearGradient id="linear-gradient-17" x1="-103.84" y1="-97.93" x2="-103.84" y2="26.51" gradientTransform="translate(27.08 -15.09) rotate(-138.12)" gradientUnits="userSpaceOnUse"><stop offset="0" stop-color="#84322d"/><stop offset="1" stop-color="#c35041"/></linearGradient><linearGradient id="linear-gradient-18" x1="-103.84" y1="-97.85" x2="-103.84" y2="26.22" gradientTransform="translate(27.08 -15.09) rotate(-138.12)" gradientUnits="userSpaceOnUse"><stop offset="0" stop-color="#81312d"/><stop offset="1" stop-color="#c04c3e"/></linearGradient><linearGradient id="linear-gradient-19" x1="-103.83" y1="-97.77" x2="-103.83" y2="25.92" gradientTransform="translate(27.08 -15.09) rotate(-138.12)" gradientUnits="userSpaceOnUse"><stop offset="0" stop-color="#7d302d"/><stop offset="1" stop-color="#bd473a"/></linearGradient><linearGradient id="linear-gradient-20" x1="-103.86" y1="-97.69" x2="-103.86" y2="25.62" gradientTransform="translate(27.08 -15.09) rotate(-138.12)" gradientUnits="userSpaceOnUse"><stop offset="0" stop-color="#792f2c"/><stop offset="1" stop-color="#b94237"/></linearGradient><linearGradient id="linear-gradient-21" x1="-103.83" y1="-97.6" x2="-103.83" y2="25.33" gradientTransform="translate(27.08 -15.09) rotate(-138.12)" gradientUnits="userSpaceOnUse"><stop offset="0" stop-color="#762e2c"/><stop offset="1" stop-color="#b63e33"/></linearGradient><linearGradient id="linear-gradient-22" x1="-103.84" y1="-97.51" x2="-103.84" y2="25.03" gradientTransform="translate(27.08 -15.09) rotate(-138.12)" gradientUnits="userSpaceOnUse"><stop offset="0" stop-color="#722d2c"/><stop offset="1" stop-color="#b33930"/></linearGradient><linearGradient id="linear-gradient-23" x1="-103.24" y1="-96.47" x2="-103.24" y2="25.05" xlink:href="#linear-gradient-22"/><linearGradient id="linear-gradient-24" x1="-93.36" y1="-97.16" x2="-93.36" y2="23.98" gradientTransform="translate(32.69 -6.66) rotate(-139.9) scale(0.99)" gradientUnits="userSpaceOnUse"><stop offset="0" stop-color="#762e2c"/><stop offset="1" stop-color="#b43a30"/></linearGradient><linearGradient id="linear-gradient-25" x1="-82.31" y1="-97.99" x2="-82.31" y2="22.76" gradientTransform="translate(41.11 1.2) rotate(-142.07) scale(0.98)" gradientUnits="userSpaceOnUse"><stop offset="0" stop-color="#7a2f2d"/><stop offset="1" stop-color="#b53a30"/></linearGradient><linearGradient id="linear-gradient-26" x1="-72.56" y1="-97.75" x2="-72.56" y2="22.61" gradientTransform="translate(47.47 8.61) rotate(-143.84) scale(0.97)" gradientUnits="userSpaceOnUse"><stop offset="0" stop-color="#7f302d"/><stop offset="1" stop-color="#b63b30"/></linearGradient><linearGradient id="linear-gradient-27" x1="-62.61" y1="-96.83" x2="-62.61" y2="23.15" gradientTransform="translate(53.82 16.02) rotate(-145.65) scale(0.96)" gradientUnits="userSpaceOnUse"><stop offset="0" stop-color="#83312d"/><stop offset="1" stop-color="#b83b30"/></linearGradient><linearGradient id="linear-gradient-28" x1="-51.47" y1="-95.06" x2="-51.47" y2="24.57" gradientTransform="matrix(-0.8, -0.51, 0.51, -0.8, 60.6, 24.24)" gradientUnits="userSpaceOnUse"><stop offset="0" stop-color="#87322d"/><stop offset="1" stop-color="#b93c30"/></linearGradient><linearGradient id="linear-gradient-29" x1="-41.16" y1="-92.15" x2="-41.16" y2="27.18" gradientTransform="translate(66.09 32.92) rotate(-149.66) scale(0.95)" gradientUnits="userSpaceOnUse"><stop offset="0" stop-color="#8b342e"/><stop offset="1" stop-color="#ba3c31"/></linearGradient><linearGradient id="linear-gradient-30" x1="-30.14" y1="-89.27" x2="-30.14" y2="29.82" gradientTransform="translate(73.68 40.24) rotate(-151.79) scale(0.94)" gradientUnits="userSpaceOnUse"><stop offset="0" stop-color="#90352e"/><stop offset="1" stop-color="#bb3d31"/></linearGradient><linearGradient id="linear-gradient-31" x1="-19.65" y1="-85.04" x2="-19.65" y2="33.89" gradientTransform="translate(79.83 48.8) rotate(-153.86) scale(0.94)" gradientUnits="userSpaceOnUse"><stop offset="0" stop-color="#94362e"/><stop offset="1" stop-color="#bc3d31"/></linearGradient><linearGradient id="linear-gradient-32" x1="-9.48" y1="-80.17" x2="-9.48" y2="38.68" gradientTransform="matrix(-0.86, -0.38, 0.38, -0.86, 86.15, 57.16)" gradientUnits="userSpaceOnUse"><stop offset="0" stop-color="#98372f"/><stop offset="1" stop-color="#bd3e31"/></linearGradient><linearGradient id="linear-gradient-33" x1="0.75" y1="-74.84" x2="0.75" y2="44.04" gradientTransform="translate(93.13 65.08) rotate(-158.09) scale(0.94)" gradientUnits="userSpaceOnUse"><stop offset="0" stop-color="#9c382f"/><stop offset="1" stop-color="#be3e31"/></linearGradient><linearGradient id="linear-gradient-34" x1="10.47" y1="-69.38" x2="10.47" y2="49.62" gradientTransform="translate(100.47 71.51) rotate(-160.11) scale(0.93)" gradientUnits="userSpaceOnUse"><stop offset="0" stop-color="#a1392f"/><stop offset="1" stop-color="#c03f31"/></linearGradient><linearGradient id="linear-gradient-35" x1="18.97" y1="-62.15" x2="18.97" y2="57.06" gradientTransform="translate(106.13 81.03) rotate(-162.19) scale(0.94)" gradientUnits="userSpaceOnUse"><stop offset="0" stop-color="#a53a2f"/><stop offset="1" stop-color="#c13f31"/></linearGradient><linearGradient id="linear-gradient-36" x1="27.67" y1="-55.14" x2="27.67" y2="64.36" gradientTransform="translate(113.05 88.54) rotate(-164.27) scale(0.94)" gradientUnits="userSpaceOnUse"><stop offset="0" stop-color="#a93b30"/><stop offset="1" stop-color="#c24031"/></linearGradient><linearGradient id="linear-gradient-37" x1="35.89" y1="-47.71" x2="35.89" y2="72.14" gradientTransform="translate(120.02 95.77) rotate(-166.33) scale(0.94)" gradientUnits="userSpaceOnUse"><stop offset="0" stop-color="#ad3c30"/><stop offset="1" stop-color="#c34031"/></linearGradient><linearGradient id="linear-gradient-38" x1="43.03" y1="-39.27" x2="43.03" y2="80.95" gradientTransform="translate(126.52 104.65) rotate(-168.45) scale(0.95)" gradientUnits="userSpaceOnUse"><stop offset="0" stop-color="#b23d30"/><stop offset="1" stop-color="#c44131"/></linearGradient><linearGradient id="linear-gradient-39" x1="49.93" y1="-31.15" x2="49.93" y2="89.45" gradientTransform="translate(133.35 111.46) rotate(-170.4) scale(0.95)" gradientUnits="userSpaceOnUse"><stop offset="0" stop-color="#b63f31"/><stop offset="1" stop-color="#c54132"/></linearGradient><linearGradient id="linear-gradient-40" x1="55.53" y1="-22.16" x2="55.53" y2="98.76" gradientTransform="translate(139.76 119.93) rotate(-172.39) scale(0.96)" gradientUnits="userSpaceOnUse"><stop offset="0" stop-color="#ba4031"/><stop offset="1" stop-color="#c64232"/></linearGradient><linearGradient id="linear-gradient-41" x1="60.53" y1="-12.99" x2="60.53" y2="108.18" gradientTransform="matrix(-0.97, -0.1, 0.1, -0.97, 146.28, 128.18)" gradientUnits="userSpaceOnUse"><stop offset="0" stop-color="#be4131"/><stop offset="1" stop-color="#c84232"/></linearGradient><linearGradient id="linear-gradient-42" x1="65.28" y1="-3.4" x2="65.28" y2="117.9" gradientTransform="matrix(-0.98, -0.06, 0.06, -0.98, 153.56, 136.81)" gradientUnits="userSpaceOnUse"><stop offset="0" stop-color="#c34231"/><stop offset="1" stop-color="#c94332"/></linearGradient><linearGradient id="linear-gradient-43" x1="68.67" y1="5.74" x2="68.67" y2="127.04" gradientTransform="translate(159.57 144.05) rotate(-178.16) scale(0.99)" gradientUnits="userSpaceOnUse"><stop offset="0" stop-color="#c74332"/><stop offset="1" stop-color="#ca4332"/></linearGradient><linearGradient id="linear-gradient-44" x1="-103.79" y1="-35.66" x2="-103.79" y2="4.92" gradientTransform="translate(27.08 -15.09) rotate(-138.12)" gradientUnits="userSpaceOnUse"><stop offset="0" stop-color="#f18062"/><stop offset="1" stop-color="#fff"/></linearGradient><linearGradient id="linear-gradient-45" x1="-212.49" y1="-35.84" x2="-152.32" y2="-23.05" gradientTransform="translate(27.08 -15.09) rotate(-138.12)" gradientUnits="userSpaceOnUse"><stop offset="0" stop-color="#ac3a31"/><stop offset="1" stop-color="#f48363"/></linearGradient><linearGradient id="linear-gradient-46" x1="-0.93" y1="-33.61" x2="-62.54" y2="-22.75" xlink:href="#linear-gradient-45"/><linearGradient id="linear-gradient-47" x1="-102.52" y1="-14.48" x2="-102.52" y2="-34.25" gradientTransform="translate(27.08 -15.09) rotate(-138.12)" gradientUnits="userSpaceOnUse"><stop offset="0" stop-color="#b53d31"/><stop offset="1" stop-color="#aa3730"/></linearGradient><linearGradient id="linear-gradient-49" x1="-121.44" y1="-17.89" x2="-121.44" y2="-28.02" gradientTransform="translate(27.08 -15.09) rotate(-138.12)" gradientUnits="userSpaceOnUse"><stop offset="0" stop-color="#d57a3f"/><stop offset="1" stop-color="#ef9449"/></linearGradient><linearGradient id="linear-gradient-50" x1="-103.67" y1="-40.49" x2="-104.26" y2="-6.79" gradientTransform="translate(27.08 -15.09) rotate(-138.12)" gradientUnits="userSpaceOnUse"><stop offset="0" stop-color="#e28062"/><stop offset="1" stop-color="#f5aa8c"/></linearGradient><linearGradient id="linear-gradient-51" x1="-103.93" y1="-40.15" x2="-103.93" y2="12.77" gradientTransform="translate(27.08 -15.09) rotate(-138.12)" gradientUnits="userSpaceOnUse"><stop offset="0" stop-color="#782d2c"/><stop offset="1" stop-color="#ba3d31"/></linearGradient><linearGradient id="linear-gradient-52" x1="-104.67" y1="-27.14" x2="-104.67" y2="-17.81" gradientTransform="translate(27.08 -15.09) rotate(-138.12)" gradientUnits="userSpaceOnUse"><stop offset="0" stop-color="#919292"/><stop offset="1" stop-color="#eaeaea"/></linearGradient><linearGradient id="linear-gradient-53" x1="-151.49" y1="-23.33" x2="-156.34" y2="-25.6" gradientTransform="translate(27.08 -15.09) rotate(-138.12)" gradientUnits="userSpaceOnUse"><stop offset="0" stop-color="#b0afb0"/><stop offset="1" stop-color="#7e8080"/></linearGradient><linearGradient id="linear-gradient-54" x1="-138.21" y1="-22.31" x2="-143.08" y2="-24.58" xlink:href="#linear-gradient-53"/><linearGradient id="linear-gradient-55" x1="-123.76" y1="-21.59" x2="-128.84" y2="-23.85" xlink:href="#linear-gradient-53"/><linearGradient id="linear-gradient-56" x1="-106.59" y1="-21.2" x2="-111.53" y2="-23.4" xlink:href="#linear-gradient-53"/><linearGradient id="linear-gradient-57" x1="-90.28" y1="-21.34" x2="-95.1" y2="-23.48" xlink:href="#linear-gradient-53"/><linearGradient id="linear-gradient-58" x1="-72.87" y1="-21.86" x2="-77.98" y2="-24.13" xlink:href="#linear-gradient-53"/><linearGradient id="linear-gradient-59" x1="-58.64" y1="-22.74" x2="-63.53" y2="-25.02" xlink:href="#linear-gradient-53"/><linearGradient id="linear-gradient-60" x1="-104.53" y1="-20.15" x2="-104.53" y2="-25.72" gradientTransform="translate(27.08 -15.09) rotate(-138.12)" gradientUnits="userSpaceOnUse"><stop offset="0" stop-color="#b0afb0"/><stop offset="1" stop-color="#fff"/></linearGradient><linearGradient id="linear-gradient-61" x1="-143.49" y1="-23.67" x2="-138.84" y2="-23.67" gradientTransform="translate(27.08 -15.09) rotate(-138.12)" gradientUnits="userSpaceOnUse"><stop offset="0" stop-color="#485051"/><stop offset="1" stop-color="#b0afb0"/></linearGradient><linearGradient id="linear-gradient-62" x1="-129.25" y1="-22.88" x2="-124.37" y2="-22.88" xlink:href="#linear-gradient-61"/><linearGradient id="linear-gradient-63" x1="-111.88" y1="-22.48" x2="-107.24" y2="-22.48" xlink:href="#linear-gradient-61"/><linearGradient id="linear-gradient-64" x1="-95.51" y1="-22.56" x2="-90.86" y2="-22.56" xlink:href="#linear-gradient-61"/><linearGradient id="linear-gradient-65" x1="-78.38" y1="-23.19" x2="-73.5" y2="-23.19" xlink:href="#linear-gradient-61"/><linearGradient id="linear-gradient-66" x1="-63.91" y1="-24.1" x2="-59.27" y2="-24.1" xlink:href="#linear-gradient-61"/><linearGradient id="linear-gradient-67" x1="-156.67" y1="-24.74" x2="-152.18" y2="-24.74" xlink:href="#linear-gradient-61"/><linearGradient id="linear-gradient-68" x1="-104.52" y1="-29.48" x2="-104.52" y2="-21.92" xlink:href="#linear-gradient-60"/><linearGradient id="linear-gradient-69" x1="-151.94" y1="-26.1" x2="-156.44" y2="-26.73" gradientTransform="translate(27.08 -15.09) rotate(-138.12)" gradientUnits="userSpaceOnUse"><stop offset="0" stop-color="#b5b6b8"/><stop offset="1" stop-color="#858788"/></linearGradient><linearGradient id="linear-gradient-70" x1="-138.61" y1="-25.21" x2="-143.29" y2="-25.78" xlink:href="#linear-gradient-69"/><linearGradient id="linear-gradient-71" x1="-124.1" y1="-24.52" x2="-129.13" y2="-25.14" xlink:href="#linear-gradient-69"/><linearGradient id="linear-gradient-72" x1="-106.98" y1="-24.16" x2="-111.81" y2="-24.76" xlink:href="#linear-gradient-69"/><linearGradient id="linear-gradient-73" x1="-90.63" y1="-24.24" x2="-95.47" y2="-24.84" xlink:href="#linear-gradient-69"/><linearGradient id="linear-gradient-74" x1="-73.3" y1="-24.78" x2="-78.34" y2="-25.4" xlink:href="#linear-gradient-69"/><linearGradient id="linear-gradient-75" x1="-59.15" y1="-25.56" x2="-63.85" y2="-26.22" xlink:href="#linear-gradient-69"/><linearGradient id="linear-gradient-76" x1="-156.61" y1="-23.83" x2="-47.52" y2="-23.83" gradientTransform="translate(27.08 -15.09) rotate(-138.12)" gradientUnits="userSpaceOnUse"><stop offset="0" stop-color="#919292"/><stop offset="0.43" stop-color="#a9aaab"/><stop offset="0.67" stop-color="#d8d7d7"/><stop offset="1" stop-color="#ddd"/></linearGradient><linearGradient id="linear-gradient-77" x1="-103.94" y1="-31.84" x2="-103.94" y2="-12.85" xlink:href="#linear-gradient-60"/><linearGradient id="linear-gradient-78" x1="-47.77" y1="-23.06" x2="-164.9" y2="-25.1" gradientTransform="translate(27.08 -15.09) rotate(-138.12)" gradientUnits="userSpaceOnUse"><stop offset="0" stop-color="#b0afb0"/><stop offset="1" stop-color="#ddd"/></linearGradient><radialGradient id="radial-gradient" cx="-161.91" cy="-33.32" r="52.51" gradientTransform="translate(27.08 -15.09) rotate(-138.12)" gradientUnits="userSpaceOnUse"><stop offset="0" stop-color="#b2b3b4"/><stop offset="0.67" stop-color="#b0b0b2"/><stop offset="0.77" stop-color="#d2d1d1"/><stop offset="1" stop-color="#f4f4f4"/></radialGradient><radialGradient id="radial-gradient-2" cx="-45.58" cy="-35.93" r="54.66" gradientTransform="translate(27.08 -15.09) rotate(-138.12)" gradientUnits="userSpaceOnUse"><stop offset="0" stop-color="#b2b3b4"/><stop offset="0.6" stop-color="#b0b0b2"/><stop offset="0.79" stop-color="#d2d1d1"/><stop offset="1" stop-color="#f4f4f4"/></radialGradient><radialGradient id="radial-gradient-3" cx="-161.97" cy="-22.65" r="43.85" gradientTransform="translate(27.08 -15.09) rotate(-138.12)" gradientUnits="userSpaceOnUse"><stop offset="0" stop-color="#f1f1f1"/><stop offset="0.61" stop-color="#c0c0c1"/><stop offset="0.78" stop-color="#f4f4f4"/><stop offset="1" stop-color="#f4f4f4"/></radialGradient><radialGradient id="radial-gradient-4" cx="-41.91" cy="-20.69" r="40" gradientTransform="translate(27.08 -15.09) rotate(-138.12)" gradientUnits="userSpaceOnUse"><stop offset="0" stop-color="#f1f1f1"/><stop offset="0.61" stop-color="#b0b0b2"/><stop offset="0.83" stop-color="#ececec"/><stop offset="1" stop-color="#f4f4f4"/></radialGradient><linearGradient id="linear-gradient-79" x1="-183.12" y1="-28" x2="-183.5" y2="-24.32" gradientTransform="translate(27.08 -15.09) rotate(-138.12)" gradientUnits="userSpaceOnUse"><stop offset="0" stop-color="#949394"/><stop offset="1" stop-color="#b0b0b2"/></linearGradient><linearGradient id="linear-gradient-80" x1="-24.99" y1="-28.88" x2="-22.54" y2="-22.15" xlink:href="#linear-gradient-79"/></defs><title>AmericanFootball</title><path class="cls-1" d="M4.35,12.36a1,1,0,0,1,.8-.59c2-.27,2.44-1.15,2.44-3.15a1,1,0,0,1,.49-.86C23.45-1.7,79.53-10.15,125.27,31s43.35,97.68,35.63,114a1,1,0,0,1-.8.58c-2,.27-2.75.48-2.75,2.48a1,1,0,0,1-.5.86c-15.4,9.38-72.11,18.3-117.4-22.22S-3.3,28.72,4.35,12.36Z" transform="translate(0 0.03)"/><path class="cls-2" d="M4.48,12.56a1,1,0,0,1,.8-.59c2-.31,2.43-1.19,2.5-3.19a1,1,0,0,1,.49-.86C23.65-1.54,79.44-9.81,125.09,31.2s43.39,97.27,35.65,113.57a1,1,0,0,1-.8.58c-2,.26-2.74.55-2.79,2.55a1,1,0,0,1-.5.86c-15.46,9.4-71.83,18.08-117-22.33S-3.17,28.92,4.48,12.56Z" transform="translate(0 0.03)"/><path class="cls-3" d="M4.64,12.77a1,1,0,0,1,.8-.59C7.39,11.84,7.9,10.95,8,8.95a1,1,0,0,1,.49-.86C23.85-1.36,79.38-9.44,124.9,31.45s43.37,96.84,35.65,113.12a1,1,0,0,1-.8.58c-2,.27-2.78.63-2.84,2.63a1,1,0,0,1-.5.86C141,158.07,84.91,166.5,39.86,126.2S-3,29.12,4.64,12.77Z" transform="translate(0 0.03)"/><path class="cls-4" d="M4.83,13a1.07,1.07,0,0,1,.8-.59c1.9-.39,2.48-1.28,2.61-3.28a1.06,1.06,0,0,1,.49-.86C24-1.24,79.34-9.09,124.73,31.69s43.4,96.41,35.63,112.71a1,1,0,0,1-.8.58c-2,.27-2.82.7-2.88,2.7a1,1,0,0,1-.5.86C140.76,158,85,166.16,40.06,126S-2.91,29.33,4.83,13Z" transform="translate(0 0.03)"/><path class="cls-5" d="M4.94,13.19a1.1,1.1,0,0,1,.8-.59c1.87-.42,2.51-1.39,2.67-3.32a1.08,1.08,0,0,1,.49-.86C24.27-1.09,79.29-8.78,124.56,31.93s43.41,96,35.63,112.28a1,1,0,0,1-.8.58c-2,.28-2.86.78-2.92,2.78a1,1,0,0,1-.5.86c-15.42,9.44-70.89,17.4-115.7-22.69S-2.73,29.53,4.94,13.19Z" transform="translate(0 0.03)"/><path class="cls-6" d="M5.08,13.39a1.13,1.13,0,0,1,.8-.59c1.83-.45,2.54-1.45,2.73-3.36a1.1,1.1,0,0,1,.49-.86c15.34-9.52,70.15-17,115.29,23.6S167.8,127.74,160,144a1,1,0,0,1-.8.58c-2,.28-2.94.85-3,2.85a1,1,0,0,1-.5.86c-15.41,9.46-70.59,17.2-115.27-22.8S-2.64,29.74,5.08,13.39Z" transform="translate(0 0.03)"/><path class="cls-7" d="M5.19,13.61A1.16,1.16,0,0,1,6,13,3.47,3.47,0,0,0,8.77,9.61a1.12,1.12,0,0,1,.5-.86C24.64-.79,79.15-8,124.21,32.42s43.43,95.13,35.61,111.41a1,1,0,0,1-.8.59c-2,.28-2.93.93-3,2.93a1,1,0,0,1-.5.86c-15.4,9.43-70.25,16.94-114.84-22.92S-2.51,29.94,5.19,13.61Z" transform="translate(0 0.03)"/><path class="cls-8" d="M5.36,13.79a1.19,1.19,0,0,1,.8-.59A3.69,3.69,0,0,0,9,9.75a1.15,1.15,0,0,1,.5-.86C24.83-.66,79.14-7.72,124,32.64s43.44,94.73,35.57,111a1,1,0,0,1-.8.59c-2,.28-2.93,1-3,3a1,1,0,0,1-.5.86c-15.42,9.52-70,16.75-114.42-23S-2.38,30.14,5.36,13.79Z" transform="translate(0 0.03)"/><path class="cls-9" d="M5.51,14a1.22,1.22,0,0,1,.8-.59,3.94,3.94,0,0,0,2.9-3.49,1.17,1.17,0,0,1,.5-.86C25-.5,79.09-7.33,123.87,32.9s43.4,94.29,35.61,110.56a1,1,0,0,1-.8.59c-2,.29-3,1.08-3.09,3.08a1,1,0,0,1-.5.86c-15.4,9.5-69.68,16.48-114-23.16S-2.25,30.35,5.51,14Z" transform="translate(0 0.03)"/><path class="cls-10" d="M5.61,14.23a1.26,1.26,0,0,1,.8-.59,4.21,4.21,0,0,0,3-3.54,1.2,1.2,0,0,1,.5-.86C25.27-.36,79-6.93,123.67,33.19S167.12,127,159.26,143.31a1,1,0,0,1-.8.59c-2,.29-3.05,1.15-3.13,3.15a1,1,0,0,1-.5.86c-15.38,9.52-69.36,16.26-113.56-23.27S-2.12,30.55,5.61,14.23Z" transform="translate(0 0.03)"/><path class="cls-11" d="M5.82,14.42a1.29,1.29,0,0,1,.8-.59,4.52,4.52,0,0,0,3-3.58,1.22,1.22,0,0,1,.5-.86c15.31-9.58,68.88-16,113.41,24S167,126.82,159.12,143.08a1,1,0,0,1-.8.59c-2,.3-3.1,1.23-3.18,3.23a1,1,0,0,1-.5.86c-15.37,9.53-69.06,16-113.14-23.39S-2,30.75,5.82,14.42Z" transform="translate(0 0.03)"/><path class="cls-12" d="M6,14.65a1.34,1.34,0,0,1,.8-.59,4.86,4.86,0,0,0,3.07-3.63,1.25,1.25,0,0,1,.5-.86C25.63,0,79-6.25,123.36,33.64s43.46,93,35.58,109.26a1,1,0,0,1-.8.59c-2,.3-3.14,1.3-3.22,3.3a1,1,0,0,1-.5.86C139,157.19,85.71,163.46,41.71,124.14S-1.85,31,6,14.65Z" transform="translate(0 0.03)"/><path class="cls-13" d="M6.11,14.85a1.38,1.38,0,0,1,.8-.59A5.24,5.24,0,0,0,10,10.59a1.28,1.28,0,0,1,.5-.86C25.82.11,78.91-5.88,123.19,33.88s43.47,92.58,35.57,108.83a1,1,0,0,1-.8.59c-2,.3-3.17,1.38-3.26,3.38a1,1,0,0,1-.5.86c-15.36,9.55-68.45,15.58-112.28-23.63S-1.73,31.16,6.11,14.85Z" transform="translate(0 0.03)"/><path class="cls-14" d="M6.25,15.06a1.43,1.43,0,0,1,.8-.59,5.67,5.67,0,0,0,3.18-3.71,1.31,1.31,0,0,1,.5-.86C26,.26,78.86-5.55,123,34.12s43.48,92.15,35.56,108.36a1,1,0,0,1-.8.59,3.46,3.46,0,0,0-3.3,3.45,1,1,0,0,1-.5.86c-15.36,9.57-68.15,15.36-111.86-23.74S-1.59,31.37,6.25,15.06Z" transform="translate(0 0.03)"/><path class="cls-15" d="M6.4,15.23c.16-.32.49-.43.8-.59a6.15,6.15,0,0,0,3.24-3.75,1.34,1.34,0,0,1,.5-.86C26.22.38,78.82-5.26,122.85,34.33s43.49,91.76,35.56,108a1,1,0,0,1-.8.59,3.57,3.57,0,0,0-3.35,3.53,1,1,0,0,1-.5.86c-15.35,9.59-67.84,15.14-111.43-23.86S-1.46,31.57,6.4,15.23Z" transform="translate(0 0.03)"/><path class="cls-16" d="M6.54,15.51c.16-.32.49-.42.8-.59a6.71,6.71,0,0,0,3.29-3.8,1.38,1.38,0,0,1,.5-.86C26.41.64,78.75-4.78,122.67,34.64s43.5,91.27,35.55,107.53a1,1,0,0,1-.8.59,3.69,3.69,0,0,0-3.39,3.6,1,1,0,0,1-.5.86c-15.34,9.58-67.54,14.88-111-24S-1.32,31.77,6.54,15.51Z" transform="translate(0 0.03)"/><path class="cls-17" d="M6.69,15.69c.16-.33.49-.42.8-.6a7.34,7.34,0,0,0,3.35-3.84,1.42,1.42,0,0,1,.5-.86C26.61.71,78.73-4.49,122.5,34.85S166,125.73,158.07,142a1,1,0,0,1-.8.59,3.81,3.81,0,0,0-3.49,3.68,1,1,0,0,1-.51.86C138,156.7,86.08,161.76,42.74,123S-1.19,32,6.69,15.69Z" transform="translate(0 0.03)"/><path class="cls-18" d="M6.83,15.9c.16-.33.5-.41.8-.6A8.07,8.07,0,0,0,11,11.41a1.45,1.45,0,0,1,.5-.86C26.81.86,78.66-4.14,122.33,35.09s43.51,90.45,35.55,106.68a1.06,1.06,0,0,1-.8.59,3.93,3.93,0,0,0-3.47,3.75,1,1,0,0,1-.51.86c-15.33,9.67-66.93,14.45-110.16-24.21S-1.06,32.18,6.83,15.9Z" transform="translate(0 0.03)"/><path class="cls-19" d="M7,16.11c.16-.33.5-.41.8-.6a8.91,8.91,0,0,0,3.46-3.93c.12-.34.19-.67.5-.86C27,1,78.64-3.79,122.17,35.33s43.53,90,35.53,106.25a1.06,1.06,0,0,1-.8.59,4.05,4.05,0,0,0-3.52,3.83,1.06,1.06,0,0,1-.51.86c-15.32,9.67-66.62,14.22-109.72-24.33S-.93,32.38,7,16.11Z" transform="translate(0 0.03)"/><path class="cls-20" d="M7.17,16.35c.16-.33.5-.4.8-.6a9.91,9.91,0,0,0,3.52-4c.13-.34.19-.67.5-.86C27.21,1.17,78.57-3.43,122,35.58s43.53,89.6,35.54,105.82a1.06,1.06,0,0,1-.8.59,4.18,4.18,0,0,0-3.56,3.9,1.06,1.06,0,0,1-.51.86c-15.3,9.65-66.3,14-109.3-24.45S-.8,32.59,7.17,16.35Z" transform="translate(0 0.03)"/><path class="cls-21" d="M7.28,16.49c.16-.33.51-.39.8-.6a11.1,11.1,0,0,0,3.58-4c.14-.34.19-.67.5-.86C27.41,1.3,78.53-3.1,121.82,35.8S165.34,125,157.34,141.19a1.07,1.07,0,0,1-.8.59,4.3,4.3,0,0,0-3.6,4,1.06,1.06,0,0,1-.51.86c-15.31,9.67-66,13.76-108.87-24.57S-.66,32.79,7.28,16.49Z" transform="translate(0 0.03)"/><path class="cls-22" d="M7.47,16.73c.16-.33.51-.38.8-.6a12.54,12.54,0,0,0,3.59-4.07c.14-.33.19-.67.5-.86,15.29-9.75,66.12-14,109.29,24.85s43.51,88.79,35.51,105a1.07,1.07,0,0,1-.8.59,4.44,4.44,0,0,0-3.63,4,1.07,1.07,0,0,1-.51.86c-15.31,9.69-65.72,13.54-108.45-24.68S-.53,33,7.47,16.73Z" transform="translate(0 0.03)"/><path class="cls-23" d="M152.92,141.43c-13.65,15.26-71.47,15-109.58-19.19S-1.81,29.55,12,14.14,82.44.9,120.55,35.06,166.57,126.17,152.92,141.43Z" transform="translate(0 0.03)"/><path class="cls-24" d="M152.87,140.72c-13.51,15.06-70.49,14.39-108.27-19.5s-45-91.63-31.41-106.8,69.65-12.89,107.43,21S166.38,125.66,152.87,140.72Z" transform="translate(0 0.03)"/><path class="cls-25" d="M152.85,140c-13.36,14.87-69.51,13.88-107-19.72S.91,29.78,14.36,14.78s68.88-12.61,106.32,21S166.21,125.12,152.85,140Z" transform="translate(0 0.03)"/><path class="cls-26" d="M152.76,139.33C139.6,154,84.21,152.66,47.1,119.33S2.25,30,15.53,15.14s68.11-12.33,105.22,21S165.92,124.67,152.76,139.33Z" transform="translate(0 0.03)"/><path class="cls-27" d="M152.7,138.58c-13,14.47-67.57,12.8-104.35-20.25S3.59,30,16.7,15.44,84,3.45,120.81,36.5,165.68,124.11,152.7,138.58Z" transform="translate(0 0.03)"/><path class="cls-28" d="M152.6,137.86c-12.76,14.28-66.55,12.27-103-20.51S4.95,30.17,17.87,15.76s66.56-11.67,103,21.1S165.36,123.58,152.6,137.86Z" transform="translate(0 0.03)"/><path class="cls-29" d="M152.59,137.15C140,151.23,87,148.87,50.86,116.38S6.31,30.31,19,16.1,84.83,4.73,120.94,37.22,165.21,123.07,152.59,137.15Z" transform="translate(0 0.03)"/><path class="cls-30" d="M152.58,136.42c-12.42,13.92-64.64,11.23-100.42-21s-44.4-85-31.89-99S85.27,5.37,121,37.58,165,122.5,152.58,136.42Z" transform="translate(0 0.03)"/><path class="cls-31" d="M152.51,135.72c-12.26,13.7-63.63,10.64-99.11-21.3S9,30.54,21.4,16.74,85.62,6,121.07,37.94,164.77,122,152.51,135.72Z" transform="translate(0 0.03)"/><path class="cls-32" d="M152.37,135c-12.08,13.44-62.74,10.1-97.8-21.56s-44.2-82.76-32-96.38S86,6.64,121.13,38.3,164.45,121.58,152.37,135Z" transform="translate(0 0.03)"/><path class="cls-33" d="M152.36,134.28c-11.91,13.28-61.72,9.55-96.5-21.83S11.7,30.79,23.73,17.38,86.41,7.26,121.19,38.64,164.27,121,152.36,134.28Z" transform="translate(0 0.03)"/><path class="cls-34" d="M152.27,133.64c-11.7,13-60.69,8.95-95.14-22.15S13.07,30.93,24.92,17.72s61.9-9.8,96.35,21.3S164,120.64,152.27,133.64Z" transform="translate(0 0.03)"/><path class="cls-35" d="M152.27,132.88c-11.58,12.89-59.8,8.48-93.9-22.35s-44-79.47-32.29-92.48,61.13-9.49,95.24,21.33S163.85,120,152.27,132.88Z" transform="translate(0 0.03)"/><path class="cls-36" d="M152.21,132.17c-11.38,12.69-58.79,7.93-92.57-22.62S15.8,31.19,27.27,18.38,87.61,9.2,121.39,39.74,163.59,119.48,152.21,132.17Z" transform="translate(0 0.03)"/><path class="cls-37" d="M152.16,131.45c-11.2,12.49-57.81,7.39-91.26-22.88S17.16,31.3,28.45,18.7s59.55-8.87,93,21.4S163.36,119,152.16,131.45Z" transform="translate(0 0.03)"/><path class="cls-38" d="M152.13,130.78c-11.07,12.3-56.88,6.86-90-23.14S18.47,31.44,29.6,19s58.8-8.57,91.91,21.43S163.2,118.48,152.13,130.78Z" transform="translate(0 0.03)"/><path class="cls-39" d="M152,130c-10.84,12.1-55.85,6.31-88.64-23.4s-43.55-75-32.61-87.26,58-8.25,90.8,21.46S162.87,117.92,152,130Z" transform="translate(0 0.03)"/><path class="cls-40" d="M152,129.31c-10.7,11.9-54.88,5.81-87.33-23.67s-43.46-74-32.69-86,57.24-7.89,89.69,21.54S162.67,117.41,152,129.31Z" transform="translate(0 0.03)"/><path class="cls-41" d="M151.89,128.6c-10.46,11.7-53.88,5.23-86-23.93S22.53,31.82,33.12,20s56.47-7.63,88.59,21.53S162.35,116.9,151.89,128.6Z" transform="translate(0 0.03)"/><path class="cls-42" d="M151.83,127.88c-10.32,11.51-52.94,4.68-84.72-24.19S23.84,32,34.27,20.34,90,13,121.77,41.9,162.15,116.37,151.83,127.88Z" transform="translate(0 0.03)"/><path class="cls-43" d="M151.8,127.17c-10.14,11.3-52,4.14-83.41-24.46S25.24,32.06,35.47,20.66s54.92-7,86.37,21.6S161.94,115.87,151.8,127.17Z" transform="translate(0 0.03)"/><path class="cls-44" d="M151.74,126.48c-10,11.11-51,3.6-82.1-24.72S26.59,32.22,36.64,21s54.14-6.69,85.26,21.63S161.7,115.37,151.74,126.48Z" transform="translate(0 0.03)"/><path class="cls-45" d="M151.47,125.56c-9.76,10.88-50.21,3.28-81-24.75S27.7,32.18,37.54,21.2s53.29-6.27,84.09,21.73S161.23,114.68,151.47,125.56Z" transform="translate(0 0.03)"/><path class="cls-46" d="M151.19,124.64c-9.54,10.66-49.48,3-79.92-24.76S28.81,32.16,38.44,21.4s52.44-5.89,82.92,21.83S160.73,114,151.19,124.64Z" transform="translate(0 0.03)"/><path class="cls-47" d="M150.9,123.79C141.57,134.2,102.28,126.4,72.13,99S29.92,32.18,39.34,21.64s51.59-5.53,81.74,21.9S160.23,113.38,150.9,123.79Z" transform="translate(0 0.03)"/><path class="cls-48" d="M150.62,122.88C141.5,133,102.8,125.17,73,98S31,32.14,40.24,21.84s50.73-5.14,80.57,22S159.74,112.73,150.62,122.88Z" transform="translate(0 0.03)"/><path class="cls-49" d="M150.35,121.95c-8.91,10-47,2-76.55-24.88S32.16,32.06,41.15,22,91,17.31,120.54,44.15,159.26,112,150.35,121.95Z" transform="translate(0 0.03)"/><path class="cls-50" d="M150.07,121.06c-8.7,9.71-46.24,1.58-75.44-24.92S33.26,32,42,22.22s49-4.32,78.22,22.23S158.77,111.35,150.07,121.06Z" transform="translate(0 0.03)"/><path class="cls-51" d="M149.8,120.16c-8.53,9.48-45.41,1.3-74.29-24.95S34.47,32,43,22.43s48.12-3.92,77,22.33S158.33,110.68,149.8,120.16Z" transform="translate(0 0.03)"/><path class="cls-52" d="M149.5,119.27c-8.29,9.23-44.7.95-73.23-25S35.5,32,43.86,22.64s47.31-3.57,75.87,22.43S157.79,110,149.5,119.27Z" transform="translate(0 0.03)"/><path class="cls-53" d="M149.24,118.34c-8.12,9-43.89.7-72.12-25S36.6,31.93,44.75,22.84s46.46-3.13,74.7,22.53S157.36,109.34,149.24,118.34Z" transform="translate(0 0.03)"/><path class="cls-54" d="M149,117.45c-7.86,8.77-43.08.31-71-25S37.72,31.89,45.66,23s45.61-2.73,73.52,22.6S156.82,108.68,149,117.45Z" transform="translate(0 0.03)"/><path class="cls-55" d="M148.69,116.55c-7.66,8.54-42.3,0-69.9-25.08S38.85,31.86,46.56,23.25,91.27,20.91,118.91,46,156.35,108,148.69,116.55Z" transform="translate(0 0.03)"/><path class="cls-56" d="M148.41,115.64c-7.45,8.32-41.51-.32-68.79-25.1S39.94,31.85,47.46,23.46s43.9-1.94,71.18,22.83S155.86,107.32,148.41,115.64Z" transform="translate(0 0.03)"/><path class="cls-57" d="M148.13,114.79c-7.24,8.07-40.72-.64-67.68-25.15S41.07,31.86,48.37,23.71s43-1.54,70,22.93S155.37,106.72,148.13,114.79Z" transform="translate(0 0.03)"/><path class="cls-58" d="M147.84,113.82c-7,7.82-39.94-1-66.57-25.18s-39.09-56.79-32-64.74,42.19-1.18,68.83,23S154.87,106,147.84,113.82Z" transform="translate(0 0.03)"/><path class="cls-59" d="M147.57,112.95c-6.82,7.61-39.14-1.34-65.46-25.22s-38.84-56-31.95-63.66,41.34-.75,67.66,23.13S154.39,105.34,147.57,112.95Z" transform="translate(0 0.03)"/><path class="cls-60" d="M147.27,112.05c-6.59,7.37-38.32-1.65-64.32-25.24S44.4,31.72,51.07,24.28s40.48-.36,66.48,23.23S153.86,104.68,147.27,112.05Z" transform="translate(0 0.03)"/><path class="cls-61" d="M147,111.15c-6.4,7.14-37.56-2-63.24-25.28S45.5,31.69,52,24.48s39.63,0,65.31,23.33S153.41,104,147,111.15Z" transform="translate(0 0.03)"/><path class="cls-62" d="M146.74,110.25c-6.19,6.9-36.79-2.33-62.13-25.32s-38-53.27-31.74-60.24,38.78.43,64.14,23.43S152.93,103.35,146.74,110.25Z" transform="translate(0 0.03)"/><path class="cls-63" d="M146.41,109.35c-6,6.65-36-2.65-61-25.35S47.66,31.63,53.74,24.89s38,.83,63,23.53S152.41,102.7,146.41,109.35Z" transform="translate(0 0.03)"/><path class="cls-64" d="M146.18,108.44c-5.77,6.44-35.19-3-59.91-25.38S48.89,31.6,54.68,25.1s37.07,1.23,61.79,23.63S151.95,102,146.18,108.44Z" transform="translate(0 0.03)"/><path class="cls-65" d="M145.89,107.54c-5.56,6.21-34.41-3.3-58.8-25.41S49.95,31.57,55.57,25.3,91.79,26.92,116.19,49,151.45,101.33,145.89,107.54Z" transform="translate(0 0.03)"/><path class="cls-66" d="M129.81,107.85a375.79,375.79,0,0,1,30.13,37.71,4.6,4.6,0,0,0-1.88.5,366.41,366.41,0,0,0-29.42-36.74Z" transform="translate(0 0.03)"/><path class="cls-66" d="M48.09,36.9A368.29,368.29,0,0,0,7.17,10.81a3.76,3.76,0,0,0,.45-1.93A374.91,374.91,0,0,1,49.27,35.42Z" transform="translate(0 0.03)"/><path class="cls-67" d="M158.08,146.2c-.64.27-.94.77-1,1.89C141,124.86,116.82,98.58,87.86,72.64S30.11,25.49,5.27,12A2.11,2.11,0,0,0,7,10.78C31.87,24.4,60.43,45.51,89.13,71.24S141.88,123,158.08,146.2Z" transform="translate(0 0.03)"/><path class="cls-68" d="M128.71,109.13a379.27,379.27,0,0,1,29.64,36.72c-.64.27-.94.77-1,1.89a371.94,371.94,0,0,0-29.8-37.1Z" transform="translate(0 0.03)"/><path class="cls-69" d="M46.94,38.25A374.55,374.55,0,0,0,5.48,11.7a2.11,2.11,0,0,0,1.79-1.22,381.5,381.5,0,0,1,40.9,26.27Z" transform="translate(0 0.03)"/><path class="cls-70" d="M118.72,111.17l2.6-2.64q-3-3.19-6-6.36l-2.69,2.76,0,0a1,1,0,0,1-1.41,0l-1.69-1.63,0,0a1,1,0,0,1-.06-1.41L112.14,99q-3.34-3.39-6.79-6.77L102.79,95a1.08,1.08,0,0,1-1.52,0l-1.76-1.69a1.08,1.08,0,0,1-.11-1.52L102,88.94q-4.41-4.27-9-8.49L90.74,83l-.06.06A1,1,0,0,1,89.27,83l-1.88-1.62-.07-.06a1,1,0,0,1-.05-1.41l2.34-2.54-2.16-1.95q-3.25-2.91-6.51-5.74l-2.2,2.56-.06.06a1,1,0,0,1-1.41-.06l-1.83-1.56-.11-.09a1,1,0,0,1-.06-1.41l2.21-2.5q-4.75-4-9.51-7.91l-2.36,2.69a1.08,1.08,0,0,1-1.52.06l-1.9-1.63A1.08,1.08,0,0,1,62,58.34l2.26-2.63q-3.77-3-7.54-5.93l-2.31,2.76,0,0a1,1,0,0,1-1.41.06l-1.8-1.5h0A1,1,0,0,1,51,49.7l2.19-2.62q-3.45-2.61-6.9-5.14l-2,2.47a1,1,0,0,1-1.36.09l-1.74-1.41A1,1,0,0,1,41,41.74L49.78,31a1,1,0,0,1,1.36-.09l1.74,1.41a1,1,0,0,1,.19,1.35l-3.85,4.78,1.6-1.78q3.45,2.51,6.89,5.15l2.69-3.21,0,0a1,1,0,0,1,1.41-.06l1.8,1.5h0a1,1,0,0,1,.16,1.41l-2.56,3.06,7.62,6,3.3-3.84a1.08,1.08,0,0,1,1.52-.14l1.9,1.63a1.08,1.08,0,0,1,.17,1.51l-3.2,3.72q4.81,3.92,9.59,8l3.1-3.5.06-.06a1,1,0,0,1,1.41.06l1.81,1.6.06,0a1,1,0,0,1,.08,1.41l-3.06,3.42q3.28,2.85,6.54,5.77l2.2,2,3.06-3.37.06-.06a1,1,0,0,1,1.41.06l1.79,1.63.07.06a1,1,0,0,1,.05,1.41l-3.07,3.42q4.62,4.26,9.08,8.57L110,80.41a1.08,1.08,0,0,1,1.52,0l1.83,1.71a1.08,1.08,0,0,1,.11,1.52l-3.26,3.47Q113.66,90.53,117,94l2.5-2.6,0,0a1,1,0,0,1,1.41,0L122.65,93l0,0a1,1,0,0,1,.06,1.41l-2.6,2.71q3.1,3.22,6.1,6.45l2.26-2.3a1,1,0,0,1,1.36,0l1.59,1.57a1,1,0,0,1,.06,1.36l-9.75,9.88a1,1,0,0,1-1.36,0l-1.59-1.57A1,1,0,0,1,118.72,111.17Z" transform="translate(0 0.03)"/><path class="cls-70" d="M118.72,111.17l2.6-2.64q-3-3.19-6-6.36l-2.69,2.76,0,0a1,1,0,0,1-1.41,0l-1.69-1.63,0,0a1,1,0,0,1-.06-1.41L112.14,99q-3.34-3.39-6.79-6.77L102.79,95a1.08,1.08,0,0,1-1.52,0l-1.76-1.69a1.08,1.08,0,0,1-.11-1.52L102,88.94q-4.41-4.27-9-8.49L90.74,83l-.06.06A1,1,0,0,1,89.27,83l-1.88-1.62-.07-.06a1,1,0,0,1-.05-1.41l2.34-2.54-2.16-1.95q-3.25-2.91-6.51-5.74l-2.2,2.56-.06.06a1,1,0,0,1-1.41-.06l-1.83-1.56-.11-.09a1,1,0,0,1-.06-1.41l2.21-2.5q-4.75-4-9.51-7.91l-2.36,2.69a1.08,1.08,0,0,1-1.52.06l-1.9-1.63A1.08,1.08,0,0,1,62,58.34l2.26-2.63q-3.77-3-7.54-5.93l-2.31,2.76,0,0a1,1,0,0,1-1.41.06l-1.8-1.5h0A1,1,0,0,1,51,49.7l2.19-2.62q-3.45-2.61-6.9-5.14l-2,2.47a1,1,0,0,1-1.36.09l-1.74-1.41A1,1,0,0,1,41,41.74L49.78,31a1,1,0,0,1,1.36-.09l1.74,1.41a1,1,0,0,1,.19,1.35l-3.85,4.78,1.6-1.78q3.45,2.51,6.89,5.15l2.69-3.21,0,0a1,1,0,0,1,1.41-.06l1.8,1.5h0a1,1,0,0,1,.16,1.41l-2.56,3.06,7.62,6,3.3-3.84a1.08,1.08,0,0,1,1.52-.14l1.9,1.63a1.08,1.08,0,0,1,.17,1.51l-3.2,3.72q4.81,3.92,9.59,8l3.1-3.5.06-.06a1,1,0,0,1,1.41.06l1.81,1.6.06,0a1,1,0,0,1,.08,1.41l-3.06,3.42q3.28,2.85,6.54,5.77l2.2,2,3.06-3.37.06-.06a1,1,0,0,1,1.41.06l1.79,1.63.07.06a1,1,0,0,1,.05,1.41l-3.07,3.42q4.62,4.26,9.08,8.57L110,80.41a1.08,1.08,0,0,1,1.52,0l1.83,1.71a1.08,1.08,0,0,1,.11,1.52l-3.26,3.47Q113.66,90.53,117,94l2.5-2.6,0,0a1,1,0,0,1,1.41,0L122.65,93l0,0a1,1,0,0,1,.06,1.41l-2.6,2.71q3.1,3.22,6.1,6.45l2.26-2.3a1,1,0,0,1,1.36,0l1.59,1.57a1,1,0,0,1,.06,1.36l-9.75,9.88a1,1,0,0,1-1.36,0l-1.59-1.57A1,1,0,0,1,118.72,111.17Z" transform="translate(0 0.03)"/><path class="cls-71" d="M125.25,105.22q-1.7-.39-3.48-.93c-9.92-10.54-20.87-21.23-32.66-31.8q-4.47-4-8.94-7.85-.69-1.78-1.24-3.54,5.72,4.87,11.45,10C103,82.45,114.73,93.94,125.25,105.22Z" transform="translate(0 0.03)"/><path class="cls-72" d="M42.33,28.41h0c-1-.69,4-5.05,13.41-2C69.26,30.9,75.36,42.19,86.46,49.3a100.12,100.12,0,0,1,25.1,22.55C119.64,82,132,87.42,137.78,99.62c4.2,9,.22,14.36-.59,13.45C101.52,74.51,84.62,59.47,42.33,28.41Zm89.06,91c-34.24-36.62-55-54.6-94.77-84.74h0c-.93-.72-4.79,4.26.54,12.19,7.44,11.08,20.78,15,29.36,24.31A151.13,151.13,0,0,0,91.7,93.64c10.37,7.48,16,20.26,27.44,26.4,8.49,4.63,13,.19,12.25-.63ZM36.53,35.31c39.37,29.91,60.22,48,94.17,84.23-.78.86-4.25,3.86-11.43-.14-11.38-6.09-17-18.84-27.24-26.31A150.82,150.82,0,0,1,67,70.8c-8.56-9.3-21.85-13.15-29.25-24.15-4.65-6.79-2-10.47-1.24-11.33Zm100.8,77c.78-.87,3.53-4.68-.13-12.56-5.68-12.09-18.13-17.56-26.13-27.56A100.3,100.3,0,0,0,86.16,49.83C75.13,42.75,68.95,31.44,55.64,27c-8.32-2.74-11.81.32-12.59,1.17C85.21,59.15,101.79,73.91,137.33,112.34Z" transform="translate(0 0.03)"/><path class="cls-73" d="M137.48,112.74c-35.67-38.56-52.57-53.6-94.86-84.66h0c-1-.69,4-5.05,13.41-2C69.55,30.57,75.65,41.86,86.75,49a100.13,100.13,0,0,1,25.1,22.55c8.08,10.12,20.49,15.58,26.22,27.78,4.2,9,.22,14.36-.59,13.45Zm-5.8,6.34c-34.24-36.62-55-54.6-94.77-84.74h0c-.93-.72-4.79,4.26.54,12.19,7.44,11.11,20.82,15,29.36,24.31A151.13,151.13,0,0,0,92,93.3c10.37,7.51,16,20.29,27.44,26.42,8.49,4.63,13,.19,12.25-.63ZM36.79,35C76.16,64.9,97,83,131,119.22c-.78.86-4.25,3.86-11.43-.14-11.39-6.09-17-18.84-27.26-26.32A150.83,150.83,0,0,1,67.32,70.48c-8.56-9.3-21.85-13.15-29.25-24.15-4.65-6.79-2-10.47-1.24-11.33Zm100.83,77c.78-.87,3.53-4.67-.13-12.55-5.68-12.09-18.13-17.56-26.13-27.56A100.32,100.32,0,0,0,86.44,49.5c-11-7.07-17.17-18.39-30.51-22.78C47.61,24,44.12,27,43.34,27.89,85.5,58.82,102.08,73.64,137.62,112Z" transform="translate(0 0.03)"/><path class="cls-74" d="M50.24,34.71C64.35,45,78.43,56.46,92.35,68.91A541.72,541.72,0,0,1,130.91,107l-4.64,5.18Q108.57,93,87.64,74.16c-13.92-12.52-28-23.93-42.06-34.25Z" transform="translate(0 0.03)"/><path class="cls-75" d="M126.57,102.36l2.9,3.13-4.88,4.94-2.92-3.12Z" transform="translate(0 0.03)"/><path class="cls-76" d="M117.27,92.64l3.1,3.26-4.84,5-3.14-3.2Z" transform="translate(0 0.03)"/><path class="cls-77" d="M106.84,82.41l3.43,3.33-4.76,5.14-3.43-3.33Z" transform="translate(0 0.03)"/><path class="cls-78" d="M94.27,70.64l3.43,3.13L93,79l-3.41-3.11Z" transform="translate(0 0.03)"/><path class="cls-79" d="M81.93,59.81l3.5,3-4.67,5.28-3.49-3Z" transform="translate(0 0.03)"/><path class="cls-80" d="M68.55,48.74l3.72,3L67.7,57.06l-3.72-3Z" transform="translate(0 0.03)"/><path class="cls-81" d="M57.27,40l3.59,2.68L56.37,48l-3.56-2.73Z" transform="translate(0 0.03)"/><path class="cls-82" d="M49.35,35.3A546.47,546.47,0,0,1,130,107.64l-3.05,3.82A560.32,560.32,0,0,0,46.27,39.14Z" transform="translate(0 0.03)"/><path class="cls-83" d="M116.53,93.42l3.13,3.22-3.39,3.51-3.15-3.2Z" transform="translate(0 0.03)"/><path class="cls-84" d="M106.23,83.14l3.42,3.34-3.38,3.62-3.46-3.33Z" transform="translate(0 0.03)"/><path class="cls-85" d="M93.63,71.39,97,74.5l-3.35,3.69-3.41-3.11Z" transform="translate(0 0.03)"/><path class="cls-86" d="M81.31,60.55l3.5,3L81.5,67.29l-3.5-3Z" transform="translate(0 0.03)"/><path class="cls-87" d="M67.91,49.48l3.72,3-3.25,3.78-3.72-3Z" transform="translate(0 0.03)"/><path class="cls-88" d="M56.7,40.71l3.57,2.73L57,47.26l-3.56-2.73Z" transform="translate(0 0.03)"/><path class="cls-89" d="M125.79,103.11l2.9,3.13-3.42,3.46-2.87-3.12Z" transform="translate(0 0.03)"/><path class="cls-90" d="M47.14,37.74a629.17,629.17,0,0,1,80.65,72.34l-.85,1.38A645,645,0,0,0,46.27,39.14Z" transform="translate(0 0.03)"/><path class="cls-91" d="M123.45,105.55l2.94,3.09-1.12,1.08-2.93-3.08Z" transform="translate(0 0.03)"/><path class="cls-92" d="M114.11,95.93l3.16,3.19-1.13,1.16L113,97.1Z" transform="translate(0 0.03)"/><path class="cls-93" d="M103.73,85.78l3.44,3.32L106,90.3,102.6,87Z" transform="translate(0 0.03)"/><path class="cls-94" d="M91.16,74.1l3.41,3.11-1.12,1.23L90,75.33Z" transform="translate(0 0.03)"/><path class="cls-95" d="M78.9,63.29l3.49,3-1.11,1.25-3.49-3Z" transform="translate(0 0.03)"/><path class="cls-96" d="M65.57,52.2l3.7,3-1.06,1.24-3.7-3Z" transform="translate(0 0.03)"/><path class="cls-97" d="M54.47,43.38,58,46.14l-1.07,1.27-3.53-2.77Z" transform="translate(0 0.03)"/><path class="cls-98" d="M131.81,102.36l-.17-.09-.18-.06h-.51l-.16.08-.15.12-9.76,9.87-.12.15-.08.17v.56l.06.18.1.17.13.16-1.08-1.13-.13-.15-.09-.17-.06-.18v-.53l.08-.16.11-.14,9.47-9.57.1-.1.16-.08h.53l.18.06.17.09,1.41.79Zm-21.34-.27.31-.32.31-.32.31-.32.31-.32.31-.32.31-.32.31-.32.31-.32.31-.32.31-.32.31-.32.31-.32.31-.32.31-.32.31-.32.31-.32.31-.32.31-.32.31-.32.31-.32.31-.32.31-.32.31-.32.31-.32.31-.32.31-.32.31-.32.31-.32.31-.32.31-.32.31-.32.31-.32.15-.12.17-.09h.7l1.13.46-.19-.06H122l-.19.05-.17.09-.15.13-.32.33-.26.35-.32.33-.32.33-.32.33-.32.33-.32.33-.36.34-.32.33-.32.33-.22.31-.32.33-.32.33-.32.33-.32.33-.32.33-.32.33-.32.33-.32.33-.32.33-.32.33-.32.33-.32.33-.32.33-.32.33-.32.33-.32.33-.32.33-.32.33-.32.33-.32.33-.32.33-.12.16-.08.18v.57l.07.19.11.18.14.16-.8-.85-.14-.16-.1-.17-.07-.19v-.56l.08-.17.12-.15ZM100.67,92l.32-.34.32-.34.32-.34.32-.34.32-.34.32-.34.32-.34.32-.34.32-.34.32-.34.32-.34.32-.34.32-.34.32-.34.32-.34.32-.34.32-.34.32-.35.32-.34.32-.35.32-.34.32-.35.32-.34.32-.34.32-.34.32-.34.32-.34.32-.34.32-.34.32-.34.32-.34.32-.34L111,81l.08-.06.09-.05h.68l.83.14h-.71l-.09.05-.08.06-.08.07-.33.35-.33.36-.33.36-.33.36-.34.29-.33.35-.33.36L109,84l-.33.36-.33.35-.33.35-.33.35-.33.36-.33.36-.33.35-.33.35-.33.36-.33.35-.33.36-.33.35-.33.35-.34.39-.33.36-.33.35-.33.35-.33.35-.33.36-.33.35-.33.36-.33.35-.33.35-.33.35-.13.17-.08.19v.62l.08.2.11.19.15.17-.49-.54-.15-.17-.11-.18-.07-.2v-.6l.08-.18.12-.16Zm-12-11.66L89,80l.31-.34.21-.22.31-.34.31-.34.31-.34.31-.34.31-.34.31-.34.31-.34L92,76.7l.31-.34.31-.34.31-.34.31-.34.31-.34.31-.34.31-.34.31-.34.31-.34.31-.34.31-.34.31-.34.31-.34.31-.34.31-.34.31-.34.31-.34.31-.34.31-.34.31-.34.31-.34.15-.13.17-.09.43-.21-.17.1-.15.13-.32.35-.31.35-.36.34-.32.35-.32.35-.27.34-.32.35-.32.35-.31.35-.32.35-.31.35-.32.35-.31.35-.32.35-.31.35-.32.35-.32.35-.32.35-.3.3-.31.35-.32.35-.36.35-.32.35-.32.35L91,78l-.32.35-.32.35-.32.35-.32.35-.31.35-.32.35-.32.35-.12.16-.08.19v.59l.08.19.11.18-.12-.17-.11-.18-.07-.19v-.57l.08-.18.12-.16ZM89.77,61.8l-.3.34-.3.34-.3.34-.3.34-.3.34-.3.34-.3.34-.3.34-.3.34-.3.34-.3.34-.3.34-.3.34-.3.34-.3.34-.3.34-.3.34-.3.34-.3.34-.3.34-.3.34-.3.34-.3.34-.3.34-.3.34-.3.34-.3.36-.3.34-.3.34-.3.34-.3.34-.3.34-.15.13-.17.1-.18.06h-.39l-.2-.05-.19-.09-.19-.1.19.09.2.05h.4l.19-.06.17-.1.15-.14.31-.35.31-.35.31-.35.31-.35.31-.35.31-.35.31-.35.31-.35.31-.35.31-.35.31-.35.31-.35L84,68l.31-.35.31-.35L85,67l.31-.35.34-.38.31-.35.31-.35.31-.35.31-.35.31-.35.31-.35.31-.35.31-.35.31-.35.31-.35.31-.35.31-.35.31-.35.31-.35.12-.17.08-.18-.16.45-.07.18-.11.17ZM77.06,50.67l-.31.36-.31.36-.31.36-.31.36-.31.36-.31.36-.31.36-.31.36-.31.36-.29.37-.31.36-.3.31-.31.36-.31.36-.31.36-.31.36-.31.36-.31.36-.31.36-.31.36-.31.36-.31.36-.28.37-.31.36-.31.36-.24.33-.31.36-.31.36L68.2,61l-.31.36-.31.36-.31.36-.31.21-.17.1-.19.06h-.4l-.2-.05-.2-.09-.18-.13L65,61.8l.19.13.2.09.21.05H66l.19-.06.18-.11.15-.14.32-.37.32-.37.32-.37.32-.37.32-.37.32-.37.32-.37.32-.37.32-.37.32-.37.32-.37.32-.37.32-.37.32-.37.32-.37.32-.37.32-.37.32-.37.32-.37.32-.37.32-.37.32-.37.32-.37.32-.37.32-.37.32-.37.32-.37.32-.37.32-.37.32-.37.32-.37.32-.37.06-.08.05-.09V49l.24.82v.78l-.05.09-.06,0ZM65.15,42.5l-.28.34-.28.34-.28.34-.28.34-.28.34-.28.34-.28.34-.28.34-.28.34-.28.34-.28.34-.28.34-.28.34-.28.34-.28.34-.28.34-.28.34-.28.34-.28.34-.28.34-.28.34-.31.31-.28.34-.28.34-.28.34-.28.34-.28.34-.28.34-.28.34-.28.34-.28.34-.28.34-.14.13-.16.1-.18.06h-.57l-.18-.08-.17-.12-.93-.7.18.12.19.08h.59l.18-.06.16-.1.14-.14.36-.4.29-.35.29-.35.29-.35.29-.35.29-.35.29-.35.29-.35.29-.35.29-.35.29-.35.29-.35.29-.35.29-.35.29-.35L60,47l.29-.35.33-.31.29-.35.29-.35.29-.35.29-.35.29-.35.29-.35.29-.35.29-.35.29-.35.29-.35.29-.35.29-.35.29-.35.29-.35.11-.16.07-.18v-.57l-.08-.19.61,1.07.08.18v.56l-.07.17-.11.16Zm-21.35,2,.18.08h.56l.17-.06.15-.1.13-.13,8.75-10.77.1-.16.06-.17v-.54l-.08-.17-.11-.16.94,1.31.11.16.08.17v.54l-.06.17-.1.15L46.19,45.31l-.13.13-.15.09-.17.06H45.2L45,45.51l-.16-.11-1.24-1Z" transform="translate(0 0.03)"/><path class="cls-99" d="M120.85,112.35l9.76-9.87a1,1,0,0,1,1.37.05l1.62,1.6a1,1,0,0,1,.07,1.37l-9.76,9.87a1,1,0,0,1-1.37-.05l-1.62-1.6A1,1,0,0,1,120.85,112.35ZM41.83,43a1,1,0,0,1-.2-1.36l8.76-10.79a1,1,0,0,1,1.37-.08l1.77,1.43a1,1,0,0,1,.2,1.36L45,44.33a1,1,0,0,1-1.37.08L41.84,43ZM52,51.16l0,0a1,1,0,0,1-.16-1.41l9.35-11.2,0,0a1,1,0,0,1,1.41,0L64.43,40l0,0a1,1,0,0,1,.16,1.41l-9.35,11.2a1,1,0,0,1-1.41.06L52,51.16ZM63.21,60h0A1.09,1.09,0,0,1,63,58.5L73.15,46.71a1.09,1.09,0,0,1,1.54,0l1.93,1.66h0a1.09,1.09,0,0,1,.19,1.53L66.68,61.74a1.09,1.09,0,0,1-1.54,0l-1.93-1.66ZM76.69,71a1.06,1.06,0,0,1-.16-1.48l9.94-11.24a1.06,1.06,0,0,1,1.49,0l1.84,1.63A1.06,1.06,0,0,1,90,61.37L80,72.64a1.06,1.06,0,0,1-1.49,0L76.69,71Zm12.22,11a1.06,1.06,0,0,1-.14-1.48l10.1-11.1a1.06,1.06,0,0,1,1.49,0L102.18,71a1.06,1.06,0,0,1,.14,1.48l-10,11.14,0,0a1.06,1.06,0,0,1-1.5,0l-1.82-1.69Zm12.3,12.15h0a1.09,1.09,0,0,1-.12-1.54l10.64-11.34a1.09,1.09,0,0,1,1.54,0l1.88,1.74a1.09,1.09,0,0,1,.12,1.53L104.61,95.82a1.09,1.09,0,0,1-1.54,0l-1.86-1.74Zm10.13,8.83L121.45,92.4l0,0a1,1,0,0,1,1.41,0l1.73,1.66,0,0a1,1,0,0,1,.06,1.41L114.61,106l0,0a1,1,0,0,1-1.41,0l-1.73-1.66A1,1,0,0,1,111.34,102.92Z" transform="translate(0 0.03)"/><path class="cls-100" d="M121.32,113.35l1.62,1.6a.47.47,0,0,0,.64.06l9.76-9.87a.47.47,0,0,0-.07-.64l-1.66-1.6a.47.47,0,0,0-.64-.06l-9.77,9.87a.47.47,0,0,0,.07.64ZM42.16,42.6,43.93,44a.47.47,0,0,0,.64,0l8.75-10.77a.47.47,0,0,0-.13-.63l-1.78-1.47a.47.47,0,0,0-.64,0L42,41.94a.47.47,0,0,0,.13.63Zm10.16,8.17,1.84,1.54a.52.52,0,0,0,.72,0l9.35-11.2a.52.52,0,0,0-.13-.7l-1.84-1.54a.52.52,0,0,0-.71,0L52.2,50.07a.52.52,0,0,0,.13.7ZM65.46,61.36a.59.59,0,0,0,.81,0L76.4,49.57a.59.59,0,0,0-.13-.8L74.35,47.1a.58.58,0,0,0-.81,0L63.41,58.84a.59.59,0,0,0,.13.8Zm13.41,10.9a.55.55,0,0,0,.76,0L89.57,61a.55.55,0,0,0-.11-.75l-1.84-1.63a.55.55,0,0,0-.76,0L76.92,69.89a.55.55,0,0,0,.11.75Zm12.22,11a.55.55,0,0,0,.76,0l10.09-11.1a.55.55,0,0,0-.1-.75L100,69.71a.55.55,0,0,0-.75,0l-10.1,11.1a.55.55,0,0,0,.1.75ZM101.6,93.75l1.86,1.74a.59.59,0,0,0,.81,0l10.58-11.41a.59.59,0,0,0-.1-.8l-1.86-1.74a.59.59,0,0,0-.81,0L101.46,92.9a.59.59,0,0,0,.1.8Zm12,11.84a.52.52,0,0,0,.71.05l10.08-10.5a.52.52,0,0,0-.08-.71l-1.74-1.66a.52.52,0,0,0-.71-.05l-10.11,10.52a.52.52,0,0,0,.08.71Z" transform="translate(0 0.03)"/><path class="cls-101" d="M165,111.95c-12.54,20.18-21.28,30-39.77,44.69a119,119,0,0,1-20.41-.59c29.54-25.37,39.65-36.49,57-64.56A117.27,117.27,0,0,1,165,111.95Z" transform="translate(0 0.03)"/><path class="cls-102" d="M61,1C34.94,21.41,25,32.65,3,64.8A119.38,119.38,0,0,1,.16,44.64C12.79,24.64,21.62,14.85,40.41.1A117.15,117.15,0,0,1,61,1Z" transform="translate(0 0.03)"/><path class="cls-103" d="M165,111.93a189.57,189.57,0,0,1-14.51,20.74q-4.41-5.75-9.34-11.68c7-8.35,13.14-17.35,20.67-29.5A117.27,117.27,0,0,1,165,111.93Z" transform="translate(0 0.03)"/><path class="cls-104" d="M150.8,132.33l-1.19,1.43q-4.4-5.76-9.34-11.69l1.2-1.43Q146.4,126.58,150.8,132.33Z" transform="translate(0 0.03)"/><path class="cls-104" d="M34.27,24.49,32.9,25.87q-6.44-4.25-12.63-8l1.39-1.39Q27.85,20.24,34.27,24.49Z" transform="translate(0 0.03)"/><path class="cls-105" d="M60.95,1.05C49.72,9.86,41.47,17,33.95,24.79q-6.42-4.24-12.6-8A190.93,190.93,0,0,1,40.41.1,117.15,117.15,0,0,1,60.95,1.05Z" transform="translate(0 0.03)"/><path class="cls-106" d="M139.82,122.64q5,5.87,9.45,11.58L148,135.71q-4.44-5.72-9.44-11.6Z" transform="translate(0 0.03)"/><path class="cls-106" d="M31.11,27.85q-6.38-4.32-12.54-8.11l1.34-1.44q6.16,3.81,12.52,8.12Z" transform="translate(0 0.03)"/><path class="cls-107" d="M32.8,26,31.48,27.4q-6.42-4.23-12.6-8L20.22,18Q26.4,21.75,32.8,26Z" transform="translate(0 0.03)"/><path class="cls-107" d="M140.17,122.22q5,5.92,9.38,11.65l-1.28,1.49q-4.45-5.72-9.39-11.66Z" transform="translate(0 0.03)"/><path class="cls-108" d="M141.18,121q4.93,5.94,9.34,11.68l-1,1.2q-4.43-5.75-9.38-11.65l-.15.18h0Z" transform="translate(0 0.03)"/><path class="cls-109" d="M32.64,26.16h0L32.8,26q-6.4-4.22-12.58-8l1.14-1.18q6.19,3.75,12.6,8Z" transform="translate(0 0.03)"/></svg>