<svg id="Layer_1" data-name="Layer 1" xmlns="http://www.w3.org/2000/svg" xmlns:xlink="http://www.w3.org/1999/xlink" viewBox="0 0 213.87 165.35"><defs><style>.cls-1{fill:url(#New_Gradient_Swatch_5);}.cls-2{fill:url(#New_Gradient_Swatch_6);}.cls-3{fill:url(#New_Gradient_Swatch_5-2);}.cls-4{fill:url(#New_Gradient_Swatch_6-2);}.cls-5{fill:url(#New_Gradient_Swatch_5-3);}.cls-6{fill:url(#New_Gradient_Swatch_6-3);}.cls-7{opacity:0.22;}.cls-8{fill:url(#linear-gradient);}.cls-9{fill:url(#linear-gradient-2);}.cls-10{fill:url(#linear-gradient-3);}.cls-11{fill:url(#linear-gradient-4);}.cls-12{fill:url(#linear-gradient-5);}.cls-13{fill:url(#linear-gradient-6);}.cls-14{fill:url(#linear-gradient-7);}.cls-15{fill:url(#linear-gradient-8);}.cls-16{fill:url(#linear-gradient-9);}.cls-17{fill:url(#linear-gradient-10);}.cls-18{fill:url(#linear-gradient-11);}.cls-19{fill:url(#linear-gradient-12);}.cls-20{fill:url(#linear-gradient-13);}.cls-21{fill:url(#linear-gradient-14);}.cls-22{fill:url(#linear-gradient-15);}.cls-23{fill:url(#linear-gradient-16);}.cls-24{fill:url(#linear-gradient-17);}.cls-25{fill:url(#linear-gradient-18);}.cls-26{fill:url(#linear-gradient-19);}.cls-27{fill:url(#linear-gradient-20);}.cls-28{fill:url(#linear-gradient-21);}.cls-29{fill:url(#linear-gradient-22);}.cls-30{fill:url(#linear-gradient-23);}.cls-31{fill:url(#linear-gradient-24);}.cls-32{fill:url(#linear-gradient-25);}.cls-33{fill:url(#linear-gradient-26);}.cls-34{fill:url(#linear-gradient-27);}.cls-35{fill:url(#linear-gradient-28);}.cls-36{fill:url(#linear-gradient-29);}.cls-37{fill:url(#linear-gradient-30);}.cls-38{fill:url(#linear-gradient-31);}.cls-39{fill:url(#linear-gradient-32);}.cls-40{fill:url(#linear-gradient-33);}</style><radialGradient id="New_Gradient_Swatch_5" cx="117.79" cy="65.52" r="125.44" gradientUnits="userSpaceOnUse"><stop offset="0.08" stop-color="#ffed0d"/><stop offset="0.17" stop-color="#fee60b"/><stop offset="0.3" stop-color="#fad306"/><stop offset="0.43" stop-color="#f5ba00"/><stop offset="0.5" stop-color="#e6ac00"/><stop offset="0.64" stop-color="#c08700"/><stop offset="0.65" stop-color="#bd8400"/><stop offset="0.87" stop-color="#db9100"/></radialGradient><radialGradient id="New_Gradient_Swatch_6" cx="486.93" cy="341.79" r="114.11" gradientUnits="userSpaceOnUse"><stop offset="0.08" stop-color="#d9c700"/><stop offset="0.17" stop-color="#d8c000"/><stop offset="0.3" stop-color="#d4ad00"/><stop offset="0.43" stop-color="#cf9400"/><stop offset="0.5" stop-color="#c08600"/><stop offset="0.64" stop-color="#9a6100"/><stop offset="0.65" stop-color="#975e00"/><stop offset="0.87" stop-color="#b56b00"/></radialGradient><radialGradient id="New_Gradient_Swatch_5-2" cx="483.41" cy="330.58" r="132.11" xlink:href="#New_Gradient_Swatch_5"/><radialGradient id="New_Gradient_Swatch_6-2" cx="483.87" cy="330.58" r="132.07" xlink:href="#New_Gradient_Swatch_6"/><radialGradient id="New_Gradient_Swatch_5-3" cx="479.17" cy="327.76" r="130.53" xlink:href="#New_Gradient_Swatch_5"/><radialGradient id="New_Gradient_Swatch_6-3" cx="479.17" cy="327.76" r="130.49" xlink:href="#New_Gradient_Swatch_6"/><linearGradient id="linear-gradient" x1="418.84" y1="355.35" x2="520.03" y2="540.01" gradientUnits="userSpaceOnUse"><stop offset="0" stop-color="#d3e6f7"/><stop offset="0.35" stop-color="#36b2f1"/><stop offset="0.68" stop-color="#338dc9"/><stop offset="1" stop-color="#112956"/></linearGradient><linearGradient id="linear-gradient-2" x1="428.54" y1="373.22" x2="556.01" y2="518.09" xlink:href="#linear-gradient"/><linearGradient id="linear-gradient-3" x1="533.46" y1="365.83" x2="594.08" y2="313.91" xlink:href="#linear-gradient"/><linearGradient id="linear-gradient-4" x1="180.56" y1="569.11" x2="240.84" y2="517.49" gradientTransform="translate(165.49 -100.43) rotate(-20.81)" xlink:href="#linear-gradient"/><linearGradient id="linear-gradient-5" x1="539.29" y1="394.26" x2="596.95" y2="372.9" xlink:href="#linear-gradient"/><linearGradient id="linear-gradient-6" x1="489.15" y1="368.33" x2="506.25" y2="323.56" xlink:href="#linear-gradient"/><linearGradient id="linear-gradient-7" x1="522.98" y1="353.09" x2="581.87" y2="302.65" xlink:href="#linear-gradient"/><linearGradient id="linear-gradient-8" x1="519.06" y1="349.02" x2="579.68" y2="297.1" xlink:href="#linear-gradient"/><linearGradient id="linear-gradient-9" x1="404.97" y1="376.82" x2="337.82" y2="342.31" xlink:href="#linear-gradient"/><linearGradient id="linear-gradient-10" x1="397.97" y1="390.44" x2="330.82" y2="355.93" xlink:href="#linear-gradient"/><linearGradient id="linear-gradient-11" x1="292.54" y1="512.55" x2="225.39" y2="478.04" gradientTransform="matrix(0.99, -0.13, 0.13, 0.99, 51.99, -104.1)" xlink:href="#linear-gradient"/><linearGradient id="linear-gradient-12" x1="401.44" y1="410.15" x2="356.33" y2="441.97" xlink:href="#linear-gradient"/><linearGradient id="linear-gradient-13" x1="490.68" y1="293.73" x2="435.95" y2="543.51" xlink:href="#linear-gradient"/><linearGradient id="linear-gradient-14" x1="383.28" y1="360.08" x2="355.72" y2="352.41" xlink:href="#linear-gradient"/><linearGradient id="linear-gradient-15" x1="375.38" y1="351.09" x2="383.85" y2="356.84" xlink:href="#linear-gradient"/><linearGradient id="linear-gradient-16" x1="371.12" y1="356.13" x2="379.98" y2="361.07" xlink:href="#linear-gradient"/><linearGradient id="linear-gradient-17" x1="378.66" y1="359.27" x2="390.63" y2="379.67" xlink:href="#linear-gradient"/><linearGradient id="linear-gradient-18" x1="363.98" y1="373.41" x2="374.71" y2="382.47" xlink:href="#linear-gradient"/><linearGradient id="linear-gradient-19" x1="378.28" y1="419.37" x2="391.7" y2="428.02" xlink:href="#linear-gradient"/><linearGradient id="linear-gradient-20" x1="570.66" y1="375.63" x2="563.2" y2="397.24" xlink:href="#linear-gradient"/><linearGradient id="linear-gradient-21" x1="544.34" y1="360.26" x2="539.57" y2="400.57" xlink:href="#linear-gradient"/><linearGradient id="linear-gradient-22" x1="482.17" y1="342.85" x2="582.28" y2="420.88" xlink:href="#linear-gradient"/><linearGradient id="linear-gradient-23" x1="554.61" y1="325.69" x2="561.13" y2="342.71" xlink:href="#linear-gradient"/><linearGradient id="linear-gradient-24" x1="553.68" y1="342.53" x2="555.81" y2="357.25" xlink:href="#linear-gradient"/><linearGradient id="linear-gradient-25" x1="534.01" y1="342.06" x2="534.42" y2="361.85" xlink:href="#linear-gradient"/><linearGradient id="linear-gradient-26" x1="526.75" y1="340.72" x2="528.51" y2="356.73" xlink:href="#linear-gradient"/><linearGradient id="linear-gradient-27" x1="382.94" y1="468.66" x2="396.31" y2="489.65" gradientTransform="translate(44.13 -52.87) rotate(-6.93)" xlink:href="#linear-gradient"/><linearGradient id="linear-gradient-28" x1="491.3" y1="352.85" x2="503.73" y2="369.22" xlink:href="#linear-gradient"/><linearGradient id="linear-gradient-29" x1="376.17" y1="406.44" x2="418.21" y2="410.17" xlink:href="#linear-gradient"/><linearGradient id="linear-gradient-30" x1="397.17" y1="390.88" x2="429.81" y2="409.74" xlink:href="#linear-gradient"/><linearGradient id="linear-gradient-31" x1="503.93" y1="356.91" x2="482.08" y2="497.22" xlink:href="#linear-gradient"/><linearGradient id="linear-gradient-32" x1="438.89" y1="346.73" x2="449.77" y2="411.08" xlink:href="#linear-gradient"/><linearGradient id="linear-gradient-33" x1="1032.48" y1="-240.3" x2="1043.36" y2="-175.95" gradientTransform="matrix(0.7, 0.39, -0.48, 0.88, -392.78, 147.46)" xlink:href="#linear-gradient"/></defs><title>beachvolley</title><circle class="cls-1" cx="129.76" cy="82.52" r="82.52"/><path class="cls-2" d="M541.46,363.33c-25.73,9.8-53.19,11.2-61.09,11.39.85-16.39,2.49-30.69,3-34.66,5.09-2.31,28-12.57,44.51-17.35,11-3.19,21.74-4.46,29.71-3.74,3.66.33,9.06,2.79,12.47,8.79-.82-2.42-1.73-4.8-2.77-7.12a17.79,17.79,0,0,0-9.37-5.24c-1.71-3.57-7.78-14.61-22.59-27.31-11.5-9.85-22.67-14.38-36.22-16.11-2.38-.21-4.77-.36-7.2-.36-.36,0-.7,0-1.05.05,15.91,1.57,29,7.24,41.53,17.95s18.71,20.65,21.12,25.13c-8.78-.73-19,1.63-26.82,3.89-2,.58-4.09,1.25-6.23,2-2.83-3.6-13.57-16.26-34.65-30.11-14.34-9.42-24.09-11.08-30.1-10.42-1.08.53-2.19,1-3.24,1.57,4.26-.56,14.65,1.47,31,12.37,18.42,12.28,28.9,23.59,32.7,28.06-14.87,5.28-30.71,12.38-34.67,14.18a419.78,419.78,0,0,1-45.8-29.37,63,63,0,0,0-7.67-5c-.6.73-1.13,1.52-1.71,2.28.46.49,1.3,1.34,2.61,2.53-3.38,5.18-14.89,25.07-14.52,54.74.14,11.45,3.5,28.53,9.36,39.18,1.24,1.82,2.57,3.57,3.95,5.28l-1.72-4.5c-18.59-48.66.89-85,5.49-92.52.67.55,1.38,1.12,2.17,1.72,3.56,2.72,8.23,6.08,13.69,9.77-2.43,5.73-10.11,26.25-10.7,57.58-.57,30.1,8.21,43,17.88,49.65q3.42,1.75,7,3.18c-10.23-5.77-21.29-20-20.66-52.75.55-29,7.52-48.91,10.08-55.27,8.23,5.43,17.88,11.38,28.17,17-.82,6.9-3.78,37.15-3.33,61.75.21,11.49,1,31.6,13.46,35,.89,0,1.77.13,2.66.13.54,0,1.07-.07,1.62-.08l1.36-.07c-6.43-.32-11.08-6.65-13.26-18.66,3,.29,8,.67,14.33.67,19.48,0,49.82-4,66.16-21.17,1-1.54,1.9-3.09,2.75-4.7C536.56,417.25,491.4,415,481,414.12c-.51-3.76-.85-8-1-12.73-.26-7.23-.14-15,.18-22.44,7.85-.18,36.22-1.54,62.79-11.66,24.2-9.22,29-10,31.25-9.21,0-.86.12-1.72.13-2.59C570.85,354.38,563.51,354.94,541.46,363.33Z" transform="translate(-362.12 -271.62)"/><path class="cls-3" d="M409.37,354.14a82.5,82.5,0,0,0,81.57,82.48c-5.79-1.49-9.67-7.59-12.6-22.23-3.17-15.85,1.58-68.67,2.29-72.19s.35-3.87-.35-4.23c-9.78-2.95-45-28.73-53.2-34.8A82.09,82.09,0,0,0,409.37,354.14Z" transform="translate(-362.12 -271.62)"/><path class="cls-4" d="M490.94,436.62c-5.79-1.49-9.67-7.59-12.6-22.23-3.17-15.85,1.58-68.67,2.29-72.19s.35-3.87-.35-4.23c-9.78-2.95-45-28.73-53.2-34.8-.27.34-.5.71-.76,1.05.46.49,1.29,1.33,2.6,2.51-3.38,5.18-14.89,25.07-14.52,54.74.14,11.41,3.48,28.4,9.3,39.06q1.76,2.58,3.71,5c.1.13.19.27.29.39l-1.72-4.5c-18.59-48.66.89-85,5.49-92.52.67.55,1.38,1.12,2.17,1.72,3.56,2.72,8.23,6.08,13.69,9.77-2.43,5.73-10.11,26.25-10.7,57.58-.57,29.89,8.09,42.77,17.68,49.5.5.26,1,.5,1.52.75,1.63.8,3.28,1.56,5,2.25l.49.18c-10.17-5.85-21.05-20.12-20.43-52.61.55-29,7.52-48.91,10.08-55.27,8.23,5.43,17.88,11.38,28.17,17-.82,6.9-3.78,37.15-3.33,61.75.21,11.47,1,31.53,13.4,35,.58,0,1.14.1,1.72.11Z" transform="translate(-362.12 -271.62)"/><path class="cls-5" d="M574.41,354.14a82.2,82.2,0,0,0-6-30.87,19.4,19.4,0,0,0-14.51-6.59c-13.21,0-33.46,3.69-72.72,21.83-.53,3.7-3,24.65-3.17,36.28s-2.12,41.91,4.22,53c3.4,5.94,5.84,8,8.67,8.84.34,0,.67.05,1,.05A82.53,82.53,0,0,0,574.41,354.14Z" transform="translate(-362.12 -271.62)"/><path class="cls-6" d="M481.6,417.86c3,.29,8,.67,14.33.67,19.48,0,49.82-4,66.16-21.16l0,0c.95-1.54,1.89-3.07,2.74-4.67C536.56,417.25,491.4,415,481,414.12c-.51-3.76-.85-8-1-12.73-.26-7.23-.14-15,.18-22.44,7.85-.18,36.22-1.54,62.79-11.66,24.2-9.22,29-10,31.25-9.21,0-.8.11-1.59.12-2.39,0-.07,0-.13,0-.2-3.5-1.11-10.84-.55-32.88,7.84-25.73,9.8-53.19,11.2-61.09,11.39.85-16.39,2.49-30.69,3-34.66,5.09-2.31,28-12.57,44.51-17.35,11-3.19,21.74-4.46,29.71-3.74,3.61.33,8.91,2.74,12.33,8.57q-.27-.79-.55-1.57c-.35-1-.73-1.92-1.12-2.87a19.34,19.34,0,0,0-14.35-6.43c-13.21,0-33.46,3.69-72.72,21.83-.53,3.7-3,24.65-3.17,36.28s-2.12,41.91,4.22,53c3.4,5.94,5.84,8,8.67,8.84.34,0,.67.05,1,.05,1,0,2-.11,3-.15C488.43,436.19,483.78,429.86,481.6,417.86Z" transform="translate(-362.12 -271.62)"/><path class="cls-7" d="M564.54,393.29a63.09,63.09,0,0,1-11.94,8.79c-29.18,16.56-65.92,13.56-72.62,12.84-.49-3.62-.82-7.72-1-12.39-.28-7.87-.14-16.41.19-24.62,6.6-.11,35.79-1.19,63.11-11.61,22.71-8.65,29.06-9.65,32-8.89,0-.49.06-1,.07-1.48-3.87-1-10.51-.09-32.78,8.39-26.77,10.2-55.48,11.29-62.27,11.45.79-17.7,2.45-33.33,2.79-36.43,3.76-1.72,27.94-12.65,45.19-17.65,13.79-4,28.45-5.86,36.85-1.15a20.47,20.47,0,0,1,5.32,5.54c-.4-1.11-.77-2.24-1.21-3.32a16.58,16.58,0,0,0-4.11-3.88,20.55,20.55,0,0,0-7.3-2.73c-1.16-2.49-7.34-14.57-23.22-28.18a66.14,66.14,0,0,0-35-16c-1.85-.15-3.71-.26-5.59-.28,15.11,1.65,27.25,6.93,39.47,17.41,14.48,12.42,20.9,23.68,22.53,26.85-8.16-1-18.3.84-28.29,3.73-2.21.64-4.53,1.38-6.91,2.18-1.85-2.37-12.81-15.78-34.85-30.47-15.38-10.26-24.84-11.43-29.87-11-.65.33-1.33.6-2,.95,4.14-.22,14.14.82,30.66,11.8,20.44,13.58,31.18,26.05,33.9,29.44-15.9,5.53-33.48,13.49-36.51,14.87a407.88,407.88,0,0,1-39.39-24.68c-6.91-4.87-11.88-8.66-14.08-10.37-.27.34-.51.71-.78,1,.63.63,1.63,1.67,3.36,3.2-2.63,4-15.85,25.92-14.67,58.46.4,11,4,26.35,9.06,36.74.57.81,1.17,1.59,1.78,2.37a117.46,117.46,0,0,1-7.53-26c-6.42-39.12,9.85-66.43,12.51-70.57a111.47,111.47,0,0,0,9.17,6.89c2.51,1.71,5.26,3.59,8.2,5.55-1.8,4.13-10.36,25.43-11,58-.55,29.13,8.58,43.09,18.19,50.27,1.3.63,2.58,1.31,3.92,1.87-10.12-6.27-20.6-20.35-20-52.11.6-31.31,8.61-52.06,10.65-56.85,8.55,5.69,18.6,12.07,29.4,17.95-.63,5.15-4,37.9-3.06,63.39.8,22.3,4.82,31.67,13.28,34,.58,0,1.15.09,1.73.09.81,0,1.6-.1,2.4-.12-7.21-.55-11.83-6.31-14-19.55,2.54.14,7.68.36,14.46.36,11.55,0,27.1-1.31,41.75-6.17,9.72-3.23,19-8,26.5-15.34C563.52,395,564.07,394.16,564.54,393.29Z" transform="translate(-362.12 -271.62)"/><path class="cls-8" d="M418.31,401.76c.2-3.52-17.52-10.22-21.37-12.76-3-1.95-8.94-5.81-3.43-8.09,4.13-1.7,8.53,1.55,12.33,1.83-.88-1.79-3-3.48-4.23-5.29-2.71-4-4.45-8.93-6.23-13.38-2.7-6.77-7.4-23,4-24.48,8.66-1.11,12.91,12.69,16.5,18.38,4.34,6.88,11.22,22,21.43,20.8,8.1-1,4.43-16.56,6.92-22.41,1-2.27,3.32-5.79,6.06-3.95,1.53,1,3.1,5.84,3.27,7.69.43,4.56,1.36,6,4.51,2.49,2.27-2.55,3.8-5,5.67,0,2.07,5.54.93,11.58,3.7,17.18,3.52,7.1,10.12,9,15.26,14.27s5.16,13.82,1.56,19.9c-5.29,8.94-19.69,8.14-28.52,6.85-9.81-1.43-16.85-6.95-25.58-11Z" transform="translate(-362.12 -271.62)"/><path class="cls-9" d="M465.42,388.2c-1.93-2.06-4.44-4.84-7.31-5.56-3.54-.89-3.94,1.31-4.07,4.18-2.26.31-5.36-1.69-7,.8-1.83,2.83,1.28,7,2,9.76.78,3,.72,6.31-2.76,7.5-3,1-6-.31-9-.47-2.55-.13-5.94.33-6.06,3.58-.19,5,8.2,9.07,12.28,9.76a41.81,41.81,0,0,0,33.58-9.3c1.88-1.56,4.3-3.51,5-6,.87-3-1.16-3.26-3.45-3.94C473.12,396.9,469.22,392.27,465.42,388.2Z" transform="translate(-362.12 -271.62)"/><path class="cls-10" d="M542,356.06c4.27-.69,12.2-3.52,14.93-7.17,1.67-2.24,1.6-4.34-1.87-4-2.34.21-3.91,2.66-5.6,4Z" transform="translate(-362.12 -271.62)"/><path class="cls-11" d="M548.15,343.72c2.91-1.81,8.45-7,10.37-10.67,2.47-4.75-3.55-9.31-4.66-3C552.31,339,550.83,340.2,548.15,343.72Z" transform="translate(-362.12 -271.62)"/><path class="cls-12" d="M549.82,388.7c7-1.35,13.25-2,20.31-2.8,11.55-1.3,3.67-7.38-3.52-5.28A56.94,56.94,0,0,0,549.82,388.7Z" transform="translate(-362.12 -271.62)"/><path class="cls-13" d="M493.57,362.34c2.18-1.88,4-11.55-1-8.29C490.24,355.58,488.09,367.07,493.57,362.34Z" transform="translate(-362.12 -271.62)"/><path class="cls-14" d="M531.84,345.75c1.78,1.77,5.79-1.24,6.72-3.69C540.87,336,528,342,531.84,345.75Z" transform="translate(-362.12 -271.62)"/><path class="cls-15" d="M529.69,341.52c.59-3.47-4.4-1.44-4.7.75C524.46,346.08,529.31,343.77,529.69,341.52Z" transform="translate(-362.12 -271.62)"/><path class="cls-16" d="M393.44,371.91c-3.16-3.87-6.85-9.84-12.44-10.27-3-.23-6.29,1.57-3.51,4.44,1.44,1.49,4.75,1.88,7.86,2.4A18.14,18.14,0,0,1,393.44,371.91Z" transform="translate(-362.12 -271.62)"/><path class="cls-17" d="M364.55,381.26c2.9,0,6.23-3,8.72-4.4,2.85-1.64,5.26-2.25,9-2.94-3.15-1.71-8.43-1.11-11.89-.59-2.55.39-5.85.93-7.37,3.29C361.76,378.54,361.48,381.29,364.55,381.26Z" transform="translate(-362.12 -271.62)"/><path class="cls-18" d="M376.63,355.93c4.35,1.76,7.27-3.11,2.67-4.6C375.62,350.15,371.53,353.86,376.63,355.93Z" transform="translate(-362.12 -271.62)"/><path class="cls-19" d="M378.93,421.81c-2.15,3.31-.6,6.2,3.32,4.75,3.57-1.32,6.47-4.9,9.94-6.69,2.5-1.29,5.23-2.36,7.51-3.5C394,414.52,382.61,416.16,378.93,421.81Z" transform="translate(-362.12 -271.62)"/><path class="cls-20" d="M558.52,363.82c-5.6-8.08-19.17-2.69-27.36,7-6.79,8.08-12.64,15.54-19.69,16s7-17.41,12.85-25.91-.83-16-7.67-14.92-15.34,13.26-19.07,23.63-6.43,20.31-10.16,22-2.28-3.11-.62-8.5,5.18-14.51-1.66-15.54-3.73,13.89-6.84,25.08-11.4,18.65-20.1,20.93-16.58-2.9-25.29-8.5-14.09-6.84-14.09-6.84c-12.44-7.25-18.45.21-14.72,3.52s11,3.73,9.12,6.84-11.4-3.73-20.93-4.14-14.72,6.22-14.09,8.91,4.35,1.87,4.35,1.87c14.54-3.8,30-.22,37.34,4.11a7.87,7.87,0,0,1,1.73.93c.32.23.64.44,1,.66a14.33,14.33,0,0,1,1.22.79l.35.22a32.15,32.15,0,0,1,6.3,3.22,149.1,149.1,0,0,0,19.24,6.32c.24.07,11,2,14.73,2.73,8.2,1,17.9,2.7,24,2.76,16.39.17,23.47-2.88,23.47-2.88,1-18.86,23-18.45,27.57-23.42s-3.52-9.95-8.7-8.5-11.19,6-13.06,1.87,23.63-18.45,31.09-22S564.12,371.91,558.52,363.82Z" transform="translate(-362.12 -271.62)"/><path class="cls-21" d="M372.72,358.12c1.66.41,2.8-1.16.83-1.74S370.32,357.53,372.72,358.12Z" transform="translate(-362.12 -271.62)"/><path class="cls-22" d="M375.95,351.78c-.51.41-.51,1,.2,1.05a2.79,2.79,0,0,0,1.75-.36c.47-.34.44-.88-.12-1.06A2.37,2.37,0,0,0,375.95,351.78Z" transform="translate(-362.12 -271.62)"/><path class="cls-23" d="M372.22,357.19c.54.1,1.2-.45.44-.68S371.31,357,372.22,357.19Z" transform="translate(-362.12 -271.62)"/><path class="cls-24" d="M378.83,362.32a2.18,2.18,0,0,0-1.67,1.27c-.29.86.31,1.12,1.09,1,.6-.12,1.16-.42,1.75-.58a10.19,10.19,0,0,1,2.32-.3,7.38,7.38,0,0,1,2.08.16,4.11,4.11,0,0,0,1.54.3c.09,0-.41-.51-.44-.54a5.5,5.5,0,0,0-.8-.45,8.48,8.48,0,0,0-1.56-.58A8.3,8.3,0,0,0,378.83,362.32Z" transform="translate(-362.12 -271.62)"/><path class="cls-25" d="M369,374c-.74.33-1.79.17-2.6.44a6.45,6.45,0,0,0-2.24,1.13,4,4,0,0,0-1.34,2.16c-.11,1.21,1.28.91,2,.55,1.76-.91,2.9-2.67,4.71-3.46.51-.22,1.35-.27,1.74-.7s0-.29-.42-.27a6.38,6.38,0,0,0-1.24.08Z" transform="translate(-362.12 -271.62)"/><path class="cls-26" d="M383.08,418.7a8.5,8.5,0,0,0-4.21,4.06c-.16.4-.61,1.68-.18,2s1.13-.31,1.39-.56c1.14-1.09,1.55-2.74,2.48-4a9.37,9.37,0,0,1,1.86-1.77l.22-.2Z" transform="translate(-362.12 -271.62)"/><path class="cls-27" d="M565.38,381.43c.53-.15,1.06-.23,1.6-.36a14.15,14.15,0,0,1,3.16-.35,10.19,10.19,0,0,1,3.37.48c.87.3,1.5,1.11.21,1.44-2.12.54-4.49-.15-6.63-.15-1.64,0-3.26.17-4.89.23C562.44,382.13,564.79,381.6,565.38,381.43Z" transform="translate(-362.12 -271.62)"/><path class="cls-28" d="M530.44,372.64s7.15-8.19,12.12-10.16,10.36-3.32,14-.41c0,0-6.94-1.66-13.16,1.76A108.49,108.49,0,0,0,530.44,372.64Z" transform="translate(-362.12 -271.62)"/><path class="cls-29" d="M521.11,363.73s5.49-6.32,4.35-10.36-5.29-4.77-8.39-2.28-11.71,19.48-12.75,33.68C504.33,384.76,515,371.81,521.11,363.73Z" transform="translate(-362.12 -271.62)"/><path class="cls-30" d="M554.69,329.71c.73.95,2.54-.77,2.32-1.65C556.62,326.5,553.64,328.34,554.69,329.71Z" transform="translate(-362.12 -271.62)"/><path class="cls-31" d="M553.54,345.68c-.36.3-.93,1.27-.5,1.71.67.69,1.91-.3,2.31-.86C556.31,345.19,554.4,345,553.54,345.68Z" transform="translate(-362.12 -271.62)"/><path class="cls-32" d="M532.47,343.2c.37.49,2-.8,2.27-1,.69-.57,1.65-2.26,0-1.5C534.13,340.93,531.84,342.37,532.47,343.2Z" transform="translate(-362.12 -271.62)"/><path class="cls-33" d="M526.23,342.29c.71-.11,2.28-2.05,1.11-1.9C526.73,340.47,525.19,342.45,526.23,342.29Z" transform="translate(-362.12 -271.62)"/><path class="cls-34" d="M482.39,371.56c1.44.81,3.76-1.83,3.14-3.22C484.65,366.37,480.24,370.37,482.39,371.56Z" transform="translate(-362.12 -271.62)"/><path class="cls-35" d="M492.2,356.78a2.93,2.93,0,0,0,2-1.14c.25-.35.58-1.44.12-1.76s-1.15.37-1.45.64S491.09,356.62,492.2,356.78Z" transform="translate(-362.12 -271.62)"/><path class="cls-36" d="M396.78,405.18a18.86,18.86,0,0,0-8.78,0c-4.66,1.17-7.85,3-7.69,4.66S387.46,404.87,396.78,405.18Z" transform="translate(-362.12 -271.62)"/><path class="cls-37" d="M411.24,395.93s-4.51-1.09-6.45.7,0,3.19,2.33,2.56,6.45-1.86,8.55-1.4A11.07,11.07,0,0,0,411.24,395.93Z" transform="translate(-362.12 -271.62)"/><path class="cls-38" d="M519.11,413c-3-.4-9.27,3.05-11-.24-1.5-2.94,2.06-9.86,3.11-12.64s2.68-10.19-1.7-11.57c-3.56-1.12-5.93,6.77-7.42,8.92-2.86,4.1-6.72,12.21-12.43,12.39a5.16,5.16,0,0,1-5-2.7c-1-1.65-.3-3.21-2.07-3.3-2.55-.14-5.74,4.84-7.21,6.44-1.66,1.8-3.21,3.71-4.79,5.59a3.82,3.82,0,0,1,.42.19l3.51-2.47a13.67,13.67,0,0,1,3.93-1.25c3.66-.33,5.35,2.8,9.12,2.33,4.35-.54,6.56-3.59,10.36-5.18,5.24-2.19,2.67,3.94,3.11,6.79.8,5.16,5,2.74,8.26,2.52-.07,3-2.91,5.07-3,7.62C509.82,425.41,520,417.1,519.11,413Z" transform="translate(-362.12 -271.62)"/><path class="cls-39" d="M441.2,353c1.81-2.17.35-9.57-3.23-6.83C435.12,348.32,437.92,356.9,441.2,353Z" transform="translate(-362.12 -271.62)"/><path class="cls-40" d="M446.67,344.17c1.8-1.64.39-4.54-1.48-3C443.61,342.4,444.09,346.53,446.67,344.17Z" transform="translate(-362.12 -271.62)"/></svg>