<svg id="Layer_1" data-name="Layer 1" xmlns="http://www.w3.org/2000/svg" xmlns:xlink="http://www.w3.org/1999/xlink" viewBox="0 0 165.28 156.84"><defs><style>.cls-1{fill:none;}.cls-2{fill:url(#linear-gradient);}.cls-3{fill:url(#linear-gradient-2);}.cls-4{fill:#a13b3b;}.cls-5{fill:#14100a;}.cls-6{opacity:0.1;}.cls-15,.cls-21,.cls-24,.cls-6{isolation:isolate;}.cls-7{fill:url(#linear-gradient-3);}.cls-8{clip-path:url(#clip-path);}.cls-9{fill:#e5be1b;}.cls-10{fill:#c44b4b;}.cls-11{fill:#000402;}.cls-12{fill:#52d018;}.cls-13{fill:url(#linear-gradient-4);}.cls-14{fill:url(#radial-gradient);}.cls-15{opacity:0.08;}.cls-16{fill:#3f3625;}.cls-17{fill:url(#linear-gradient-5);}.cls-18{fill:url(#linear-gradient-6);}.cls-19{fill:url(#linear-gradient-7);}.cls-20{fill:url(#linear-gradient-8);}.cls-21{opacity:0.15;}.cls-22{fill:url(#linear-gradient-9);}.cls-23{fill:url(#linear-gradient-10);}.cls-24{opacity:0.2;}.cls-25{fill:url(#linear-gradient-11);}.cls-26{fill:url(#linear-gradient-12);}</style><linearGradient id="linear-gradient" x1="0.24" y1="42.43" x2="165.52" y2="42.43" gradientTransform="matrix(1, 0, 0, -1, -0.24, 128.21)" gradientUnits="userSpaceOnUse"><stop offset="0" stop-color="#5e4936"/><stop offset="0.78" stop-color="#080604"/><stop offset="1" stop-color="#634e38"/></linearGradient><linearGradient id="linear-gradient-2" x1="70.3" y1="128.58" x2="94.14" y2="-6.88" gradientTransform="matrix(1, 0, 0, -1, -0.24, 128.21)" gradientUnits="userSpaceOnUse"><stop offset="0" stop-color="#634e38"/><stop offset="0.73" stop-color="#3b2f21"/></linearGradient><linearGradient id="linear-gradient-3" x1="61.85" y1="112.58" x2="99.49" y2="21.29" gradientTransform="matrix(1, 0, 0, -1, -0.24, 128.21)" gradientUnits="userSpaceOnUse"><stop offset="0" stop-color="#d4d480"/><stop offset="0.81" stop-color="#ffff9a"/></linearGradient><clipPath id="clip-path" transform="translate(0 0)"><path class="cls-1" d="M144.23,66.33c0,28.93-27.58,52-61.61,51.45S21,93.33,21,64.38s27.58-52,61.61-51.45S144.23,37.35,144.23,66.33Z"/></clipPath><linearGradient id="linear-gradient-4" x1="66.73" y1="92.35" x2="97.29" y2="36.76" gradientTransform="matrix(1, 0, 0, -1, -0.24, 128.21)" gradientUnits="userSpaceOnUse"><stop offset="0" stop-color="#3f8f11"/><stop offset="1" stop-color="#4eb015"/></linearGradient><radialGradient id="radial-gradient" cx="77.11" cy="71.55" r="35.6" gradientTransform="matrix(1, 0, 0, -1.6, -0.25, 152.14)" gradientUnits="userSpaceOnUse"><stop offset="0" stop-color="#f5d81d"/><stop offset="0.72" stop-color="#d9bf19"/><stop offset="1" stop-color="#dec41a"/></radialGradient><linearGradient id="linear-gradient-5" x1="75.91" y1="71.01" x2="89.4" y2="71.01" gradientTransform="matrix(1, 0, 0, -1, -0.24, 128.21)" gradientUnits="userSpaceOnUse"><stop offset="0" stop-color="#f5d81d"/><stop offset="0.32" stop-color="#d4b019"/><stop offset="0.75" stop-color="#ad9114"/><stop offset="1" stop-color="#d4b019"/></linearGradient><linearGradient id="linear-gradient-6" x1="71.99" y1="91.99" x2="70.38" y2="89.15" gradientTransform="matrix(1, 0, 0, -1, -0.24, 128.21)" gradientUnits="userSpaceOnUse"><stop offset="0" stop-color="#f5d81d"/><stop offset="0.32" stop-color="#e5be1b"/><stop offset="0.5" stop-color="#dfb91a"/><stop offset="0.75" stop-color="#d6b219"/><stop offset="1" stop-color="#e5be1b"/></linearGradient><linearGradient id="linear-gradient-7" x1="94.07" y1="92.71" x2="95.9" y2="89.88" xlink:href="#linear-gradient-6"/><linearGradient id="linear-gradient-8" x1="78.84" y1="84.42" x2="86.61" y2="84.42" gradientTransform="matrix(1, 0, 0, -1, -0.24, 128.21)" gradientUnits="userSpaceOnUse"><stop offset="0" stop-color="#9a8712"/><stop offset="0.32" stop-color="#8a7210"/><stop offset="0.75" stop-color="#7b660e"/><stop offset="1" stop-color="#8a7210"/></linearGradient><linearGradient id="linear-gradient-9" x1="77.47" y1="88.08" x2="87.88" y2="88.08" gradientTransform="matrix(1, 0, 0, -1, -0.24, 128.21)" gradientUnits="userSpaceOnUse"><stop offset="0" stop-color="#f5d81d"/><stop offset="0.32" stop-color="#dbb61a"/><stop offset="0.75" stop-color="#b89816"/><stop offset="1" stop-color="#dbb61a"/></linearGradient><linearGradient id="linear-gradient-10" x1="78.3" y1="96.99" x2="87" y2="96.99" gradientTransform="matrix(1, 0, 0, -1, -0.24, 128.21)" gradientUnits="userSpaceOnUse"><stop offset="0" stop-color="#f5d81d"/><stop offset="0.32" stop-color="#e5be1b"/><stop offset="0.75" stop-color="#d6b219"/><stop offset="1" stop-color="#e5be1b"/></linearGradient><linearGradient id="linear-gradient-11" x1="93.41" y1="75.4" x2="94.82" y2="77.88" gradientTransform="matrix(1, 0, 0, -1, -0.24, 128.21)" gradientUnits="userSpaceOnUse"><stop offset="0" stop-color="#e2c81a"/><stop offset="0.32" stop-color="#d2af19"/><stop offset="0.5" stop-color="#ccaa18"/><stop offset="0.75" stop-color="#c3a217"/><stop offset="1" stop-color="#d2af19"/></linearGradient><linearGradient id="linear-gradient-12" x1="70.18" y1="78.98" x2="71.74" y2="76.4" gradientTransform="matrix(1, 0, 0, -1, -0.24, 128.21)" gradientUnits="userSpaceOnUse"><stop offset="0" stop-color="#f5d81d"/><stop offset="0.32" stop-color="#e6be1b"/><stop offset="0.5" stop-color="#d9b419"/><stop offset="0.75" stop-color="#ccaa18"/><stop offset="1" stop-color="#e6be1b"/></linearGradient></defs><title>Casino</title><path id="_Path_2" data-name=" Path 2" class="cls-2" d="M165,87.06c0,39.23-36.88,70.47-82.38,69.76S.24,123.74.24,84.52C-3.53,23.36,37.13,14.05,82.63,14.76S169,28.54,165,87.06Z" transform="translate(0 0)"/><path class="cls-3" d="M82.63,0C37.13-.71.24,30.53.24,69.76s36.88,71.6,82.38,72.31S165,111.53,165,72.3,128.12.72,82.63,0Zm0,136.94c-43.75-.69-79.21-31.28-79.21-68.42S38.88,2,82.63,2.64,161.83,33.9,161.83,71s-35.49,66.61-79.21,65.94Z" transform="translate(0 0)"/><path id="_Path_3" data-name=" Path 3" class="cls-4" d="M161.83,71c0,37.07-35.46,66.58-79.21,65.89S3.42,105.67,3.42,68.53,38.88,2,82.63,2.64,161.83,34,161.83,71Z" transform="translate(0 0)"/><path class="cls-5" d="M14.06,102.34A60.65,60.65,0,0,1,4.71,70.22c0-37.3,35.16-67,78.57-66.31,42.9.67,77.75,30.79,78.53,67.51V71c0-37.07-35.46-67.67-79.21-68.36S3.42,31.52,3.42,68.53A59.94,59.94,0,0,0,14.06,102.34Z" transform="translate(0 0)"/><path id="_Path_4" data-name=" Path 4" class="cls-6" d="M147.83,64c0,32.71-30.89,58.74-69,58.14S7.5,94.29,7.5,61.53,40.71,3,78.83,3.64,147.83,31.29,147.83,64Z" transform="translate(0 0)"/><path id="_Path_5" data-name=" Path 5" class="cls-7" d="M147.72,67.61c0,30.39-29.14,54.71-65.09,54.15S17.53,96.06,17.53,65.59,46.67,10.9,82.63,11.44,147.72,37.14,147.72,67.61Z" transform="translate(0 0)"/><g class="cls-8"><path id="_Path_6" data-name=" Path 6" class="cls-9" d="M144.12,66.14c0,29-27.72,52-61.91,51.5S20.32,93.2,20.32,64.22s27.72-52,61.9-51.5S144.12,37.17,144.12,66.14Z" transform="translate(0 0)"/><path id="_Path_7" data-name=" Path 7" class="cls-10" d="M80,90.78,75.1,117.09s15.86.74,19-.19l-6-27Z" transform="translate(0 0)"/><path id="_Path_8" data-name=" Path 8" class="cls-11" d="M89.56,91.17,96.09,117s14.31-2.06,16.13-6.54L95.73,86.77Z" transform="translate(0 0)"/><path id="_Path_9" data-name=" Path 9" class="cls-10" d="M99.21,89l16.07,20.52s16.21-7.74,16.48-13.19l-31-20.79Z" transform="translate(0 0)"/><path id="_Path_10" data-name=" Path 10" class="cls-11" d="M110.26,80.05l23.43,14.89c4.24-5.58,9-13.08,10.5-27.57l-31.75,2Z" transform="translate(0 0)"/><path id="_Path_11" data-name=" Path 11" class="cls-10" d="M112.75,67.5l31.68-1.6s-.76-15.55-7.39-24.5L108.79,55.53Z" transform="translate(0 0)"/><path id="_Path_12" data-name=" Path 12" class="cls-11" d="M108.84,53.73,136,39.83c-4.26-7.05-15.74-15.37-17.67-17.59L103.45,43.49Z" transform="translate(0 0)"/><path id="_Path_13" data-name=" Path 13" class="cls-11" d="M78.7,89.38l-7.08,27.41S58.8,114,52.53,110.65L71.08,88.27Z" transform="translate(0 0)"/><path id="_Path_14" data-name=" Path 14" class="cls-10" d="M66.42,88.83,49.21,109.51s-15.59-8.94-16.88-14.39l31.54-19.8Z" transform="translate(0 0)"/><path id="_Path_15" data-name=" Path 15" class="cls-12" d="M54.13,79.12,30.71,93.36c-4.24-5.71-9-13.35-10.51-27.89L52,68.39Z" transform="translate(0 0)"/><path id="_Path_16" data-name=" Path 16" class="cls-10" d="M51.68,66.55,20,63.91s.76-15.53,7.39-24.26l28.23,15Z" transform="translate(0 0)"/><path id="_Path_17" data-name=" Path 17" class="cls-11" d="M56.4,52.22,29.3,37.54C33.56,30.63,41.16,25.19,44,23.15L59.35,41.43Z" transform="translate(0 0)"/><path id="_Path_18" data-name=" Path 18" class="cls-10" d="M69,53,46.18,21.87a64.45,64.45,0,0,1,15.71-6.49L76.62,49.44Z" transform="translate(0 0)"/><path class="cls-11" d="M79,9.34,79.06,15l-.19-1.81c-1.93-.5-7.84.13-14.39,1.6L76.81,49l2.64-1.9v.59l5.76,2.48L93,14.11C91.59,11.74,84.78,14.86,79,9.34Z" transform="translate(0 0)"/><path id="_Path_19" data-name=" Path 19" class="cls-10" d="M91.7,54.13,115,21.36a166.05,166.05,0,0,0-17-7.56L85.76,55Z" transform="translate(0 0)"/></g><path id="_Path_20" data-name=" Path 20" class="cls-6" d="M130.18,59.52c0,24.73-23.46,44.43-52.4,44s-52.4-20.79-52.4-45.61,23.45-44.41,52.39-44S130.18,34.77,130.18,59.52Z" transform="translate(0 0)"/><path id="_Path_21" data-name=" Path 21" class="cls-9" d="M127.16,67.71c0,20.55-19.67,36.91-43.92,36.55S39.32,86.91,39.32,66.33,59,29.43,83.24,29.82,127.16,47.14,127.16,67.71Z" transform="translate(0 0)"/><path id="_Path_22" data-name=" Path 22" class="cls-13" d="M125.17,67c0,19.62-18.78,35.19-41.93,34.9S41.29,85.31,41.29,65.67,60,30.44,83.24,30.79,125.17,47.35,125.17,67Z" transform="translate(0 0)"/><path id="_Path_23" data-name=" Path 23" class="cls-14" d="M119.76,64.73c0,17.1-16.36,30.69-36.52,30.39S46.72,80.72,46.72,63.66,63,33,83.24,33.27,119.76,47.7,119.76,64.73Z" transform="translate(0 0)"/><path class="cls-15" d="M85.39,21.76H84.14l.34,5.18a6.71,6.71,0,0,1-.43,3c1.11-.69,1.78-2.5,1.63-4.38Z" transform="translate(0 0)"/><path class="cls-15" d="M105.58,70.08l-14-8,7.31-1.87c.83-.21.83-.74,0-1a3,3,0,0,0-1.43,0L90,61.13,87.86,59.9a1.58,1.58,0,0,0-1.54,0l-.35.19a1.44,1.44,0,0,0-.41,2.2h-.19v1.32L87,63.18l1.49.85H86.25c-2.07,0-4.85-.07-6.9,0l.43-.26h1.65v-.95l.32-.18a1.55,1.55,0,0,0,0-2.71c-.89-.47-2.13.15-3,.65l-1.86,1-6.42-1.7a4.71,4.71,0,0,0-2.21,0c-.65.17-.65.59,0,.76l8.61,2.21L65.6,69a1.3,1.3,0,0,0-.17,2.17h0a1.66,1.66,0,0,0,1.88.1L77.6,65c.83.42,4.31,1.78,6.14,2.59a4.89,4.89,0,0,0,2.34.4l.75-.06-.1,1L94,72.18a19.66,19.66,0,0,0-2.18,1c2.18,1.77,7.81,2.19,11.4.9a4.32,4.32,0,0,0,2.27-1.46h0a1.48,1.48,0,0,0,.06-2.54ZM79.86,63.7h0Z" transform="translate(0 0)"/><path id="_Path_24" data-name=" Path 24" class="cls-16" d="M90.55,61.33c0,2.43-3.63,4.36-8.11,4.32s-8.11-2-8.11-4.48,3.63-4.36,8.11-4.32S90.55,58.89,90.55,61.33Z" transform="translate(0 0)"/><path class="cls-17" d="M82.4,50.35h0A6.43,6.43,0,0,0,76,56.06l-.33,3c0,4,3,4.93,6.73,5s7.14-.87,6.73-4.84l-.32-3.12A6.43,6.43,0,0,0,82.4,50.35Z" transform="translate(0 0)"/><path class="cls-15" d="M87.47,56.83a7.17,7.17,0,0,0-4-6v2.46a7.37,7.37,0,0,1,2.83,5.25l.32,3.52a6.68,6.68,0,0,1,0,1.34,5.09,5.09,0,0,0,.8-.4,5.4,5.4,0,0,0,.36-2.7Z" transform="translate(0 0)"/><path class="cls-18" d="M81.16,44V41.17l-17.32-10a2.85,2.85,0,0,0-2.83,0,1.26,1.26,0,0,0,0,2.18L79.23,43.87,79,44Z" transform="translate(0 0)"/><path class="cls-19" d="M103.58,30.93a1.84,1.84,0,0,0-1.83,0L86.2,39.86v3.81l17.37-10a1.59,1.59,0,0,0,0-2.74Z" transform="translate(0 0)"/><path class="cls-20" d="M82.86,33.56h0A1.85,1.85,0,0,0,80.68,35q0,.08,0,.17L78.9,50.73c-.23,2.09,1.39,3.33,3.5,3.33h0c2.1,0,3.77-1.23,3.55-3.31L84.33,35.16A1.82,1.82,0,0,0,82.86,33.56Z" transform="translate(0 0)"/><path class="cls-21" d="M84.33,34.55a1.82,1.82,0,0,0-1.47-1.6h0a1.85,1.85,0,0,0-2.17,1.44q0,.08,0,.17L79,48.38c.92.83,2.07,2,3.43,2l.05,0a4.78,4.78,0,0,0,3.42-1Z" transform="translate(0 0)"/><path class="cls-22" d="M83.06,30H83a2.71,2.71,0,0,0-3.19,2.12q0,.12,0,.24l-2.51,12.3a5.19,5.19,0,0,0,4.61,5.71l.55,0h0a5.18,5.18,0,0,0,5.17-5.71L85.21,32.31A2.67,2.67,0,0,0,83.06,30Z" transform="translate(0 0)"/><path class="cls-21" d="M85.55,34.11l-.35-1.8A2.67,2.67,0,0,0,83,30H83a2.71,2.71,0,0,0-3.19,2.12q0,.12,0,.24l-.37,1.81C80.8,34.66,83.11,35.86,85.55,34.11Z" transform="translate(0 0)"/><path class="cls-23" d="M86.77,32.89a4.19,4.19,0,0,0-4.35-4.61,4.56,4.56,0,0,0-4.33,4.61S82.45,35.75,86.77,32.89Z" transform="translate(0 0)"/><path class="cls-24" d="M85.57,49.29a12.71,12.71,0,0,0-1-2.52,1.44,1.44,0,0,1,0-2.52l.35-.19a1.58,1.58,0,0,1,1.54,0,4.31,4.31,0,0,1,1.06,1A5.14,5.14,0,0,1,85.57,49.29Zm-5.15-5.18h0a2,2,0,0,0-1.63,0v1.77h.41s-1.41.86,0,3.3c.19.41.72.55,1.15.74-.36-2.54.07-3.08.07-3.08C78.93,46.07,81.47,44.69,80.42,44.11Z" transform="translate(0 0)"/><path class="cls-25" d="M104.27,54.27,86.54,44.09a1.58,1.58,0,0,0-1.54,0l-.35.19a1.44,1.44,0,0,0,0,2.52l17.45,10a2.17,2.17,0,0,0,2.16,0,1.48,1.48,0,0,0,0-2.56Z" transform="translate(0 0)"/><path class="cls-26" d="M77.38,44.74,60.91,54.21a1.41,1.41,0,0,0-.14,2.36,2.36,2.36,0,0,0,2.5.09l17.08-9.84a1.57,1.57,0,0,0,0-2.72h0C79.49,43.62,78.27,44.24,77.38,44.74Z" transform="translate(0 0)"/></svg>