<svg id="Layer_1" data-name="Layer 1" xmlns="http://www.w3.org/2000/svg" viewBox="0 0 163.2 94.45"><defs><style>.cls-1{fill:#343433;}.cls-2{fill:#989897;}.cls-3{fill:#1a1a1a;}.cls-4{fill:#c1272d;}.cls-5{fill:#781214;}</style></defs><title>cycling</title><polygon class="cls-1" points="3.4 44.74 42.61 41.3 36.57 25.27 17.18 22.51 3.4 44.74"/><polygon class="cls-2" points="88.65 33.61 149.28 33.61 121.85 14.15 95.77 5.24 88.65 33.61"/><path class="cls-3" d="M131.32,97.36s11.88,15.14,16.83,16.26c2,.44,5.73-2.35,5.91-4.22.47-4.77-12.22-15.87-12.22-15.87s-.7-2.21-.76-1.77-3.41-3.86-3.65-3.62c-1.51,1.51-3.52,1-5,1.38C131.5,89.78,131.32,97.36,131.32,97.36ZM134,91.66a6.83,6.83,0,0,1,.63-.78l0,0a2.31,2.31,0,0,1,1.72-1,1.27,1.27,0,0,1,.31,0c3.28.52,7.27,6.41,9.85,10.16,3.65,5.29,6,8.13,4.87,10.47-.42.89-1.46.76-3.78-.26-2.84-1.22-6.67-4.64-8-5.91-1.72-1.64-5.26-4.19-6.62-6.93C132,95.44,133.15,92.8,134,91.66Z" transform="translate(-2.36 -37.25)"/><path d="M2.79,87.15C8.13,98,13.21,104.89,18.63,110.31c5.78,5.76,15,5.11,15,5.11s8.94,0,14.9-1.72c8.31-2.42,18.45-1,25.87.57,9.2,2,22.88,12.25,32,14.41,6.64,1.56,22.25.36,29.76.91,2.76.21,11,1.3,11,1.3l5,.26,6.62.34a7.15,7.15,0,0,0,.78-.21,8.27,8.27,0,0,0,3.7-2.68,10.27,10.27,0,0,0,1.25-2.06c.76-1.69-.47-6-.44-8.73a.77.77,0,0,1,.42-.68c.34-.23.78-.36.76-.78-.21-4-.55-8.57-1.25-13.44C162,89,156.86,72.64,142.81,60.29c-10.76-9.46-23.81-15-35.1-18.32l-.44-.13a118.46,118.46,0,0,0-25.66-4.48s-45.36.86-59.85,10c-.47.29.81,2.21.26,3.31-.47.91-3.13,1.3-3.86,2.08s-.81,3.18-.42,4.82c.23,1,1.07,1.38.65,2.06-1.28,2.16-2.5,5.52-4.19,7.71-.42.52-1.25.26-1.9.57a7.39,7.39,0,0,0-3.83,3.49c-.18.47.21,2.53-.05,3-1,1.88-2.48,2.53-3.2,3.86-.52.94-.26,1.93-.52,3s-2,.63-2.16,1.85A7.13,7.13,0,0,0,2.79,87.15Zm144.79,23.14c-2.84-1.22-6.67-4.64-8-5.91-1.72-1.64-5.26-4.19-6.62-6.93-1-2,.16-4.66,1-5.81a6.83,6.83,0,0,1,.63-.78l0,0a2.5,2.5,0,0,1,1.72-1,1.27,1.27,0,0,1,.31,0c3.28.52,7.27,6.41,9.85,10.16,3.65,5.29,6,8.13,4.87,10.47C151,111.41,149.93,111.28,147.58,110.29ZM101.75,50c.39-2.27,7.14-.89,11.7.55,6.77,2.14,24.28,11.57,24.34,16.36,0,2-1.85,2.35-3.18,1.41-2.45-1.72-2.79-2.63-10.58-7.4a71,71,0,0,0-20.14-8.42C103.23,52.37,101.44,51.85,101.75,50Zm-49.82,23a.66.66,0,0,1,.76-.21c8.42,4,33.38,20.84,41.82,29.29.7.7.57,2.14.63,3.7.08,1.77.18,3.47-.6,3-4.3-2.48-15.22-10.63-25.17-17.25-9-6-12.38-7.61-16.83-10.37a1.55,1.55,0,0,1-.89-.94C51.1,78.63,51.57,73.42,51.93,73.05ZM29.21,92.47c2.16-.7,6.51,1.43,8.78,2.55,2,1,5.73,3.6,4.48,3.65-7,.36-15.58.18-16.23-.36C24.65,97,27.54,93,29.21,92.47ZM20.27,64.27C21.42,63,35.12,65.08,38,66.62c1.35.73-.18,4.69-.76,6.12-.21.52-1.12,1.82-2,1.72-3-.36-4.17-1.56-9.2-2.45-3.18-.57-5.68-1-7.19-1.22S19.7,65,20.27,64.27Z" transform="translate(-2.36 -37.25)"/><path class="cls-3" d="M133,97.44c1.35,2.71,4.9,5.26,6.62,6.93,1.3,1.28,5.13,4.69,8,5.91,2.32,1,3.36,1.15,3.78.26,1.09-2.35-1.22-5.21-4.87-10.47-2.61-3.75-6.59-9.64-9.85-10.16a1.27,1.27,0,0,0-.31,0,1.07,1.07,0,0,1,.5.1s9.07,13.57,7.11,14.67c-2.24,1.28-9.38-4.92-10.63-6.88-.63-1-.47-3.6,0-4.69a8.8,8.8,0,0,1,1.28-2.24q-.31.35-.63.78C133.15,92.8,132,95.44,133,97.44Z" transform="translate(-2.36 -37.25)"/><path class="cls-4" d="M22.51,47.83c12.19-4,48.1-13.44,85.72-.63,36.84,12.53,48.65,35.2,53.52,51.15.5,1.59,1.64,4.87,2,6.18-.16-1.54-.57-7.3-1-9.17-2.5-12-5.58-22.23-19.36-34.58-24.39-21.86-61-23.45-61-23.45A182.6,182.6,0,0,0,64,37.72c-14,1-32.28,3.67-41.53,9.09C22.28,46.92,22.38,47.31,22.51,47.83Z" transform="translate(-2.36 -37.25)"/><path class="cls-4" d="M18.76,56.54C18.94,58,20,57.92,20.92,58.1c.31.05,9.43.44,14.46,1.72a156.62,156.62,0,0,1,37.7,15.63c17.41,9.93,35.77,27.31,53,39.4a279.89,279.89,0,0,0,26.45,16.49l7,.36.29-.05c-6.67-8.86-30.54-38.43-66-59.12-30.35-17.69-59.09-19-68.5-18.84-.78,0-3-.21-4.9-.23C19.46,53.41,18.37,53.49,18.76,56.54Z" transform="translate(-2.36 -37.25)"/><path class="cls-4" d="M25.48,51.66c28-3.8,54.4-1.59,84.34,14.33,37.78,20.09,50.63,48.57,53.65,63.32,1.41-1.33,2.14-2.68,2.08-3.8a66,66,0,0,0-4.46-20.19c-3.49-9.25-8-15.37-13.84-23.22C144,77.74,135.62,69.77,131,66.57c-10.45-7.19-14.85-11-47.19-19.23-13.34-3.41-46.51-2.81-58.31,2.84C25.28,50.28,25.35,51.14,25.48,51.66Z" transform="translate(-2.36 -37.25)"/><path class="cls-5" d="M90.67,87s22.56,10.47,33.17,16.13c4,2.14,14.7,10.68,14.7,10.68S118.32,91.92,99.85,81.57c-7.53-4.22-10.55-7.45-23.09-12.74-10.58-4.46-18.71-7.11-18.71-7.11l-18-1s5,1.54,10.92,3.83c3.13,1.2,6.44,2.76,9.56,4.12,2.14.91,11.86,6.07,12.27,6.31C80.62,79.15,90.67,87,90.67,87Z" transform="translate(-2.36 -37.25)"/><path class="cls-3" d="M11,88.84c1.22,4.38,15.19,9.46,15.19,9.46a1.69,1.69,0,0,1-.39-.68,2.16,2.16,0,0,1,.1-1.17,8.73,8.73,0,0,1,2.84-3.83c.7-.57,2.94-.13,2.94-.13s-13-10.4-17.35-9.56C12.59,83.27,10.5,87.15,11,88.84Z" transform="translate(-2.36 -37.25)"/></svg>