<svg id="Layer_1" data-name="Layer 1" xmlns="http://www.w3.org/2000/svg" xmlns:xlink="http://www.w3.org/1999/xlink" viewBox="0 0 37.78 41.09"><defs><style>.cls-1{fill:url(#linear-gradient);}.cls-2{fill:url(#linear-gradient-2);}.cls-3{fill:url(#linear-gradient-3);}.cls-4{fill:url(#radial-gradient);}.cls-5{fill:url(#radial-gradient-2);}.cls-6{fill:url(#radial-gradient-3);}</style><linearGradient id="linear-gradient" x1="291.41" y1="374.47" x2="318.49" y2="408.4" gradientUnits="userSpaceOnUse"><stop offset="0" stop-color="#82bdd7"/><stop offset="0.04" stop-color="#88c2dc"/><stop offset="0.09" stop-color="#99d1eb"/><stop offset="0.13" stop-color="#abe1fa"/><stop offset="0.23" stop-color="#85bbda"/><stop offset="0.33" stop-color="#689ec1"/><stop offset="0.41" stop-color="#568cb1"/><stop offset="0.47" stop-color="#5086ac"/><stop offset="0.54" stop-color="#568cb1"/><stop offset="0.64" stop-color="#679dc0"/><stop offset="0.75" stop-color="#84bad8"/><stop offset="0.86" stop-color="#abe1fa"/><stop offset="0.9" stop-color="#85bbda"/><stop offset="0.94" stop-color="#689ec1"/><stop offset="0.98" stop-color="#568cb1"/><stop offset="1" stop-color="#5086ac"/></linearGradient><linearGradient id="linear-gradient-2" x1="288.48" y1="390.6" x2="322.76" y2="390.6" gradientUnits="userSpaceOnUse"><stop offset="0" stop-color="#262262"/><stop offset="0.19" stop-color="#1b75bc"/><stop offset="0.24" stop-color="#2064b2"/><stop offset="0.36" stop-color="#2748a0"/><stop offset="0.45" stop-color="#2c3796"/><stop offset="0.53" stop-color="#2e3192"/><stop offset="0.58" stop-color="#2e3796"/><stop offset="0.65" stop-color="#2d49a2"/><stop offset="0.73" stop-color="#2b66b5"/><stop offset="0.82" stop-color="#298fcf"/><stop offset="0.87" stop-color="#27aae1"/><stop offset="1" stop-color="#2e3192"/></linearGradient><linearGradient id="linear-gradient-3" x1="286.74" y1="410.34" x2="313.93" y2="410.34" gradientUnits="userSpaceOnUse"><stop offset="0" stop-color="#030303"/><stop offset="0.19" stop-color="#4f4f4f"/><stop offset="0.26" stop-color="#363636"/><stop offset="0.37" stop-color="#1a1a1a"/><stop offset="0.46" stop-color="#090909"/><stop offset="0.53" stop-color="#030303"/><stop offset="0.63" stop-color="#090909"/><stop offset="0.78" stop-color="#1b1b1b"/><stop offset="0.87" stop-color="#2b2b2b"/><stop offset="1" stop-color="#030303"/></linearGradient><radialGradient id="radial-gradient" cx="343.41" cy="25657.94" r="14.13" gradientTransform="translate(-378.44 -6259.62) scale(1.14 0.25)" gradientUnits="userSpaceOnUse"><stop offset="0.18" stop-color="#8f8f8f"/><stop offset="0.3" stop-color="#898989"/><stop offset="0.46" stop-color="#787878"/><stop offset="0.65" stop-color="#5b5b5b"/><stop offset="0.86" stop-color="#343434"/><stop offset="1" stop-color="#141414"/></radialGradient><radialGradient id="radial-gradient-2" cx="300.3" cy="32540.05" r="13.71" gradientTransform="translate(0 -6208.72) scale(1 0.2)" gradientUnits="userSpaceOnUse"><stop offset="0.62" stop-color="#030303"/><stop offset="0.85" stop-color="#050505"/><stop offset="0.93" stop-color="#0c0c0c"/><stop offset="0.99" stop-color="#171717"/><stop offset="1" stop-color="#1a1a1a"/></radialGradient><radialGradient id="radial-gradient-3" cx="300.43" cy="31215.82" r="13.55" gradientTransform="translate(0 -6156.49) scale(1 0.21)" xlink:href="#radial-gradient-2"/></defs><title>ice_hockey2</title><path class="cls-1" d="M292.42,375.26s6.22,17.45,6.95,19,1.67,3.67,3.92,4.42,5.67-.17,5.67-.17,9.5-2.5,12.42-2.83,2.57,2.06,2.92,4.67-1.92,4.42-4.08,4.58a140.22,140.22,0,0,1-15.25.67c-5.08-.25-5.17-2.92-5.17-2.92l-9.74-27S290.33,374.9,292.42,375.26Z" transform="translate(-286.54 -375.18)"/><path class="cls-2" d="M290.72,375.26s6.36,17.7,7.09,19.29,1.67,3.67,3.92,4.42,5.67-.17,5.67-.17,9.5-2.5,12.42-2.83,2.57,2.06,2.92,4.67-1.92,4.42-4.08,4.58a140.22,140.22,0,0,1-15.25.67c-5.08-.25-5.17-2.92-5.17-2.92l-9.74-27A5.21,5.21,0,0,1,290.72,375.26Z" transform="translate(-286.54 -375.18)"/><path class="cls-3" d="M286.74,404.79V413c0,1.61,6.09,2.91,13.59,2.91s13.59-1.3,13.59-2.91v-8.18Z" transform="translate(-286.54 -375.18)"/><ellipse class="cls-4" cx="13.79" cy="29.62" rx="13.59" ry="2.91"/><path class="cls-5" d="M313.93,412.53l0,.57c-.16.37-1.08,1-3.76,1.58a57.22,57.22,0,0,1-19.58,0c-2.68-.56-3.6-1.21-3.76-1.58l0-.57s-.2.11-.2.64c0,.91,1,1.64,3.84,2.22a57.88,57.88,0,0,0,19.9,0c2.83-.59,3.85-1.31,3.85-2.22C314.13,412.65,313.93,412.53,313.93,412.53Z" transform="translate(-286.54 -375.18)"/><path class="cls-6" d="M313.83,404.45a.68.68,0,0,1,.05.56c-.12.29-1.08,1-3.76,1.58a57.15,57.15,0,0,1-19.58,0c-2.68-.56-3.69-1.28-3.76-1.58a.75.75,0,0,1,.06-.57s-.3.11-.3.65c0,.91,1,1.64,3.84,2.22a57.95,57.95,0,0,0,19.9,0c2.83-.59,3.85-1.31,3.85-2.22C314.13,404.55,313.83,404.45,313.83,404.45Z" transform="translate(-286.54 -375.18)"/></svg>