<svg xmlns="http://www.w3.org/2000/svg" xmlns:xlink="http://www.w3.org/1999/xlink" viewBox="0 0 355 363"><defs><style>.a{isolation:isolate;}.b{fill:url(#a);}.c{fill:url(#b);}.d{fill:url(#c);}.e{fill:url(#d);}.f{fill:url(#e);}.g{fill:url(#f);}.h{fill:url(#g);}.i{fill:url(#h);}.j{fill:url(#i);}.k{fill:url(#j);}.l{fill:url(#k);}.m{fill:url(#l);}.n{fill:url(#m);}.o{fill:url(#n);}.p{fill:url(#o);}.q{fill:url(#q);}.r{opacity:0.5;mix-blend-mode:multiply;fill:url(#r);}.s{fill:url(#s);}.t{fill:url(#t);}.u{fill:url(#u);}.v{fill:url(#v);}.w{fill:url(#w);}.x{fill:url(#x);}.y{fill:url(#y);}.z{fill:url(#z);}.aa{fill:url(#aa);}.ab{fill:url(#ab);}.ac{fill:url(#ac);}.ad{fill:url(#ad);}.ae{fill:url(#ae);}.af{fill:url(#af);}.ag{fill:url(#ag);}.ah{fill:url(#ah);}.ai{fill:url(#ai);}.aj{fill:url(#aj);}.ak{fill:url(#ak);}.al{fill:url(#al);}.am{fill:#fff;}.an{fill:url(#am);}.ao{fill:url(#an);}.ap{fill:url(#ao);}.aq{fill:url(#ap);}.ar{fill:url(#aq);}.as{fill:url(#ar);}.at{fill:url(#as);}.au{fill:url(#at);}.av{fill:url(#au);}.aw{fill:url(#av);}</style><linearGradient id="a" x1="78.37" y1="297.73" x2="213.69" y2="297.73" gradientUnits="userSpaceOnUse"><stop offset="0.1" stop-color="#3e151d"/><stop offset="0.4" stop-color="#7d4e5e"/><stop offset="0.82" stop-color="#471b21"/><stop offset="1" stop-color="#38111b"/></linearGradient><linearGradient id="b" x1="62.01" y1="341.07" x2="231.23" y2="341.07" xlink:href="#a"/><linearGradient id="c" x1="78.37" y1="328.14" x2="213.69" y2="328.14" gradientUnits="userSpaceOnUse"><stop offset="0.1" stop-color="#3e151d"/><stop offset="0.82" stop-color="#471b21"/><stop offset="1" stop-color="#38111b"/></linearGradient><linearGradient id="d" x1="120.85" y1="262.96" x2="175.82" y2="317.92" gradientUnits="userSpaceOnUse"><stop offset="0.1" stop-color="#ffce4d"/><stop offset="0.51" stop-color="#fff980"/><stop offset="1" stop-color="#d18d42"/></linearGradient><linearGradient id="e" x1="182.12" y1="213.03" x2="112.97" y2="213.62" gradientUnits="userSpaceOnUse"><stop offset="0.06" stop-color="#ffb346"/><stop offset="0.29" stop-color="#ffce4d"/><stop offset="1" stop-color="#d18d42"/></linearGradient><linearGradient id="f" x1="178.11" y1="177.45" x2="177.44" y2="273.1" gradientUnits="userSpaceOnUse"><stop offset="0" stop-color="#d18d42"/><stop offset="0.9" stop-color="#ffce4d"/></linearGradient><linearGradient id="g" x1="8216.93" y1="177.91" x2="8216.26" y2="273.01" gradientTransform="matrix(-1, 0, 0, 1, 8334.31, 0)" gradientUnits="userSpaceOnUse"><stop offset="0" stop-color="#d18d42"/><stop offset="1" stop-color="#ffce4d"/></linearGradient><linearGradient id="h" x1="123.27" y1="256.59" x2="124.53" y2="176.54" gradientUnits="userSpaceOnUse"><stop offset="0.13" stop-color="#f99a46"/><stop offset="1" stop-color="#d18d42"/></linearGradient><linearGradient id="i" x1="7807.52" y1="256.72" x2="7808.78" y2="176.7" gradientTransform="matrix(-1, 0, 0, 1, 7970.01, 0)" gradientUnits="userSpaceOnUse"><stop offset="0.01" stop-color="#ffbe49"/><stop offset="0.03" stop-color="#ffc953"/><stop offset="0.1" stop-color="#ffde67"/><stop offset="0.17" stop-color="#ffed75"/><stop offset="0.25" stop-color="#fff67d"/><stop offset="0.37" stop-color="#fff980"/><stop offset="0.83" stop-color="#ffce4d"/><stop offset="0.94" stop-color="#ffb346"/></linearGradient><linearGradient id="j" x1="7789.12" y1="256.46" x2="7790.38" y2="176.35" xlink:href="#i"/><linearGradient id="k" x1="147.84" y1="164.36" x2="147.67" y2="187.69" xlink:href="#h"/><linearGradient id="l" x1="59.87" y1="89.46" x2="237.01" y2="87" gradientUnits="userSpaceOnUse"><stop offset="0.06" stop-color="#ffb346"/><stop offset="0.19" stop-color="#ffce4d"/><stop offset="0.19" stop-color="#ffce4d"/><stop offset="0.26" stop-color="#ffe164"/><stop offset="0.33" stop-color="#ffef74"/><stop offset="0.41" stop-color="#fff67d"/><stop offset="0.51" stop-color="#fff980"/><stop offset="1" stop-color="#d18d42"/></linearGradient><linearGradient id="m" x1="141.7" y1="88.71" x2="238.76" y2="87.37" gradientUnits="userSpaceOnUse"><stop offset="0.1" stop-color="#ffce4d"/><stop offset="1" stop-color="#d18d42"/></linearGradient><linearGradient id="n" x1="163.96" y1="88.57" x2="228.62" y2="87.67" xlink:href="#h"/><linearGradient id="o" x1="154.25" y1="88.41" x2="196.95" y2="87.82" gradientUnits="userSpaceOnUse"><stop offset="0.1" stop-color="#ffce4d"/><stop offset="0.55" stop-color="#e8ad47"/></linearGradient><linearGradient id="q" x1="10395.68" y1="84.17" x2="10458.74" y2="83.3" gradientTransform="matrix(-1, 0, 0, 1, 10512.35, 0)" xlink:href="#m"/><radialGradient id="r" cx="148.59" cy="-2829.52" r="63.28" gradientTransform="translate(0 4499) scale(1 1.57)" gradientUnits="userSpaceOnUse"><stop offset="0.38" stop-color="#fff980"/><stop offset="0.47" stop-color="#fcf17c"/><stop offset="0.61" stop-color="#f3dc6f"/><stop offset="0.78" stop-color="#e4b95b"/><stop offset="0.96" stop-color="#d18d42"/></radialGradient><linearGradient id="s" x1="101.68" y1="24.65" x2="114.35" y2="148.8" gradientTransform="matrix(1, 0, 0, 1, 0, 0)" xlink:href="#i"/><linearGradient id="t" x1="58.55" y1="7.94" x2="235.61" y2="5.49" gradientUnits="userSpaceOnUse"><stop offset="0.1" stop-color="#fff188"/><stop offset="0.28" stop-color="#ffffb0"/><stop offset="0.9" stop-color="#fff980"/></linearGradient><linearGradient id="u" x1="67.07" y1="7.82" x2="226.71" y2="5.61" gradientUnits="userSpaceOnUse"><stop offset="0.13" stop-color="#f99a46"/><stop offset="0.27" stop-color="#b86939"/><stop offset="0.55" stop-color="#e08959"/><stop offset="0.69" stop-color="#b36237"/><stop offset="1" stop-color="#d18d42"/></linearGradient><linearGradient id="v" x1="146.82" y1="178.01" x2="146.96" y2="169.35" gradientUnits="userSpaceOnUse"><stop offset="0.06" stop-color="#ffb346"/><stop offset="0.31" stop-color="#ffce4d"/><stop offset="1" stop-color="#d18d42"/></linearGradient><linearGradient id="w" x1="141.59" y1="174.79" x2="141.65" y2="170.82" gradientUnits="userSpaceOnUse"><stop offset="0.1" stop-color="#fff980"/><stop offset="0.99" stop-color="#ffce4d"/></linearGradient><linearGradient id="x" x1="136.85" y1="237.38" x2="137.69" y2="183.67" gradientUnits="userSpaceOnUse"><stop offset="0.1" stop-color="#fff188"/><stop offset="0.9" stop-color="#fff980"/></linearGradient><linearGradient id="y" x1="146.99" y1="262.58" x2="146.99" y2="253.6" gradientUnits="userSpaceOnUse"><stop offset="0" stop-color="#d18d42"/><stop offset="0.23" stop-color="#ffce4d"/><stop offset="0.56" stop-color="#fff980"/><stop offset="0.66" stop-color="#fff57c"/><stop offset="0.77" stop-color="#ffe872"/><stop offset="0.88" stop-color="#ffd360"/><stop offset="0.99" stop-color="#ffb548"/><stop offset="1" stop-color="#ffb346"/></linearGradient><linearGradient id="z" x1="147.29" y1="241.52" x2="147.29" y2="236.94" gradientUnits="userSpaceOnUse"><stop offset="0" stop-color="#d18d42"/><stop offset="0.27" stop-color="#ffce4d"/><stop offset="0.32" stop-color="#ffda5b"/><stop offset="0.41" stop-color="#ffeb6f"/><stop offset="0.51" stop-color="#fff57c"/><stop offset="0.6" stop-color="#fff980"/><stop offset="0.68" stop-color="#fff27b"/><stop offset="0.8" stop-color="#ffe06c"/><stop offset="0.94" stop-color="#ffc353"/><stop offset="1" stop-color="#ffb346"/></linearGradient><linearGradient id="aa" x1="147.96" y1="242.95" x2="147.99" y2="240.71" xlink:href="#h"/><linearGradient id="ab" x1="164.31" y1="256.46" x2="165.56" y2="176.35" gradientTransform="translate(-43)" xlink:href="#i"/><linearGradient id="ac" x1="225.67" y1="71.43" x2="322.91" y2="71.43" gradientTransform="matrix(1, 0, 0, 1, 9.13, 12.79)" xlink:href="#o"/><linearGradient id="ad" x1="235.07" y1="83.61" x2="332.08" y2="83.61" xlink:href="#h"/><linearGradient id="ae" x1="248.08" y1="41.07" x2="289.3" y2="41.07" xlink:href="#t"/><linearGradient id="af" x1="9667.71" y1="98.05" x2="9764.96" y2="98.05" gradientTransform="matrix(-1, 0, 0, 1, 9727, 12.79)" xlink:href="#o"/><linearGradient id="ag" x1="9677.19" y1="83.79" x2="9774.2" y2="83.79" gradientTransform="matrix(-1, 0, 0, 1, 9736.12, 0)" xlink:href="#h"/><linearGradient id="ah" x1="9690.2" y1="41.26" x2="9731.41" y2="41.26" gradientTransform="matrix(-1, 0, 0, 1, 9736.12, 0)" xlink:href="#t"/><radialGradient id="ai" cx="51.31" cy="149.12" r="9.43" gradientTransform="translate(0 -79) scale(1 0.95)" gradientUnits="userSpaceOnUse"><stop offset="0.4" stop-color="#fff980"/><stop offset="0.49" stop-color="#fff57c"/><stop offset="0.59" stop-color="#ffeb6f"/><stop offset="0.68" stop-color="#ffda5b"/><stop offset="0.73" stop-color="#ffce4d"/><stop offset="0.96" stop-color="#ffb346"/></radialGradient><radialGradient id="aj" cx="241.72" cy="149.12" r="9.43" xlink:href="#ai"/><radialGradient id="ak" cx="224.24" cy="225.16" r="173.2" gradientUnits="userSpaceOnUse"><stop offset="0" stop-color="#fff"/><stop offset="0.43" stop-color="#d6d6e0"/><stop offset="0.5" stop-color="#c8c8d1"/><stop offset="0.62" stop-color="#a3a3ab"/><stop offset="0.65" stop-color="#9a9aa2"/><stop offset="0.89" stop-color="#d1d1d1"/></radialGradient><radialGradient id="al" cx="223.16" cy="225.77" r="171.47" gradientUnits="userSpaceOnUse"><stop offset="0" stop-color="#e6e6e6"/><stop offset="0.43" stop-color="#bdbdc7"/><stop offset="0.5" stop-color="#afafb8"/><stop offset="0.62" stop-color="#8a8a92"/><stop offset="0.65" stop-color="#818189"/><stop offset="0.89" stop-color="#b8b8b8"/></radialGradient><linearGradient id="am" x1="230.06" y1="270.42" x2="228.6" y2="350.37" gradientUnits="userSpaceOnUse"><stop offset="0" stop-color="#fff"/><stop offset="0.05" stop-color="#fafafa"/><stop offset="0.7" stop-color="#b5b5bb"/><stop offset="1" stop-color="#9a9aa2"/></linearGradient><linearGradient id="an" x1="178.79" y1="233.35" x2="130.53" y2="265.89" xlink:href="#am"/><linearGradient id="ao" x1="230.96" y1="187.16" x2="269.47" y2="157.42" xlink:href="#am"/><linearGradient id="ap" x1="191.11" y1="200.06" x2="172.82" y2="175.55" xlink:href="#am"/><linearGradient id="aq" x1="236.97" y1="343.12" x2="236.97" y2="361.83" xlink:href="#am"/><linearGradient id="ar" x1="326.54" y1="271.05" x2="340.14" y2="273.25" xlink:href="#am"/><linearGradient id="as" x1="285.27" y1="160.97" x2="299.23" y2="145.86" xlink:href="#am"/><radialGradient id="at" cx="219.39" cy="226.38" r="163.37" gradientUnits="userSpaceOnUse"><stop offset="0.09" stop-color="#b2bfc6"/><stop offset="0.32" stop-color="#949a9e"/><stop offset="0.46" stop-color="#85888a"/><stop offset="0.65" stop-color="#6f6969"/><stop offset="0.88" stop-color="#9aa6b8"/></radialGradient><radialGradient id="au" cx="222.69" cy="224.95" r="161.67" gradientUnits="userSpaceOnUse"><stop offset="0" stop-color="#3b4951"/><stop offset="0.25" stop-color="#293035"/><stop offset="0.46" stop-color="#1c1f21"/><stop offset="0.65" stop-color="#060000"/><stop offset="0.88" stop-color="#313d4f"/></radialGradient><radialGradient id="av" cx="207.08" cy="172.26" r="90.7" gradientUnits="userSpaceOnUse"><stop offset="0.18" stop-color="#b6bbbe"/><stop offset="0.3" stop-color="#999fa3"/><stop offset="0.53" stop-color="#6c7378"/><stop offset="0.72" stop-color="#4b5459"/><stop offset="0.89" stop-color="#364046"/><stop offset="1" stop-color="#2f393f"/></radialGradient></defs><title>Asset 2</title><g class="a"><rect class="b" x="78" y="262" width="135" height="70.81"/><rect class="c" x="62" y="331" width="169" height="20.71"/><rect class="d" x="78" y="326" width="135" height="5.13"/><rect class="e" x="113" y="271" width="71" height="38.77"/><path class="f" d="M191,245c-9-3-25-10-30-26s-4-50-4-50H138s-1,35-6,50-20,23-30,26-9,13-9,13H200S201,248,191,245Z"/><path class="g" d="M193,245c-9-3-25-10-30-26s-4-27-6-47h-3c0,6,1,42,3,50s11,21,20,24,7,13,7,13h18S203,247,193,245Z"/><path class="h" d="M102,245c9-3,25-10,30-26s4-27,6-47h4c0,8-1,32-2,43s-11,27-21,30-7,13-7,13H94S93,247,102,245Z"/><path class="i" d="M140,181s-1,31-4,39a34,34,0,0,1-16,21c-9,5-14,8-15,11v3h12a10,10,0,0,1,3-8c3-3,13-9,16-16s6-49,6-49Z"/><path class="j" d="M170,236a34,34,0,0,1-10-16c-2-8-4-39-4-39h-2s0,32,4,48a17,17,0,0,0,5,7Z"/><path class="k" d="M190,254v-3c0-3-4-5-11-9h-8l5,4a10,10,0,0,1,3,8Z"/><path class="l" d="M148,184h10c-2-26,0-31,0-31H138s1,4-1,30Z"/><path class="m" d="M53,7c2,92,43,164,94,164S238,98,240,7Z"/><path class="n" d="M215,6c-2,69-24,131-53,155-7,6-14,8-22,9h7c51,3,91-73,94-164Z"/><path class="o" d="M218,11c0,3-5,61-11,81-18,60-43,72-45,75,37-19,64-80,66-156Z"/><path class="p" d="M188,13c0,3-2,59-6,78-12,60-27,69-28,71,25-19,41-67,43-149Z"/><path class="p" d="M188,13c0,3-2,59-6,78-12,60-27,69-28,71,25-19,41-67,43-149Z"/><path class="q" d="M62,7c0,3,5,57,11,77,18,62,43,75,45,77C81,141,55,86,53,7Z"/><path class="r" d="M53,7c0,91,43,164,94,164S238,98,240,7Z"/><path class="s" d="M96,12H76c2,76,30,145,67,157C116,142,98,80,96,12Z"/><ellipse class="t" cx="146" cy="7" rx="94" ry="7"/><ellipse class="u" cx="146" cy="7" rx="84" ry="4"/><path class="v" d="M161,174c0,2-1,4-3,4H136c-2,0-3-2-3-4h0c0-2,1-4,3-4h21c2,0,3,2,3,4Z"/><path class="w" d="M148,173l-2,2h-9l-2-2h0l2-2h9l2,2Z"/><path class="x" d="M142,186c-1,0-2,26-4,36s-7,13-7,13h10s1-1,2-10S144,186,142,186Z"/><path class="y" d="M204,258c0,2-2,4-3,4H94c-2,0-3-2-3-4h0c0-2,2-4,3-4H200c2,0,3,2,3,4Z"/><path class="z" d="M186,239a2,2,0,0,1-2,2H111a2,2,0,0,1-2-2h0a2,2,0,0,1,2-2h73a2,2,0,0,1,2,2Z"/><polygon class="aa" points="109 242 187 242 185 241 111 241 109 242"/><path class="ab" d="M111,254v-3c0-3,4-5,11-9h8c-5,6-5,12-5,12Z"/><path class="ac" d="M248,70s-20,1-20-20,19-28,33-27,45,20,27,60-91,61-91,61l3-6s51-24,65-43,15-40,7-49-23-11-30-1S239,63,248,70Z"/><path class="ad" d="M261,23h-5c16,2,44,20,27,60s-66,54-84,60v2s71-16,91-61S277,24,261,23Z"/><path class="ae" d="M236,55a16,16,0,0,1,0-4c0-14,12-18,21-17a25,25,0,0,1,17,9c-4-10-13-15-20-15s-21,3-21,17S233,53,236,55Z"/><path class="af" d="M46,70s20,1,20-20S47,22,33,23-12,43,6,83s91,61,91,61l-3-6S43,115,29,96,14,55,22,47s23-11,30-1S55,64,46,70Z"/><path class="ag" d="M33,23h5C22,25-6,43,11,83s66,54,84,60v2S26,128,6,83,17,25,33,23Z"/><path class="ah" d="M58,55a17,17,0,0,0,0-4c0-14-12-18-21-17a25,25,0,0,0-17,9c4-10,13-15,20-15s21,3,21,17S61,53,58,55Z"/><ellipse class="ai" cx="51" cy="63" rx="10" ry="9"/><ellipse class="aj" cx="242" cy="63" rx="10" ry="9"/><path class="ak" d="M355,249A114,114,0,1,1,241,135,114,114,0,0,1,355,249Z"/><path class="al" d="M256,220c29-10,64-12,64-12s21-6-5-4-60,11-60,11S227,230,256,220Zm-81-2a96,96,0,0,0-36-5c-3,1,0,3,0,3s32,1,36,8S175,218,175,218Zm42-30c0-4,1-31,8-42s-4-1-4-1-9,17-8,44C218,192,217,192,217,188Zm-31,79s-12,23-12,49c2,9,4,1,4,1s1-26,12-47S186,268,186,268Zm58-1c-11-23-5,1-5,1s18,32,45,45c5-1,3-3,3-3S256,290,244,267Zm88-26c2,8-5,43-16,56l3,2s16-21,16-55C336,232,332,240,333,241ZM268,346s-34,5-59-3c-3,2-2,3-2,3s32,10,65,2C283,343,268,346,268,346ZM131,238s-1-6-2,3c-2,47,22,69,22,69s7,4,4-1C130,287,131,238,131,238Zm176-59s11,9,3-1c-17-28-42-38-45-38s-11-2-8,1C289,147,308,179,308,179Z"/><path class="am" d="M303,211c-4,0-27,4-38,8s-3,2-4,6l-14,43c-1,3,1,2,2-1l15-41c2-4,4-5,11-6l28-6C305,212,306,211,303,211Z"/><path class="an" d="M278,310c-4-2-19-13-26-23s-9-13-12-13H193c-3,0-9,6-13,36,0,3,2-4,3-9s6-21,10-23,18,0,31,0,15-1,18,3,17,23,35,31C280,311,278,310,278,310Z"/><path class="ao" d="M141,220c1-1,1-2,5-2l20,3c2,1,2,4,3,9s5,17,8,25,7,15,5,13-12-24-15-33-3-11-6-12l-15-3Z"/><path class="ap" d="M223,151c-1,2-5,13-5,34,0,1,2,1,5,3l33,19c5,3,2,0-3-4l-27-18c-3-1-4-2-5-6s1-16,2-21S225,148,223,151Z"/><path class="aq" d="M213,178c0,5,0,8-2,9a176,176,0,0,0-40,28c-1,1-3,1-6,0s-2-1,1-2,11-8,20-14,19-11,21-13a8,8,0,0,0,4-5C211,179,213,175,213,178Z"/><path class="ar" d="M208,350c2-1,3-2,5-2s25,6,49,2h4c2,1-1,0-2,0H240a134,134,0,0,1-26-3Z"/><path class="as" d="M344,244c-2,1-6,3-6,5s-3,28-12,44c-1,1,1,5,2,9s1-4,0-6,6-12,9-24,3-19,4-21,3-5,5-6S346,243,344,244Z"/><path class="at" d="M269,140c2,1,23,9,38,32l4,2-6-9c-6-8-19-19-27-22S265,137,269,140Z"/><path class="au" d="M285,310s-28-16-45-46c-6-8-2,2-2,2s18,31,44,46C287,312,285,310,285,310Zm50-66c-1-29-2-1-2-1a100,100,0,0,1-14,52c-15,25,1,0,1,0S337,272,336,244Zm-26-36s-19,0-54,10,2,1,2,1,36-10,52-9S310,208,310,208Zm-1-28c20,34,0-3,0-3s-16-27-45-37h-5S288,146,309,179Zm-93,9c0-3,0-27,7-41s-2-1-2-1-8,16-7,42C216,195,217,191,216,188Zm-74,27s-5,2,0,2a107,107,0,0,1,29,4s4,1,2-1C159,214,142,215,142,215Zm47,52a105,105,0,0,0-13,46c1,6,2,2,2,2s-3-18,11-45C196,254,189,267,189,267Zm-37,40c-22-22-22-65-22-65s-2-7-1,9c3,40,21,57,21,57S159,313,152,307Zm113,39a127,127,0,0,1-56-2s-28-6,0,2a129,129,0,0,0,55,2S274,344,266,347Z"/><path class="av" d="M261,213c-11-10-39-24-43-26s-3-2-6,0c-16,7-38,25-41,29s-3,2-2,7c3,16,13,41,15,45s2,4,5,5h51c5-1,5-1,6-5l16-49C263,217,264,216,261,213ZM212,344c-16-9-32-29-33-30s-2-3-6-3l-20-4c-2-1-3-3-3,2a40,40,0,0,0,1,10c9,15,30,31,45,35a31,31,0,0,0,15-5C213,346,214,345,212,344ZM148,183c-12,13-23,42-21,64,2-1,4-1,4-2s9-24,11-27,2-3,2-5,5-28,6-30ZM319,293c-5,3-28,13-33,14s-5,0-6,6-13,29-15,31-3,4-1,5,6,5,14,5h6c16-5,37-20,45-32s-2-24-4-27S322,292,319,293ZM219,150c3,0,3-1,8-2s19-6,36-6c3,0,5-1,0-5s-16-3-23-3c-21,0-46,8-56,16C188,150,209,149,219,150Zm106,23h0c-3,1-13,2-16,2s-4,0-4,3-2,25-2,28,0,4,3,7,21,28,24,33,4,3,6,2,12-7,17-7h0C355,217,341,188,326,173Z"/><path class="aw" d="M212,190a216,216,0,0,0-37,25c-2,3,14,12,41,15s35,3,39-7,2-6,2-7-6-6-16-12S215,189,212,190Z"/></g></svg>