<svg id="Isolation_Mode" data-name="Isolation Mode" xmlns="http://www.w3.org/2000/svg" xmlns:xlink="http://www.w3.org/1999/xlink" viewBox="0 0 196.44 182.62"><defs><style>.cls-1{fill:url(#linear-gradient);}.cls-2{fill:url(#linear-gradient-2);}.cls-3{fill:url(#linear-gradient-3);}.cls-4{fill:url(#linear-gradient-4);}.cls-5{fill:url(#linear-gradient-5);}.cls-6{fill:url(#linear-gradient-6);}.cls-7{fill:#f1f1f1;}.cls-8{fill:url(#linear-gradient-7);}.cls-9{fill:url(#linear-gradient-8);}.cls-10{fill:url(#linear-gradient-9);}.cls-11{fill:url(#linear-gradient-10);}.cls-12{fill:url(#linear-gradient-11);}.cls-13{fill:url(#linear-gradient-12);}.cls-14{fill:url(#linear-gradient-13);}.cls-15{fill:url(#linear-gradient-14);}.cls-16{fill:url(#linear-gradient-15);}.cls-17{fill:#fff;}.cls-18{fill:url(#linear-gradient-16);}.cls-19{fill:url(#linear-gradient-17);}.cls-20{fill:url(#linear-gradient-18);}.cls-21{fill:url(#linear-gradient-19);}.cls-22{fill:url(#linear-gradient-20);}.cls-23{fill:url(#linear-gradient-21);}.cls-24{fill:url(#linear-gradient-22);}.cls-25{fill:url(#linear-gradient-23);}</style><linearGradient id="linear-gradient" x1="137.5" y1="203.5" x2="138.5" y2="203.5" gradientTransform="matrix(176.29, -52.71, -52.71, -176.29, -13368.62, 43258.79)" gradientUnits="userSpaceOnUse"><stop offset="0" stop-color="#bdbec0"/><stop offset="0.32" stop-color="#fff"/><stop offset="0.75" stop-color="#5f6062"/><stop offset="1" stop-color="#5f6062"/></linearGradient><linearGradient id="linear-gradient-2" x1="137.5" y1="203.32" x2="138.5" y2="203.32" gradientTransform="matrix(5.85, 110.36, 110.36, -5.85, -23051.09, -13952.33)" gradientUnits="userSpaceOnUse"><stop offset="0"/><stop offset="0.32" stop-color="#757575"/><stop offset="0.75"/><stop offset="1"/></linearGradient><linearGradient id="linear-gradient-3" x1="137.5" y1="203.5" x2="138.5" y2="203.5" gradientTransform="matrix(-33.96, 27.52, 27.52, 33.96, -682.96, -10657.02)" xlink:href="#linear-gradient-2"/><linearGradient id="linear-gradient-4" x1="137.5" y1="203.5" x2="138.5" y2="203.5" gradientTransform="matrix(-48.6, 24, 24, 48.6, 1952.22, -13052.94)" xlink:href="#linear-gradient-2"/><linearGradient id="linear-gradient-5" x1="137.5" y1="203.5" x2="138.5" y2="203.5" gradientTransform="matrix(-60.49, 10.57, 10.57, 60.49, 6462.42, -13612.37)" xlink:href="#linear-gradient-2"/><linearGradient id="linear-gradient-6" x1="137.5" y1="203.5" x2="138.5" y2="203.5" gradientTransform="matrix(-128.89, 63.67, 63.67, 128.89, 5041.82, -34833.83)" xlink:href="#linear-gradient-2"/><linearGradient id="linear-gradient-7" x1="137.5" y1="203.52" x2="138.5" y2="203.52" gradientTransform="matrix(176.29, -52.71, -52.71, -176.29, -13368.62, 43258.79)" gradientUnits="userSpaceOnUse"><stop offset="0" stop-color="#c6c6c8"/><stop offset="0.32" stop-color="#f1f1f1"/><stop offset="0.75" stop-color="#88888a"/><stop offset="1" stop-color="#88888a"/></linearGradient><linearGradient id="linear-gradient-8" x1="137.5" y1="203.52" x2="138.5" y2="203.52" gradientTransform="matrix(5.85, 110.36, 110.36, -5.85, -23051.09, -13952.33)" gradientUnits="userSpaceOnUse"><stop offset="0" stop-color="#494949"/><stop offset="0.32" stop-color="#969696"/><stop offset="0.75" stop-color="#494949"/><stop offset="1" stop-color="#494949"/></linearGradient><linearGradient id="linear-gradient-9" x1="137.5" y1="203.31" x2="138.5" y2="203.31" gradientTransform="matrix(-60.49, 10.57, 10.57, 60.49, 6462.42, -13612.37)" xlink:href="#linear-gradient-8"/><linearGradient id="linear-gradient-10" x1="137.5" y1="203.5" x2="138.5" y2="203.5" gradientTransform="matrix(-128.3, -29.29, -29.29, 128.3, 23885.94, -21978.57)" gradientUnits="userSpaceOnUse"><stop offset="0" stop-color="#969696"/><stop offset="1" stop-color="#494949"/></linearGradient><linearGradient id="linear-gradient-11" x1="137.5" y1="203.5" x2="138.5" y2="203.5" gradientTransform="matrix(4.68, 88.42, 88.42, -4.68, -18493.33, -11151.95)" xlink:href="#linear-gradient-2"/><linearGradient id="linear-gradient-12" x1="137.5" y1="203.5" x2="138.5" y2="203.5" gradientTransform="matrix(36.13, 0, 0, -36.13, -4865.79, 7448.42)" gradientUnits="userSpaceOnUse"><stop offset="0" stop-color="red"/><stop offset="0.99" stop-color="#600"/><stop offset="1" stop-color="#600"/></linearGradient><linearGradient id="linear-gradient-13" x1="137.5" y1="203.5" x2="138.5" y2="203.5" gradientTransform="matrix(140.71, 0, 0, -140.71, -19221.77, 28789.92)" gradientUnits="userSpaceOnUse"><stop offset="0" stop-color="#900"/><stop offset="0.02" stop-color="#900"/><stop offset="0.99" stop-color="red"/><stop offset="1" stop-color="red"/></linearGradient><linearGradient id="linear-gradient-14" x1="137.5" y1="203.52" x2="138.5" y2="203.52" gradientTransform="matrix(5.85, 110.36, 110.36, -5.85, -23051.09, -13952.33)" gradientUnits="userSpaceOnUse"><stop offset="0" stop-color="#b6b6b6"/><stop offset="0.32" stop-color="#d5d5d5"/><stop offset="0.75" stop-color="#b6b6b6"/><stop offset="1" stop-color="#b6b6b6"/></linearGradient><linearGradient id="linear-gradient-15" x1="137.5" y1="203.54" x2="138.5" y2="203.54" xlink:href="#linear-gradient-14"/><linearGradient id="linear-gradient-16" x1="137.5" y1="203.28" x2="138.5" y2="203.28" gradientTransform="matrix(176.29, -52.71, -52.71, -176.29, -13368.62, 43258.79)" gradientUnits="userSpaceOnUse"><stop offset="0" stop-color="#d7d7d9"/><stop offset="0.32" stop-color="#f5f5f5"/><stop offset="0.75" stop-color="#acacad"/><stop offset="1" stop-color="#acacad"/></linearGradient><linearGradient id="linear-gradient-17" x1="137.5" y1="203.83" x2="138.5" y2="203.83" gradientTransform="matrix(5.85, 110.36, 110.36, -5.85, -23051.09, -13952.33)" gradientUnits="userSpaceOnUse"><stop offset="0" stop-color="gray"/><stop offset="0.32" stop-color="#b6b6b6"/><stop offset="0.75" stop-color="gray"/><stop offset="1" stop-color="gray"/></linearGradient><linearGradient id="linear-gradient-18" x1="137.5" y1="203.3" x2="138.5" y2="203.3" gradientTransform="matrix(-60.49, 10.57, 10.57, 60.49, 6462.42, -13612.37)" xlink:href="#linear-gradient-17"/><linearGradient id="linear-gradient-19" x1="137.5" y1="203.52" x2="138.5" y2="203.52" xlink:href="#linear-gradient-14"/><linearGradient id="linear-gradient-20" x1="137.5" y1="203.52" x2="138.5" y2="203.52" gradientTransform="matrix(-128.3, -29.29, -29.29, 128.3, 23885.94, -21978.57)" gradientUnits="userSpaceOnUse"><stop offset="0" stop-color="#d5d5d5"/><stop offset="1" stop-color="#b6b6b6"/></linearGradient><linearGradient id="linear-gradient-21" x1="137.5" y1="203.5" x2="138.5" y2="203.5" gradientTransform="matrix(85.49, 0, 0, -85.49, -11610.67, 17431.41)" xlink:href="#linear-gradient-12"/><linearGradient id="linear-gradient-22" x1="137.5" y1="203.5" x2="138.5" y2="203.5" gradientTransform="matrix(38.64, 0, 0, -38.64, -5301.04, 8001.8)" xlink:href="#linear-gradient-12"/><linearGradient id="linear-gradient-23" x1="137.5" y1="203.4" x2="138.5" y2="203.4" gradientTransform="matrix(4.68, 88.42, 88.42, -4.68, -18493.33, -11151.95)" gradientUnits="userSpaceOnUse"><stop offset="0" stop-color="#666"/><stop offset="0.32" stop-color="#acacac"/><stop offset="0.75" stop-color="#666"/><stop offset="1" stop-color="#666"/></linearGradient></defs><title>motorsport</title><path class="cls-1" d="M286.86,136.7s-.38,1.66-3.39,3.69l4-.76a6.94,6.94,0,0,1,3.66,3.51c-1.61-5.44-4.25-6.44-4.25-6.44h0M188.38,22.8c-33.62,0-61.95,20.81-61.95,20.81C93.62,68.79,93.87,103.41,98,124.48a93.84,93.84,0,0,0,5.57,18.66c4.09,16.39,23.41,43.33,23.41,43.33l5.4,1.28c55.91,13.16,89.7,17,110,17.1h1.2c24.64,0,28.61-5.51,28.61-5.51,3.81-.54,7.24-3.61,9.82-6.74a43.52,43.52,0,0,0,4.82-7.3c3.85-13.74,5.29-23.64,5.45-30.76a49.37,49.37,0,0,1-1.35,7.33c-1.17,3.51-23.42,7-23.42,7l-14.06-8.78-7.61-9.95,3.4-2.56c-2.75.11-5.7.16-8.86.16a404,404,0,0,1-40.81-2.38c-14-1-24-2.26-24-2.26l-.44-.38c-10.27-1.46-38.79-6.64-38.79-6.64-9.94-4.1-18.15-34-18.15-34-1.76-22.24,15.23-23.42,15.23-23.42,1.25.08,2.7.12,4.26.12,9.34,0,22.68-1.29,22.68-1.29a19.13,19.13,0,0,1,2.51-.19c2.24,0,3.23.58,3.61,1.29a56.52,56.52,0,0,1,19.08-8.13,147.94,147.94,0,0,1,30.93-5.82c9.91-1.58,20.71-2.9,29.07-2.9a36.88,36.88,0,0,1,10.24,1.11l.71,1c-20.4-31.69-45.48-41.16-68.15-41.16" transform="translate(-96.09 -22.8)"/><path class="cls-2" d="M175.16,142.77l.44.38s10,1.24,24,2.26c-6.61-.68-13.71-1.52-21.36-2.54l.3.29a34,34,0,0,1-3.38-.38m41.35-78a147.94,147.94,0,0,0-30.93,5.82q1.72-.36,3.49-.59s12.75-2.9,27.43-5.23" transform="translate(-96.09 -22.8)"/><path class="cls-3" d="M207.22,45.95s20.5-7,35.14,0L253.48,60s-33.38-1.17-36.89,2.34Z" transform="translate(-96.09 -22.8)"/><polygon class="cls-4" points="91.23 136.15 105.87 161.33 165.01 164.85 166.18 162.51 160.91 151.38 156.81 148.45 91.23 136.15"/><path class="cls-5" d="M287.44,139.64l-4,.76c-4.21,2.84-13.56,6.42-34.18,7.22l-3.4,2.56,7.61,9.95,14.06,8.78s22.25-3.51,23.42-7a49.37,49.37,0,0,0,1.35-7.33c.4-3.78.38-8.25-1.2-11.41a6.94,6.94,0,0,0-3.66-3.51" transform="translate(-96.09 -22.8)"/><path class="cls-6" d="M142.23,181.2s123.55,28.1,142.29,2.35l2.93-2.93s-2.34,12.3-11.12,15.82c0,0-5.27,14.05-58,7,0,0-84.91-11.13-91.35-17l-6.44-10Z" transform="translate(-96.09 -22.8)"/><path class="cls-7" d="M256.53,64c1.35,2.1,2.67,4.28,4,6.57,0,0-2.62,6.63-4.71,13.41-.23.9-.5,1.79-.79,2.66-1.33,4.71-2.21,9.08-1.54,10.87,0,0,5.54,18.74,13.7,25l4.45,2s12.88,2.92,15.22,12.29h0C285.26,107.48,261,70.55,256.53,64" transform="translate(-96.09 -22.8)"/><path class="cls-8" d="M199.6,145.4a404,404,0,0,0,40.81,2.38c3.17,0,6.11-.06,8.86-.16l1.27-1,3.34-.64c-4.54.44-8,.64-8,.64s0-.18,0-.27c-4.41.22-9,.31-13.51.31-11.5,0-23.08-.59-32.75-1.3m72-21,7.61,5.27,2.34,8.77a29.19,29.19,0,0,1-8.09,3.83l10-1.89c3-2,3.39-3.69,3.39-3.69-2.34-9.37-15.22-12.29-15.22-12.29M255,86.6a52.69,52.69,0,0,1-4.47,9.7L257,118l10.19,4.48c-8.17-6.24-13.7-25-13.7-25-.67-1.79.2-6.16,1.54-10.87M185.59,70.54a56.52,56.52,0,0,0-19.08,8.13,1.81,1.81,0,0,1,.2.95,66.76,66.76,0,0,1,18.89-9.07m60-8.72c-8.36,0-19.16,1.32-29.07,2.9,7.91-.72,15.15-.91,20.71-.91,6.73,0,11,.29,11,.29L250,67.61c7.24,2.89,7.46,9.95,5.83,16.33,2.09-6.78,4.71-13.41,4.71-13.41-1.31-2.29-2.63-4.48-4-6.57l-.71-1a36.88,36.88,0,0,0-10.24-1.11" transform="translate(-96.09 -22.8)"/><path class="cls-9" d="M236.1,145.55l-25.47-7.41-1.86-4.64s24.09,6,26.87,8.34l.46,3.7m-.93-6.48L205.54,128.4l-2.78-6s23.63,3.7,30.11,10.19l2.31,6.49m-59-36.32-10-14.06c19.32-18.74,72.6-18.74,72.6-18.74a36.78,36.78,0,0,1,6.33-.62c20.54,0,4.22,25.22,4.22,25.22l-8.78,2.34c6.28-9.77,3.11-13.2-4.45-13.2-5.36,0-12.92,1.73-20.88,4.14a26.74,26.74,0,0,1,10.19,7.23l.47,6a72.8,72.8,0,0,0-17.18-11.16c-16.48,5.56-32.55,12.82-32.55,12.82m61-38.94c-5.56,0-12.8.2-20.71.91-14.69,2.33-27.43,5.23-27.43,5.23q-1.78.23-3.49.59a66.76,66.76,0,0,0-18.89,9.07,3.45,3.45,0,0,1-.47,1.47c-27.82,21.7,8.34,58.2,12,61.78,7.65,1,14.75,1.86,21.36,2.54,9.67.7,21.25,1.3,32.75,1.3,4.56,0,9.1-.09,13.51-.31-.72-12.87-11.12-31.35-11.12-31.35,28.33,10.55,37.16,25.84,38,27.39l.75-.14a29.19,29.19,0,0,0,8.09-3.83l-2.34-8.77-7.61-5.27-4.45-2L257,118,250.55,96.3A52.69,52.69,0,0,0,255,86.6c.29-.86.56-1.75.79-2.66,1.63-6.39,1.41-13.44-5.83-16.33l-1.75-3.52s-4.27-.29-11-.29" transform="translate(-96.09 -22.8)"/><path class="cls-10" d="M283.46,140.39l-10,1.89-.75.14.07.13c-3.79,1.72-12.44,2.83-18.92,3.46l-3.34.64-1.27,1c20.62-.8,30-4.38,34.18-7.22" transform="translate(-96.09 -22.8)"/><path class="cls-11" d="M245.17,69.33a36.78,36.78,0,0,0-6.33.62s-53.28,0-72.6,18.74l10,14.06s16.07-7.27,32.55-12.82a31.55,31.55,0,0,0-10.15-2.74l-.93-3.24a53.68,53.68,0,0,1,17.6,3.88c8-2.41,15.52-4.14,20.88-4.14,7.56,0,10.73,3.43,4.45,13.2l8.78-2.34s16.32-25.22-4.22-25.22" transform="translate(-96.09 -22.8)"/><path class="cls-12" d="M132.5,113.45c2.87,0,6.18-2,9.74-7.78,0,0-7-12.29,6.44-15.8,0,0,8.79,4.09,4.68,9.94,0,0-2.4,32.73-14.63,32.73a8.9,8.9,0,0,1-4.1-1.11s8.78-1.75,8.19-13.46a14.86,14.86,0,0,1-6.72,1.71c-4.77,0-10.82-2.74-13.76-15.18,0,0,4.07,8.95,10.17,8.95m30.4-36.07a19.13,19.13,0,0,0-2.51.19s-13.34,1.29-22.68,1.29c-1.56,0-3,0-4.26-.12,0,0-17,1.18-15.23,23.42,0,0,8.21,29.87,18.15,34,0,0,28.52,5.18,38.79,6.64a34,34,0,0,0,3.38.38l-.3-.29c-3.67-3.58-39.83-40.08-12-61.78a3.45,3.45,0,0,0,.47-1.47,1.81,1.81,0,0,0-.2-.95c-.38-.7-1.37-1.29-3.61-1.29" transform="translate(-96.09 -22.8)"/><path class="cls-13" d="M137.55,48.29s-52.11,38.65-11.71,97.2l-20.5-8.78S84.85,74.06,137.55,48.29Z" transform="translate(-96.09 -22.8)"/><path class="cls-14" d="M128.77,145.49l122.37,22.25s9.37-.59,14.64,11.12c0,0,2.34-12.29-26.94-18.74,0,0-100.12-11.12-113.59-25.76C125.25,134.36,124.08,142,128.77,145.49Z" transform="translate(-96.09 -22.8)"/><path class="cls-15" d="M202.76,122.39l2.78,6,29.64,10.67-2.31-6.49c-6.48-6.49-30.11-10.19-30.11-10.19" transform="translate(-96.09 -22.8)"/><path class="cls-16" d="M208.77,133.51l1.86,4.64,25.47,7.41-.46-3.7c-2.78-2.33-26.87-8.34-26.87-8.34" transform="translate(-96.09 -22.8)"/><path class="cls-17" d="M251.73,116.79s22.83,12.89,24.59,18.75c0,0-11.13-18.16-20.5-21.67C255.83,113.86,244.7,110.94,251.73,116.79Z" transform="translate(-96.09 -22.8)"/><path class="cls-18" d="M255.88,145.64c-3.22.33-6.58.58-10,.75,0,.09,0,.18,0,.27s3.48-.2,8-.64l2-.38" transform="translate(-96.09 -22.8)"/><path class="cls-19" d="M234.75,115s10.4,18.48,11.12,31.35c3.44-.17,6.8-.41,10-.75l16.86-3.21c-.84-1.55-9.68-16.84-38-27.39" transform="translate(-96.09 -22.8)"/><path class="cls-20" d="M272.75,142.43l-16.86,3.21-2,.38c6.48-.62,15.13-1.74,18.92-3.46l-.07-.13" transform="translate(-96.09 -22.8)"/><path class="cls-21" d="M215.27,87.83c-2.16.65-4.34,1.36-6.52,2.09a72.8,72.8,0,0,1,17.18,11.16l-.47-6a26.74,26.74,0,0,0-10.19-7.23" transform="translate(-96.09 -22.8)"/><path class="cls-22" d="M197.67,83.94l.93,3.24a31.55,31.55,0,0,1,10.15,2.74c2.18-.73,4.37-1.44,6.52-2.09a53.68,53.68,0,0,0-17.6-3.88" transform="translate(-96.09 -22.8)"/><path class="cls-23" d="M144.57,40.09s40.4-18.73,72.61-1.16l12.88,1.16S190.83,12,144.57,40.09Z" transform="translate(-96.09 -22.8)"/><polygon class="cls-24" points="12.18 120.34 26.82 151.38 50.83 156.06 29.75 127.37 12.18 120.34"/><path class="cls-25" d="M148.67,89.87c-13.46,3.51-6.44,15.8-6.44,15.8-3.56,5.8-6.87,7.78-9.74,7.78-6.1,0-10.17-8.95-10.17-8.95,2.94,12.44,9,15.18,13.76,15.18a14.86,14.86,0,0,0,6.72-1.71c.59,11.71-8.19,13.46-8.19,13.46a8.9,8.9,0,0,0,4.1,1.11c12.23,0,14.63-32.73,14.63-32.73,4.11-5.85-4.68-9.94-4.68-9.94" transform="translate(-96.09 -22.8)"/></svg>