<svg id="Layer_1" data-name="Layer 1" xmlns="http://www.w3.org/2000/svg" xmlns:xlink="http://www.w3.org/1999/xlink" viewBox="0 0 165.13 165.61"><defs><style>.cls-1{fill:url(#radial-gradient);}.cls-2{fill:url(#radial-gradient-2);}.cls-3{fill:#fff;}.cls-4{fill:url(#linear-gradient);}.cls-5{fill:url(#linear-gradient-2);}.cls-6{fill:url(#linear-gradient-3);}.cls-7{fill:url(#linear-gradient-4);}.cls-8{fill:url(#linear-gradient-5);}.cls-9{fill:url(#linear-gradient-6);}.cls-10{fill:url(#linear-gradient-7);}.cls-11{fill:url(#radial-gradient-3);}.cls-12{fill:url(#radial-gradient-4);}.cls-13{fill:url(#radial-gradient-5);}</style><radialGradient id="radial-gradient" cx="70.64" cy="66.08" r="125.44" gradientUnits="userSpaceOnUse"><stop offset="0" stop-color="#fff"/><stop offset="0.43" stop-color="#d6d6e0"/><stop offset="0.5" stop-color="#c8c8d1"/><stop offset="0.62" stop-color="#a3a3ab"/><stop offset="0.65" stop-color="#9a9aa2"/><stop offset="0.89" stop-color="#d1d1d1"/></radialGradient><radialGradient id="radial-gradient-2" cx="467.57" cy="424.24" r="124.18" gradientUnits="userSpaceOnUse"><stop offset="0" stop-color="#e6e6e6"/><stop offset="0.43" stop-color="#bdbdc7"/><stop offset="0.5" stop-color="#afafb8"/><stop offset="0.62" stop-color="#8a8a92"/><stop offset="0.65" stop-color="#818189"/><stop offset="0.89" stop-color="#b8b8b8"/></radialGradient><linearGradient id="linear-gradient" x1="472.56" y1="456.58" x2="471.5" y2="514.48" gradientUnits="userSpaceOnUse"><stop offset="0" stop-color="#fff"/><stop offset="0.05" stop-color="#fafafa"/><stop offset="0.7" stop-color="#b5b5bb"/><stop offset="1" stop-color="#9a9aa2"/></linearGradient><linearGradient id="linear-gradient-2" x1="435.43" y1="429.73" x2="400.48" y2="453.3" xlink:href="#linear-gradient"/><linearGradient id="linear-gradient-3" x1="473.22" y1="396.28" x2="501.11" y2="374.74" xlink:href="#linear-gradient"/><linearGradient id="linear-gradient-4" x1="444.35" y1="405.63" x2="431.1" y2="387.88" xlink:href="#linear-gradient"/><linearGradient id="linear-gradient-5" x1="477.57" y1="509.24" x2="477.57" y2="522.78" xlink:href="#linear-gradient"/><linearGradient id="linear-gradient-6" x1="542.43" y1="457.04" x2="552.28" y2="458.63" xlink:href="#linear-gradient"/><linearGradient id="linear-gradient-7" x1="512.55" y1="377.31" x2="522.66" y2="366.37" xlink:href="#linear-gradient"/><radialGradient id="radial-gradient-3" cx="464.83" cy="424.68" r="118.32" gradientUnits="userSpaceOnUse"><stop offset="0.09" stop-color="#b2bfc6"/><stop offset="0.32" stop-color="#949a9e"/><stop offset="0.46" stop-color="#85888a"/><stop offset="0.65" stop-color="#6f6969"/><stop offset="0.88" stop-color="#9aa6b8"/></radialGradient><radialGradient id="radial-gradient-4" cx="467.23" cy="423.65" r="117.09" gradientUnits="userSpaceOnUse"><stop offset="0" stop-color="#3b4951"/><stop offset="0.25" stop-color="#293035"/><stop offset="0.46" stop-color="#1c1f21"/><stop offset="0.65" stop-color="#060000"/><stop offset="0.88" stop-color="#313d4f"/></radialGradient><radialGradient id="radial-gradient-5" cx="455.92" cy="385.49" r="65.69" gradientUnits="userSpaceOnUse"><stop offset="0.18" stop-color="#b6bbbe"/><stop offset="0.3" stop-color="#999fa3"/><stop offset="0.53" stop-color="#6c7378"/><stop offset="0.72" stop-color="#4b5459"/><stop offset="0.89" stop-color="#364046"/><stop offset="1" stop-color="#2f393f"/></radialGradient></defs><title>soccer</title><circle class="cls-1" cx="82.61" cy="83.08" r="82.52"/><path class="cls-2" d="M491.34,420.38c21.31-6.93,46.18-8.53,46.18-8.53s14.92-4.44-3.91-2.84-43.69,8.16-43.69,8.16S470,427.3,491.34,420.38Zm-58.87-1.55a69.46,69.46,0,0,0-25.77-3.32c-2.41,1-.24,2.43-.24,2.43s23,1,26.08,5.51S432.47,418.83,432.47,418.83Zm30.68-21.65c-.15-2.81.78-22.78,5.62-30.27s-2.65-.94-2.65-.94-6.81,12.47-5.72,31.66C463.52,399.66,463.31,400,463.15,397.18ZM441,454.59s-8.7,16.89-8.4,35.26c1.51,6.48,2.86.69,2.86.69s.42-19,8.71-34C451.8,442.79,441,454.59,441,454.59Zm42-.55c-8.11-16.38-3.81,1-3.81,1s13.36,22.82,32.86,32.33c3.75-.47,2.31-1.86,2.31-1.86S491.05,470.43,482.94,454Zm63.92-18.86c1.57,5.92-3.48,31-11.44,40.62a16,16,0,0,1,2.36,1.46s11.87-15.43,11.89-39.58C549.19,428.77,546.69,434.53,546.86,435.18Zm-46.73,75.9s-24.67,3.8-43-2c-2.18,1.09-1.49,2.52-1.49,2.52s23,7.23,47.34,1.15C511.09,509,500.13,511.08,500.13,511.08Zm-99.08-78.33s-.47-4.21-1.56,2.19c-1.4,34.17,15.91,49.93,15.91,49.93s4.82,3.16,3-.59C400,468.67,401.06,432.75,401.06,432.75Zm127.79-42.44s8.11,6.56,2.18-.93c-12.64-20.29-30.47-27.17-32.5-27.63s-8.12-1.09-5.77.47C515.23,367.24,528.85,390.31,528.85,390.31Z" transform="translate(-397.71 -357.73)"/><path class="cls-3" d="M525.59,413.48A229.92,229.92,0,0,0,497.84,419c-1.41.54-1.84,1.3-2.82,4s-9.54,29-10.19,31.33.44,1.3,1.19-.65,9.75-26.88,10.94-29.8,3.25-3.47,8.13-4.55,19-4.55,20.48-4.66S527.22,413.37,525.59,413.48Z" transform="translate(-397.71 -357.73)"/><path class="cls-4" d="M507,485.18c-2.94-1.59-13.47-9.43-19.1-16.77s-6.49-9.06-8.45-9.18-24,.24-33.42-.49c-2,.12-6.61,4.29-9.55,25.83-.24,1.83,1.47-2.57,2.45-6.86s4.41-15.16,7.1-16.4c1.59-.74,13.34,0,22.53-.12,9.56-.13,10.9-.37,12.73,1.84,2.34,2.8,12.24,16.89,25.46,22.65C508.58,486.16,507,485.18,507,485.18Z" transform="translate(-397.71 -357.73)"/><path class="cls-5" d="M408.31,420.17c.51-.6.54-1.62,3.52-1.36s13.24,1.65,14.76,2.38,1.59,2.58,2.52,6.42,3.77,12.58,6,18.34,5.1,11.19,3.31,9.4-8.41-17.41-10.52-24.16-2-7.61-4.7-8.34a109.83,109.83,0,0,0-10.86-2.38C410.24,420.27,407.77,420.8,408.31,420.17Z" transform="translate(-397.71 -357.73)"/><path class="cls-6" d="M467.8,370.13c-.64,1.22-3.61,9.4-3.92,24.47.1.93,1.24,1,3.3,2.17s20.44,11.56,23.75,14,1.65,0-2.06-3.1S471.51,396,469.55,395s-3.1-1.55-3.3-4,.72-11.77,1.45-15.39S468.83,368.17,467.8,370.13Z" transform="translate(-397.71 -357.73)"/><path class="cls-7" d="M460,389.55c-.31,3.51-.1,5.47-1.24,6.2a127.59,127.59,0,0,0-29.12,20c-.93.93-1.86.93-4.54.21s-1.45-1,.93-1.45,8.05-5.68,14.25-10.22,14-8.16,15.49-9.09a6.14,6.14,0,0,0,2.69-3.51C458.71,390.47,460.13,387.49,460,389.55Z" transform="translate(-397.71 -357.73)"/><path class="cls-8" d="M456.56,514.24c1.14-.53,1.87-1.53,3.57-1.19s18.27,4.25,35.44,1.44c.77-.17.85.09,2.64,1s-.6.34-1.53.25-8.24,1.19-16.91,1A96.71,96.71,0,0,1,461,514.41C458.68,513.81,455.28,514.83,456.56,514.24Z" transform="translate(-397.71 -357.73)"/><path class="cls-9" d="M555,437.11c-1.36.63-4.57,2.24-4.67,4s-2,20.63-8.94,31.71c-.51.71.81,3.76,1.42,6.3s.41-3.15.3-4.57,4.17-8.33,6.2-17.28,2.34-13.93,2.64-15.45,2-3.35,3.46-4.27S556.54,436.4,555,437.11Z" transform="translate(-397.71 -357.73)"/><path class="cls-10" d="M500.85,362a68.62,68.62,0,0,1,27.85,23.07,5.88,5.88,0,0,0,3,1.22s-1.22-1.7-4.68-6.2c-4.37-5.69-13.72-13.62-19.52-16S498,360.27,500.85,362Z" transform="translate(-397.71 -357.73)"/><path class="cls-11" d="M512.49,485.23s-20.3-11.47-32.3-33.54c-4.06-5.65-1.23,1.24-1.23,1.24s13.06,22.24,32.13,33.18C514.08,486.47,512.49,485.23,512.49,485.23Zm36.49-48c-.88-20.83-1.26-.6-1.26-.6a72.47,72.47,0,0,1-10.17,37.31c-11.12,18.36,1.06.35,1.06.35S549.87,458,549,437.22Zm-18.84-26.12s-13.95.35-39,7.24,1.24.71,1.24.71,26.3-6.89,37.42-6.71S530.15,411.09,530.15,411.09Zm-.55-20.54c14.83,24.36-.15-2.05-.15-2.05S518,368.9,497,362c-3.88-.71-3.84-.13-3.84-.13S514.76,366.19,529.59,390.55Zm-67.13,6.17c-.3-2.09-.06-19.21,5.23-29.54,4.69-9.14-1.28-.37-1.28-.37s-6.12,11.93-5.15,30.06C462.09,401.94,462.76,398.81,462.47,396.72Zm-54,19.39s-3.59,1.17-.25,1.25a77.19,77.19,0,0,1,20.93,2.92s2.75.83,1.42-.92C421.44,415.53,408.52,416.11,408.52,416.11ZM442.81,454a75.92,75.92,0,0,0-9.4,33.23c.93,4.63,1.72,1.72,1.72,1.72s-1.85-13.11,8.08-32.83C447.58,444.89,442.81,454,442.81,454Zm-26.48,29.26c-16.15-15.62-16-47.26-16-47.26s-1.32-4.77-.4,6.62c2,28.86,15.22,41,15.22,41S421,487.26,416.33,483.29Zm82.08,28.46A91.7,91.7,0,0,1,457.64,510s-20-4.16.26,1.32a93.09,93.09,0,0,0,39.58,1.72S504.37,510,498.41,511.75Z" transform="translate(-397.71 -357.73)"/><path class="cls-12" d="M494.93,414.76c-8.06-7-28.07-17.53-30.9-18.74-2-.88-2.2-1.17-4.54,0-11.57,5-27.53,18.3-29.73,20.65s-2.05,1.61-1.46,4.83c2.05,11.86,9.37,30,11,32.95s1.61,3.22,3.81,3.51c4.39.44,32.8,1,36.75.44s3.37-.88,4.25-3.37c1.32-4.39,11.13-33.68,11.86-35.44S497.13,416.81,494.93,414.76ZM459.2,509.66c-11.42-6.3-23-20.65-23.72-22s-1.32-1.91-4.25-2.2-13.47-2.49-14.64-2.93-2.2-2.2-2.49,1.32a29,29,0,0,0,.72,7c6.67,10.71,21.56,22.26,32.75,25.68a22.56,22.56,0,0,0,10.91-4C460.22,511.27,461.1,510.83,459.2,509.66ZM413,393.18c-9,9.59-16.41,30.5-15.16,46.6,1.63-.57,2.82-.38,2.93-1.58.44-6,6.3-17.57,7.61-19.33s1.32-2.05,1.32-3.66c-.15-4.25,3.81-20.21,4.69-21.82C414.67,392.86,414,392.89,413,393.18Zm124,80c-3.66,2.49-20.5,9.37-23.87,10.1s-3.37.29-4.25,4.1c-2.34,8.35-9.23,20.65-11.13,22.7s-2,2.78-1,3.81,4.25,3.37,10,3.81a17.58,17.58,0,0,0,4.47-.38c11.74-3.44,26.62-14.48,32.37-23.47.9-8-1.77-17.58-2.72-19.21S539.16,471.88,537,473.19ZM464.76,369.51c2.49.29,2.35-.59,6-1.46s13.91-4.25,25.92-4.69c2.46-.29,3.47-.87.11-3.42-2.82-1.44-11.28-2.21-16.93-2.21-14.91,0-33.1,5.77-40.48,11.49C441.79,369.17,457.42,368.52,464.76,369.51Zm77,16.36-.13,0c-1.9,1-9.37,1.17-11.42,1.17s-2.78.29-2.78,2.34-1.17,18.16-1.61,20.21.15,2.78,2.34,5,15.52,20.5,17.72,23.58,2.64,2.34,4.1,1.17,8.35-5.27,12.3-5.12l.21,0C562.89,417.78,553.14,396.87,541.77,385.87Z" transform="translate(-397.71 -357.73)"/><path class="cls-13" d="M459.41,398.3a156.54,156.54,0,0,0-26.76,18.23c-1.78,2.38,10.09,8.71,29.5,10.89s25.62,2,28.33-4.94c.8-2.05,1.61-4.08,1.13-5.32-.79-2-4.52-4.15-11.43-8.49C467.74,400.88,461.56,397.29,459.41,398.3Z" transform="translate(-397.71 -357.73)"/></svg>