<svg id="Layer_1" data-name="Layer 1" xmlns="http://www.w3.org/2000/svg" xmlns:xlink="http://www.w3.org/1999/xlink" viewBox="0 0 165.05 165.05"><defs><style>.cls-1{fill:url(#radial-gradient);}.cls-2{fill:url(#radial-gradient-2);}.cls-3{fill:url(#radial-gradient-3);}</style><radialGradient id="radial-gradient" cx="70.55" cy="65.52" r="125.44" gradientUnits="userSpaceOnUse"><stop offset="0.08" stop-color="#aadd3a"/><stop offset="0.26" stop-color="#abd733"/><stop offset="0.43" stop-color="#adcc27"/><stop offset="0.51" stop-color="#a1bd23"/><stop offset="0.65" stop-color="#869c1b"/><stop offset="0.87" stop-color="#a6b620"/></radialGradient><radialGradient id="radial-gradient-2" cx="493.75" cy="383.04" r="135.75" gradientUnits="userSpaceOnUse"><stop offset="0" stop-color="#fff"/><stop offset="0.43" stop-color="#d6d6e0"/><stop offset="0.5" stop-color="#c8c8d1"/><stop offset="0.62" stop-color="#a3a3ab"/><stop offset="0.65" stop-color="#9a9aa2"/><stop offset="0.89" stop-color="#d1d1d1"/></radialGradient><radialGradient id="radial-gradient-3" cx="493" cy="381.66" r="132.39" gradientUnits="userSpaceOnUse"><stop offset="0" stop-color="#e6e6e6"/><stop offset="0.43" stop-color="#bdbdc7"/><stop offset="0.5" stop-color="#afafb8"/><stop offset="0.62" stop-color="#8a8a92"/><stop offset="0.65" stop-color="#818189"/><stop offset="0.89" stop-color="#b8b8b8"/></radialGradient></defs><title>tennis</title><circle class="cls-1" cx="82.52" cy="82.52" r="82.52"/><path class="cls-2" d="M534.66,342.83c15.14-6.24,29.78,3.9,37.95,12.72a83,83,0,0,0-13.17-14.23c-4.66-3.23-9.32-5.22-14-5.73-17.71-2-33.28,12-37.83,29.47-4.92,18.92.46,30.55,3.73,38.15,6.69,15.52,18.36,25.3,25.33,39.89,8.47,17.74,3.5,29.25-.26,33.36-4.85,5.29-12.24,7.89-18,9.18a81.81,81.81,0,0,0,18.36-5c4.12-2.39,7.13-5.25,8.82-8.5a28.15,28.15,0,0,0,2.82-13.91c-.48-19.06-14.92-32.7-27.54-54C507.83,382.19,513.66,351.47,534.66,342.83Zm-83.33-.57a23.38,23.38,0,0,0-6.19,8.42c-2.8,6.66,1,16.64,1.49,26,.6,11.5-2,24.89-10.53,41.9-4.73,9.45-4.77,18.71-2.44,25.38a82.65,82.65,0,0,0,11,15.37c-13.9-15.86-5.64-31.88,1.08-44.89,9.87-19.07,9.91-32.86,5.14-53.66-2.82-12.31,1.85-17.93,5.56-22.72C454.71,339.4,453,340.79,451.33,342.26Z" transform="translate(-423.49 -321.62)"/><path class="cls-3" d="M559.44,341.18c-4.66-3.23-9.32-5.22-14-5.73-17.71-2-33.28,12-37.83,29.47-4.92,18.92.46,30.56,3.73,38.15,6.69,15.52,18.36,25.3,25.33,39.89,8.47,17.74,3.5,29.25-.26,33.36-4,4.35-9.7,6.87-14.8,8.35l.77-.18c18.56-4.64,19.78-16.27,20.19-20.36.33-5.38-.72-12.16-4.58-20.24-7-14.6-18.64-24.37-25.33-39.89-3.27-7.6-9.25-20-4-38.8s20.35-30.77,38.06-28.82a30,30,0,0,1,13,5.1C559.64,341.37,559.55,341.27,559.44,341.18Zm-114.3,9.37c-2.8,6.66,1,16.64,1.49,26,.6,11.5-2,24.89-10.53,41.9-4.73,9.45-4.77,18.71-2.44,25.38.54,1,1.13,1.93,1.71,2.88l0-.1c-1.07-1.93-5.31-11.66,1.64-27.44,7.66-17.4,11.23-30.89,10.63-42.4-.32-6.2-2.67-15.43-2.85-18.42-.27-4.62.74-9.18,5.68-15.35A22.83,22.83,0,0,0,445.14,350.55Z" transform="translate(-423.49 -321.62)"/></svg>