<svg id="Layer_1" data-name="Layer 1" xmlns="http://www.w3.org/2000/svg" xmlns:xlink="http://www.w3.org/1999/xlink" viewBox="0 0 166.56 168.96"><defs><style>.cls-1{fill:url(#linear-gradient);}.cls-2{fill:url(#radial-gradient);}.cls-3{fill:url(#linear-gradient-2);}</style><linearGradient id="linear-gradient" x1="425.29" y1="331.35" x2="338.82" y2="414.66" gradientUnits="userSpaceOnUse"><stop offset="0" stop-color="#fff"/><stop offset="0.43" stop-color="#d6d6e0"/><stop offset="0.5" stop-color="#c8c8d1"/><stop offset="0.62" stop-color="#a3a3ab"/><stop offset="0.65" stop-color="#9a9aa2"/><stop offset="0.89" stop-color="#d1d1d1"/></linearGradient><radialGradient id="radial-gradient" cx="330.09" cy="309.11" r="50.81" gradientUnits="userSpaceOnUse"><stop offset="0.09" stop-color="#f25e21"/><stop offset="0.11" stop-color="#f05b20"/><stop offset="0.35" stop-color="#cf2909"/><stop offset="0.46" stop-color="#c21500"/><stop offset="0.65" stop-color="#9c0000"/><stop offset="0.88" stop-color="#c73300"/></radialGradient><linearGradient id="linear-gradient-2" x1="317.03" y1="359.81" x2="381.09" y2="300.49" gradientUnits="userSpaceOnUse"><stop offset="0.02" stop-color="#bf1f00"/><stop offset="0.1" stop-color="#a91a00"/><stop offset="0.19" stop-color="#991600"/><stop offset="0.25" stop-color="#941500"/><stop offset="0.65" stop-color="#850000"/><stop offset="0.98" stop-color="#bf1f00"/></linearGradient></defs><title>badminton</title><path d="M370.8,312.89l3.47-3.47s38.82,22.09,82.37,33.13c-11.68,3.15-85.23,48.62-105.73,98.79-3.14-14.21-12.61-61.86-26.5-88.06C330.41,338.77,370.8,312.89,370.8,312.89Z" transform="translate(-300.93 -282.24)"/><path class="cls-1" d="M439.2,401.31c3.19-3.61,6.09-7.21,8.67-10.75L451.5,393q3.61-4.93,6.43-9.67l-3.83-2.18a85.77,85.77,0,0,0,5.06-9.81c1.48.71,2.8,1.32,4,1.89a60.79,60.79,0,0,0,3-8.34c-1.26-.49-2.63-1-4.16-1.65a33.55,33.55,0,0,0,1.17-7.92c1.58.54,3,1,4.29,1.43a21.62,21.62,0,0,0-.54-6.1c-1.35-.38-2.86-.81-4.54-1.31a12.54,12.54,0,0,0-3-5.1c1.59.42,3.65.89,5.07,1.23a7.33,7.33,0,0,0-4-2.45c-13.16-2.9-68.89-20.16-93.41-40.25l-1.4.36c4.86,4,.91,15.21-9.66,26.43-11.52,12.23-26.56,19.81-33.58,17-1.11-.45-3.36-1.51-4-2.4,17.52,26.41,29.86,85.1,31.52,98.67a6.3,6.3,0,0,0,1.76,4c-.19-1.45-.52-3.77-.78-5.44a12.3,12.3,0,0,0,4.61,3.82c.33,1.75.6,3.32.83,4.71h0a20.89,20.89,0,0,0,6.1,1.32c-.28-1.32-.59-2.76-1-4.37a31.67,31.67,0,0,0,8.12-.24c.45,1.55.83,2.94,1.18,4.22a58.56,58.56,0,0,0,8.64-2.08c-.42-1.24-.89-2.6-1.42-4.11a85.92,85.92,0,0,0,10.2-4c.65,1.46,1.21,2.77,1.73,4q4.93-2.28,10.05-5.23c-.61-1.16-1.28-2.42-2-3.83,3.67-2.13,7.39-4.52,11.12-7.15l2.39,3.62c3.47-2.45,6.94-5.08,10.37-7.9l-2.71-3.4c3.69-3,7.32-6.29,10.86-9.72l3.06,3.1q2.9-2.82,5.72-5.79c1.31-1.39,2.55-2.78,3.78-4.18Zm18-40c-2.08-.87-4.31-1.82-6.67-2.84a30.86,30.86,0,0,0,1.08-7.24c2.38.88,4.63,1.7,6.72,2.45A32.32,32.32,0,0,1,457.19,361.28ZM454.68,343a12.09,12.09,0,0,1,2.87,4.91c-2.08-.65-4.32-1.37-6.68-2.15a11.46,11.46,0,0,0-2.73-4.66C450.46,341.76,452.65,342.4,454.68,343Zm-.24,26.12a83.19,83.19,0,0,1-4.88,9.45c-2-1.15-4.06-2.39-6.29-3.72a79,79,0,0,0,4.63-9C450.22,367,452.41,368.1,454.44,369.09Zm-10-13.32c-2.54-1.13-5.18-2.33-7.89-3.57a27.36,27.36,0,0,0,1-6.45c2.73,1.1,5.39,2.14,8,3.13A29.18,29.18,0,0,1,444.44,355.77Zm-2.24-16.54a10.87,10.87,0,0,1,2.59,4.44c-2.54-.88-5.19-1.81-7.91-2.79a10.16,10.16,0,0,0-2.42-4.15C437.12,337.62,439.71,338.45,442.2,339.24ZM442,362.83a75.13,75.13,0,0,1-4.41,8.54c-2.4-1.46-4.89-3-7.46-4.58a69.62,69.62,0,0,0,4.13-8C436.88,360.2,439.46,361.55,442,362.83Zm-61.57-2.78c-2,2-4.07,3.8-6.17,5.53q-3.08-3.71-6.06-7.28c1.92-1.59,3.82-3.29,5.67-5.09Zm-1.73-11.89c1.67-1.89,3.19-3.77,4.54-5.61,2.39,2,4.85,3.93,7.36,5.92-1.47,2-3.12,4-4.93,6.1C383.25,352.4,380.92,350.26,378.66,348.16Zm-10.13,21.79c-2.11,1.5-4.23,2.86-6.31,4.08-1.71-2.7-3.42-5.37-5.11-7.95,1.91-1.12,3.86-2.37,5.81-3.75C364.76,364.8,366.63,367.35,368.52,369.94Zm-5.19-17.39c-1.9-2.26-3.75-4.44-5.53-6.52,1.69-1.4,3.36-2.89,5-4.47,1.87,2,3.84,4.07,5.87,6.22C366.93,349.46,365.14,351.06,363.34,352.55Zm-4.93,3.78c-1.83,1.29-3.65,2.47-5.45,3.52-1.65-2.44-3.28-4.77-4.87-7,1.68-1,3.39-2.09,5.1-3.3C354.88,351.71,356.62,354,358.41,356.33Zm-1.73,20.6a48.46,48.46,0,0,1-5.79,2.28c-1.39-2.85-2.8-5.65-4.21-8.36a44.63,44.63,0,0,0,5.33-2.11C353.57,371.4,355.13,374.14,356.68,376.93Zm-8.5-14.57a41.82,41.82,0,0,1-5,2c-1.42-2.55-2.83-5-4.24-7.28a39.5,39.5,0,0,0,4.68-1.85C345.12,357.47,346.65,359.86,348.18,362.36Zm-5.88,9.55c1.29,2.73,2.57,5.56,3.83,8.45a18.24,18.24,0,0,1-4.61.16q-1.69-4.34-3.46-8.46A16.87,16.87,0,0,0,342.3,371.91Zm6.9,15.7c1.22,3,2.41,6,3.58,9a21,21,0,0,1-5.38.18c-1-3-2.06-6-3.14-9A19.57,19.57,0,0,0,349.2,387.61ZM355.6,404c1.11,3,2.19,6,3.22,8.92a24.49,24.49,0,0,1-6.23.2c-.88-2.93-1.79-5.92-2.75-8.93A22.52,22.52,0,0,0,355.6,404Zm2.75-8.77c-1.32-3-2.66-5.94-4-8.87a52.47,52.47,0,0,0,6.21-2.45c1.54,2.86,3.07,5.76,4.58,8.66A57.22,57.22,0,0,1,358.35,395.26Zm10.44,4.51c1.46,2.89,2.89,5.76,4.28,8.57a65,65,0,0,1-7.82,3.07c-1.19-2.9-2.43-5.84-3.7-8.8A61.69,61.69,0,0,0,368.79,399.77Zm2.78-10.56c-1.69-2.8-3.39-5.61-5.11-8.38,2.23-1.3,4.5-2.77,6.77-4.37,1.9,2.65,3.81,5.33,5.7,8C376.46,386.2,374,387.79,371.56,389.21Zm12,1.85c1.86,2.66,3.7,5.29,5.49,7.88-2.86,2-5.71,3.86-8.53,5.5-1.58-2.72-3.2-5.5-4.85-8.29C378.3,394.63,380.94,392.93,383.58,391.06Zm2-11.71c-2.07-2.53-4.16-5.07-6.24-7.59,2.25-1.85,4.46-3.83,6.62-5.93l6.83,7.06C390.44,375.18,388,377.34,385.59,379.35Zm6-19.4c1.95-2.2,3.71-4.39,5.29-6.54,2.58,2,5.18,4,7.79,6q-2.58,3.52-5.76,7.12C396.46,364.33,394,362.14,391.58,360Zm6.84,18.75,6.69,6.88c-2.71,2.64-5.5,5.13-8.33,7.46l-6.07-7.44C393.33,383.45,395.9,381.14,398.42,378.7Zm6.54-6.85c2.27-2.56,4.32-5.12,6.16-7.62,2.6,1.94,5.18,3.85,7.72,5.7-2,2.71-4.21,5.47-6.66,8.24ZM425,374.43c2.44,1.77,4.82,3.47,7.11,5.1-2.25,3.08-4.77,6.21-7.55,9.35l-6.63-5.71C420.54,380.23,422.9,377.3,425,374.43ZM429.7,349c-2.8-1.33-5.66-2.71-8.52-4.13a23.94,23.94,0,0,0,.85-5.62c2.89,1.27,5.76,2.49,8.59,3.67A25.76,25.76,0,0,1,429.7,349Zm-2-14.57a9.56,9.56,0,0,1,2.28,3.91c-2.81-1.06-5.67-2.18-8.54-3.33a8.81,8.81,0,0,0-2.1-3.62C422.2,332.45,425,333.46,427.75,334.43Zm-8.6,16.19c2.81,1.57,5.61,3.11,8.36,4.6a67,67,0,0,1-3.9,7.52c-2.65-1.68-5.36-3.41-8.08-5.16A61.77,61.77,0,0,0,419.15,350.62Zm-5.08-9.33c-2.87-1.47-5.72-3-8.54-4.5a20.71,20.71,0,0,0,.73-4.82c2.84,1.39,5.72,2.75,8.61,4.07A22.33,22.33,0,0,1,414.07,341.29ZM412.4,328.7a8.2,8.2,0,0,1,2,3.38c-2.87-1.21-5.74-2.46-8.56-3.75a7.61,7.61,0,0,0-1.8-3.1C406.78,326.42,409.59,327.58,412.4,328.7Zm-8.63,13c2.77,1.67,5.58,3.31,8.4,4.93a57.37,57.37,0,0,1-3.37,6.5c-2.72-1.8-5.44-3.63-8.12-5.46A52.74,52.74,0,0,0,403.77,341.72ZM398.63,333c-2.74-1.55-5.41-3.12-8-4.69a17.65,17.65,0,0,0,.64-4.13c2.6,1.46,5.29,2.91,8.05,4.33A19.25,19.25,0,0,1,398.63,333Zm-1.41-10.78a7,7,0,0,1,1.68,2.89c-2.74-1.33-5.42-2.68-8-4.06a6.54,6.54,0,0,0-1.54-2.66C391.89,319.68,394.53,321,397.22,322.2Zm-8.09,10.32c2.55,1.69,5.18,3.38,7.87,5.06a49.61,49.61,0,0,1-2.89,5.57q-3.92-2.76-7.64-5.5A45.29,45.29,0,0,0,389.13,332.52Zm-4.69-8.13c-2.42-1.58-4.72-3.15-6.88-4.71a15.51,15.51,0,0,0,.56-3.63c2.17,1.49,4.49,3,6.92,4.46A16.54,16.54,0,0,1,384.43,324.39Zm-1.21-9.31a6.05,6.05,0,0,1,1.44,2.49c-2.42-1.41-4.73-2.84-6.89-4.27a5.65,5.65,0,0,0-1.35-2.33C378.57,312.37,380.84,313.74,383.23,315.09Zm-7,8.31c2.14,1.64,4.41,3.3,6.79,5a42.62,42.62,0,0,1-2.5,4.81c-2.32-1.79-4.54-3.55-6.63-5.28A39.78,39.78,0,0,0,376.23,323.39Zm-4.79-15.9a5.39,5.39,0,0,1,1.29,2.23c-.67-.51-1.33-1-2-1.54A5.42,5.42,0,0,0,369.5,306C370.13,306.48,370.78,307,371.44,307.49Zm1.62,4.86a15,15,0,0,1-.54,3.48c-.68-.55-1.33-1.09-2-1.63a14.56,14.56,0,0,0,.53-3.43Q372,311.57,373.06,312.36Zm-3.75,5.37q.94.84,1.94,1.68a38.74,38.74,0,0,1-2.25,4.31q-1-.88-1.91-1.73A37.45,37.45,0,0,0,369.31,317.72ZM371,332.2q3.05,2.71,6.44,5.57c-1.27,1.73-2.7,3.5-4.26,5.27-2.15-2-4.21-4-6.17-5.91C368.49,335.46,369.82,333.81,371,332.2Zm-6.64-6.14c.6.59,1.23,1.18,1.87,1.79-1.14,1.56-2.42,3.14-3.83,4.73l-1.82-1.85C362,329.15,363.24,327.58,364.37,326.05Zm-7.79,8.86,1.77,1.91c-1.55,1.51-3.16,2.95-4.78,4.29l-1.71-2C353.47,337.82,355,336.4,356.59,334.91Zm-9.08,7.58,1.65,2c-1.64,1.16-3.28,2.22-4.89,3.16q-.8-1.05-1.58-2C344.27,344.67,345.89,343.63,347.51,342.48Zm-9.05,5.35q.75,1,1.52,2.08a37.9,37.9,0,0,1-4.49,1.78q-.73-1.08-1.46-2.1A37.65,37.65,0,0,0,338.45,347.84ZM335.1,358c1.33,2.31,2.65,4.77,4,7.34a15.76,15.76,0,0,1-4,.14c-1.22-2.57-2.46-5-3.72-7.34A14.68,14.68,0,0,0,335.1,358Zm-4.71-7.52c.47.68.94,1.39,1.42,2.11a13.94,13.94,0,0,1-3.57.13q-.68-1.09-1.37-2.11A14,14,0,0,0,330.39,350.47Zm-6.81-.12c-.43-.72-.87-1.41-1.3-2.08a5.31,5.31,0,0,0,2,1.63c.45.68.89,1.38,1.33,2.1A5.33,5.33,0,0,1,323.58,350.36Zm6.33,12.48c-1.09-2.5-2.22-4.91-3.38-7.17a5.56,5.56,0,0,0,2.11,1.73c1.2,2.3,2.38,4.74,3.53,7.29A6,6,0,0,1,329.9,362.84Zm5.61,14.61c-1-2.8-2-5.55-3-8.21a6.37,6.37,0,0,0,2.4,2c1.1,2.71,2.16,5.52,3.19,8.38A7,7,0,0,1,335.51,377.45Zm4.87,15.72c-.82-2.91-1.68-5.81-2.57-8.69a7.49,7.49,0,0,0,2.8,2.3c1,2.94,1.92,5.91,2.82,8.89A8.08,8.08,0,0,1,340.38,393.17ZM344.46,409c-.67-2.83-1.39-5.71-2.14-8.61a8.67,8.67,0,0,0,3.27,2.69c.84,3,1.64,5.92,2.41,8.83A9.36,9.36,0,0,1,344.46,409Zm1.58,6.88h0a9.93,9.93,0,0,0,3.75,3.1c.69,2.8,1.34,5.52,1.94,8.14a10.7,10.7,0,0,1-4-3.32C347.21,421.24,346.64,418.59,346,415.86Zm4.08,20.68c-.36-2.07-.76-4.31-1.2-6.67a11.27,11.27,0,0,0,4.21,3.48c.53,2.43,1,4.72,1.43,6.86A11.85,11.85,0,0,1,350.12,436.54Zm4.55-16.24a26,26,0,0,0,6.61-.21c1,2.83,1.87,5.58,2.73,8.23a27.8,27.8,0,0,1-7.07.22C356.24,425.89,355.47,423.13,354.67,420.3Zm5.66,21.52c-.52-2.16-1.1-4.49-1.72-6.94a29.17,29.17,0,0,0,7.42-.23c.77,2.45,1.48,4.77,2.12,6.94A30.58,30.58,0,0,1,360.33,441.82Zm7.79-23.34a70.08,70.08,0,0,0,8.3-3.26c1.31,2.72,2.57,5.36,3.77,7.9a74.67,74.67,0,0,1-8.88,3.48C370.31,424,369.24,421.26,368.12,418.47Zm8.12,21.21c-.78-2.13-1.63-4.43-2.54-6.85a78.39,78.39,0,0,0,9.33-3.65c1.09,2.35,2.11,4.58,3,6.65A82.87,82.87,0,0,1,376.24,439.68Zm8.12-28.62c3-1.74,6-3.69,9.05-5.83,1.71,2.49,3.36,4.9,4.94,7.22-3.24,2.29-6.48,4.38-9.67,6.23C387.3,416.23,385.86,413.68,384.36,411.06Zm11.11,19.87c-1.09-2-2.27-4.14-3.52-6.4,3.35-1.95,6.76-4.14,10.16-6.54l4.07,6.05C402.59,426.56,399,428.87,395.46,430.92Zm11.63-25.17-5.5-6.79c3-2.47,6-5.12,8.84-7.92l6.11,6.25C413.46,400.28,410.3,403.11,407.09,405.75Zm8.76,10.87L411.29,411c3.37-2.78,6.69-5.75,9.93-8.9l5.1,5.19C422.91,410.56,419.41,413.7,415.86,416.63Zm19.35-18.68-5.56-4.71c2.92-3.3,5.57-6.59,7.93-9.83l6,4.19C441.07,391,438.28,394.46,435.2,397.94Z" transform="translate(-300.93 -282.24)"/><path class="cls-2" d="M316.63,293.23c6.28-5.58,24.44-16.85,43.25-7.27,7.45,4.05,14.23,12.21,14.82,15s5.57,15.39-14.94,35.58c-19.16,18.86-36.13,18.82-40.39,17.61s-7.7-4.3-13.08-11.43S294.07,313.29,316.63,293.23Z" transform="translate(-300.93 -282.24)"/><path class="cls-3" d="M374.7,301c-.29-1.35-2-3.95-4.56-6.73,2.24,4.19,4.08,22.49-18.58,40.73-23.35,18.81-37.81,15.42-39.29,14.67,0,0-.08,0-.11,0a16.61,16.61,0,0,0,7.21,4.54c4.26,1.21,21.23,1.25,40.39-17.61C380.27,316.37,375.29,303.79,374.7,301Z" transform="translate(-300.93 -282.24)"/></svg>