<svg id="Layer_1" data-name="Layer 1" xmlns="http://www.w3.org/2000/svg" xmlns:xlink="http://www.w3.org/1999/xlink" viewBox="0 0 165 165"><defs><style>.cls-1{fill:url(#radial-gradient);}.cls-2{fill:url(#radial-gradient-2);}.cls-3{fill:url(#radial-gradient-3);}.cls-4{fill:url(#radial-gradient-4);}</style><radialGradient id="radial-gradient" cx="72.33" cy="104.54" r="125.44" gradientTransform="matrix(1, 0, 0, -1, -1.78, 170)" gradientUnits="userSpaceOnUse"><stop offset="0" stop-color="#fff"/><stop offset="0.43" stop-color="#d6d6e0"/><stop offset="0.5" stop-color="#c8c8d1"/><stop offset="0.62" stop-color="#a3a3ab"/><stop offset="0.65" stop-color="#9a9aa2"/><stop offset="0.89" stop-color="#d1d1d1"/></radialGradient><radialGradient id="radial-gradient-2" cx="71.6" cy="105.32" r="121.73" gradientTransform="matrix(1, 0, 0, -1, 0, 172)" gradientUnits="userSpaceOnUse"><stop offset="0" stop-color="#cdcdcd"/><stop offset="0.43" stop-color="#a4a4ae"/><stop offset="0.5" stop-color="#96969f"/><stop offset="0.62" stop-color="#717179"/><stop offset="0.65" stop-color="#686870"/><stop offset="0.89" stop-color="#9f9f9f"/></radialGradient><radialGradient id="radial-gradient-3" cx="67.51" cy="106.29" r="122.28" gradientTransform="matrix(1, 0, 0, -1, 0, 172)" gradientUnits="userSpaceOnUse"><stop offset="0.09" stop-color="#ff915e"/><stop offset="0.11" stop-color="#fd8e5d"/><stop offset="0.35" stop-color="#e15c46"/><stop offset="0.46" stop-color="#d6483d"/><stop offset="0.65" stop-color="#b0333d"/><stop offset="0.88" stop-color="#db663d"/></radialGradient><radialGradient id="radial-gradient-4" cx="69.59" cy="102.83" r="118.03" gradientTransform="matrix(1, 0, 0, -1, 0, 172)" gradientUnits="userSpaceOnUse"><stop offset="0.09" stop-color="#f5722e"/><stop offset="0.11" stop-color="#f36f2d"/><stop offset="0.35" stop-color="#d73d16"/><stop offset="0.46" stop-color="#cc290d"/><stop offset="0.65" stop-color="#a6140d"/><stop offset="0.88" stop-color="#d1470d"/></radialGradient></defs><title>baseball</title><circle class="cls-1" cx="82.5" cy="82.5" r="82.5"/><path class="cls-2" d="M113,23.1c15.1-6.2,29.8,3.9,37.9,12.7a87.28,87.28,0,0,0-6.7-8.1c-7.4-5.9-14.4-8.2-18.4-8.6-16.3-1.7-30.2,9-34.8,26.5-4.9,18.9.3,30.4,3.9,37.8,5.5,11.3,18.2,24.9,25.1,39.5,7.9,16.9,1.9,30.4-2.6,34.4a44.69,44.69,0,0,1-10.1,6.3c2.8-.8,5.6-1.8,8.3-2.8a22.19,22.19,0,0,0,8.4-8.4,28.22,28.22,0,0,0,2.8-13.9c-.5-19.1-14.9-32.7-27.5-54C86.08,62.5,92,31.8,113,23.1Zm-85.1,1.3a23.78,23.78,0,0,0-4.4,6.6c-2.8,6.7.8,16.7,1.5,26,1.2,15.1-1.9,24.1-10.4,41.1-4.7,9.5-4.4,19.5-2,26.1.3.8.7,1.6,1,2.4a81,81,0,0,0,8.9,12.2c-13.1-15.6-9.8-30.6-3.2-43.4,9.9-19.1,11.1-33.2,6.4-54-2.3-9.8,3.5-17.2,8.2-22.1A73.37,73.37,0,0,0,27.88,24.4Z" transform="translate(-1.78 -2)"/><path class="cls-3" d="M117,155.8c-2.8,1.3-4.1,2.2-3.5,2.7.4.3,3.6-1.2,6.7-2.8,2-1,1.9-.7,4.2-.5,1.7.1,2.5-.2,3-.7.9-.9-.4-.9-2.6-1.2C122.38,152.9,121.78,153.6,117,155.8Zm3-9.2c-2.8,1.7-4.1,3-3.2,4,.5.6,3.8-1.4,7-3.6,2-1.3,2-.8,4.8-.1,2.1.6,2.9.2,3.4-.6.8-1.4-.8-1.6-3.6-2.7C125.28,142.5,124.88,143.7,120,146.6ZM25.68,39.7c2.5.1,4.9,0,5.2-.8.5-1.3-.4-1.8-2.4-1.7-3.8.1-4.1-.7-6.8,2.2s-4.4,4.5-3.6,5.4c.4.6,1.3.3,3.4-2C24,40.1,24,39.6,25.68,39.7Zm93.2,95c-2.2,2-2.9,3.4-1.9,4.5.7.7,3.2-1.6,5.8-4.2,1.7-1.7,1.9-1.1,5.5-.3,3,.6,3.9.2,4.2-.9.5-1.9-1.8-2-5.6-3.1S123,131,118.88,134.7Zm6.2-11.3c-4.3-.8-4.1.7-8,5.2-2.1,2.4-2.7,4-1.5,5.1.8.7,3.2-2.1,5.7-5.2,1.6-2,1.9-1.4,5.8-.9,3.2.4,4.2-.2,4.3-1.4C131.68,124,129.28,124.1,125.08,123.4Zm3.3,14.2c-3.5-1.3-3.8,0-8.4,3.3-2.5,1.8-3.6,3.1-2.6,4.2.6.7,3.5-1.4,6.5-3.8,1.9-1.5,2-.9,5.2-.1,2.5.7,3.4.3,3.8-.7C133.58,138.9,131.68,138.7,128.38,137.6Zm-32.9-72c3.5,2.6,4.7,2.3,5.1.7.8-2.8-1.9-4.2-6.3-7.8s-4.6-1.4-9.7,2.3c-2.7,1.9-3.8,3.8-2.8,6.1.7,1.5,3.9-.9,7.2-3.6C91.18,61.5,91.38,62.6,95.48,65.6Zm-6-13.2c2.4-1.6,2.4-.5,6.2,3,3.2,2.9,4.4,2.8,5,1.2,1.1-2.7-1.5-4.4-5.5-8.4s-4.4-1.9-9.9,1.3c-2.9,1.7-4.2,3.4-3.4,5.8C82.48,56.7,86,54.8,89.48,52.4ZM128.38,17c-2.1-2.1-3.5-3.1-4.5-2.8-.6.2,1.9,2.7,4.7,5.4,1.9,1.8,1.3,1.7,1.1,4.1-.2,2,.5,2.9,1.6,3.5,2,1,1.7-.7,2-3.2S132.38,21.1,128.38,17ZM92.08,42.5c2.7-1.2,2.5-.2,5.8,3.3,2.8,3,4,3,4.9,1.6,1.5-2.4-.8-4.1-4.3-8.2s-4.2-2.2-10.2.2c-3.2,1.2-4.7,2.7-4.3,4.9C84.28,45.8,88.08,44.3,92.08,42.5Zm29.4,73.8c-4.7-.6-4.3.9-7.6,5.7-1.8,2.5-2.2,4.2-.6,5.3,1,.7,3.1-2.3,5.1-5.5,1.4-2.2,1.8-1.5,6-1.2,3.5.3,4.4-.4,4.3-1.7C128.58,116.7,126.08,116.9,121.48,116.3Zm-12.6-94.1c2.8.6,2.3,1.1,3.5,4.5,1.1,3,2.2,3.6,3.6,3.2,2.4-.6,1.1-2.7-.1-6.5s-2.6-3-8.7-4.5c-3.2-.8-5.1-.7-5.8.6C100.88,20.4,104.68,21.3,108.88,22.2Zm13.6-3.4c2.2,1.5,1.6,1.7,1.8,4.5.2,2.4,1,3.3,2.2,3.7,2.1.6,1.5-1.4,1.5-4.4s-1.4-3.1-6.1-6.7c-2.4-1.8-4-2.6-4.9-2C116.38,14.2,119.28,16.4,122.48,18.8Zm-6.8.5c2.6,1.2,2,1.4,2.6,4.5.6,2.6,1.6,3.4,2.9,3.5,2.4.1,1.4-1.9.8-5.2s-2-3.1-7.6-5.9c-2.9-1.4-4.7-1.9-5.6-1C108.38,15.8,111.88,17.6,115.68,19.3Zm17.6-1.1c-1-.7-2-1.5-3-2.2-.2,0-.3-.1-.5,0-.5.1,1.9,2.7,4.5,5.5,1.8,1.8,1.3,1.8,1.2,4,0,2,.6,2.9,1.6,3.5,1.8,1.1,1.5-.6,1.7-3s-1-2.9-4.8-7A1.85,1.85,0,0,0,133.28,18.2Zm-31.4,8.2c2.9.2,2.5.8,4.3,4.4,1.6,3.1,2.8,3.6,4.2,3,2.3-1.1.6-3.2-1.2-7.2s-3.2-2.9-9.6-3.5c-3.3-.3-5.3.1-5.7,1.7C93.58,25.8,97.58,26.2,101.88,26.4Zm-6.1,7.3c2.9-.7,2.6.2,5.3,3.8,2.3,3.2,3.7,3.4,4.8,2.2,2-2-.2-4-3-8.1s-3.8-2.5-10.2-1.1c-3.3.7-5.1,1.8-5.2,3.8C87.48,35.6,91.48,34.8,95.78,33.7Zm19.3,81c1.2-2.3,1.7-1.6,6-1.5,3.6.1,4.4-.6,4.3-1.9-.3-2.3-2.9-2-7.5-2.4-4.8-.4-4.2,1.1-7.2,6.1-1.6,2.7-1.8,4.4-.2,5.5C111.38,121.3,113.28,118.1,115.08,114.7Zm1.3-8.1c3.6.1,4.5-.7,4.2-2.1-.5-2.3-3.1-2-7.9-2.3s-4.2,1.3-6.9,6.5c-1.4,2.8-1.5,4.6.2,5.7,1.1.7,2.8-2.6,4.4-6.2C111.48,105.8,112,106.5,116.38,106.6Zm-5-7.4c3.9.2,4.8-.6,4.6-2-.5-2.4-3.3-2.1-8.4-2.6s-4.4,1.2-7.3,6.4c-1.5,2.7-1.7,4.6.1,5.8,1.1.7,2.9-2.5,4.6-6.1C106.18,98.3,106.78,99,111.38,99.2Zm-4.9-7.4c4,.4,4.9-.4,4.7-1.9-.4-2.5-3.3-2.3-8.4-3s-4.5,1-7.5,6.2c-1.6,2.7-1.8,4.6-.1,5.9,1.1.8,3-2.5,4.8-6.1C101.18,90.6,101.78,91.4,106.48,91.8Zm-5.1-7.6c4.1,1.1,5.1.4,5-1.2-.2-2.7-3.1-3-8.3-4.6s-4.8.3-8.4,5.4c-1.9,2.7-2.4,4.6-.7,6.3,1.1,1,3.4-2.1,5.7-5.7C96.08,82,96.58,82.9,101.38,84.2Zm17.9,67.4c-2.8,1.4-4.2,2.5-3.6,3.3.4.5,3.7-1.3,6.9-3.1,2-1.2,2-.7,4.4-.2,1.8.4,2.6.1,3.2-.6.9-1.1-.5-1.2-2.8-2C124.68,148.2,124.18,149.1,119.28,151.6Zm-107.2-33c2,3.3,4.2,6.8,4.7,6.6.8-.4-.1-2.3-2-5.2-3.2-4.7-3.3-5.8-5.4-6.1a10,10,0,0,0-2.1-.2,23.4,23.4,0,0,0,.9,2.4,4.65,4.65,0,0,0,.9.3C10.78,117,10.88,116.6,12.08,118.6Zm-.6,4.6a63.65,63.65,0,0,0,5.9,9.3,21.9,21.9,0,0,0-2.2-4C13.08,125.5,12.28,124.1,11.48,123.2Zm.1-21.4c-3,.3-4.6,0-4.4,2.1.1,1.2.7,2,2.9,2,2.8.1,3-.6,4.2,1.8,1.7,3.7,3.5,7.1,4.2,6.5,1.1-.9.7-2.9-.9-5.8C14.68,103,14.88,101.4,11.58,101.8Zm-2.7,9.4c2.1.4,2.2-.1,3.3,2,1.8,3.5,3.8,7.2,4.4,6.8,1-.6.3-2.6-1.5-5.6-3-5.1-3-6.4-5.5-6.3-2,.1-3.1-.3-2.9,1.3C6.88,110.3,7.38,110.9,8.88,111.2Zm9.4-22.9c-3.7.6-5.7.3-5.9,2.7-.1,1.4.6,2.1,3.4,1.8,3.4-.3,3.7-1.1,4.7,1.3,1.5,3.5,3,6.6,3.7,5.9,1.2-1.2,1-3-.3-5.6C21.58,89.3,22,87.7,18.28,88.3Zm-3.8,6.8c-3.5.4-5.5,0-5.5,2.4,0,1.4.7,2.2,3.4,2.1,3.2-.1,3.5-.8,4.6,1.6,1.6,3.6,3.2,6.9,3.9,6.2,1.1-1.1.8-3-.6-5.7C17.68,96.3,18,94.7,14.48,95.1Zm131.2-65.6a93.47,93.47,0,0,0-9-8.8c.6.8,1.4,1.7,2.1,2.6,1.6,1.9,1.2,1.8,1.4,3.9a4.68,4.68,0,0,0,1.7,3.5c1.6,1.2,1.1-.4.9-2.6a4.14,4.14,0,0,0-.5-1.9c0,.1.1.1.1.2,1.5,2,1.2,1.8,1.6,3.8a5.77,5.77,0,0,0,1.7,3.5c1.4,1.3.8-.3.5-2.4A3.45,3.45,0,0,0,145.68,29.5Zm3.1,4-.3-.9a22,22,0,0,0-2-2.3c.2.5.3.9.6,1.9a8.93,8.93,0,0,0,1.8,3.4C150.08,37,149.38,35.5,148.78,33.5Zm-34.6,126c-2.6,1.2-3.9,2-3.7,2.5.1.3,3.2-1.2,6.4-2.7a5.15,5.15,0,0,1,3.7-.7c1.1-.6,2.3-1.1,3.4-1.7-.5,0-1.2-.1-2.1-.1C119.68,156.6,119,157.3,114.18,159.5ZM90.78,74.3c1.7-2.3,2.2-1.2,6.8.7,4,1.7,5.1,1.1,5.1-.5.1-2.9-2.8-3.5-7.9-5.9s-4.8-.3-9,4.4c-2.2,2.5-2.8,4.5-1.3,6.5C85.58,80.6,88.18,77.7,90.78,74.3Zm-68.9,6c-3.9,1.6-6.1,1.9-6.1,4.6,0,1.5.8,2.2,3.8,1.1,3.6-1.3,3.9-2.2,5.1.1,1.8,3.4,3.7,6.5,4.5,5.5,1.2-1.6.8-3.6-.8-6.1C25.48,80.6,25.78,78.7,21.88,80.3Zm9.9-24.4c-4.3-2.2-4.5-3.7-7.9-.9s-5.5,3.9-4.7,5.9c.4,1.1,1.4,1.2,4.1-.8,3.2-2.4,3.2-3.2,5.1-2.1,2.8,1.7,5.5,3.1,5.9,2C35,58.3,34.08,57.1,31.78,55.9Zm-.9-28.7c.8-.9.2-1.2-1.5-1-2.1.2-2.9,0-4,.5-1.1,1.1-2.1,2.2-3.1,3.4,2.3-1.6,2.6-1.9,3.9-2C28.38,28,30.38,27.8,30.88,27.2Zm.7-3.3c.8-.8.2-.8-1.4-.4-.8.2-1.4.4-1.9.5-.5.5-1.1,1-1.6,1.5.2-.1.3-.1.5-.2A14.06,14.06,0,0,0,31.58,23.9ZM10,118.6a6.9,6.9,0,0,1-.8-.3c.4.9.9,1.8,1.3,2.8,1,.5,1.2.6,2.2,2.2,2,3.3,4.2,6.7,4.6,6.6.7-.2-.2-2-2.1-4.9C12.08,120.3,11.88,119.3,10,118.6Zm13.7-47.4c-3.7,2.7-5.9,3.5-5.6,6.3.2,1.6,1.1,2.1,4,.2,3.4-2.2,3.7-3.2,5.2-1.1,2.3,3.2,4.6,5.9,5.3,4.6,1-2,.3-3.9-1.6-6.3C27.38,70.6,27.38,68.6,23.68,71.2ZM23.08,49c-3.2,3.1-5.2,4.5-4.4,6.1.5.9,1.5.9,4-1.5,3-2.7,3.1-3.5,5-2.8,2.9,1,5.6,1.8,6,.8.6-1.6-.4-2.6-2.7-3.2C26.58,47.2,26.28,45.9,23.08,49Zm-.9-1c2.8-2.8,2.8-3.4,4.6-3.1,2.7.5,5.3.8,5.7-.2.6-1.5-.4-2.2-2.6-2.4-4.2-.5-4.5-1.5-7.4,1.6s-4.8,4.6-4,5.9C18.88,50.5,19.78,50.3,22.18,48Zm9-26.4c-.1.1-.2.1-.4.1a15.37,15.37,0,0,0-1.3,1.2,14.41,14.41,0,0,0,3-1.4C33.28,20.9,32.68,20.9,31.18,21.6Zm-9.9,12.5c2.8-2.2,2.9-2.5,4.3-2.7,2.2-.2,4.3-.5,4.7-1.2.7-1,0-1.2-1.7-.9-3.3.5-3.4-.1-6.4,2.3q-2.1,1.65-3.3,2.7a12.13,12.13,0,0,0-1,1.4c0,.1-.1.2,0,.2C18.08,36.2,18.88,35.9,21.28,34.1Zm10.5,30.1c-4.1-3.2-4.2-5.1-7.8-1.9s-5.8,4.5-5.2,7c.3,1.5,1.3,1.7,4.1-.7,3.4-2.8,3.5-3.8,5.3-2.2,2.6,2.4,5.2,4.4,5.7,3.1C34.78,67.6,33.88,65.9,31.78,64.2ZM21.08,37.8c2.6-2.3,2.6-2.8,4.2-2.8,2.4,0,4.7-.1,5.1-.8.5-1.2-.3-1.5-2.3-1.4-3.7.1-4-.6-6.7,2s-4.4,3.9-3.7,4.7C18.08,40,18.88,39.8,21.08,37.8Z" transform="translate(-1.78 -2)"/><path class="cls-4" d="M117.88,21.7a17.22,17.22,0,0,1,3.9-.4,3.72,3.72,0,0,0-1.7-2.2,27.61,27.61,0,0,0-4,.6C117.48,20.2,117.78,20.7,117.88,21.7Zm-6.4,2.2c.5-.2,1-.5,1.5-.7.8-.3,1.7-.6,2.5-.9a3.29,3.29,0,0,0-2.1-1.9,36.57,36.57,0,0,0-4.6,1.8h.1C110.68,22.5,111.08,22.9,111.48,23.9Zm1.5,86.8c.8,1.2,1.5,2.4,2.3,3.7a2.35,2.35,0,0,1,2.6-1.4c-.8-1.3-1.7-2.7-2.6-4A3.33,3.33,0,0,0,113,110.7Zm15.7-91c1.3,1.2,1.3,1.6,1.2,2.6a24.15,24.15,0,0,1,3.5,1.2,3.33,3.33,0,0,0-1.2-2.6A16.17,16.17,0,0,0,128.68,19.7Zm-6,128,1-.7c1.1-.8,1.6-.9,2.3-.8.2-1,.3-2,.4-3-1-.1-1.8.4-3.1,1.2A11.38,11.38,0,0,1,122.68,147.7ZM104.88,28.2a24.16,24.16,0,0,1,3.6-2.7,3.49,3.49,0,0,0-2.4-1.8,33.75,33.75,0,0,0-3.8,2.8C103.88,26.6,104.38,27,104.88,28.2Zm13,128.7c.8-.4,1.5-.8,2.3-1.2a4.69,4.69,0,0,1,2-.7,20.28,20.28,0,0,0,1.3-1.8,10.53,10.53,0,0,0-3.8,1.4A15.35,15.35,0,0,1,117.88,156.9Zm-4.3-50.4c-.9-1.4-1.9-2.8-2.9-4.2a2.78,2.78,0,0,0-2.5,1.5c.9,1.2,1.7,2.4,2.6,3.7C111.38,106.4,112,106.4,113.58,106.5Zm-13-19.6a3.05,3.05,0,0,0-2.8,1.7c.8,1.3,1.6,2.6,2.6,4,.7-1.2,1.4-1.3,3.2-1.1C102.48,90,101.58,88.4,100.58,86.9Zm-4.6-9a3.07,3.07,0,0,0-3.1,1.1c.7,1.6,1.4,3.1,2,4.4,0,.1.1.2.2.3.9-1.1,1.6-.9,3.5-.4A33.59,33.59,0,0,1,96,77.9Zm9.6,16.8a3,3,0,0,0-2.7,1.6c.9,1.2,1.7,2.5,2.6,3.7.7-1,1.3-1,3.1-.9C107.58,97.6,106.58,96.1,105.58,94.7Zm17.9,39.8c.9-.7,1.4-.6,2.9-.2-.2-1.3-.4-2.6-.7-3.8a3.31,3.31,0,0,0-2.8.6C123.08,132.2,123.28,133.3,123.48,134.5Zm-2.9-10.2c.5,1.2.9,2.3,1.3,3.5.8-.8,1.4-.8,2.8-.5-.4-1.4-1-2.7-1.5-4.1A3.47,3.47,0,0,0,120.58,124.3ZM93.08,67.8a3.07,3.07,0,0,0-3.4.6,41.64,41.64,0,0,0,1.4,5.6c1-1.2,1.7-1.2,3.4-.4A44.28,44.28,0,0,1,93.08,67.8Zm27.6,85.1a18.58,18.58,0,0,0,1.9-1.1,4,4,0,0,1,1.9-.7,23.41,23.41,0,0,0,.9-2.4,9.5,9.5,0,0,0-3.5,1.5Q121.28,151.7,120.68,152.9Zm-10.1,9.1a44.1,44.1,0,0,0,6.3-2.7,9.27,9.27,0,0,1,1.9-.7c.7-.6,1.4-1.2,2-1.8-1.3.1-2.4.8-5.2,2.1C114.08,159.9,112.38,161,110.58,162Zm15.2-142.9c-1-.1-2-.2-3-.2,1.2.9,1.4,1.3,1.5,2.3,1.2.1,2.5.3,3.7.5a4,4,0,0,0-1.4-2.6A1.1,1.1,0,0,1,125.78,19.1ZM92.48,63.3c-.2-2-.2-4.1-.2-6.1a2.86,2.86,0,0,0-3.2,0,58,58,0,0,0,0,5.9C90.48,62.1,91.08,62.2,92.48,63.3Zm.2-10.8a55.35,55.35,0,0,1,1.1-5.6,2.9,2.9,0,0,0-2.9-.8c-.5,2.2-1,4.2-1.3,6.2C91,51.4,91.58,51.5,92.68,52.5ZM117,117.3c.7,1.2,1.3,2.4,1.9,3.7.7-.8,1.4-.8,3-.7-.7-1.4-1.4-2.8-2.2-4.1A3.1,3.1,0,0,0,117,117.3ZM95.08,42.7a34.78,34.78,0,0,1,2.1-4.8,3.37,3.37,0,0,0-3-1,47.15,47.15,0,0,0-2.4,5.6c.1,0,.1,0,.2-.1C93.58,41.8,94.18,41.9,95.08,42.7Zm4-7.9a30.48,30.48,0,0,1,3.1-4,3.59,3.59,0,0,0-2.5-1.6,38.65,38.65,0,0,0-3.5,4.5C97.78,33.3,98.28,33.6,99.08,34.8ZM123.78,138v3.4l.1-.1c1.2-1,1.7-1.1,2.8-.8a12.05,12.05,0,0,0,0-1.9c0-.5-.1-1-.1-1.5A3.91,3.91,0,0,0,123.78,138Zm-99-109.5a2.9,2.9,0,0,1,1.4-.3,4.1,4.1,0,0,0,1.1-.1,16.18,16.18,0,0,1,1-1.8,11.49,11.49,0,0,0-2.1.2C25.68,27.1,25.28,27.8,24.78,28.5Zm3.1-4.2h0a10.63,10.63,0,0,0-.9,1.1h.1l2.1-.6c.3-.4.6-.9.9-1.3a10.63,10.63,0,0,0-1.8.5A1.38,1.38,0,0,1,27.88,24.3Zm-3,32.7a8.08,8.08,0,0,0,.1,1.6c1.4-1.2,1.9-1.5,3-.8-.1-1.4-.2-2.8-.4-4.2-.9-.3-1.7-.1-3,.8A12.22,12.22,0,0,1,24.88,57ZM16,95.1c-.5,1-1,2-1.5,3.1-.2.4-.3.8-.5,1.2,1.6-.1,2-.2,2.8,1.3.5-1.2,1-2.3,1.5-3.5C17.68,95.9,17.08,95.3,16,95.1Zm118.9-73.2a2.41,2.41,0,0,1,.8,2.4,32.39,32.39,0,0,1,3.2,1.7v-.2a3.78,3.78,0,0,0-.4-2.1Q136.53,22.8,134.88,21.9ZM13.78,121.4c-.2-1.1-.3-2.3-.4-3.4a13.84,13.84,0,0,0-2.6-3.5,24.52,24.52,0,0,0,.2,2.7,4.69,4.69,0,0,1,1.1,1.4C12.68,119.5,13.28,120.5,13.78,121.4Zm10.8-50.7a47,47,0,0,1-1.3,6.3c1.9-1.3,2.5-1.9,3.4-1.1a47.14,47.14,0,0,0,.9-5.2C26.78,69.9,26,69.8,24.58,70.7Zm-5.4,17.5c-.6,1.4-1.3,2.9-2,4.5,1.8-.3,2.3-.4,3,.7.6-1.2,1.2-2.5,1.7-3.6A2.44,2.44,0,0,0,19.18,88.2Zm5.9-51.1a4,4,0,0,0-2.6,1.4,28.25,28.25,0,0,0,.2,2.9c1.2-1.3,1.6-1.8,2.6-1.8A21.05,21.05,0,0,1,25.08,37.1Zm-12.9,76.1c.4.8.8,1.5,1.2,2.3a23.08,23.08,0,0,1,.3-3.7c-1.1-1.9-1.6-3-2.4-3.4a17.33,17.33,0,0,0-.3,3.2C11.38,111.7,11.68,112.1,12.18,113.2Zm2-5.5c0,.1.1.2.1.3.3-1.3.7-2.5,1.1-3.8-.8-1.5-1.4-2.3-2.5-2.5a31.73,31.73,0,0,0-1.2,4.1C13,105.8,13.38,105.9,14.18,107.7Zm11.4-74.9a3.89,3.89,0,0,0-2.9.9,24,24,0,0,0-.3,2.8c1.3-1.2,1.6-1.5,2.8-1.5A17,17,0,0,1,25.58,32.8Zm123.2.7c-.1-.2-.1-.4-.2-.6-.7-.8-1.4-1.7-2.1-2.5a14.37,14.37,0,0,1,.6,1.7c.6.6,1.3,1.1,1.8,1.7A.37.37,0,0,0,148.78,33.5ZM14.28,123.7c-1.5-2.4-2.2-3.6-3-4.3.2.9.3,1.8.5,2.7a8.14,8.14,0,0,1,.8,1.2c1.1,1.8,2.2,3.6,3.1,4.9C15.18,126.6,14.68,125.1,14.28,123.7Zm-1.5,1.4a11.11,11.11,0,0,0,.7,1.6c1.2,2,2.4,3.8,3.8,5.7a22,22,0,0,0-2.2-3.8C14.08,127,13.38,125.9,12.78,125.1Zm10.9-76.7c.2,1.2.4,2.5.6,3.7,1.3-1.3,1.8-1.7,2.9-1.4-.2-1.2-.4-2.4-.6-3.7A4.42,4.42,0,0,0,23.68,48.4Zm122.1-18.9-.6-.6c-.4-.5-.9-.9-1.3-1.4l-1.1-.8a4.17,4.17,0,0,1,1.1,2.8c.8.6,1.6,1.3,2.4,2v-.3A10.93,10.93,0,0,0,145.78,29.5Zm-3.3-3a21.11,21.11,0,0,0-2.7-1.8,5.74,5.74,0,0,1,.4,2.2c.9.6,1.8,1.2,2.7,1.9a1.7,1.7,0,0,0-.1-.7A2.88,2.88,0,0,0,142.48,26.5ZM22.28,80.2c-.6,1.8-1.3,3.6-2.1,5.6,2.1-.8,2.9-1.3,3.6-.8.6-1.5,1.1-3.1,1.6-4.5C24.68,79.7,23.88,79.6,22.28,80.2Zm3.9-35.4c-.2-1-.4-2-.6-3.1a4.63,4.63,0,0,0-2.7,1.6c.2,1.1.3,2.2.5,3.3C24.78,45.3,25.18,44.8,26.18,44.8Zm-1.1,16.6c0,1.9,0,3.7-.1,5.4,1.4-1.2,1.8-1.5,3-.5.1-1.7.2-3.5.2-5.3C27.18,60.5,26.48,60.5,25.08,61.4Zm6-39.8a17.38,17.38,0,0,0-1.5,1.3,7.74,7.74,0,0,0,1.6-.7c.3-.3.5-.6.8-.9a2.3,2.3,0,0,0-.9.3ZM26,31.3c.2-.6.5-1.2.7-1.8a5.21,5.21,0,0,0-2.9.9l-.3.6a8.45,8.45,0,0,0-.5,1.7c1.2-1,1.6-1.3,2.7-1.4C25.68,31.4,25.78,31.3,26,31.3Z" transform="translate(-1.78 -2)"/></svg>