<svg id="Layer_1" data-name="Layer 1" xmlns="http://www.w3.org/2000/svg" xmlns:xlink="http://www.w3.org/1999/xlink" viewBox="0 0 165.05 165.05"><defs><style>.cls-1{fill:url(#radial-gradient);}.cls-2{fill:url(#radial-gradient-2);}</style><radialGradient id="radial-gradient" cx="70.55" cy="65.52" r="125.44" gradientUnits="userSpaceOnUse"><stop offset="0.13" stop-color="#ff8c38"/><stop offset="0.18" stop-color="#fc822e"/><stop offset="0.44" stop-color="#eb5000"/><stop offset="0.65" stop-color="#b81c00"/><stop offset="0.87" stop-color="#e33d00"/></radialGradient><radialGradient id="radial-gradient-2" cx="495.34" cy="389.59" r="119.58" gradientUnits="userSpaceOnUse"><stop offset="0.2" stop-color="#8a8d87"/><stop offset="0.27" stop-color="#6d6a66"/><stop offset="0.36" stop-color="#453838"/><stop offset="0.65"/><stop offset="0.72" stop-color="#120e0e"/><stop offset="0.89" stop-color="#372c2c"/><stop offset="0.98" stop-color="#453838"/></radialGradient></defs><title>basketball</title><circle class="cls-1" cx="82.52" cy="82.52" r="82.52"/><path class="cls-2" d="M572.15,395.43c-5.84.46-11.39,3.7-16.08,9.27a41.23,41.23,0,0,0-3.14,4.36c-5.75-4.57-12.73-9.57-21.19-15,16.61-28.61,22.92-44.57,20.94-51.34-.93-.65-1.87-1.28-2.83-1.9l.15.27c.55,1.22,2.06,9.49-21.84,50.69q-8.45-5.34-15.9-9.59a52.73,52.73,0,0,0,4.38-15.53c1.82-17.2-9.34-30.42-15.83-35.18a15,15,0,0,0-8.23-2.77c-2.15.33-4.29.73-6.38,1.22,5.76-.67,9.11,1.53,11.7,3.54,6.12,4.72,16.09,18,14.53,32.75a49.16,49.16,0,0,1-3.91,13.87c-23.89-13.27-40.07-18.47-51.33-20.34-9.08-1.51-15.86.11-19.18,2.65-.71,1-1.41,2-2.08,3,4.94-1.67,20.13-9.83,70.68,18.41a38.23,38.23,0,0,1-10,11.78c-9.31,7.15-21,12.42-35.68,16.13-15.38,4-24.5,7.5-30.26,11.34a10.53,10.53,0,0,0-5.07,8.49q.84,3.14,1.92,6.17c-.17-2.58,0-5.14.73-6.65a11.28,11.28,0,0,1,5.31-5.5c8.24-4.56,22.78-8.27,28.42-9.75,15.25-3.84,27.42-9.36,37.2-16.87a42.61,42.61,0,0,0,11.14-13q7.35,4.22,15.7,9.49c-44.46,75.76-58.62,83.9-66.6,83.36,1,.69,2.12,1.29,3.18,1.93,4,.45,9.68-1.25,17.67-10.14,10.35-11.52,26-33.08,49.32-72.86a255.52,255.52,0,0,1,21.15,15.1c-4.37,8.42-6.51,18.06-6,24.12a98.1,98.1,0,0,0,1.68,9.71c2.46,12.13,6.34,29.5-2.08,36.15,1.82-1,3.55-2.08,5.29-3.19a15.27,15.27,0,0,0,3.3-7.08c1.81-8.1-.63-18.25-2.35-26.72-.75-3.68-1.39-6.86-1.61-9.25-.48-5.24,1.45-13.58,5.12-21,23.46,19.77,24.08,31.15,24,33.25.53-1,1-2,1.48-3.06.34-4.37-.79-15.23-23.32-34a36.85,36.85,0,0,1,3.06-4.33c4-4.77,8.9-8,13.65-8.39,9.83-.8,13.27,3,14.51,5.71-.08-1.26-.12-2.52-.26-3.76C585.16,397.74,580.93,394.73,572.15,395.43Z" transform="translate(-422.7 -327.62)"/></svg>