<svg xmlns="http://www.w3.org/2000/svg" xmlns:xlink="http://www.w3.org/1999/xlink" viewBox="0 0 41.22 45.54"><defs><style>.cls-1{isolation:isolate;}.cls-2{fill:url(#linear-gradient);}.cls-3{fill:url(#radial-gradient);}.cls-4{fill:url(#radial-gradient-2);}.cls-5{fill:url(#linear-gradient-2);}.cls-6{fill:url(#radial-gradient-3);}.cls-7{fill:url(#linear-gradient-3);}.cls-8,.cls-9{mix-blend-mode:lighten;}.cls-8{fill:url(#linear-gradient-4);}.cls-9{fill:url(#linear-gradient-5);}.cls-10{fill:#430000;}.cls-11{fill:url(#linear-gradient-6);}.cls-12{fill:url(#linear-gradient-7);}.cls-13{fill:url(#linear-gradient-8);}.cls-14{fill:url(#linear-gradient-9);}.cls-15{fill:url(#linear-gradient-10);}.cls-16{fill:url(#linear-gradient-11);}.cls-17{fill:url(#linear-gradient-12);}.cls-18{fill:url(#linear-gradient-13);}.cls-19{fill:url(#linear-gradient-14);}.cls-20{fill:url(#linear-gradient-15);}.cls-21{fill:url(#linear-gradient-16);}.cls-22{fill:url(#linear-gradient-17);}.cls-23{fill:url(#linear-gradient-18);}.cls-24{fill:url(#linear-gradient-19);}</style><linearGradient id="linear-gradient" x1="305.21" y1="413.95" x2="286.21" y2="404.27" gradientUnits="userSpaceOnUse"><stop offset="0.2" stop-color="#8a201b"/><stop offset="0.27" stop-color="#8e201b"/><stop offset="0.35" stop-color="#9a1f1c"/><stop offset="0.42" stop-color="#ae1f1e"/><stop offset="0.5" stop-color="#c91d21"/><stop offset="0.57" stop-color="#ec1c24"/></linearGradient><radialGradient id="radial-gradient" cx="290.44" cy="-3950.92" r="5.87" gradientTransform="translate(0 8834.85) scale(1 2.13)" gradientUnits="userSpaceOnUse"><stop offset="0" stop-color="#f7a789"/><stop offset="0.4" stop-color="#ec1c24"/><stop offset="0.51" stop-color="#e71c24"/><stop offset="0.64" stop-color="#d81d22"/><stop offset="0.78" stop-color="#c01e20"/><stop offset="0.92" stop-color="#9f1f1d"/><stop offset="1" stop-color="#8a201b"/></radialGradient><radialGradient id="radial-gradient-2" cx="294.18" cy="2881.86" r="10.94" gradientTransform="translate(0 -1798.31) scale(1 0.77)" gradientUnits="userSpaceOnUse"><stop offset="0" stop-color="#f6a181"/><stop offset="0.42" stop-color="#ec1c24"/><stop offset="0.58" stop-color="#e91c24"/><stop offset="0.69" stop-color="#e01c23"/><stop offset="0.78" stop-color="#d11d21"/><stop offset="0.87" stop-color="#bb1e20"/><stop offset="0.95" stop-color="#9f1f1d"/><stop offset="1" stop-color="#8a201b"/></radialGradient><linearGradient id="linear-gradient-2" x1="305.87" y1="395.95" x2="292.11" y2="392.77" gradientUnits="userSpaceOnUse"><stop offset="0.36" stop-color="#8a201b"/><stop offset="0.37" stop-color="#90201c"/><stop offset="0.44" stop-color="#b81e1f"/><stop offset="0.5" stop-color="#d41d22"/><stop offset="0.55" stop-color="#e61c23"/><stop offset="0.59" stop-color="#ec1c24"/><stop offset="0.81" stop-color="#f19074"/><stop offset="0.97" stop-color="#ed2c2f"/><stop offset="0.99" stop-color="#ec1c24"/></linearGradient><radialGradient id="radial-gradient-3" cx="313.17" cy="-2090.27" r="13.04" gradientTransform="translate(0 3405.64) scale(1 1.44)" gradientUnits="userSpaceOnUse"><stop offset="0.07" stop-color="#f06350"/><stop offset="0.3" stop-color="#ec1c24"/><stop offset="0.43" stop-color="#e71c24"/><stop offset="0.58" stop-color="#da1d22"/><stop offset="0.73" stop-color="#c31e20"/><stop offset="0.89" stop-color="#a31f1d"/><stop offset="1" stop-color="#8a201b"/></radialGradient><linearGradient id="linear-gradient-3" x1="307.46" y1="386.74" x2="321.3" y2="386.74" gradientUnits="userSpaceOnUse"><stop offset="0" stop-color="#ec1c24"/><stop offset="0.25" stop-color="#f3836c"/><stop offset="0.36" stop-color="#ec1c24"/><stop offset="1" stop-color="#8a201b"/></linearGradient><linearGradient id="linear-gradient-4" x1="310.83" y1="402.39" x2="306.06" y2="411.66" gradientUnits="userSpaceOnUse"><stop offset="0" stop-color="#ec1c24"/><stop offset="0.51" stop-color="#f19074"/><stop offset="0.91" stop-color="#cc2c2c"/><stop offset="0.99" stop-color="#c4161c"/></linearGradient><linearGradient id="linear-gradient-5" x1="286.93" y1="418.11" x2="298.52" y2="417.33" xlink:href="#linear-gradient-4"/><linearGradient id="linear-gradient-6" x1="292.89" y1="399.24" x2="305.44" y2="399.24" gradientUnits="userSpaceOnUse"><stop offset="0" stop-color="#949494"/><stop offset="0.49" stop-color="#fff"/><stop offset="1" stop-color="#949494"/></linearGradient><linearGradient id="linear-gradient-7" x1="297.15" y1="404.88" x2="300.55" y2="404.88" xlink:href="#linear-gradient-6"/><linearGradient id="linear-gradient-8" x1="297.64" y1="402.62" x2="300.8" y2="402.62" xlink:href="#linear-gradient-6"/><linearGradient id="linear-gradient-9" x1="297.96" y1="400.28" x2="300.8" y2="400.28" xlink:href="#linear-gradient-6"/><linearGradient id="linear-gradient-10" x1="298.33" y1="397.96" x2="300.8" y2="397.96" xlink:href="#linear-gradient-6"/><linearGradient id="linear-gradient-11" x1="298.65" y1="396" x2="300.97" y2="396" xlink:href="#linear-gradient-6"/><linearGradient id="linear-gradient-12" x1="298.93" y1="394.16" x2="301.23" y2="394.16" xlink:href="#linear-gradient-6"/><linearGradient id="linear-gradient-13" x1="299.29" y1="392.19" x2="301.81" y2="392.19" xlink:href="#linear-gradient-6"/><linearGradient id="linear-gradient-14" x1="299.39" y1="390.37" x2="302.26" y2="390.37" xlink:href="#linear-gradient-6"/><linearGradient id="linear-gradient-15" x1="301.85" y1="390.03" x2="302.88" y2="390.03" xlink:href="#linear-gradient-6"/><linearGradient id="linear-gradient-16" x1="298.89" y1="388.55" x2="299.9" y2="388.55" xlink:href="#linear-gradient-6"/><linearGradient id="linear-gradient-17" x1="311.36" y1="381.02" x2="312.39" y2="381.02" xlink:href="#linear-gradient-6"/><linearGradient id="linear-gradient-18" x1="314.04" y1="380.65" x2="315.04" y2="380.65" xlink:href="#linear-gradient-6"/><linearGradient id="linear-gradient-19" x1="307.26" y1="382.01" x2="319.53" y2="382.01" xlink:href="#linear-gradient-6"/></defs><title>boxing2</title><g class="cls-1"><g id="Layer_1" data-name="Layer 1"><path class="cls-2" d="M305.47,418.24s2.55-6.66.39-12.87-12.69-10.63-14.89-7.51-6.53,16.07-3.07,19.46S305.47,418.24,305.47,418.24Z" transform="translate(-285.46 -380.04)"/><path class="cls-3" d="M291,397.87s-5.09,6.38-5.49,10.83,5.16,10.2,8.36,6.8a7.17,7.17,0,0,0,.72-8.95C293.51,405,294.89,399,291,397.87Z" transform="translate(-285.46 -380.04)"/><path class="cls-4" d="M286.29,412.35a8.23,8.23,0,0,1,0,3.71c-.48,1.92.43,5.77,5.27,8s11.89,2.29,13.78-1.5,1.29-8-2.68-9.47-5.62-.65-7.9,2S289.25,417.76,286.29,412.35Z" transform="translate(-285.46 -380.04)"/><path class="cls-5" d="M291.24,397.56s7.57.23,12,3.86c0,0,1.94-6.77,1.87-8.78-.09-2.41-3.4-3.72-4.71-4s-6.2-1.44-7.05,0S291.24,397.56,291.24,397.56Z" transform="translate(-285.46 -380.04)"/><path class="cls-6" d="M308.27,393l-4.89,9.79s-2,4.24-.44,7.51,3.13,3.51,3.13,2.29,2.11-6.45,2.19-5.71-2.88,4.49-1.84,7.59,7.58,5.8,14.45,2.61,6.44-8.81,4.7-12.73-3.57-9.79-3.57-9.79-.15-3.49-5.92-3.75C309.77,390.49,308.27,393,308.27,393Z" transform="translate(-285.46 -380.04)"/><path class="cls-7" d="M308.27,393s-.62-.88-.71-4.14-.72-6.49,2.55-7.53,9.08-2.26,10.32,4.53.79,6.91.79,6.91S314.66,389.29,308.27,393Z" transform="translate(-285.46 -380.04)"/><path class="cls-8" d="M304.3,410.14s0-.34.08-.9a18.36,18.36,0,0,1,.43-2.34,10.29,10.29,0,0,1,1.38-3.25,3.62,3.62,0,0,1,1.93-1.53,3,3,0,0,1,2.63.58l.2.13.26.24a4,4,0,0,1,.48.52l.34.56a5.22,5.22,0,0,1,.23.6,4.67,4.67,0,0,1,0,2.29,7.22,7.22,0,0,1-.69,1.82,10.42,10.42,0,0,1-1.81,2.44,10.46,10.46,0,0,1-.78.72,5.56,5.56,0,0,1-.55.41l-.2.14a.53.53,0,0,1-.69-.79l0,0s.2-.22.54-.63a11.85,11.85,0,0,0,1.22-1.78,10.75,10.75,0,0,0,.62-1.26,6.36,6.36,0,0,0,.41-1.42,2.73,2.73,0,0,0-.07-1.33c0-.09-.06-.19-.11-.28l-.16-.25c-.05-.08-.12-.11-.16-.18l-.08-.1-.2-.13c-.46-.33-.68-.37-.9-.32a1.94,1.94,0,0,0-.88.71,11.81,11.81,0,0,0-1.39,2.6c-.33.85-.62,1.57-.78,2.09l-.27.81a.53.53,0,0,1-1-.18Z" transform="translate(-285.46 -380.04)"/><path class="cls-9" d="M288,416.42s.13.11.37.29.62.42,1.07.69c.23.11.48.27.75.37a6.88,6.88,0,0,0,.86.34,7.1,7.1,0,0,0,.94.23,5.82,5.82,0,0,0,1,0l.49,0,.47-.11a4.24,4.24,0,0,0,.88-.32,6.33,6.33,0,0,0,.77-.46,4.26,4.26,0,0,0,.63-.53,3.54,3.54,0,0,0,.5-.49l.36-.42.31-.37,0-.05a.52.52,0,0,1,.82.64l-.32.43a6.83,6.83,0,0,1-.91,1.1,5.24,5.24,0,0,1-.73.65,7.32,7.32,0,0,1-.93.6,5.42,5.42,0,0,1-1.12.43l-.6.14-.62,0a5.85,5.85,0,0,1-1.23-.06,8.21,8.21,0,0,1-1.13-.29,6.39,6.39,0,0,1-1-.41c-.31-.14-.58-.32-.84-.47a9.63,9.63,0,0,1-1.14-.85l-.31-.27-.1-.1a.52.52,0,0,1,.71-.77Z" transform="translate(-285.46 -380.04)"/><path class="cls-10" d="M299.41,388.37a5.38,5.38,0,0,1,.45,3.68c-.52,2-3.51,17.63-1.49,18.48s1.74-4.31,1.65-5.62.37-10.95,1-12.23,1.13-3.6,2-2.93S301.31,388.21,299.41,388.37Z" transform="translate(-285.46 -380.04)"/><path class="cls-11" d="M298.82,411.15a1,1,0,0,1-.28,0c-1.06-.32-1.32-2.45-1.38-3.7-.1-2,1.42-11.63,2-14.82.49-2.48.06-3.48-.1-3.76-.7-.19-3.59-.9-5.45,0a.52.52,0,1,1-.46-.94c2.49-1.22,6.22-.07,6.38,0a.52.52,0,0,1,.2.11c.12.11,1.17,1.19.46,4.8s-2.11,12.82-2,14.57a5.27,5.27,0,0,0,.64,2.75,2.86,2.86,0,0,0,.3-.34c.72-1,.61-2.12.47-3.56a16.69,16.69,0,0,1-.12-2.28l0-.46c.15-4.54.39-9.39,1.05-11,.17-.4.3-.78.43-1.13.43-1.21.89-2.47,2.2-2.11l.14.06a5.76,5.76,0,0,1,2.08,2.34.52.52,0,0,1-1,.37,4.57,4.57,0,0,0-1.59-1.78c-.28,0-.42.2-.88,1.47-.13.36-.27.76-.44,1.18-.67,1.63-.89,8.16-1,10.62l0,.46a15.88,15.88,0,0,0,.11,2.14c.15,1.53.29,3-.66,4.28A1.53,1.53,0,0,1,298.82,411.15Z" transform="translate(-285.46 -380.04)"/><path class="cls-12" d="M299,405.65a2,2,0,0,1-1.77-.74.52.52,0,0,1,.88-.57s.44.46,1.8.14a.52.52,0,0,1,.24,1A5,5,0,0,1,299,405.65Z" transform="translate(-285.46 -380.04)"/><path class="cls-13" d="M299.44,403.36a2.92,2.92,0,0,1-1.59-.54.52.52,0,0,1,.63-.84h0a1.45,1.45,0,0,0,1.52.17.52.52,0,0,1,.57.88A2,2,0,0,1,299.44,403.36Z" transform="translate(-285.46 -380.04)"/><path class="cls-14" d="M299.36,401a1.33,1.33,0,0,1-1.36-.71.52.52,0,0,1,.95-.43s.3.22,1.18,0a.52.52,0,1,1,.29,1A3.86,3.86,0,0,1,299.36,401Z" transform="translate(-285.46 -380.04)"/><path class="cls-15" d="M299.66,398.74a1.37,1.37,0,0,1-.43-.07,1.54,1.54,0,0,1-.86-.76.52.52,0,0,1,.94-.45.49.49,0,0,0,.25.22.65.65,0,0,0,.46-.1.52.52,0,0,1,.5.92A1.8,1.8,0,0,1,299.66,398.74Z" transform="translate(-285.46 -380.04)"/><path class="cls-16" d="M300.33,396.79a2.18,2.18,0,0,1-1.56-.72.52.52,0,0,1,.8-.68,1.09,1.09,0,0,0,.84.34.52.52,0,0,1,.09,1Z" transform="translate(-285.46 -380.04)"/><path class="cls-17" d="M300.12,394.75a2.37,2.37,0,0,1-.88-.18.52.52,0,0,1,.41-1,1.09,1.09,0,0,0,.81,0,.52.52,0,1,1,.48.93A1.77,1.77,0,0,1,300.12,394.75Z" transform="translate(-285.46 -380.04)"/><path class="cls-18" d="M300.57,392.78a2.74,2.74,0,0,1-1-.17.52.52,0,0,1,.39-1,1.72,1.72,0,0,0,1.1,0,.52.52,0,0,1,.37,1A2.57,2.57,0,0,1,300.57,392.78Z" transform="translate(-285.46 -380.04)"/><path class="cls-19" d="M301.54,391.4a3.58,3.58,0,0,1-2-1.18.52.52,0,1,1,.73-.74,4.07,4.07,0,0,0,1.2.87.52.52,0,0,1,.61.84A.8.8,0,0,1,301.54,391.4Z" transform="translate(-285.46 -380.04)"/><path class="cls-20" d="M302.88,389.95a.52.52,0,0,1-.51.41h-.12a.52.52,0,0,1-.39-.63" transform="translate(-285.46 -380.04)"/><path class="cls-21" d="M299.9,388.54a.52.52,0,0,1-.49.35l-.17,0a.52.52,0,0,1-.33-.66" transform="translate(-285.46 -380.04)"/><path class="cls-22" d="M312.37,380.69a.52.52,0,0,1-.36.64l-.14,0a.52.52,0,0,1-.5-.38" transform="translate(-285.46 -380.04)"/><path class="cls-23" d="M315,380.28a.52.52,0,1,1-1,.43" transform="translate(-285.46 -380.04)"/><path class="cls-24" d="M307.78,384h-.1a.52.52,0,0,1-.42-.6c0-.11.53-2.77,5.6-3.27s6.52,1.93,6.58,2a.52.52,0,1,1-.9.54c0-.08-1.28-2-5.58-1.53s-4.67,2.39-4.68,2.41A.53.53,0,0,1,307.78,384Z" transform="translate(-285.46 -380.04)"/></g></g></svg>