<svg id="Layer_1" data-name="Layer 1" xmlns="http://www.w3.org/2000/svg" xmlns:xlink="http://www.w3.org/1999/xlink" viewBox="0 0 165.05 165.05"><defs><style>.cls-1{fill:url(#radial-gradient);}.cls-2{fill:url(#radial-gradient-2);}.cls-3{fill:url(#radial-gradient-3);}.cls-4{fill:url(#radial-gradient-4);}.cls-5{fill:url(#linear-gradient);}</style><radialGradient id="radial-gradient" cx="70.55" cy="65.52" r="125.44" gradientUnits="userSpaceOnUse"><stop offset="0.13" stop-color="#d15e1c"/><stop offset="0.18" stop-color="#ce541c"/><stop offset="0.44" stop-color="#bd221c"/><stop offset="0.65" stop-color="#8a001c"/><stop offset="0.87" stop-color="#b50f1c"/></radialGradient><radialGradient id="radial-gradient-2" cx="502.58" cy="373.26" r="122.99" gradientUnits="userSpaceOnUse"><stop offset="0.13" stop-color="#ffdeb8"/><stop offset="0.22" stop-color="#ffc8a5"/><stop offset="0.44" stop-color="#ff967a"/><stop offset="0.63" stop-color="#a14b35"/><stop offset="0.87" stop-color="#ff727a"/></radialGradient><radialGradient id="radial-gradient-3" cx="503.92" cy="372.85" r="124.24" gradientUnits="userSpaceOnUse"><stop offset="0.13" stop-color="#b53300"/><stop offset="0.14" stop-color="#b43200"/><stop offset="0.44" stop-color="#a10000"/><stop offset="0.65" stop-color="#6e0000"/><stop offset="0.87" stop-color="#900"/></radialGradient><radialGradient id="radial-gradient-4" cx="504.42" cy="371.4" r="123.43" gradientUnits="userSpaceOnUse"><stop offset="0.13" stop-color="#7a0000"/><stop offset="0.44" stop-color="#600"/><stop offset="0.65" stop-color="#300"/><stop offset="0.87" stop-color="#5e0000"/></radialGradient><linearGradient id="linear-gradient" x1="505.47" y1="363.6" x2="501.49" y2="329.17" gradientUnits="userSpaceOnUse"><stop offset="0" stop-color="#ffd9bd"/><stop offset="0.27" stop-color="#ffe0ca"/><stop offset="0.75" stop-color="#fff4ec"/><stop offset="1" stop-color="#fff"/></linearGradient></defs><title>cricket</title><circle class="cls-1" cx="82.52" cy="82.52" r="82.52"/><path class="cls-2" d="M474.93,367.31a2.6,2.6,0,0,0,1.46.45c1.51-.48,1.51-.48,4.83-7.35a2.71,2.71,0,0,0,1.53.42c1.51-.36,1.51-.36,5.15-7.17a3,3,0,0,0,1.57.42c1.57-.33,1.57-.33,5.19-6.71a3.35,3.35,0,0,0,1.61.44c1.6-.27,1.6-.27,5.17-6.22a3.53,3.53,0,0,0,1.63.45c1.61-.21,1.61-.21,5.1-5.71a3.93,3.93,0,0,0,1.65.48c1.62-.15,1.62-.15,5-5.17a4.37,4.37,0,0,0,1.67.51c1.63-.08,1.63-.08,4.79-4.61a4.85,4.85,0,0,0,1.68.54c1.62,0,1.62,0,4.55-4a5.72,5.72,0,0,0,1.69.58c1.45.08,1.45.08,4.27-3.41a5.87,5.87,0,0,0,1.68.62c1.53.17,1.53.17,3.93-2.78a7.3,7.3,0,0,0,1.68.67c1.57.22,1.57.22,3.54-2.13a9.16,9.16,0,0,0,1.66.73c1.27.27,1.27.27,3.1-1.45a12.52,12.52,0,0,0,1.64.78c1.22.37,1.22.37,2.61-.74.47.29,1.12.6,1.61.85a11.59,11.59,0,0,0,1.29.44l.78-.46c.47.29,1.1.65,1.58.92l.89.47c-1.81-1.13-3.65-2.2-5.55-3.19l-.56.27c-.48-.26-1.14-.57-1.63-.8a10.67,10.67,0,0,0-1.28-.4l-1.07.83a13.94,13.94,0,0,0-1.66-.73,8.63,8.63,0,0,0-1.31-.25l-1.55,1.38a9.76,9.76,0,0,0-1.68-.67c-1.27-.24-1.27-.24-3.33,1.81a7.79,7.79,0,0,0-1.69-.61c-1.57-.18-1.57-.18-3.73,2.47a6.48,6.48,0,0,0-1.69-.57c-1.61-.08-1.61-.08-4.09,3.11a5.81,5.81,0,0,0-1.69-.53c-1.44,0-1.44,0-4.4,3.72a5.1,5.1,0,0,0-1.68-.5c-1.62,0-1.62,0-4.66,4.32a4.45,4.45,0,0,0-1.66-.47c-1.63.11-1.63.11-4.86,4.88a4.09,4.09,0,0,0-1.64-.44c-1.63.18-1.63.18-5,5.42a3.67,3.67,0,0,0-1.62-.42c-1.6.24-1.6.24-5.11,6a3.26,3.26,0,0,0-1.59-.41c-1.58.3-1.58.3-5.15,6.45a2.91,2.91,0,0,0-1.55-.39c-1.56.34-1.56.34-5.15,6.92a2.75,2.75,0,0,0-1.51-.39c-1.62.52-1.62.52-4.95,7.22a2.56,2.56,0,0,0-1.44-.41c-1.53.51-1.53.51-4.53,7.29a2.37,2.37,0,0,0-1.37-.46c-1.44.49-1.44.49-4.08,7.3a2.25,2.25,0,0,0-1.3-.49c-1.34.45-1.34.45-3.61,7.25a2.14,2.14,0,0,0-1.23-.53c-1.23.42-1.23.42-3.11,7.16a2.14,2.14,0,0,0-1.16-.59c-1.13.49-1.13.49-2.59,7a2.14,2.14,0,0,0-1.09-.63c-1,.43-1,.43-2,6.8a2.2,2.2,0,0,0-1-.69c-.93.49-.93.49-1.45,6.54a2.41,2.41,0,0,0-1-.75c-.74.38-.74.38-.84,6.22a2.78,2.78,0,0,0-.88-.81c-.65.57-.65.57-.2,5.85l0,0-.06-.12-.06-.11,0-.08-.11-.15-.52-.38-.4.45a43.73,43.73,0,0,0,.87,5,5.14,5.14,0,0,0-.75-.94c-.56,1.42.69,3.49,1.15,4.95a9.14,9.14,0,0,0-.7-1,5.05,5.05,0,0,0,.32,1.24c.7,1.32,1.49,2.57,2.26,3.84l-.48-.93a10.54,10.54,0,0,0,.74,1c0-1.5-1-3.36-1.48-4.77l0,0,.07.12.07.1.05.08.12.16.48.43.3-.28c-.24-1.52-.73-3.5-1.06-5a3.68,3.68,0,0,0,.87.87l.45-.48c-.07-1.58-.36-3.68-.53-5.26a2.86,2.86,0,0,0,.93.8l.53-.34a34.07,34.07,0,0,0,0-5.79,2.45,2.45,0,0,0,1,.75c.76-.38.76-.38,1.2-6.47a2.31,2.31,0,0,0,1.06.69c.91-.35.91-.35,1.8-6.77a2.24,2.24,0,0,0,1.13.64c1-.42,1-.42,2.37-7a2.29,2.29,0,0,0,1.19.6c1.13-.48,1.13-.48,2.92-7.18a2.29,2.29,0,0,0,1.26.55c1.22-.4,1.22-.4,3.44-7.3a2.35,2.35,0,0,0,1.33.51c1.32-.43,1.32-.43,3.93-7.37a2.44,2.44,0,0,0,1.4.48C472,374.24,472,374.24,474.93,367.31Zm2.71,93.84c-.18-1.32-1.84-2.53-2.75-3.51a5.53,5.53,0,0,0,1.34.41l.31-.56L474.17,454l0,0,.12.08.11.06.08,0,.2.07.84.11.52-.34a22.3,22.3,0,0,0-1.87-4.29,4.23,4.23,0,0,0,1.46.36l.59-.32c.11-1.49-.83-3.38-1.28-4.8a4,4,0,0,0,1.51.36l.6-.26c.54-1.51-.35-3.72-.64-5.29a3.75,3.75,0,0,0,1.56.35c1.07-.47,1.07-.47.58-5.95a3.71,3.71,0,0,0,1.6.37c1.17-.41,1.17-.41,1.2-6.29a3.55,3.55,0,0,0,1.63.38c1.26-.42,1.26-.42,1.78-6.58a3.59,3.59,0,0,0,1.66.4c1.34-.44,1.34-.44,2.36-6.82a3.41,3.41,0,0,0,1.68.43c1.38-.43,1.38-.43,2.91-7a3.38,3.38,0,0,0,1.7.46c1.49-.44,1.49-.44,3.43-7.15a3.4,3.4,0,0,0,1.71.5c1.56-.43,1.56-.43,3.94-7.24a3.32,3.32,0,0,0,1.71.54c1.55-.28,1.55-.28,4.43-7.28a3.23,3.23,0,0,0,1.71.58c1.6-.25,1.6-.25,4.81-7.16a3.33,3.33,0,0,0,1.69.65c1.59-.17,1.59-.17,4.92-6.79a3.43,3.43,0,0,0,1.65.72c1.66-.19,1.66-.19,5-6.37a3.56,3.56,0,0,0,1.61.81c1.63-.1,1.63-.1,5-5.94a3.71,3.71,0,0,0,1.56.88c1.52,0,1.52,0,4.91-5.47a3.76,3.76,0,0,0,1.5,1c1.48.11,1.48.11,4.81-5a4,4,0,0,0,1.45,1c1.47.22,1.47.22,4.64-4.44a4.49,4.49,0,0,0,1.38,1.11c1.41.32,1.41.32,4.43-3.88a4.89,4.89,0,0,0,1.32,1.18c1.36.44,1.36.44,4.17-3.29a5.24,5.24,0,0,0,1.25,1.25c1.28.55,1.28.55,3.84-2.67a6,6,0,0,0,1.19,1.32,3.05,3.05,0,0,0,1.26.36l2.2-2.38a7.42,7.42,0,0,0,1.12,1.38,3.13,3.13,0,0,0,1.21.5l1.82-1.83a9.64,9.64,0,0,0,1,1.44,3.69,3.69,0,0,0,1.08.66l1.46-1.3a12.57,12.57,0,0,0,1,1.51,4.85,4.85,0,0,0,1,.84l1-.73c.25.48.62,1.1.91,1.56l.39.57c-.05-.16.27.29.39.42q-1.27-2.7-2.76-5.3l-.1-.12-.46-.46-.88.6a14.9,14.9,0,0,0-1-1.49,5.26,5.26,0,0,0-1-.83l-1.34,1.16a9.67,9.67,0,0,0-1.09-1.44,3.82,3.82,0,0,0-1.13-.65l-1.72,1.72a7.7,7.7,0,0,0-1.16-1.37,3.47,3.47,0,0,0-1.2-.5L572.94,345a6.44,6.44,0,0,0-1.23-1.31,3.29,3.29,0,0,0-1.31-.34L568,346.08a5.53,5.53,0,0,0-1.29-1.24c-1.35-.55-1.35-.55-4.07,3.08a4.84,4.84,0,0,0-1.35-1.18c-1.42-.44-1.42-.44-4.37,3.68a4.45,4.45,0,0,0-1.41-1.1c-1.48-.32-1.48-.32-4.61,4.26a4.13,4.13,0,0,0-1.46-1c-1.54-.21-1.54-.21-4.8,4.81a3.79,3.79,0,0,0-1.52-1c-1.54-.1-1.54-.1-4.94,5.33a3.66,3.66,0,0,0-1.57-.89c-1.66,0-1.66,0-5,5.83a3.59,3.59,0,0,0-1.61-.82c-1.61,0-1.61,0-5,6.29a3.44,3.44,0,0,0-1.65-.75c-1.64.09-1.64.09-5,6.73a3.31,3.31,0,0,0-1.68-.67c-1.67.17-1.67.17-4.94,7.13a3.32,3.32,0,0,0-1.71-.6c-1.68.26-1.68.26-4.67,7.36a3.27,3.27,0,0,0-1.72-.55c-1.64.3-1.64.3-4.19,7.35a3.31,3.31,0,0,0-1.71-.51c-1.65.45-1.65.45-3.68,7.28a3.3,3.3,0,0,0-1.7-.48c-1.58.46-1.58.46-3.16,7.17a3.36,3.36,0,0,0-1.68-.45c-1.51.47-1.51.47-2.62,7a3.49,3.49,0,0,0-1.65-.43c-1.39.45-1.39.45-2,6.79a3.43,3.43,0,0,0-1.62-.41c-1.33.44-1.33.44-1.46,6.51a3.58,3.58,0,0,0-1.59-.4c-1.24.41-1.24.41-.86,6.19A3.73,3.73,0,0,0,474,436c-1.15.49-1.15.49-.23,5.82a3.93,3.93,0,0,0-1.5-.41l-.6.25c-.51,1.48.6,3.62,1,5.14l0,0-.11-.08-.11-.07-.08-.05-.2-.08-.9-.11-.57.29c-.11,1.47,1.07,3.27,1.66,4.63a4.63,4.63,0,0,0-1.39-.43l-.51.36c.33,1.35,1.55,2.86,2.28,4a5.5,5.5,0,0,0-1.31-.46l-.3.55,2.78,3.27a7.11,7.11,0,0,0-1.25-.49c.25,1.3,2,2.27,3.11,3.12,1.17.66,2.38,1.24,3.59,1.84a31.55,31.55,0,0,0-3-2.37A6.94,6.94,0,0,0,477.64,461.16Zm71.28-147.6-.41-.18h0l.85.37Zm41.41,41.08-.4-.43-1.09.74a12.59,12.59,0,0,0-.82-1.57,4.27,4.27,0,0,0-.9-.85l-1.48,1.31a9.47,9.47,0,0,0-.9-1.51,3.22,3.22,0,0,0-1-.68l-1.83,1.84a7.53,7.53,0,0,0-1-1.45,3,3,0,0,0-1.1-.53l-2.21,2.36a5.63,5.63,0,0,0-1.05-1.38,2.63,2.63,0,0,0-1.21-.39l-2.47,2.85a5.33,5.33,0,0,0-1.13-1.32c-1.23-.61-1.23-.61-4,3.08a4.65,4.65,0,0,0-1.2-1.25c-1.32-.5-1.32-.5-4.27,3.65a4.29,4.29,0,0,0-1.27-1.18c-1.38-.38-1.38-.38-4.49,4.2a3.94,3.94,0,0,0-1.34-1.1c-1.45-.27-1.45-.27-4.66,4.72a3.71,3.71,0,0,0-1.4-1c-1.46-.16-1.46-.16-4.77,5.21a3.53,3.53,0,0,0-1.47-.95c-1.59-.06-1.59-.06-4.83,5.67a3.37,3.37,0,0,0-1.52-.86c-1.55-.06-1.55-.06-4.84,6.1a3.36,3.36,0,0,0-1.58-.78c-1.59,0-1.59,0-4.8,6.5a3.3,3.3,0,0,0-1.63-.7c-1.61.13-1.61.13-4.71,6.87a3.26,3.26,0,0,0-1.68-.6c-1.64.23-1.64.23-4.43,7.07a3.38,3.38,0,0,0-1.7-.54c-1.61.27-1.61.27-4,7a3.41,3.41,0,0,0-1.71-.49c-1.57.3-1.57.3-3.45,7a3.51,3.51,0,0,0-1.71-.44c-1.58.46-1.58.46-2.94,6.84a3.59,3.59,0,0,0-1.7-.4c-1.51.47-1.51.47-2.4,6.67a3.73,3.73,0,0,0-1.69-.36c-1.37.45-1.37.45-1.85,6.43a3.82,3.82,0,0,0-1.66-.32c-1.35.46-1.35.46-1.29,6.16a3.93,3.93,0,0,0-1.64-.3c-1.27.44-1.27.44-.7,5.84a4,4,0,0,0-1.61-.29c-1.2.43-1.2.43-.09,5.46a4.32,4.32,0,0,0-1.57-.28l-.62.28c-.48,1.39.7,3.37,1.15,4.77l0,0-.12-.07-.11-.06-.09,0-.22-.06-.94,0-.6.32c-.1,1.38,1.15,3,1.78,4.26a4.92,4.92,0,0,0-1.46-.28l-.52.29c.21,1.32,1.58,2.69,2.35,3.78a5.78,5.78,0,0,0-1.4-.29l-.39.47,2.9,3a6.85,6.85,0,0,0-1.33-.32c0,.18,0,.42,0,.61l3.2,2.3a9.81,9.81,0,0,0-1.25-.35,3.22,3.22,0,0,0,.54.5c1.32.56,2.7,1,4.06,1.49.25.06.5.14.72.17-.71-1.07-2.36-1.86-3.44-2.57a6.81,6.81,0,0,0,1.33.26c0-.19,0-.44,0-.62l-2.77-2.57a5.94,5.94,0,0,0,1.41.24l.41-.42-2.5-3.34,0,0,.13.06.11,0,.09,0,.21.06h.88l.52-.29c-.16-1.32-1.3-2.83-1.95-4a4.61,4.61,0,0,0,1.53.22l.55-.26c.27-1.38-.85-3.18-1.35-4.5a4.47,4.47,0,0,0,1.58.23l.62-.28c.5-1.4-.45-3.45-.79-4.9a4.2,4.2,0,0,0,1.62.24c1.11-.41,1.11-.41.42-5.57a4,4,0,0,0,1.65.26c1.19-.43,1.19-.43,1-5.91a3.91,3.91,0,0,0,1.68.29c1.27-.44,1.27-.44,1.58-6.21a3.79,3.79,0,0,0,1.7.33c1.34-.45,1.34-.45,2.13-6.45a3.63,3.63,0,0,0,1.7.37c1.36-.43,1.36-.43,2.67-6.65a3.56,3.56,0,0,0,1.7.42c1.47-.43,1.47-.43,3.19-6.79a3.52,3.52,0,0,0,1.7.47c1.47-.29,1.47-.29,3.68-6.9a3.44,3.44,0,0,0,1.69.53c1.51-.26,1.51-.26,4.16-7a3.23,3.23,0,0,0,1.67.58c1.55-.21,1.55-.21,4.54-6.86a3.31,3.31,0,0,0,1.64.67c1.54-.12,1.54-.12,4.66-6.52a3.42,3.42,0,0,0,1.58.76c1.58-.14,1.58-.14,4.73-6.15a3.43,3.43,0,0,0,1.52.85c1.54,0,1.54,0,4.75-5.74a3.56,3.56,0,0,0,1.46.94c1.44.06,1.44.06,4.71-5.31a3.77,3.77,0,0,0,1.39,1c1.38.17,1.38.17,4.62-4.84a4,4,0,0,0,1.32,1.1c1.37.28,1.37.28,4.49-4.35a4.11,4.11,0,0,0,1.25,1.18c1.3.39,1.3.39,4.3-3.82a4.6,4.6,0,0,0,1.16,1.26c1.24.49,1.24.49,4.06-3.27a5.16,5.16,0,0,0,1.09,1.33c1.16.61,1.16.61,3.76-2.69a6,6,0,0,0,1,1.4,2.59,2.59,0,0,0,1.15.4l2.27-2.47a6.78,6.78,0,0,0,.94,1.46,2.67,2.67,0,0,0,1.1.53l1.91-2a8.08,8.08,0,0,0,.86,1.52,2.86,2.86,0,0,0,1,.69l1.58-1.43a11.71,11.71,0,0,0,.78,1.58,3.92,3.92,0,0,0,.89.85l1.16-.89a17.12,17.12,0,0,0,.71,1.62l.32.58c0-.16.25.29.35.42-.6-1.89-1.28-3.75-2-5.58Zm-1.43-3.32a.53.53,0,0,0,.32-.12c-.58-1.12-1.21-2.21-1.84-3.29l-.09,0a10.66,10.66,0,0,0-1-1.55c.91,1.6,1.76,3.25,2.55,4.92Zm3.53,9c.23,0,.46-.24.66-.38-.44-1.15-.85-2.31-1.33-3.44l-.45.25a8.69,8.69,0,0,0-.76-1.62c.69,1.7,1.31,3.43,1.87,5.18ZM442.76,405.64c.69-.47.69-.47,1.32-6.32a2,2,0,0,0,.87.73c.81-.44.81-.44,1.89-6.58a1.91,1.91,0,0,0,.94.66c.91-.39.91-.39,2.44-6.79a1.86,1.86,0,0,0,1,.6c1-.45,1-.45,3-6.95a1.88,1.88,0,0,0,1.09.54c1.1-.38,1.1-.38,3.45-7.05a1.91,1.91,0,0,0,1.16.49c1.21-.43,1.21-.43,3.91-7.1a2,2,0,0,0,1.24.44c1.31-.47,1.31-.47,4.34-7.1a2.23,2.23,0,0,0,1.32.39c1.41-.49,1.41-.49,4.75-7a2.37,2.37,0,0,0,1.4.35c1.42-.38,1.42-.38,5-6.85a2.72,2.72,0,0,0,1.46.33c1.47-.36,1.47-.36,5.07-6.4a2.92,2.92,0,0,0,1.51.33c1.52-.32,1.52-.32,5-5.91a3.38,3.38,0,0,0,1.55.33c1.55-.28,1.55-.28,4.94-5.4a3.84,3.84,0,0,0,1.6.34c1.56-.22,1.56-.22,4.79-4.87a4.5,4.5,0,0,0,1.62.35c1.59-.16,1.59-.16,4.61-4.31a5.09,5.09,0,0,0,1.65.38c1.58-.09,1.58-.09,4.36-3.74a6,6,0,0,0,1.68.41c1.42,0,1.42,0,4.07-3.14a7.24,7.24,0,0,0,1.68.44c1.45.06,1.45.06,3.73-2.53a8.06,8.06,0,0,0,1.69.48c1.51.15,1.51.15,3.34-1.88a10.94,10.94,0,0,0,1.69.53c1.49.25,1.49.25,2.9-1.22a17,17,0,0,0,1.69.58c1.22.28,1.22.28,2.41-.55.49.21,1.17.47,1.67.65,1.17.38,1.21.39,1.84.17-.64-.27-1.21-.5-1.83-.75s-1.08-.39-1.62-.6l-.18.07c-.5-.2-1.18-.43-1.68-.61-1.21-.35-1.21-.35-2.15.25a16,16,0,0,0-1.7-.54c-1.22-.24-1.22-.24-2.65.92a11.26,11.26,0,0,0-1.7-.48c-1.26-.15-1.26-.15-3.11,1.57a8.7,8.7,0,0,0-1.7-.43c-1.5-.11-1.5-.11-3.51,2.21a6.81,6.81,0,0,0-1.69-.39c-1.44,0-1.44,0-3.87,2.83a6.29,6.29,0,0,0-1.68-.36c-1.4,0-1.4,0-4.18,3.42a5.24,5.24,0,0,0-1.65-.32c-1.57.12-1.57.12-4.44,4a4.54,4.54,0,0,0-1.62-.3c-1.57.18-1.57.18-4.65,4.55a3.92,3.92,0,0,0-1.58-.3c-1.54.24-1.54.24-4.82,5.1a3.45,3.45,0,0,0-1.54-.29c-1.53.3-1.53.3-4.93,5.61a3,3,0,0,0-1.49-.3c-1.5.35-1.5.35-5,6.1a2.65,2.65,0,0,0-1.44-.29c-1.47.37-1.47.37-5,6.57a2.38,2.38,0,0,0-1.39-.31c-1.51.54-1.51.54-4.83,6.88a2.15,2.15,0,0,0-1.3-.35c-1.41.52-1.41.52-4.44,7a2,2,0,0,0-1.22-.4c-1.31.49-1.31.49-4,7a1.84,1.84,0,0,0-1.13-.46c-1.21.45-1.21.45-3.59,7a1.75,1.75,0,0,0-1.05-.51c-1.11.5-1.11.5-3.12,6.88a1.73,1.73,0,0,0-1-.58c-1,.45-1,.45-2.62,6.75a1.75,1.75,0,0,0-.89-.64c-.9.39-.9.39-2.1,6.57a1.89,1.89,0,0,0-.83-.71c-.81.45-.81.45-1.55,6.34a2.16,2.16,0,0,0-.76-.79c-.66.46-.66.46-1,6.05a2.72,2.72,0,0,0-.69-.86c-.54.51-.54.51-.36,5.71l0,0,0-.13,0-.11,0-.08-.08-.15-.39-.43c-.38.55-.38.55.27,5.32a6.13,6.13,0,0,0-.56-1c-.34,1.45.58,3.42.94,4.86l-.16-.34c.55,1.43,1.13,2.84,1.76,4.22a41.06,41.06,0,0,0-1.17-4.35v0l.05.13,0,.1,0,.09.09.16.37.49.22-.24c-.19-1.5-.55-3.48-.79-5a3.66,3.66,0,0,0,.67.93c.39-.53.39-.53.09-5.63a2.69,2.69,0,0,0,.73.86c.56-.5.56-.5.72-6A2.21,2.21,0,0,0,442.76,405.64Z" transform="translate(-433.49 -306.7)"/><path class="cls-3" d="M584,342.62c-.27-.41-.58-.8-.86-1.21a82.89,82.89,0,0,0-14.26-15.47l-1-.79c-1.58-1.28-3.22-2.49-4.89-3.66-13.29-7.92-46.57,9.23-76.61,40-28.66,29.41-44.43,61.05-38.17,74.78A82.93,82.93,0,0,0,470.48,458c-10.62-11.43,5.13-45.51,35.83-77C537.54,349,572.34,331.78,584,342.62Z" transform="translate(-433.49 -306.7)"/><path class="cls-4" d="M576.45,333.16c-1.21-1.31-2.45-2.58-3.74-3.8-12.78-9.43-47.29,8-78.4,39.89-29.77,30.55-45.81,63.51-38.08,76.75,1.32,1.39,2.7,2.72,4.12,4-8.64-12.78,7.38-46.23,37.58-77.22C529.18,340.74,563.89,323.34,576.45,333.16Z" transform="translate(-433.49 -306.7)"/><path class="cls-5" d="M475.42,354.54a2.37,2.37,0,0,0,1.4.35c1.42-.38,1.42-.38,5-6.85a2.72,2.72,0,0,0,1.46.33c1.47-.36,1.47-.36,5.07-6.4a2.92,2.92,0,0,0,1.51.33c1.52-.32,1.52-.32,5-5.91a3.38,3.38,0,0,0,1.55.33c1.55-.28,1.55-.28,4.94-5.4a3.84,3.84,0,0,0,1.6.34c1.56-.22,1.56-.22,4.79-4.87a4.5,4.5,0,0,0,1.62.35,2.54,2.54,0,0,0,2.16-1.07,48.08,48.08,0,0,0-7.06,0c-.44.6-1,1.36-1.69,2.37a3.92,3.92,0,0,0-1.58-.3c-1.54.24-1.54.24-4.82,5.1a3.45,3.45,0,0,0-1.54-.29c-1.53.3-1.53.3-4.93,5.61a3,3,0,0,0-1.49-.3c-1.5.35-1.5.35-5,6.1a2.65,2.65,0,0,0-1.44-.29c-1.47.37-1.47.37-5,6.57a2.38,2.38,0,0,0-1.39-.31c-1.51.54-1.51.54-4.83,6.88a2.15,2.15,0,0,0-1.3-.35A2.5,2.5,0,0,0,468,358c0,.57.05,1.13.14,1.69a21.64,21.64,0,0,0,.6,2.75l.57-1.25a2.23,2.23,0,0,0,1.32.39C472.09,361.09,472.09,361.09,475.42,354.54Zm62.74,7.2a3.66,3.66,0,0,0-1.57-.89c-1.66,0-1.66,0-5,5.83a3.59,3.59,0,0,0-1.61-.82c-1.61,0-1.61,0-5,6.29a3.44,3.44,0,0,0-1.65-.75c-1.64.09-1.64.09-5,6.73a3.31,3.31,0,0,0-1.68-.67c-1.31.13-1.61.21-3.26,3.6a47.24,47.24,0,0,0,9.29-3.25l.84-1.66a2.76,2.76,0,0,0,1.23.6q1.49-.8,2.87-1.69c.56-.92,1.32-2.33,2.52-4.56a3.56,3.56,0,0,0,1.61.81,3.69,3.69,0,0,0,.95-.14c.42-.38.85-.76,1.25-1.16.59-.84,1.39-2.22,2.77-4.65a2.34,2.34,0,0,0,.7.52,25.91,25.91,0,0,0,4.2-9.06C540.89,357.4,540.06,358.71,538.16,361.74Zm-21.69-29.58c1.6-.08,1.65-.11,4.61-4.36q-1.73-.52-3.55-.9c-.38.52-.8,1.11-1.35,1.89a4.45,4.45,0,0,0-1.66-.47c-1.63.11-1.63.11-4.86,4.88a4.09,4.09,0,0,0-1.64-.44c-1.63.18-1.63.18-5,5.42a3.67,3.67,0,0,0-1.62-.42c-1.6.24-1.6.24-5.11,6a3.26,3.26,0,0,0-1.59-.41c-1.58.3-1.58.3-5.15,6.45a2.91,2.91,0,0,0-1.55-.39c-1.56.34-1.56.34-5.15,6.92a2.75,2.75,0,0,0-1.51-.39c-1.62.52-1.62.52-4.95,7.22a2.56,2.56,0,0,0-1.44-.41c-1.36.45-1.53.53-3.65,5.3a24.29,24.29,0,0,0,2.1,2.84c.41-.92.89-2,1.53-3.53a2.6,2.6,0,0,0,1.46.45c1.51-.48,1.51-.48,4.83-7.35a2.71,2.71,0,0,0,1.53.42c1.51-.36,1.51-.36,5.15-7.17a3,3,0,0,0,1.57.42c1.57-.33,1.57-.33,5.19-6.71a3.35,3.35,0,0,0,1.61.44c1.6-.27,1.6-.27,5.17-6.22a3.53,3.53,0,0,0,1.63.45c1.61-.21,1.61-.21,5.1-5.71a3.93,3.93,0,0,0,1.65.48c1.62-.15,1.62-.15,5-5.17A4.37,4.37,0,0,0,516.47,332.16Z" transform="translate(-433.49 -306.7)"/></svg>