<svg id="Layer_1" data-name="Layer 1" xmlns="http://www.w3.org/2000/svg" xmlns:xlink="http://www.w3.org/1999/xlink" viewBox="0 0 162.33 162.58"><defs><style>.cls-1{fill:#3fadde;}.cls-2{fill:url(#linear-gradient);}.cls-3{fill:url(#linear-gradient-2);}.cls-4{fill:url(#linear-gradient-3);}.cls-5{fill:url(#linear-gradient-4);}.cls-6{fill:url(#linear-gradient-5);}.cls-7{fill:url(#linear-gradient-6);}.cls-8{fill:url(#linear-gradient-7);}.cls-9{fill:url(#linear-gradient-8);}.cls-10{fill:url(#linear-gradient-9);}.cls-11{fill:url(#linear-gradient-10);}.cls-12{fill:url(#linear-gradient-11);}.cls-13{fill:url(#linear-gradient-12);}.cls-14{fill:url(#linear-gradient-13);}</style><linearGradient id="linear-gradient" x1="-517.22" y1="-416" x2="-514.44" y2="-385.46" gradientTransform="matrix(0.71, -0.71, -0.71, -0.71, 207.2, -548.69)" gradientUnits="userSpaceOnUse"><stop offset="0" stop-color="#0037a2"/><stop offset="1" stop-color="#0087c9"/></linearGradient><linearGradient id="linear-gradient-2" x1="-553" y1="-412.03" x2="-549.06" y2="-383.09" xlink:href="#linear-gradient"/><linearGradient id="linear-gradient-3" x1="-514.92" y1="-377.48" x2="-559.67" y2="-377.48" gradientTransform="matrix(0.71, -0.71, -0.71, -0.71, 207.2, -548.69)" gradientUnits="userSpaceOnUse"><stop offset="0.09" stop-color="#005db8"/><stop offset="0.18" stop-color="#0061b8"/><stop offset="0.27" stop-color="#006cb6"/><stop offset="0.31" stop-color="#0075b5"/><stop offset="0.46" stop-color="#006db0"/><stop offset="0.68" stop-color="#0033a1"/><stop offset="0.73" stop-color="#0033a1"/><stop offset="0.88" stop-color="#004fb0"/></linearGradient><linearGradient id="linear-gradient-4" x1="-510.07" y1="-313.13" x2="-560.25" y2="-313.13" gradientTransform="matrix(0.71, -0.71, -0.71, -0.71, 207.2, -548.69)" gradientUnits="userSpaceOnUse"><stop offset="0.09" stop-color="#a67917"/><stop offset="0.14" stop-color="#aa7c19"/><stop offset="0.18" stop-color="#b5851e"/><stop offset="0.22" stop-color="#c79526"/><stop offset="0.26" stop-color="#e1ab32"/><stop offset="0.3" stop-color="#ffc43f"/><stop offset="0.49" stop-color="#d19913"/><stop offset="0.51" stop-color="#bf8a0f"/><stop offset="0.56" stop-color="#9e7109"/><stop offset="0.61" stop-color="#865e04"/><stop offset="0.65" stop-color="#785301"/><stop offset="0.68" stop-color="#734f00"/><stop offset="0.73" stop-color="#734f00"/><stop offset="0.88" stop-color="#a36b0f"/></linearGradient><linearGradient id="linear-gradient-5" x1="-558.06" y1="-293.28" x2="-511.81" y2="-293.28" xlink:href="#linear-gradient-4"/><linearGradient id="linear-gradient-6" x1="-534.84" y1="-282.9" x2="-535.02" y2="-296.7" gradientTransform="matrix(0.71, -0.71, -0.71, -0.71, 207.2, -548.69)" gradientUnits="userSpaceOnUse"><stop offset="0" stop-color="#ffc43f"/><stop offset="0.49" stop-color="#d19913"/><stop offset="0.51" stop-color="#ce9613"/><stop offset="0.64" stop-color="#b67e11"/><stop offset="0.77" stop-color="#a8700f"/><stop offset="0.88" stop-color="#a36b0f"/></linearGradient><linearGradient id="linear-gradient-7" x1="-530.05" y1="-267.74" x2="-541.86" y2="-267.74" gradientTransform="matrix(0.71, -0.71, -0.71, -0.71, 207.2, -548.69)" gradientUnits="userSpaceOnUse"><stop offset="0.09" stop-color="#807c70"/><stop offset="0.16" stop-color="#848073"/><stop offset="0.22" stop-color="#8e8b7e"/><stop offset="0.28" stop-color="#a19d90"/><stop offset="0.32" stop-color="#adaa9c"/><stop offset="0.39" stop-color="#a19d96"/><stop offset="0.61" stop-color="#4f4a48"/><stop offset="0.7" stop-color="#7d6e68"/></linearGradient><linearGradient id="linear-gradient-8" x1="-514.7" y1="-405.87" x2="-514.7" y2="-438.83" gradientTransform="matrix(0.71, -0.71, -0.71, -0.71, 207.2, -548.69)" gradientUnits="userSpaceOnUse"><stop offset="0" stop-color="#6bdefa"/><stop offset="1" stop-color="#0054aa"/></linearGradient><linearGradient id="linear-gradient-9" x1="-555.67" y1="-405.72" x2="-555.67" y2="-438.69" xlink:href="#linear-gradient-8"/><linearGradient id="linear-gradient-10" x1="-507.66" y1="-394.19" x2="-519.11" y2="-444.68" gradientTransform="matrix(0.71, -0.71, -0.71, -0.71, 207.2, -548.69)" gradientUnits="userSpaceOnUse"><stop offset="0" stop-color="#4ab4e2"/><stop offset="1" stop-color="#0087c9"/></linearGradient><linearGradient id="linear-gradient-11" x1="-570.73" y1="-396.29" x2="-546.44" y2="-433.25" xlink:href="#linear-gradient-10"/><linearGradient id="linear-gradient-12" x1="-522.63" y1="-387.56" x2="-546.88" y2="-387.56" xlink:href="#linear-gradient-8"/><linearGradient id="linear-gradient-13" x1="-536.41" y1="-267.81" x2="-532.25" y2="-267.58" gradientTransform="matrix(0.71, -0.71, -0.71, -0.71, 207.2, -548.69)" gradientUnits="userSpaceOnUse"><stop offset="0" stop-color="#88837e"/><stop offset="1" stop-color="#fff"/></linearGradient></defs><title>darts</title><path class="cls-1" d="M132.15,127.84s3.49-4,8.77-11.32c5.47-7.55.09-20.09-5.09-24.9s-17.36-11.22-27.92,4.62C116.4,106.8,132.15,127.84,132.15,127.84Z" transform="translate(-2.23 -2.95)"/><path class="cls-1" d="M126.78,133.31s-4,3.49-11.32,8.77c-7.55,5.47-20.09.09-24.9-5.09s-11.22-17.36,4.62-27.92C105.74,117.46,126.78,133.31,126.78,133.31Z" transform="translate(-2.23 -2.95)"/><path class="cls-2" d="M133.19,128.88s3.49-4.06,8.87-11.41c5.57-7.55.09-20.37-5.28-25.28s-17.54-11.41-28.3,4.62C117.15,107.47,133.19,128.88,133.19,128.88Z" transform="translate(-2.23 -2.95)"/><path class="cls-3" d="M127.72,134.25s-4.06,3.49-11.41,8.87c-7.55,5.57-20.37.09-25.28-5.28s-11.41-17.54,4.62-28.3C106.31,118.22,127.72,134.25,127.72,134.25Z" transform="translate(-2.23 -2.95)"/><path class="cls-4" d="M48.86,49.45h0l-.28.19-.28.19.09.09L36.22,69.83s51.69,36.79,97.63,73.76c7.26,4.9,13.49-1.32,8.58-8.58-37-45.94-73.76-97.63-73.76-97.63Z" transform="translate(-2.23 -2.95)"/><path class="cls-5" d="M53,21,38.39,35.68,35.09,39,20.38,53.6c5.19,9,20.47,20.19,22,21.32a.33.33,0,0,1,.09.19c3.11,3.11,12.73-1.6,21.51-10.38S77.44,46.25,74.33,43.23C74.43,43.13,62.45,26.34,53,21Z" transform="translate(-2.23 -2.95)"/><path class="cls-6" d="M53.39,21.35c3.11,3.11-1.6,13-10.66,22.07S23.87,57.19,20.66,54.08c-1.6-1.6-3.21-8.11-1-12.36,2-3.87,7.36-5.38,11.7-9.72,3.49-3.49,4.9-9,8.3-10.94C44.81,17.86,51.5,19.46,53.39,21.35Z" transform="translate(-2.23 -2.95)"/><path class="cls-7" d="M46.88,20.31c2.64,2.64-1.32,10.85-8.87,18.3s-15.75,11.51-18.3,8.87S21,36.63,28.58,29.17,44.24,17.67,46.88,20.31Z" transform="translate(-2.23 -2.95)"/><path class="cls-8" d="M36.6,29.65S16.32,12.86,3.59,3.23c-.85-.66-1.89-.09-1,1C12.17,17,29,37.29,29,37.29l.09-.09h0c.66.66,2.92-.47,5.09-2.55s3.21-4.24,2.45-5Z" transform="translate(-2.23 -2.95)"/><path class="cls-9" d="M140.74,136.33s6.41-2.36,16.7-7.07c10.56-4.81,6.23-17.73-.28-23.68s-22.83-15.66-43.67-5.19C123.19,112.56,140.74,136.33,140.74,136.33Z" transform="translate(-2.23 -2.95)"/><path class="cls-10" d="M135.27,141.61s-2.36,6.41-7.07,16.7c-4.81,10.56-17.73,6.23-23.68-.28s-15.66-22.83-5.19-43.67C111.4,124.07,135.27,141.61,135.27,141.61Z" transform="translate(-2.23 -2.95)"/><path class="cls-11" d="M141.49,137.37s6.41-2.36,16.7-7c10.56-4.81,6.23-17.73-.28-23.68s-22.83-15.66-43.67-5.19C123.85,113.5,141.49,137.37,141.49,137.37Z" transform="translate(-2.23 -2.95)"/><path class="cls-12" d="M136.3,142.46s-2.36,6.41-7,16.7c-4.81,10.56-17.73,6.23-23.68-.28S90,136,100.46,115.2C112.53,124.92,136.3,142.46,136.3,142.46Z" transform="translate(-2.23 -2.95)"/><path class="cls-13" d="M74,57.19S67.54,66.62,64,69.26c10.09,10.09,71.5,68.58,73.76,70.84s5.19,1.6,2-2.92S74,57.19,74,57.19Z" transform="translate(-2.23 -2.95)"/><path class="cls-14" d="M3.11,3.61,35.85,30.31a7.2,7.2,0,0,1-2.55,3.77C30,30.21,3.11,3.61,3.11,3.61Z" transform="translate(-2.23 -2.95)"/></svg>