<svg id="Layer_1" data-name="Layer 1" xmlns="http://www.w3.org/2000/svg" xmlns:xlink="http://www.w3.org/1999/xlink" viewBox="0 0 165.05 165.05"><defs><style>.cls-1{fill:url(#radial-gradient);}.cls-2{fill:url(#radial-gradient-2);}.cls-3{fill:url(#radial-gradient-3);}.cls-4{fill:url(#radial-gradient-4);}.cls-5{fill:url(#radial-gradient-5);}.cls-6{fill:url(#radial-gradient-6);}.cls-7{fill:url(#radial-gradient-7);}.cls-8{fill:url(#radial-gradient-8);}.cls-9{fill:url(#radial-gradient-9);}.cls-10{fill:url(#radial-gradient-10);}.cls-11{fill:url(#radial-gradient-11);}.cls-12{fill:url(#radial-gradient-12);}.cls-13{fill:url(#radial-gradient-13);}.cls-14{fill:url(#radial-gradient-14);}.cls-15{fill:url(#radial-gradient-15);}.cls-16{fill:url(#radial-gradient-16);}.cls-17{fill:url(#radial-gradient-17);}.cls-18{fill:url(#radial-gradient-18);}.cls-19{fill:url(#radial-gradient-19);}.cls-20{fill:url(#radial-gradient-20);}.cls-21{fill:url(#radial-gradient-21);}.cls-22{fill:url(#radial-gradient-22);}.cls-23{fill:url(#radial-gradient-23);}.cls-24{fill:url(#radial-gradient-24);}.cls-25{fill:url(#radial-gradient-25);}.cls-26{fill:url(#radial-gradient-26);}.cls-27{fill:url(#radial-gradient-27);}.cls-28{fill:url(#radial-gradient-28);}.cls-29{fill:url(#radial-gradient-29);}.cls-30{fill:url(#radial-gradient-30);}.cls-31{fill:url(#radial-gradient-31);}.cls-32{fill:url(#radial-gradient-32);}.cls-33{fill:url(#radial-gradient-33);}.cls-34{fill:url(#radial-gradient-34);}.cls-35{fill:url(#radial-gradient-35);}.cls-36{fill:url(#radial-gradient-36);}.cls-37{fill:url(#radial-gradient-37);}.cls-38{fill:url(#radial-gradient-38);}.cls-39{fill:url(#radial-gradient-39);}.cls-40{fill:url(#radial-gradient-40);}.cls-41{fill:url(#radial-gradient-41);}.cls-42{fill:url(#radial-gradient-42);}.cls-43{fill:url(#radial-gradient-43);}.cls-44{fill:url(#radial-gradient-44);}.cls-45{fill:url(#radial-gradient-45);}.cls-46{fill:url(#radial-gradient-46);}.cls-47{fill:url(#radial-gradient-47);}.cls-48{fill:url(#radial-gradient-48);}.cls-49{fill:url(#radial-gradient-49);}.cls-50{fill:url(#radial-gradient-50);}.cls-51{fill:url(#radial-gradient-51);}.cls-52{fill:url(#radial-gradient-52);}.cls-53{fill:url(#radial-gradient-53);}.cls-54{fill:url(#radial-gradient-54);}.cls-55{fill:url(#radial-gradient-55);}.cls-56{fill:url(#radial-gradient-56);}.cls-57{fill:url(#radial-gradient-57);}.cls-58{fill:url(#radial-gradient-58);}.cls-59{fill:url(#radial-gradient-59);}.cls-60{fill:url(#radial-gradient-60);}.cls-61{fill:url(#radial-gradient-61);}.cls-62{fill:url(#radial-gradient-62);}.cls-63{fill:url(#radial-gradient-63);}.cls-64{fill:url(#radial-gradient-64);}.cls-65{fill:url(#radial-gradient-65);}.cls-66{fill:url(#radial-gradient-66);}.cls-67{fill:url(#radial-gradient-67);}.cls-68{fill:url(#radial-gradient-68);}.cls-69{fill:url(#radial-gradient-69);}.cls-70{fill:url(#radial-gradient-70);}.cls-71{fill:url(#radial-gradient-71);}.cls-72{fill:url(#radial-gradient-72);}.cls-73{fill:url(#radial-gradient-73);}.cls-74{fill:url(#radial-gradient-74);}.cls-75{fill:url(#radial-gradient-75);}.cls-76{fill:url(#radial-gradient-76);}.cls-77{fill:url(#radial-gradient-77);}.cls-78{fill:url(#radial-gradient-78);}.cls-79{fill:url(#radial-gradient-79);}.cls-80{fill:url(#radial-gradient-80);}.cls-81{fill:url(#radial-gradient-81);}.cls-82{fill:url(#radial-gradient-82);}.cls-83{fill:url(#radial-gradient-83);}.cls-84{fill:url(#radial-gradient-84);}.cls-85{fill:url(#radial-gradient-85);}.cls-86{fill:url(#radial-gradient-86);}.cls-87{fill:url(#radial-gradient-87);}.cls-88{fill:url(#radial-gradient-88);}.cls-89{fill:url(#radial-gradient-89);}.cls-90{fill:url(#radial-gradient-90);}.cls-91{fill:url(#radial-gradient-91);}</style><radialGradient id="radial-gradient" cx="70.55" cy="65.52" r="125.44" gradientUnits="userSpaceOnUse"><stop offset="0" stop-color="#fff"/><stop offset="0.43" stop-color="#d6d6e0"/><stop offset="0.5" stop-color="#c8c8d1"/><stop offset="0.62" stop-color="#a3a3ab"/><stop offset="0.65" stop-color="#9a9aa2"/><stop offset="0.89" stop-color="#d1d1d1"/></radialGradient><radialGradient id="radial-gradient-2" cx="493.9" cy="519.03" r="15.89" gradientUnits="userSpaceOnUse"><stop offset="0.25" stop-color="#f7f7f7"/><stop offset="0.78" stop-color="#dbdbe2"/><stop offset="1" stop-color="#ceced8"/></radialGradient><radialGradient id="radial-gradient-3" cx="508.27" cy="494.11" r="13.51" gradientUnits="userSpaceOnUse"><stop offset="0" stop-color="#f7f7f7"/><stop offset="0.3" stop-color="#f2f2f3"/><stop offset="0.65" stop-color="#e3e3e8"/><stop offset="1" stop-color="#ceced8"/></radialGradient><radialGradient id="radial-gradient-4" cx="90.48" cy="149.27" r="11.47" gradientUnits="userSpaceOnUse"><stop offset="0" stop-color="#dfdfdf"/><stop offset="0.35" stop-color="#bfbfc3"/><stop offset="0.77" stop-color="#9f9fa8"/><stop offset="1" stop-color="#93939d"/></radialGradient><radialGradient id="radial-gradient-5" cx="489.03" cy="607.62" r="12.53" xlink:href="#radial-gradient-4"/><radialGradient id="radial-gradient-6" cx="497.33" cy="473.99" r="12.74" gradientUnits="userSpaceOnUse"><stop offset="0" stop-color="#efefef"/><stop offset="0.26" stop-color="#e8e8ea"/><stop offset="0.63" stop-color="#d6d6db"/><stop offset="1" stop-color="#bdbdc7"/></radialGradient><radialGradient id="radial-gradient-7" cx="524.16" cy="476.82" r="11.74" xlink:href="#radial-gradient-6"/><radialGradient id="radial-gradient-8" cx="546.58" cy="480.52" r="11.54" xlink:href="#radial-gradient-6"/><radialGradient id="radial-gradient-9" cx="578.35" cy="547.95" r="14.76" xlink:href="#radial-gradient-4"/><radialGradient id="radial-gradient-10" cx="538.28" cy="607.09" r="12.26" gradientUnits="userSpaceOnUse"><stop offset="0" stop-color="#d3d3d3"/><stop offset="0.91" stop-color="#8e8e99"/></radialGradient><radialGradient id="radial-gradient-11" cx="501.56" cy="622.62" r="11.48" gradientUnits="userSpaceOnUse"><stop offset="0.25" stop-color="#ddd"/><stop offset="0.42" stop-color="#d6d6d8"/><stop offset="0.65" stop-color="#c4c4c9"/><stop offset="0.93" stop-color="#a6a6b1"/><stop offset="1" stop-color="#9d9daa"/></radialGradient><radialGradient id="radial-gradient-12" cx="433.96" cy="579.91" r="11.02" xlink:href="#radial-gradient-11"/><radialGradient id="radial-gradient-13" cx="439.9" cy="498.13" r="9.25" gradientUnits="userSpaceOnUse"><stop offset="0" stop-color="#eaeaea"/><stop offset="0.26" stop-color="#e3e3e5"/><stop offset="0.63" stop-color="#d1d1d6"/><stop offset="1" stop-color="#b8b8c2"/></radialGradient><radialGradient id="radial-gradient-14" cx="511.29" cy="462.69" r="11.31" xlink:href="#radial-gradient-13"/><radialGradient id="radial-gradient-15" cx="532.99" cy="464.45" r="10.67" xlink:href="#radial-gradient-13"/><radialGradient id="radial-gradient-16" cx="565.86" cy="488.29" r="9.71" gradientUnits="userSpaceOnUse"><stop offset="0.11" stop-color="#eaeaea"/><stop offset="0.31" stop-color="#e3e3e5"/><stop offset="0.59" stop-color="#d1d1d6"/><stop offset="0.92" stop-color="#b3b3be"/><stop offset="1" stop-color="#aaaab7"/></radialGradient><radialGradient id="radial-gradient-17" cx="586.65" cy="528.18" r="10.61" gradientUnits="userSpaceOnUse"><stop offset="0.18" stop-color="#ddd"/><stop offset="0.68" stop-color="#b3b3bb"/><stop offset="1" stop-color="#9d9daa"/></radialGradient><radialGradient id="radial-gradient-18" cx="583.83" cy="568.61" r="11.02" xlink:href="#radial-gradient-11"/><radialGradient id="radial-gradient-19" cx="558.58" cy="604.09" r="9.92" xlink:href="#radial-gradient-11"/><radialGradient id="radial-gradient-20" cx="522.57" cy="620.33" r="9.55" xlink:href="#radial-gradient-11"/><radialGradient id="radial-gradient-21" cx="479.5" cy="617.5" r="9.4" xlink:href="#radial-gradient-11"/><radialGradient id="radial-gradient-22" cx="446.49" cy="598.26" r="10.04" xlink:href="#radial-gradient-11"/><radialGradient id="radial-gradient-23" cx="425.31" cy="558.19" r="10.36" xlink:href="#radial-gradient-11"/><radialGradient id="radial-gradient-24" cx="428.23" cy="516.83" r="9.58" xlink:href="#radial-gradient-13"/><radialGradient id="radial-gradient-25" cx="453.84" cy="481.67" r="8.91" xlink:href="#radial-gradient-13"/><radialGradient id="radial-gradient-26" cx="487.09" cy="462.33" r="11.12" xlink:href="#radial-gradient-13"/><radialGradient id="radial-gradient-27" cx="553.99" cy="470.99" r="10.49" gradientUnits="userSpaceOnUse"><stop offset="0.25" stop-color="#eaeaea"/><stop offset="0.42" stop-color="#e3e3e5"/><stop offset="0.65" stop-color="#d1d1d6"/><stop offset="0.93" stop-color="#b3b3be"/><stop offset="1" stop-color="#aaaab7"/></radialGradient><radialGradient id="radial-gradient-28" cx="568.46" cy="480.11" r="8.63" xlink:href="#radial-gradient-27"/><radialGradient id="radial-gradient-29" cx="520.28" cy="456.16" r="9.54" gradientUnits="userSpaceOnUse"><stop offset="0" stop-color="#e2e2e2"/><stop offset="0.26" stop-color="#dbdbdd"/><stop offset="0.63" stop-color="#c9c9ce"/><stop offset="1" stop-color="#b0b0ba"/></radialGradient><radialGradient id="radial-gradient-30" cx="501.56" cy="456.87" r="9" xlink:href="#radial-gradient-29"/><radialGradient id="radial-gradient-31" cx="467.87" cy="467.36" r="9.62" xlink:href="#radial-gradient-13"/><radialGradient id="radial-gradient-32" cx="465.95" cy="462.78" r="9.56" xlink:href="#radial-gradient-29"/><radialGradient id="radial-gradient-33" cx="484.68" cy="457.39" r="8.74" xlink:href="#radial-gradient-29"/><radialGradient id="radial-gradient-34" cx="451.14" cy="472.4" r="9.22" xlink:href="#radial-gradient-29"/><radialGradient id="radial-gradient-35" cx="541.28" cy="459.51" r="10" xlink:href="#radial-gradient-29"/><radialGradient id="radial-gradient-36" cx="579.86" cy="494.8" r="9.26" xlink:href="#radial-gradient-27"/><radialGradient id="radial-gradient-37" cx="588.16" cy="514.4" r="8.15" xlink:href="#radial-gradient-11"/><radialGradient id="radial-gradient-38" cx="592.21" cy="532.08" r="8.08" xlink:href="#radial-gradient-11"/><radialGradient id="radial-gradient-39" cx="587.84" cy="566.79" r="7.81" xlink:href="#radial-gradient-11"/><radialGradient id="radial-gradient-40" cx="580.92" cy="585.53" r="9.2" gradientUnits="userSpaceOnUse"><stop offset="0.24" stop-color="#d5d5d5"/><stop offset="0.44" stop-color="#ceced0"/><stop offset="0.72" stop-color="#bcbcc1"/><stop offset="1" stop-color="#a3a3ad"/></radialGradient><radialGradient id="radial-gradient-41" cx="569.88" cy="598.26" r="7.87" gradientUnits="userSpaceOnUse"><stop offset="0" stop-color="#d5d5d5"/><stop offset="0.26" stop-color="#ceced0"/><stop offset="0.63" stop-color="#bcbcc1"/><stop offset="1" stop-color="#a3a3ad"/></radialGradient><radialGradient id="radial-gradient-42" cx="558.4" cy="611.32" r="8.58" gradientUnits="userSpaceOnUse"><stop offset="0.45" stop-color="#d5d5d5"/><stop offset="0.6" stop-color="#ceced0"/><stop offset="0.8" stop-color="#bcbcc1"/><stop offset="1" stop-color="#a3a3ad"/></radialGradient><radialGradient id="radial-gradient-43" cx="526.45" cy="626.33" r="8.62" gradientUnits="userSpaceOnUse"><stop offset="0.5" stop-color="#d5d5d5"/><stop offset="0.63" stop-color="#ceced0"/><stop offset="0.82" stop-color="#bcbcc1"/><stop offset="1" stop-color="#a3a3ad"/></radialGradient><radialGradient id="radial-gradient-44" cx="507.39" cy="628.27" r="8.83" gradientUnits="userSpaceOnUse"><stop offset="0.33" stop-color="#d5d5d5"/><stop offset="0.5" stop-color="#ceced0"/><stop offset="0.75" stop-color="#bcbcc1"/><stop offset="1" stop-color="#a3a3ad"/></radialGradient><radialGradient id="radial-gradient-45" cx="488.85" cy="624.92" r="7.42" xlink:href="#radial-gradient-41"/><radialGradient id="radial-gradient-46" cx="472.08" cy="619.97" r="8.08" xlink:href="#radial-gradient-41"/><radialGradient id="radial-gradient-47" cx="460.44" cy="610.97" r="8.54" xlink:href="#radial-gradient-11"/><radialGradient id="radial-gradient-48" cx="456.55" cy="612.39" r="8.16" xlink:href="#radial-gradient-41"/><radialGradient id="radial-gradient-49" cx="443.84" cy="602.5" r="8.72" gradientUnits="userSpaceOnUse"><stop offset="0.54" stop-color="#d5d5d5"/><stop offset="0.66" stop-color="#ceced0"/><stop offset="0.83" stop-color="#bcbcc1"/><stop offset="1" stop-color="#a3a3ad"/></radialGradient><radialGradient id="radial-gradient-50" cx="432.02" cy="590.14" r="9.81" gradientUnits="userSpaceOnUse"><stop offset="0.41" stop-color="#d5d5d5"/><stop offset="0.57" stop-color="#ceced0"/><stop offset="0.78" stop-color="#bcbcc1"/><stop offset="1" stop-color="#a3a3ad"/></radialGradient><radialGradient id="radial-gradient-51" cx="426.01" cy="571.6" r="7.54" xlink:href="#radial-gradient-41"/><radialGradient id="radial-gradient-52" cx="422.61" cy="538.34" r="8.31" gradientUnits="userSpaceOnUse"><stop offset="0" stop-color="#ddd"/><stop offset="0.26" stop-color="#d6d6d8"/><stop offset="0.63" stop-color="#c4c4c9"/><stop offset="1" stop-color="#ababb5"/></radialGradient><radialGradient id="radial-gradient-53" cx="420.87" cy="521.36" r="8.65" xlink:href="#radial-gradient-29"/><radialGradient id="radial-gradient-54" cx="427.04" cy="503.64" r="9.88" xlink:href="#radial-gradient-29"/><radialGradient id="radial-gradient-55" cx="439.14" cy="487.1" r="8.13" xlink:href="#radial-gradient-29"/><radialGradient id="radial-gradient-56" cx="419.15" cy="538.33" r="6.94" xlink:href="#radial-gradient-41"/><radialGradient id="radial-gradient-57" cx="420.01" cy="554.13" r="8.48" xlink:href="#radial-gradient-41"/><radialGradient id="radial-gradient-58" cx="544.46" cy="620.15" r="7.75" xlink:href="#radial-gradient-41"/><radialGradient id="radial-gradient-59" cx="592.32" cy="551.15" r="7.21" xlink:href="#radial-gradient-11"/><radialGradient id="radial-gradient-60" cx="590.35" cy="549.19" r="10.59" xlink:href="#radial-gradient-11"/><radialGradient id="radial-gradient-61" cx="541.28" cy="615.91" r="8.07" xlink:href="#radial-gradient-11"/><radialGradient id="radial-gradient-62" cx="581.88" cy="505.94" r="12.72" xlink:href="#radial-gradient-27"/><radialGradient id="radial-gradient-63" cx="570.58" cy="587.14" r="9.74" xlink:href="#radial-gradient-11"/><radialGradient id="radial-gradient-64" cx="466.35" cy="602.67" r="11.18" gradientUnits="userSpaceOnUse"><stop offset="0" stop-color="#d3d3d3"/><stop offset="1" stop-color="#8e8e99"/></radialGradient><radialGradient id="radial-gradient-65" cx="433.85" cy="538.34" r="10.75" xlink:href="#radial-gradient-29"/><radialGradient id="radial-gradient-66" cx="472.61" cy="478.05" r="10.37" xlink:href="#radial-gradient-6"/><radialGradient id="radial-gradient-67" cx="568.11" cy="570.55" r="14.55" xlink:href="#radial-gradient-4"/><radialGradient id="radial-gradient-68" cx="552.93" cy="591.73" r="14.93" xlink:href="#radial-gradient-4"/><radialGradient id="radial-gradient-69" cx="560.7" cy="501.88" r="10.64" gradientUnits="userSpaceOnUse"><stop offset="0" stop-color="#eaeaea"/><stop offset="0.29" stop-color="#e1e1e3"/><stop offset="0.78" stop-color="#c8c8d0"/><stop offset="0.88" stop-color="#c1c1cb"/></radialGradient><radialGradient id="radial-gradient-70" cx="572.35" cy="525.88" r="10.62" gradientUnits="userSpaceOnUse"><stop offset="0" stop-color="#d8d8d8"/><stop offset="0.39" stop-color="#cbcbce"/><stop offset="1" stop-color="#afafb9"/></radialGradient><radialGradient id="radial-gradient-71" cx="453.55" cy="582.9" r="9" gradientUnits="userSpaceOnUse"><stop offset="0" stop-color="#ddd"/><stop offset="0.28" stop-color="#d8d8d9"/><stop offset="0.6" stop-color="#cacacd"/><stop offset="0.94" stop-color="#b3b3b9"/><stop offset="1" stop-color="#aeaeb5"/></radialGradient><radialGradient id="radial-gradient-72" cx="440.84" cy="561.02" r="9.44" xlink:href="#radial-gradient-71"/><radialGradient id="radial-gradient-73" cx="443.36" cy="516.83" r="10.2" gradientUnits="userSpaceOnUse"><stop offset="0" stop-color="#efefef"/><stop offset="0.3" stop-color="#e9e9eb"/><stop offset="0.69" stop-color="#d8d8de"/><stop offset="1" stop-color="#c6c6d0"/></radialGradient><radialGradient id="radial-gradient-74" cx="457.8" cy="494.9" r="11.39" gradientUnits="userSpaceOnUse"><stop offset="0" stop-color="#efefef"/><stop offset="0.33" stop-color="#e6e6e8"/><stop offset="0.88" stop-color="#cdcdd5"/><stop offset="1" stop-color="#c6c6d0"/></radialGradient><radialGradient id="radial-gradient-75" cx="537.93" cy="494.91" r="13.39" gradientUnits="userSpaceOnUse"><stop offset="0" stop-color="#f7f7f7"/><stop offset="0.54" stop-color="#e3e3e8"/><stop offset="1" stop-color="#ceced8"/></radialGradient><radialGradient id="radial-gradient-76" cx="481.53" cy="493.05" r="13.5" gradientUnits="userSpaceOnUse"><stop offset="0" stop-color="#f7f7f7"/><stop offset="0.3" stop-color="#f2f2f3"/><stop offset="0.66" stop-color="#e3e3e8"/><stop offset="1" stop-color="#ceced8"/></radialGradient><radialGradient id="radial-gradient-77" cx="27.69" cy="79.72" r="13.14" gradientUnits="userSpaceOnUse"><stop offset="0.05" stop-color="#f7f7f7"/><stop offset="1" stop-color="#c7c7d2"/></radialGradient><radialGradient id="radial-gradient-78" cx="138.08" cy="87.83" r="14.67" gradientUnits="userSpaceOnUse"><stop offset="0" stop-color="#efefef"/><stop offset="0.37" stop-color="#e0e0e3"/><stop offset="1" stop-color="#bdbdc7"/></radialGradient><radialGradient id="radial-gradient-79" cx="475.37" cy="587.88" r="15.23" gradientUnits="userSpaceOnUse"><stop offset="0" stop-color="#efefef"/><stop offset="1" stop-color="#a6a6af"/></radialGradient><radialGradient id="radial-gradient-80" cx="531.3" cy="595.09" r="17.13" gradientUnits="userSpaceOnUse"><stop offset="0.05" stop-color="#e1e1e3"/><stop offset="0.33" stop-color="#d2d2d5"/><stop offset="0.86" stop-color="#a9a9b0"/><stop offset="1" stop-color="#9e9ea6"/></radialGradient><radialGradient id="radial-gradient-81" cx="79.55" cy="133.01" r="18.02" gradientUnits="userSpaceOnUse"><stop offset="0" stop-color="#efefef"/><stop offset="0.27" stop-color="#e0e0e1"/><stop offset="0.79" stop-color="#b7b7bd"/><stop offset="1" stop-color="#a5a5ad"/></radialGradient><radialGradient id="radial-gradient-82" cx="461.86" cy="565.38" r="18.81" gradientUnits="userSpaceOnUse"><stop offset="0.27" stop-color="#e5e5e9"/><stop offset="0.52" stop-color="#d6d6da"/><stop offset="1" stop-color="#afafb6"/></radialGradient><radialGradient id="radial-gradient-83" cx="466.17" cy="515.03" r="12.66" gradientUnits="userSpaceOnUse"><stop offset="0" stop-color="#f7f7f7"/><stop offset="0.34" stop-color="#ededf0"/><stop offset="0.9" stop-color="#d3d3dc"/><stop offset="1" stop-color="#ceced8"/></radialGradient><radialGradient id="radial-gradient-84" cx="547.5" cy="574.03" r="16.86" gradientUnits="userSpaceOnUse"><stop offset="0" stop-color="#efefef"/><stop offset="0.33" stop-color="#e0e0e2"/><stop offset="0.97" stop-color="#b7b7c0"/><stop offset="1" stop-color="#b5b5be"/></radialGradient><radialGradient id="radial-gradient-85" cx="549.88" cy="519.05" r="16.16" gradientUnits="userSpaceOnUse"><stop offset="0" stop-color="#f7f7f7"/><stop offset="0.49" stop-color="#e1e1e4"/><stop offset="1" stop-color="#c6c6cc"/></radialGradient><radialGradient id="radial-gradient-86" cx="522.53" cy="518.88" r="12.38" gradientUnits="userSpaceOnUse"><stop offset="0" stop-color="#f7f7f7"/><stop offset="0.35" stop-color="#f4f4f5"/><stop offset="0.63" stop-color="#eaeaed"/><stop offset="0.87" stop-color="#dadae1"/><stop offset="1" stop-color="#ceced8"/></radialGradient><radialGradient id="radial-gradient-87" cx="81.52" cy="82.56" r="16.35" gradientUnits="userSpaceOnUse"><stop offset="0.31" stop-color="#f7f7f7"/><stop offset="1" stop-color="#ceced8"/></radialGradient><radialGradient id="radial-gradient-88" cx="109.74" cy="84.42" r="11.77" xlink:href="#radial-gradient-86"/><radialGradient id="radial-gradient-89" cx="94.85" cy="108.51" r="13.64" gradientUnits="userSpaceOnUse"><stop offset="0" stop-color="#f7f7f7"/><stop offset="0.37" stop-color="#ebebee"/><stop offset="1" stop-color="#ceced8"/></radialGradient><radialGradient id="radial-gradient-90" cx="66.56" cy="107.82" r="14.23" gradientUnits="userSpaceOnUse"><stop offset="0" stop-color="#f7f7f7"/><stop offset="0.3" stop-color="#f1f1f2"/><stop offset="0.72" stop-color="#dedee4"/><stop offset="1" stop-color="#ceced8"/></radialGradient><radialGradient id="radial-gradient-91" cx="55.36" cy="81.39" r="12.2" gradientUnits="userSpaceOnUse"><stop offset="0.25" stop-color="#f7f7f7"/><stop offset="0.5" stop-color="#ededf0"/><stop offset="0.93" stop-color="#d3d3dc"/><stop offset="1" stop-color="#ceced8"/></radialGradient></defs><title>golf</title><circle class="cls-1" cx="82.52" cy="82.52" r="82.52"/><path class="cls-2" d="M503.68,518.06a10.24,10.24,0,1,1-10.24-10.29A10.26,10.26,0,0,1,503.68,518.06Z" transform="translate(-423.79 -459.05)"/><path class="cls-3" d="M517.89,497.84a10.26,10.26,0,1,1-10.24-9.77A10,10,0,0,1,517.89,497.84Z" transform="translate(-423.79 -459.05)"/><ellipse class="cls-4" cx="90.16" cy="143.02" rx="9.7" ry="6.67"/><path class="cls-5" d="M500.1,603.1c-.81,3.69-5.71,5.74-10.95,4.58s-8.8-5.11-8-8.8,5.71-5.75,10.95-4.58S500.93,599.4,500.1,603.1Z" transform="translate(-423.79 -459.05)"/><path class="cls-6" d="M487.41,481.4c-.23-3.63,3.91-6.86,9.26-7.2s9.86,2.32,10.1,5.95-3.91,6.85-9.25,7.2S487.65,485,487.41,481.4Z" transform="translate(-423.79 -459.05)"/><path class="cls-7" d="M513.06,480.25c1-3.6,6.06-5.3,11.2-3.8s8.46,5.64,7.42,9.24-6.06,5.3-11.21,3.8S512,483.85,513.06,480.25Z" transform="translate(-423.79 -459.05)"/><path class="cls-8" d="M535,481.33c1.82-2.91,7-2.94,11.51-.07s6.72,7.55,4.89,10.46-7,3-11.51.07S533.19,484.25,535,481.33Z" transform="translate(-423.79 -459.05)"/><path class="cls-9" d="M571.85,537.44c3.2.25,5.47,4.8,5.06,10.16s-3.34,9.51-6.55,9.26-5.48-4.79-5.07-10.16S568.63,537.2,571.85,537.44Z" transform="translate(-423.79 -459.05)"/><path class="cls-10" d="M544.2,597c1.51,2.93-1.1,7.31-5.85,9.8s-9.84,2.13-11.35-.82,1.1-7.31,5.85-9.8S542.68,594.06,544.2,597Z" transform="translate(-423.79 -459.05)"/><path class="cls-11" d="M510.88,614.52c0,2.35-4.18,4.27-9.35,4.3s-9.38-1.86-9.39-4.21,4.17-4.28,9.35-4.31S510.86,612.17,510.88,614.52Z" transform="translate(-423.79 -459.05)"/><path class="cls-12" d="M445.75,583.27c-2,1.17-5.64-1.37-8.13-5.68s-2.9-8.75-.89-9.92,5.64,1.37,8.14,5.68S447.75,582.1,445.75,583.27Z" transform="translate(-423.79 -459.05)"/><path class="cls-13" d="M440,508.52c-1.79-1.32-.86-5.65,2.09-9.67s6.78-6.19,8.57-4.84.86,5.64-2.07,9.67S441.75,509.86,440,508.52Z" transform="translate(-423.79 -459.05)"/><path class="cls-14" d="M502.15,469.72c.16-2.31,4.31-3.9,9.26-3.54s8.83,2.51,8.66,4.83-4.3,3.9-9.25,3.55S502,472,502.15,469.72Z" transform="translate(-423.79 -459.05)"/><path class="cls-15" d="M522.32,468.81c.76-2.07,5.07-2.39,9.63-.71s7.64,4.71,6.87,6.79-5.06,2.4-9.63.72S521.55,470.9,522.32,468.81Z" transform="translate(-423.79 -459.05)"/><path class="cls-16" d="M555.84,485.93c1.66-1.34,5.49.62,8.54,4.41s4.19,7.93,2.5,9.28-5.48-.62-8.54-4.4S554.17,487.29,555.84,485.93Z" transform="translate(-423.79 -459.05)"/><path class="cls-17" d="M577.58,521.07c2-.33,4.35,3.28,5.12,8.08s-.24,8.95-2.3,9.28-4.35-3.27-5.14-8.07S575.52,521.41,577.58,521.07Z" transform="translate(-423.79 -459.05)"/><path class="cls-18" d="M578.37,558.19c2,.67,2.37,5,.81,9.56s-4.44,7.78-6.45,7.1-2.37-4.94-.82-9.56S576.34,557.51,578.37,558.19Z" transform="translate(-423.79 -459.05)"/><path class="cls-19" d="M560,593.22c1.37,1.51-.4,5.4-4,8.67s-7.61,4.71-9,3.19.4-5.39,4-8.68S558.56,591.7,560,593.22Z" transform="translate(-423.79 -459.05)"/><path class="cls-20" d="M529.72,612.1c.49,2-2.77,4.61-7.29,5.7s-8.6.34-9.1-1.72,2.75-4.6,7.29-5.72S529.21,610,529.72,612.1Z" transform="translate(-423.79 -459.05)"/><path class="cls-21" d="M489.88,614.88c-.72,1.92-5,2.1-9.54.39s-7.66-4.63-6.93-6.57,5-2.1,9.54-.41S490.6,612.94,489.88,614.88Z" transform="translate(-423.79 -459.05)"/><path class="cls-22" d="M458.42,597.5c-1.26,1.48-5.28.13-9-3s-5.7-6.88-4.42-8.37,5.26-.14,9,3S459.68,596,458.42,597.5Z" transform="translate(-423.79 -459.05)"/><path class="cls-23" d="M434.37,565.43c-2,.39-4.37-3.15-5.31-7.91s-.12-8.94,1.89-9.34,4.37,3.13,5.33,7.9S436.38,565,434.37,565.43Z" transform="translate(-423.79 -459.05)"/><path class="cls-24" d="M431.44,528c-1.78-.62-1.94-4.84-.34-9.42s4.31-7.82,6.1-7.2,1.94,4.82.36,9.43S433.23,528.6,431.44,528Z" transform="translate(-423.79 -459.05)"/><path class="cls-25" d="M450.85,491.3c-1.37-1.58.49-5.46,4.17-8.62s7.76-4.47,9.14-2.87-.48,5.45-4.16,8.64S452.24,492.91,450.85,491.3Z" transform="translate(-423.79 -459.05)"/><path class="cls-26" d="M480.65,472.21c-.52-2.1,2.9-4.75,7.62-5.89s9-.39,9.47,1.73-2.88,4.74-7.61,5.91S481.17,474.33,480.65,472.21Z" transform="translate(-423.79 -459.05)"/><path class="cls-27" d="M542.1,472.57c.92-1.4,5-.38,9,2.3s6.6,6,5.67,7.38-5,.38-9-2.29S541.17,474,542.1,472.57Z" transform="translate(-423.79 -459.05)"/><path class="cls-28" d="M557.8,479.17c.7-.66,3.71,1.36,6.7,4.52s4.86,6.25,4.15,6.93-3.7-1.34-6.71-4.5S557.08,479.85,557.8,479.17Z" transform="translate(-423.79 -459.05)"/><path class="cls-29" d="M512,462.42c.2-1.29,3.85-1.82,8.15-1.17s7.64,2.2,7.45,3.51-3.84,1.83-8.15,1.19S511.84,463.73,512,462.42Z" transform="translate(-423.79 -459.05)"/><path class="cls-30" d="M494.34,463.35c-.06-1.32,3.47-2.6,7.9-2.82s8.07.65,8.15,2-3.46,2.6-7.89,2.84S494.42,464.7,494.34,463.35Z" transform="translate(-423.79 -459.05)"/><path class="cls-31" d="M463.26,477.38c-.75-1.49,2.12-4.49,6.42-6.66s8.4-2.73,9.18-1.2-2.1,4.5-6.41,6.69S464,478.92,463.26,477.38Z" transform="translate(-423.79 -459.05)"/><path class="cls-32" d="M462.52,472.46c-.17-.35,2.85-2.24,6.76-4.22s7.22-3.3,7.41-2.94-2.84,2.24-6.76,4.22S462.71,472.82,462.52,472.46Z" transform="translate(-423.79 -459.05)"/><path class="cls-33" d="M478.06,466.09c-.25-.93,3-2.64,7.29-3.79s8-1.35,8.21-.4-3,2.64-7.29,3.81S478.33,467,478.06,466.09Z" transform="translate(-423.79 -459.05)"/><path class="cls-34" d="M450,483.42c-.53-.7,1.87-3.47,5.37-6.18s6.77-4.37,7.32-3.67-1.86,3.46-5.36,6.19S450.53,484.11,450,483.42Z" transform="translate(-423.79 -459.05)"/><path class="cls-35" d="M530.37,464.3c.33-.76,3.85,0,7.84,1.72s7,3.71,6.66,4.5-3.83,0-7.85-1.71S530,465.08,530.37,464.3Z" transform="translate(-423.79 -459.05)"/><path class="cls-36" d="M569,492.82c1.1-.75,4,1.56,6.43,5.17s3.54,7.12,2.43,7.88-4-1.56-6.44-5.16S567.84,493.58,569,492.82Z" transform="translate(-423.79 -459.05)"/><path class="cls-37" d="M579.4,508.52c1.21-.39,3.3,2.64,4.63,6.79s1.47,7.81.24,8.21-3.29-2.63-4.65-6.79S578.18,508.92,579.4,508.52Z" transform="translate(-423.79 -459.05)"/><path class="cls-38" d="M585.29,525.5c1-.09,2.13,3.34,2.56,7.67s0,7.92-1,8-2.13-3.33-2.58-7.67S584.31,525.6,585.29,525.5Z" transform="translate(-423.79 -459.05)"/><path class="cls-39" d="M584.85,557.7c.85.24.61,3.83-.56,8s-2.78,7.42-3.63,7.18-.61-3.82.55-8S584,557.46,584.85,557.7Z" transform="translate(-423.79 -459.05)"/><path class="cls-40" d="M579.3,574.32c1,.62-.1,4.1-2.42,7.79s-5,6.19-6,5.56.08-4.1,2.4-7.81S578.31,573.7,579.3,574.32Z" transform="translate(-423.79 -459.05)"/><path class="cls-41" d="M570.82,589.08c.86.77-.78,4-3.68,7.28s-5.93,5.27-6.81,4.49.76-4,3.66-7.3S569.95,588.3,570.82,589.08Z" transform="translate(-423.79 -459.05)"/><path class="cls-42" d="M560.52,601.89c.51.71-1.89,3.31-5.37,5.8s-6.7,3.95-7.22,3.22,1.88-3.32,5.36-5.82S560,601.17,560.52,601.89Z" transform="translate(-423.79 -459.05)"/><path class="cls-43" d="M532.3,618.18c.21.85-3,2.35-7.16,3.34s-7.7,1.11-7.9.25,3-2.36,7.17-3.35S532.1,617.32,532.3,618.18Z" transform="translate(-423.79 -459.05)"/><path class="cls-44" d="M515,621.82c0,1-3.47,1.75-7.75,1.73s-7.74-.81-7.74-1.79S503,620,507.31,620,515,620.84,515,621.82Z" transform="translate(-423.79 -459.05)"/><path class="cls-45" d="M498,621.91c-.22.94-3.78.89-7.94-.12s-7.34-2.6-7.1-3.55,3.78-.9,7.95.12S498.24,621,498,621.91Z" transform="translate(-423.79 -459.05)"/><path class="cls-46" d="M481.27,618.47c-.35.77-3.79,0-7.68-1.82s-6.75-3.86-6.39-4.64,3.79,0,7.7,1.82S481.64,617.68,481.27,618.47Z" transform="translate(-423.79 -459.05)"/><path class="cls-47" d="M470.92,609.69c-.68,1.12-4.46.09-8.43-2.33s-6.6-5.31-5.89-6.46,4.47-.11,8.44,2.32S471.63,608.55,470.92,609.69Z" transform="translate(-423.79 -459.05)"/><path class="cls-48" d="M466.37,612.3c-.3.45-3.41-1.13-6.94-3.53s-6.13-4.72-5.82-5.17,3.41,1.12,7,3.53S466.68,611.84,466.37,612.3Z" transform="translate(-423.79 -459.05)"/><path class="cls-49" d="M454.17,602.71c-.47.48-3.34-1.53-6.39-4.51s-5.13-5.79-4.65-6.29,3.34,1.52,6.4,4.51S454.65,602.21,454.17,602.71Z" transform="translate(-423.79 -459.05)"/><path class="cls-50" d="M443.39,591.07c-.74.5-3.28-2-5.64-5.52s-3.67-6.83-2.91-7.34,3.29,2,5.66,5.52S444.15,590.56,443.39,591.07Z" transform="translate(-423.79 -459.05)"/><path class="cls-51" d="M434.5,577c-.87.36-2.9-2.55-4.52-6.5s-2.19-7.44-1.3-7.8,2.91,2.54,4.53,6.5S435.39,576.63,434.5,577Z" transform="translate(-423.79 -459.05)"/><path class="cls-52" d="M428.27,546.63c-1.37-.06-2.34-3.83-2.12-8.41s1.53-8.23,2.93-8.17,2.35,3.84,2.14,8.43S429.68,546.71,428.27,546.63Z" transform="translate(-423.79 -459.05)"/><path class="cls-53" d="M425.77,530.8c-.64-.15-.35-3.62.67-7.74s2.36-7.32,3-7.16.36,3.63-.66,7.76S426.42,531,425.77,530.8Z" transform="translate(-423.79 -459.05)"/><path class="cls-54" d="M431,514.09c-1-.46-.16-4.27,1.87-8.5s4.47-7.25,5.48-6.77.17,4.3-1.85,8.54S432,514.59,431,514.09Z" transform="translate(-423.79 -459.05)"/><path class="cls-55" d="M439.31,497.75c-.82-.62.8-4.11,3.63-7.79s5.79-6.12,6.62-5.49-.79,4.14-3.62,7.83S440.14,498.4,439.31,497.75Z" transform="translate(-423.79 -459.05)"/><path class="cls-56" d="M424.47,545.53c-.36,0-.55-3.13-.4-7s.55-6.94.92-6.93.55,3.15.41,7S424.84,545.56,424.47,545.53Z" transform="translate(-423.79 -459.05)"/><path class="cls-57" d="M427.76,562.19c-.45.07-1.36-3.29-2-7.51s-.79-7.68-.32-7.76,1.36,3.29,2,7.52S428.23,562.12,427.76,562.19Z" transform="translate(-423.79 -459.05)"/><path class="cls-58" d="M547.85,612.27c.13.28-2.92,1.94-6.82,3.71s-7.16,3-7.28,2.68,2.92-2,6.82-3.72S547.73,612,547.85,612.27Z" transform="translate(-423.79 -459.05)"/><path class="cls-59" d="M588,543.11c.51.06.55,3.36.08,7.38s-1.27,7.23-1.8,7.16-.56-3.36-.09-7.38S587.46,543,588,543.11Z" transform="translate(-423.79 -459.05)"/><path class="cls-60" d="M582.92,540.2c1.75.13,2.88,4.17,2.5,9s-2.09,8.66-3.85,8.52-2.88-4.16-2.52-9S581.15,540.07,582.92,540.2Z" transform="translate(-423.79 -459.05)"/><path class="cls-61" d="M546.91,607.84c.64,1.34-2.4,4.13-6.79,6.21s-8.46,2.7-9.1,1.34,2.38-4.12,6.78-6.23S546.26,606.48,546.91,607.84Z" transform="translate(-423.79 -459.05)"/><path class="cls-62" d="M568.09,502.88c2.14-1.07,5.68,1.68,7.89,6.14s2.27,8.94.11,10-5.67-1.67-7.89-6.13S565.93,504,568.09,502.88Z" transform="translate(-423.79 -459.05)"/><path class="cls-63" d="M569.82,575.77c1.95,1.31,1.3,5.73-1.45,9.87s-6.56,6.45-8.52,5.14-1.31-5.73,1.44-9.88S567.86,574.46,569.82,575.77Z" transform="translate(-423.79 -459.05)"/><path class="cls-64" d="M461.54,592.31c1.72-2.74,6.71-2.69,11.14.12s6.62,7.3,4.9,10-6.71,2.7-11.14-.11S459.81,595.06,461.54,592.31Z" transform="translate(-423.79 -459.05)"/><path class="cls-65" d="M438.39,528.83c3.2,0,5.83,4.21,5.89,9.49s-2.47,9.58-5.67,9.62-5.84-4.21-5.9-9.49S435.18,528.87,438.39,528.83Z" transform="translate(-423.79 -459.05)"/><path class="cls-66" d="M484.15,478.32c1.43,2.8-1.21,7-5.88,9.42s-9.62,2.08-11-.72,1.2-7,5.87-9.43S482.72,475.51,484.15,478.32Z" transform="translate(-423.79 -459.05)"/><path class="cls-67" d="M566.75,558.84c3.25,1.9,3.7,7.21,1,11.86s-7.51,6.88-10.76,5-3.71-7.21-1-11.86S563.5,556.95,566.75,558.84Z" transform="translate(-423.79 -459.05)"/><path class="cls-68" d="M556,579.07c2.39,3,1,8.16-3.22,11.53s-9.51,3.67-11.91.67-1-8.17,3.21-11.54S553.57,576.06,556,579.07Z" transform="translate(-423.79 -459.05)"/><path class="cls-69" d="M550.84,497.38c3.17-1.92,8,.26,10.75,4.86s2.45,9.89-.72,11.81-8-.25-10.75-4.86S547.68,499.3,550.84,497.38Z" transform="translate(-423.79 -459.05)"/><path class="cls-70" d="M563.42,517c3.68-.67,7.44,3.09,8.39,8.38s-1.28,10.13-5,10.79-7.44-3.09-8.39-8.38S559.73,517.68,563.42,517Z" transform="translate(-423.79 -459.05)"/><path class="cls-71" d="M463.76,587.07c-2.76,2.46-7.88,1.2-11.44-2.83s-4.19-9.28-1.43-11.75,7.88-1.19,11.44,2.84S466.53,584.61,463.76,587.07Z" transform="translate(-423.79 -459.05)"/><path class="cls-72" d="M448.88,568.35c-3.47,1.13-7.62-2.11-9.27-7.23s-.16-10.19,3.31-11.32,7.62,2.11,9.27,7.23S452.36,567.22,448.88,568.35Z" transform="translate(-423.79 -459.05)"/><path class="cls-73" d="M444.25,527.71c-3.43-1.22-4.75-6.33-3-11.4s6-8.18,9.46-7,4.75,6.33,3,11.4S447.68,528.94,444.25,527.71Z" transform="translate(-423.79 -459.05)"/><path class="cls-74" d="M454.75,505.75c-2.52-2.67-1.44-7.83,2.45-11.55s9.07-4.55,11.6-1.89,1.43,7.83-2.45,11.54S457.28,508.42,454.75,505.75Z" transform="translate(-423.79 -459.05)"/><path class="cls-75" d="M542.58,506.65c-2.6,3.67-8.43,4-13,.72s-6.21-8.91-3.61-12.6,8.43-4,13-.72S545.17,503,542.58,506.65Z" transform="translate(-423.79 -459.05)"/><path class="cls-76" d="M492.69,493.6c1.82,4.13-.88,9.33-6,11.63s-10.8.8-12.62-3.32.89-9.32,6-11.62S490.87,489.48,492.69,493.6Z" transform="translate(-423.79 -459.05)"/><ellipse class="cls-77" cx="32.81" cy="80.17" rx="8.13" ry="10.25"/><ellipse class="cls-78" cx="130.26" cy="86.29" rx="8.13" ry="10.25"/><path class="cls-79" d="M487.36,589.27c-2.83,3.5-8.67,3.45-13-.12s-5.62-9.31-2.79-12.81,8.67-3.44,13,.12S490.19,585.77,487.36,589.27Z" transform="translate(-423.79 -459.05)"/><path class="cls-80" d="M536.23,581.58c2.15,4-.11,9.38-5,12.08s-10.71,1.71-12.86-2.25.11-9.37,5.05-12.08S534.08,577.63,536.23,581.58Z" transform="translate(-423.79 -459.05)"/><ellipse class="cls-81" cx="79.12" cy="125.14" rx="10.24" ry="9.78"/><path class="cls-82" d="M472.56,569.61a10.28,10.28,0,1,1,1.57-14.1A10,10,0,0,1,472.56,569.61Z" transform="translate(-423.79 -459.05)"/><path class="cls-83" d="M474.35,509.52a10.08,10.08,0,0,1,2,14.06,10,10,0,0,1-13.87,2.69,10.29,10.29,0,0,1,11.9-16.75Z" transform="translate(-423.79 -459.05)"/><path class="cls-84" d="M535.62,575.13a10,10,0,0,0,13.95-2.29A10.07,10.07,0,0,0,548,558.72a10,10,0,0,0-13.94,2.3A10.07,10.07,0,0,0,535.62,575.13Z" transform="translate(-423.79 -459.05)"/><path class="cls-85" d="M538.91,514.36a10.07,10.07,0,0,0-2,14.05,10,10,0,0,0,13.87,2.7,10.29,10.29,0,0,0-11.9-16.76Z" transform="translate(-423.79 -459.05)"/><path class="cls-86" d="M531.18,519.14a10.24,10.24,0,1,1-10.24-10.29A10.27,10.27,0,0,1,531.18,519.14Z" transform="translate(-423.79 -459.05)"/><ellipse class="cls-87" cx="82.05" cy="81.76" rx="10.24" ry="10.29"/><ellipse class="cls-88" cx="107.93" cy="83.93" rx="10.24" ry="10.29"/><ellipse class="cls-89" cx="93.37" cy="105.05" rx="10.24" ry="10.29"/><ellipse class="cls-90" cx="67.49" cy="103.43" rx="10.24" ry="10.29"/><ellipse class="cls-91" cx="55.63" cy="80.68" rx="10.24" ry="10.29"/></svg>