<svg id="Layer_1" data-name="Layer 1" xmlns="http://www.w3.org/2000/svg" xmlns:xlink="http://www.w3.org/1999/xlink" viewBox="0 0 165.81 166.11"><defs><style>.cls-1{fill:none;}.cls-2{fill:url(#New_Gradient_Swatch_4);}.cls-3{fill:url(#radial-gradient);}.cls-4{fill:#fff;}.cls-5{fill:url(#linear-gradient);}.cls-6{fill:url(#linear-gradient-2);}.cls-7{fill:url(#linear-gradient-3);}.cls-8{fill:url(#linear-gradient-4);}.cls-9{fill:url(#linear-gradient-5);}.cls-10{fill:url(#linear-gradient-6);}.cls-11{fill:url(#linear-gradient-7);}.cls-12{fill:url(#radial-gradient-2);}.cls-13{clip-path:url(#clip-path);}.cls-14{stroke:#6d6d6d;stroke-miterlimit:10;fill:url(#New_Gradient_Swatch_4-2);}</style><radialGradient id="New_Gradient_Swatch_4" cx="71.14" cy="66.58" r="125.44" gradientUnits="userSpaceOnUse"><stop offset="0" stop-color="#fff"/><stop offset="0.43" stop-color="#d6d6e0"/><stop offset="0.5" stop-color="#c8c8d1"/><stop offset="0.62" stop-color="#a3a3ab"/><stop offset="0.65" stop-color="#9a9aa2"/><stop offset="0.89" stop-color="#d1d1d1"/></radialGradient><radialGradient id="radial-gradient" cx="487.29" cy="475.11" r="124.18" gradientUnits="userSpaceOnUse"><stop offset="0" stop-color="#e6e6e6"/><stop offset="0.43" stop-color="#bdbdc7"/><stop offset="0.5" stop-color="#afafb8"/><stop offset="0.62" stop-color="#8a8a92"/><stop offset="0.65" stop-color="#818189"/><stop offset="0.89" stop-color="#b8b8b8"/></radialGradient><linearGradient id="linear-gradient" x1="492.29" y1="507.45" x2="491.23" y2="565.35" gradientUnits="userSpaceOnUse"><stop offset="0" stop-color="#fff"/><stop offset="0.05" stop-color="#fafafa"/><stop offset="0.7" stop-color="#b5b5bb"/><stop offset="1" stop-color="#9a9aa2"/></linearGradient><linearGradient id="linear-gradient-2" x1="455.16" y1="480.6" x2="420.21" y2="504.17" xlink:href="#linear-gradient"/><linearGradient id="linear-gradient-3" x1="492.94" y1="447.15" x2="520.83" y2="425.61" xlink:href="#linear-gradient"/><linearGradient id="linear-gradient-4" x1="464.08" y1="456.5" x2="450.83" y2="438.75" xlink:href="#linear-gradient"/><linearGradient id="linear-gradient-5" x1="497.29" y1="560.11" x2="497.29" y2="573.65" xlink:href="#linear-gradient"/><linearGradient id="linear-gradient-6" x1="562.16" y1="507.91" x2="572.01" y2="509.5" xlink:href="#linear-gradient"/><linearGradient id="linear-gradient-7" x1="532.28" y1="428.18" x2="542.39" y2="417.24" xlink:href="#linear-gradient"/><radialGradient id="radial-gradient-2" cx="484.56" cy="475.55" r="118.32" gradientUnits="userSpaceOnUse"><stop offset="0.09" stop-color="#b2bfc6"/><stop offset="0.32" stop-color="#949a9e"/><stop offset="0.46" stop-color="#85888a"/><stop offset="0.65" stop-color="#6f6969"/><stop offset="0.88" stop-color="#9aa6b8"/></radialGradient><clipPath id="clip-path" transform="translate(-416.93 -408.1)"><circle class="cls-1" cx="500.04" cy="491.68" r="82.52"/></clipPath><radialGradient id="New_Gradient_Swatch_4-2" cx="486.95" cy="474.52" r="117.09" xlink:href="#New_Gradient_Swatch_4"/></defs><title>handball</title><circle class="cls-2" cx="83.11" cy="83.58" r="82.52"/><path class="cls-3" d="M511.07,471.25c21.31-6.93,46.18-8.53,46.18-8.53s14.92-4.44-3.91-2.84S509.65,468,509.65,468,489.76,478.17,511.07,471.25ZM452.2,469.7a69.46,69.46,0,0,0-25.77-3.32c-2.41,1-.24,2.43-.24,2.43s23,1,26.08,5.51S452.2,469.7,452.2,469.7ZM482.88,448c-.15-2.81.78-22.78,5.62-30.27s-2.65-.94-2.65-.94-6.81,12.47-5.72,31.66C483.24,450.53,483,450.85,482.88,448Zm-22.18,57.42s-8.7,16.89-8.4,35.26c1.51,6.48,2.86.69,2.86.69s.42-19,8.71-34C471.53,493.66,460.69,505.46,460.69,505.46Zm42-.55c-8.11-16.38-3.81,1-3.81,1s13.36,22.82,32.86,32.33c3.75-.47,2.31-1.86,2.31-1.86S510.78,521.29,502.66,504.91ZM566.59,486c1.57,5.92-3.48,31-11.44,40.62a16,16,0,0,1,2.36,1.46s11.87-15.43,11.89-39.59C568.92,479.64,566.42,485.4,566.59,486Zm-46.73,75.9s-24.67,3.8-43-2c-2.18,1.09-1.49,2.52-1.49,2.52s23,7.23,47.34,1.15C530.82,559.83,519.86,561.95,519.86,561.95Zm-99.08-78.33s-.47-4.21-1.56,2.19c-1.4,34.17,15.91,49.93,15.91,49.93s4.82,3.16,3-.59C419.68,519.54,420.78,483.62,420.78,483.62Zm127.79-42.44s8.11,6.56,2.18-.93c-12.64-20.29-30.47-27.17-32.5-27.63s-8.12-1.09-5.77.47C535,418.11,548.57,441.18,548.57,441.18Z" transform="translate(-416.93 -408.1)"/><path class="cls-4" d="M545.31,464.35a229.92,229.92,0,0,0-27.75,5.53c-1.41.54-1.84,1.3-2.82,4s-9.54,29-10.19,31.33.44,1.3,1.19-.65,9.75-26.88,10.94-29.8,3.25-3.47,8.13-4.55,19-4.55,20.48-4.66S546.94,464.24,545.31,464.35Z" transform="translate(-416.93 -408.1)"/><path class="cls-5" d="M526.71,536c-2.94-1.59-13.47-9.43-19.1-16.77s-6.49-9.06-8.45-9.18-24,.24-33.42-.49c-2,.12-6.61,4.29-9.55,25.83-.24,1.83,1.47-2.57,2.45-6.86s4.41-15.16,7.1-16.4c1.59-.74,13.34,0,22.53-.12,9.56-.13,10.9-.37,12.73,1.84,2.34,2.8,12.24,16.89,25.46,22.65C528.31,537,526.71,536,526.71,536Z" transform="translate(-416.93 -408.1)"/><path class="cls-6" d="M428,471c.51-.6.54-1.62,3.52-1.36s13.24,1.65,14.76,2.38,1.59,2.58,2.52,6.42,3.77,12.58,6,18.34,5.1,11.19,3.31,9.4-8.41-17.41-10.52-24.16-2-7.61-4.7-8.34A109.83,109.83,0,0,0,432,471.34C430,471.14,427.5,471.67,428,471Z" transform="translate(-416.93 -408.1)"/><path class="cls-7" d="M487.52,421c-.64,1.22-3.61,9.4-3.92,24.47.1.93,1.24,1,3.3,2.17s20.44,11.56,23.75,14,1.65,0-2.06-3.1-17.35-11.67-19.31-12.7-3.1-1.55-3.3-4,.72-11.77,1.45-15.39S488.56,419,487.52,421Z" transform="translate(-416.93 -408.1)"/><path class="cls-8" d="M479.68,440.42c-.31,3.51-.1,5.47-1.24,6.2a127.59,127.59,0,0,0-29.12,20c-.93.93-1.86.93-4.54.21s-1.45-1,.93-1.45,8.05-5.68,14.25-10.22,14-8.16,15.49-9.09a6.14,6.14,0,0,0,2.69-3.51C478.44,441.34,479.86,438.35,479.68,440.42Z" transform="translate(-416.93 -408.1)"/><path class="cls-9" d="M476.28,565.11c1.14-.53,1.87-1.53,3.57-1.19s18.27,4.25,35.44,1.44c.77-.17.85.08,2.64,1s-.6.34-1.53.25-8.24,1.19-16.91,1a96.71,96.71,0,0,1-18.78-2.38C478.41,564.68,475,565.7,476.28,565.11Z" transform="translate(-416.93 -408.1)"/><path class="cls-10" d="M574.75,488c-1.36.63-4.57,2.24-4.67,4s-2,20.63-8.94,31.71c-.51.71.81,3.76,1.42,6.3s.41-3.15.3-4.57,4.17-8.33,6.2-17.28,2.34-13.93,2.64-15.45,2-3.35,3.46-4.27S576.27,487.27,574.75,488Z" transform="translate(-416.93 -408.1)"/><path class="cls-11" d="M520.57,412.87a68.62,68.62,0,0,1,27.85,23.07,5.88,5.88,0,0,0,3,1.22s-1.22-1.7-4.68-6.2c-4.37-5.69-13.72-13.62-19.52-16S517.72,411.14,520.57,412.87Z" transform="translate(-416.93 -408.1)"/><path class="cls-12" d="M532.22,536.1s-20.3-11.47-32.3-33.54c-4.06-5.65-1.23,1.24-1.23,1.24S511.74,526,530.81,537C533.81,537.33,532.22,536.1,532.22,536.1Zm36.49-48c-.88-20.83-1.26-.6-1.26-.6a72.47,72.47,0,0,1-10.17,37.31c-11.12,18.36,1.06.35,1.06.35S569.59,508.92,568.71,488.09ZM549.87,462s-13.95.35-39,7.24,1.24.71,1.24.71,26.3-6.89,37.42-6.71S549.87,462,549.87,462Zm-.55-20.54c14.83,24.36-.15-2.05-.15-2.05s-11.47-19.59-32.48-26.48c-3.88-.71-3.84-.13-3.84-.13S534.49,417.06,549.32,441.42Zm-67.13,6.17c-.3-2.09-.06-19.21,5.23-29.54,4.69-9.14-1.28-.37-1.28-.37S480,429.61,481,447.74C481.82,452.81,482.49,449.68,482.19,447.59Zm-54,19.39s-3.59,1.17-.25,1.25a77.19,77.19,0,0,1,20.93,2.92s2.75.83,1.42-.92C441.17,466.4,428.24,467,428.24,467Zm34.3,37.92a75.92,75.92,0,0,0-9.4,33.23c.93,4.63,1.72,1.72,1.72,1.72S453,526.74,462.93,507C467.3,495.76,462.54,504.9,462.54,504.9Zm-26.48,29.26c-16.15-15.62-16-47.26-16-47.26s-1.32-4.77-.4,6.62c2,28.86,15.22,41,15.22,41S440.69,538.13,436.06,534.16Zm82.08,28.46a91.7,91.7,0,0,1-40.78-1.72s-20-4.16.26,1.32a93.09,93.09,0,0,0,39.58,1.72S524.1,560.9,518.14,562.62Z" transform="translate(-416.93 -408.1)"/><path class="cls-4" d="M479.14,449.17a156.54,156.54,0,0,0-26.76,18.23c-1.78,2.38,10.09,8.71,29.5,10.89s25.62,2,28.33-4.94c.8-2.05,1.61-4.08,1.13-5.32-.79-2-4.52-4.15-11.43-8.49C487.47,451.75,481.29,448.16,479.14,449.17Z" transform="translate(-416.93 -408.1)"/><g class="cls-13"><path class="cls-14" d="M514.66,465.63c-8.06-7-28.07-17.53-30.9-18.74-2-.88-2.2-1.17-4.54,0-11.57,5-27.53,18.3-29.73,20.65s-2.05,1.61-1.46,4.83c2.05,11.86,9.37,30,11,32.95s1.61,3.22,3.81,3.51c4.39.44,32.8,1,36.75.44s3.37-.88,4.25-3.37c1.32-4.39,11.13-33.68,11.86-35.44S516.85,467.68,514.66,465.63Zm-35.73,94.89c-11.42-6.3-23-20.65-23.72-22s-1.32-1.91-4.25-2.2-13.47-2.49-14.64-2.93-2.2-2.2-2.49,1.32a29,29,0,0,0,.72,7c6.67,10.71,21.56,22.26,32.75,25.68a22.56,22.56,0,0,0,10.91-4C479.95,562.14,480.83,561.7,478.93,560.52ZM432.73,444c-9,9.59-16.41,30.5-15.16,46.6,1.63-.57,2.82-.38,2.93-1.58.44-6,6.3-17.57,7.61-19.33s1.32-2.05,1.32-3.66c-.15-4.25,3.81-20.21,4.69-21.82C434.4,443.73,433.75,443.76,432.73,444Zm124,80c-3.66,2.49-20.5,9.37-23.87,10.1s-3.37.29-4.25,4.1c-2.34,8.35-9.23,20.65-11.13,22.7s-2,2.78-1,3.81,4.25,3.37,10,3.81a17.58,17.58,0,0,0,4.47-.38c11.74-3.44,26.62-14.48,32.37-23.47.9-8-1.77-17.58-2.72-19.21S558.88,522.75,556.68,524.06ZM484.49,420.38c2.49.29,2.35-.59,6-1.46s13.91-4.25,25.92-4.69c2.46-.29,3.47-.87.11-3.42-2.82-1.44-11.28-2.21-16.93-2.21-14.91,0-33.1,5.77-40.48,11.49C461.51,420,477.14,419.39,484.49,420.38Zm77,16.36-.13,0c-1.9,1-9.37,1.17-11.42,1.17s-2.78.29-2.78,2.34-1.17,18.16-1.61,20.21.15,2.78,2.34,5,15.52,20.5,17.72,23.58,2.64,2.34,4.1,1.17,8.35-5.27,12.3-5.12l.21,0C582.62,468.65,572.86,447.74,561.5,436.74Z" transform="translate(-416.93 -408.1)"/></g></svg>