<?xml version="1.0" encoding="utf-8"?>
<!-- Generator: Adobe Illustrator 21.1.0, SVG Export Plug-In . SVG Version: 6.00 Build 0)  -->
<svg version="1.1" xmlns="http://www.w3.org/2000/svg" xmlns:xlink="http://www.w3.org/1999/xlink" x="0px" y="0px"
	 viewBox="0 0 128 128" style="enable-background:new 0 0 128 128;" xml:space="preserve">
<style type="text/css">
	.st0{display:none;}
	.st1{display:inline;fill:#231F20;}
	.st2{fill:#0A4890;}
	.st3{fill:url(#SVGID_1_);}
	.st4{fill:url(#SVGID_2_);}
	.st5{fill:url(#SVGID_3_);}
	.st6{fill:#211F1F;}
	.st7{fill:url(#SVGID_4_);}
	.st8{fill:url(#SVGID_5_);}
	.st9{fill:url(#SVGID_6_);}
	.st10{fill:url(#SVGID_7_);}
	.st11{fill:url(#SVGID_8_);}
	.st12{fill:#231F20;}
	.st13{fill:#64B8E2;}
	.st14{fill:url(#SVGID_9_);}
	.st15{fill:url(#SVGID_10_);}
	.st16{fill:url(#SVGID_11_);}
	.st17{fill:url(#SVGID_12_);}
	.st18{fill:url(#SVGID_13_);}
	.st19{fill:url(#SVGID_14_);}
	.st20{fill:url(#SVGID_15_);}
	.st21{fill:url(#SVGID_16_);}
	.st22{fill:url(#SVGID_17_);}
	.st23{fill:url(#SVGID_18_);}
	.st24{fill:url(#SVGID_19_);}
	.st25{fill:url(#SVGID_20_);}
	.st26{fill:url(#SVGID_21_);}
	.st27{fill:url(#SVGID_22_);}
	.st28{fill:url(#SVGID_23_);}
	.st29{fill:url(#SVGID_24_);}
	.st30{fill:url(#SVGID_25_);}
	.st31{fill:url(#SVGID_26_);}
	.st32{fill:url(#SVGID_27_);}
</style>
<g id="Layer_1" class="st0">
	<path class="st1" d="M84.1,59.5c0.3-0.7,0.5-1,0.3-1.8c-0.1-0.4-0.3-0.6-0.6-0.8c-0.6-1.5-1.4-2.9-2.4-4.2
		c-1.5-1.8-3.5-2.8-5.3-4.3c-0.1-0.1-0.2-0.2-0.4-0.2c-0.3-4.3-0.9-8.7-1.5-13c-0.6-4.4-1.6-8.5-4.5-11.8c-0.7-0.4-1.5-0.8-2.2-1.2
		c-2.3-0.6-5.4-0.8-7.3,0.5c-0.9,0.6-1.4,1.4-1.8,2.4c-0.1-0.1-0.1-0.2-0.2-0.3c-0.2-1-0.9-1.8-1.9-2c-0.1,0-0.1-0.1-0.2-0.1
		c-3.5-1.7-7.8-1.6-10.9,1.1c-0.4,0.3-0.6,0.7-0.9,1c-3.3-0.4-6.8,0.3-8.7,3.3c-0.2,0.3-0.3,0.6-0.5,0.9c-0.2-0.2-0.5-0.3-0.9-0.2
		c-0.2,0-0.3,0.1-0.5,0.1c0,0-0.1,0-0.1,0c-0.2,0.2-0.5,0.3-0.9,0.4c-0.8,0.2-1.7,0.4-2.5,0.6c-0.1,0-0.2,0.1-0.3,0.1
		c-0.1,0.1-0.2,0.1-0.3,0.2c-0.1,0-0.1,0-0.2,0.1c-1.1,0.5-2.2,1.1-3.1,1.9c-0.1,0.1-0.3,0.2-0.4,0.4c-0.6,0.9-1.1,1.8-1.6,2.8
		c0,0.2,0,0.5-0.1,0.7c0.1,1.4,0.2,2.9,0.4,4.2c0.2,1,0.4,2.1,0.6,3.1c0.3,0.9,0.7,1.8,0.8,2.7c0,0,0,0,0,0c0.1,0.1,0.1,0.3,0.2,0.5
		c1.9,8.6,6.5,16.6,9.2,24.8c-0.4,0.9-0.2,1.9,0.3,3c0.6,1.1,2.3,0.1,1.7-1c-0.2-0.4-0.2-0.7-0.2-0.9c0.2-0.1,0.3-0.4,0.3-0.6
		c0.4-0.5,1.1-0.8,1.7-1.1c1.1-0.7,2-1.4,3-2.3c1-0.9-0.5-2.3-1.4-1.4c-0.8,0.7-1.6,1.4-2.5,2c-0.4,0.3-0.9,0.5-1.4,0.8
		c-2.1-5.3-7.6-17.2-9.2-26.4c-0.2-0.3-0.4-0.7-0.4-1.2c0-0.5,0-0.1-0.1-0.7c-0.1-0.5-0.2-0.9-0.3-1.4c-0.2-0.9-0.4-1.9-0.4-2.9
		c-0.1-2,0.7-4,2.8-4.6c0.1-0.1,0.1-0.1,0.2-0.2c1.1-0.4,2.3-0.8,3.4-1.2c0.5-0.1,1-0.3,1.5-0.4c-0.1,1-0.1,2,0.1,3
		c0,0-0.1,0.1-0.1,0.1c0,0,0,0,0,0.1c0,0.2,0,0.4,0,0.6c0,0.2,0.1,0.4,0.1,0.5c0,0,0,0,0,0.1c0,0,0,0,0,0c0.1,0.7,0.2,1.4,0.3,2.1
		c0.4,0.9,1.1,1.7,1.9,2.2c0.9,0.5,1.6-0.4,1.4-1.2c0-0.4-0.1-0.8-0.5-1c0-0.1-0.1-0.1-0.1-0.2l-0.1-0.1c-1-2.1-1.8-4.9-1-7.2
		c1-2.8,3.9-3.6,6.6-3.4c-0.7,2.9,0.5,6.4,1.4,9.1c0,0,0,0,0,0.1c0,0.5,0.3,1.1,1,1.1c0.1,0,0.2,0,0.3-0.1c0.1,0,0.1,0,0.2,0
		c0.2,0,0.4-0.1,0.5-0.2c0.2-0.1,0.4-0.2,0.5-0.4c0.2-0.3,0.3-0.6,0.1-0.9c0-1-0.3-1.9-0.7-2.9c-0.5-1.4-1-2.9-1.5-4.3
		c0-0.1-0.1-0.1-0.1-0.2c0.1-0.9,0.4-1.7,0.9-2.3c2-2.2,5.5-2.5,8.2-1.5c0,0,0,0.1,0.1,0.1c0.1,0.1,0.3,0.1,0.4,0.3
		c0,0,0,0.1,0.1,0.1c0.2,0.2,0.4,0.4,0.6,0.6c0.3,0.1,0.6,0.4,0.7,0.9c0.4,1.5,1,2.9,1.1,4.3c0.4,1.3,0.6,2.6,0.4,3.9
		c0,0.4,0,0.8,0,1.2c0.2,0.2,0.4,0.4,0.7,0.6H60c0.3-0.2,0.5-0.4,0.5-0.8c0.2-2.4-0.1-4.7-0.8-7c0.2-1,0.3-2,0.8-2.9
		c1.2-2.3,5.4-1.7,7.4-1c0,0,0,0,0.1,0c3.6,3.8,4.1,9.1,4.7,14.1c0.7,5.2,1.4,10.4,1.2,15.7c0,0.1,0,0.2,0,0.3c0,0.2,0,0.4,0,0.6
		c0,0.3,0.1,0.4,0.2,0.6c0.2,1.4,0.2,2.7,0.2,4.1c-0.1,1.3,1.9,1.3,2,0c0-0.5,0-1.1,0-1.6c-0.3-1-0.4-2-0.3-3.1
		c-0.1-0.5-0.1-1.1-0.2-1.6c1.5,1.3,3,2.2,4.6,3.5c0,0,1.6,1.2,1.9,1.4c0,0,0,0.1,0,0.1c0,0.8-1.6,2.9-2,4c-0.9,3-0.9,6-2.5,8.8
		c0,0,0,0.1,0,0.1c-0.9-0.1-1.7-0.2-2.5-0.3c-5.4-0.1-11.1,0.9-16.2,1.8C52.3,74,45,75.6,38.6,78.5c-0.2,0.1-0.3,0.1-0.4,0.2
		c0,0,0-0.1-0.1-0.1c-1.6-1.9,1.4-2.2,2.6-2.7c1.4-0.5,2.6-1.3,3.7-2.2c1-0.8-0.4-2.2-1.4-1.4c-1,0.8-2.2,1.5-3.5,1.9
		c-0.9,0.3-1.9,0.5-2.8,1c-1.7,1.2-1.3,3.1-0.2,4.6c-2.1,1.9-1.8,4.6-0.5,7.8c1,2.5,2.1,4.5,3.9,5.8c-0.2,0.4-0.3,0.8,0.1,1.2
		c2.2,2.5,4.8,3.5,8.1,3.7c5.7,0.4,11.7-0.1,17.4-0.6c5.4-0.5,16.1,0,16.3-7.8c0-0.2-0.1-0.4-0.1-0.5c1.6-3.1,1.4-7.8,1.3-11.3
		c-0.1-0.6-0.2-1.3-0.4-1.9c-0.1-0.5-0.1-1-0.2-1.5c-0.1-1.4-0.6-2.5-1.9-3.2c-0.2,0-0.4-0.1-0.6-0.1c1.2-2.4,1.4-4.9,2-7.5
		C82.4,62.3,83.4,61.1,84.1,59.5z M76.2,51.2c-0.1-0.2-0.3-0.2-0.5-0.3c0-0.1,0-0.2,0.1-0.2c1.2,0.9,2.4,1.6,3.5,2.7
		c0.4,0.4,0.8,0.9,1.1,1.4C78.9,53.6,77.5,52.5,76.2,51.2z M74.4,94.8c-1.7,0.6-4.1,0.6-5.9,0.7c-2.9,0.3-5.9,0.5-8.8,0.7
		C54.8,96.5,48,97.6,43.6,95c0.1,0,0.2,0,0.2,0.1c6.3,1,13.4,0.7,19.7,0.3c3.8-0.2,9.2-0.3,13.4-1.9C76,94.1,75,94.7,74.4,94.8z
		 M80.2,74.9c0.2,0.4,0.3,0.9,0.5,1.4c0.1,0.8,0.1,1.5,0.1,2.3c0,0.4,0.1,0.6,0.3,0.8c0.1,4,0,9.3-3,11.2c-3.3,2.1-9,2.3-12.7,2.6
		c-3.9,0.3-7.9,0.3-11.8,0.3c-4.3-0.1-10.9,0.8-13.9-3c-0.8-1-2.2-4-2.3-5c-0.8-5.1,2.3-5.2,5.5-6.4c4-1.4,8.1-2.6,12.3-3.5
		c4.1-0.9,8.2-1.5,12.4-1.9c2.2-0.2,8.6-1.4,11.4,0.2C79.5,74.1,79.9,74.4,80.2,74.9z"/>
</g>
<g id="Right">
	<path class="st2" d="M86.1,29.5c-1.4-2.1-4.4-4-7.6-3.4c-3.2,0.6-6,5-9.4,11.8c-3.5,6.8-5.3,18.5-5.1,20.4c0.2,1.9-1.2,0.9-1.7,5.3
		c-0.5,4.4,0.1,4.1-1.3,6.3c-1.4,2.1-2.5,6.5-2.4,8c0,1.5-0.2,1.1-1.6,2.3c-1.4,1.2-3.2-0.2-7,5.3c-3.8,5.5-4.2,9.9-1.5,13.7
		s-2.4,3.7,0.7,6.1s5.4,2.4,9.6,5.3c4.2,2.9,14.2,7.7,21.9,10.5c7.6,2.8,7.9,3.3,8.6,2.6c0.8-0.7,1.1-2.7,2.5-2.2
		c1.4,0.5,2.4-2.3,2.1-2.9s1.6-5.6,3.7-9.6s4.8-7.4,5.3-9.7s-0.9-0.9-0.9-1.8c0.1-0.9,1.6-4.3,3.1-5.7s9.6-3.1,11.5-5.5
		c1.9-2.5,0-3.9,0.6-8.2c0.6-4.3,2-7.3,0.6-7.9c-1.5-0.6-2.4-0.6-2.1-2.9c0.3-2.3,4.9-12.2,6.5-16.9c1.6-4.8,3.4-6.4,3.1-8.3
		c-0.3-1.9-1.8-4.4-5-5.9s-4.9-0.7-6.6,1.3c-1.7,2-1.6-1.3-1.7-2.9c-0.1-1.6-1.6-3.7-4.5-4.6c-3-1-5.9,0.7-6.5,1.1
		c-0.6,0.4,0.4-2.3-3.7-4.4c-4.1-2-5.5-1.1-6.9-0.1C88.9,27.4,86.1,29.5,86.1,29.5z"/>
	
		<linearGradient id="SVGID_1_" gradientUnits="userSpaceOnUse" x1="-0.2237" y1="118.0198" x2="38.146" y2="95.8671" gradientTransform="matrix(0.9139 0.406 -0.406 0.9139 96.1995 -1.8806)">
		<stop  offset="0" style="stop-color:#0A4890"/>
		<stop  offset="0.1156" style="stop-color:#084183"/>
		<stop  offset="0.4983" style="stop-color:#042C5E"/>
		<stop  offset="0.8067" style="stop-color:#011F46"/>
		<stop  offset="1" style="stop-color:#001A3E"/>
	</linearGradient>
	<path class="st3" d="M51.9,85.8c2.8,0.6-1.9,5.5-0.4,9.1c1.8,4.2,32.7,17.7,37.9,19.9s6.2,7.4,2.4,5.8
		c-3.8-1.6-42.7-15.2-44.7-24.2c-1.1-4.7,2-8.4,2.7-9.2C50.5,86.3,51.9,85.8,51.9,85.8z"/>
	
		<linearGradient id="SVGID_2_" gradientUnits="userSpaceOnUse" x1="-3.7808" y1="101.5351" x2="46.7494" y2="101.5351" gradientTransform="matrix(0.9139 0.406 -0.406 0.9139 96.1995 -1.8806)">
		<stop  offset="0" style="stop-color:#231F20"/>
		<stop  offset="5.087928e-02" style="stop-color:#1E2230"/>
		<stop  offset="0.1491" style="stop-color:#16264A"/>
		<stop  offset="0.2378" style="stop-color:#11295A"/>
		<stop  offset="0.3081" style="stop-color:#0F2A5F"/>
		<stop  offset="0.3479" style="stop-color:#122957"/>
		<stop  offset="0.4902" style="stop-color:#19243F"/>
		<stop  offset="0.6406" style="stop-color:#1F212E"/>
		<stop  offset="0.8033" style="stop-color:#222023"/>
		<stop  offset="1" style="stop-color:#231F20"/>
	</linearGradient>
	<path class="st4" d="M101.4,101.7c-2-2.6-9.7-4.6-19.4-8.5c-9.7-3.8-22-10.4-25.5-8.5c-3.6,1.9-7.1,6.7-5.9,10.5s5.5,7.5,13.4,10.2
		c7.9,2.7,19.7,8.6,23.5,10c6.5,2.3,5.8,2.9,6.8-0.9C95.2,110.6,101.4,101.7,101.4,101.7z"/>
	
		<linearGradient id="SVGID_3_" gradientUnits="userSpaceOnUse" x1="27.6301" y1="90.9722" x2="45.9293" y2="101.5373" gradientTransform="matrix(0.9139 0.406 -0.406 0.9139 96.1995 -1.8806)">
		<stop  offset="0" style="stop-color:#231F20;stop-opacity:0"/>
		<stop  offset="7.433750e-02" style="stop-color:#3B4148;stop-opacity:0.1495"/>
		<stop  offset="0.1761" style="stop-color:#586A79;stop-opacity:0.354"/>
		<stop  offset="0.2725" style="stop-color:#6E8AA0;stop-opacity:0.548"/>
		<stop  offset="0.361" style="stop-color:#7FA1BB;stop-opacity:0.7259"/>
		<stop  offset="0.4387" style="stop-color:#89AFCC;stop-opacity:0.8822"/>
		<stop  offset="0.4973" style="stop-color:#8CB4D2"/>
		<stop  offset="0.5555" style="stop-color:#85AAC6;stop-opacity:0.8842"/>
		<stop  offset="0.6599" style="stop-color:#7390A7;stop-opacity:0.6765"/>
		<stop  offset="0.7984" style="stop-color:#556675;stop-opacity:0.401"/>
		<stop  offset="0.9641" style="stop-color:#2C2C30;stop-opacity:7.146871e-02"/>
		<stop  offset="1" style="stop-color:#231F20;stop-opacity:0"/>
	</linearGradient>
	<path class="st5" d="M81.8,94.5c2.6,1.1,13.5,5.2,15.1,6.7c1.6,1.5-2.1,5.2-2.5,7c-0.5,1.8-1.4,4.2-1.4,4.2s1.2-6,1.6-8.3
		c0.4-2.3,0.2-3-3.3-4.4S81.8,94.5,81.8,94.5z"/>
	<path class="st2" d="M85.6,28.9c-1.4,4.4-5.5,8.6-5.8,10.8c-0.1,0.9-0.2,1.6,1.2-0.3c1.3-1.8,7.5-11.7,7.5-11.7l-2.5,1.9L85.6,28.9
		z"/>
	<path class="st2" d="M99.6,29.4c-0.8,4.8-5.9,11.4-5.9,13.6c0,2.1,0.3,2.5,1.7,0.5c1.3-1.8,2-8.4,7.8-12.8c1-0.7-2.7,0.8-2.7,0.8
		L99.6,29.4z"/>
	<path class="st2" d="M111.4,33.7c-0.2,5.3-4.2,13.7-4.1,15.9c0,2.1,0.9,1.9,2.3-0.1c1.3-1.8,4.9-10.8,7.4-13c0.4-0.4,0.2-2-2-0.3
		c-1,0.8-2.2,1.7-2.2,1.7L111.4,33.7z"/>
	<path class="st6" d="M118.5,71.4c-0.2,5.3-2.2,9-0.7,12c0.9,1.9,2.1-5.4,2.3-8.6c0.1-2.6-0.2-3.7-1-4.2
		C117.9,70,118.5,71.4,118.5,71.4z"/>
	
		<linearGradient id="SVGID_4_" gradientUnits="userSpaceOnUse" x1="109.9033" y1="53.144" x2="120.4723" y2="53.144" gradientTransform="matrix(0.992 0.1265 -0.1265 0.992 10.1018 -10.4408)">
		<stop  offset="0" style="stop-color:#231F20"/>
		<stop  offset="0.5397" style="stop-color:#0E1C32"/>
		<stop  offset="1" style="stop-color:#001A3E"/>
	</linearGradient>
	<path class="st7" d="M125,41.2c-3.7,3.7-14.3,21.5-14.2,28.6c0.1,6.1,9.5,1.4,7.2,0.7c-4.3-1.4-1.1-9.2,0.2-12.2
		c1.8-4,6.3-13.2,6.3-13.2L125,41.2z"/>
	
		<linearGradient id="SVGID_5_" gradientUnits="userSpaceOnUse" x1="44.5459" y1="41.6428" x2="34.5848" y2="41.6428" gradientTransform="matrix(0.8479 0.5302 -0.4946 0.7908 101.7145 -5.8923)">
		<stop  offset="0" style="stop-color:#231F20"/>
		<stop  offset="0.5397" style="stop-color:#0E1C32"/>
		<stop  offset="1" style="stop-color:#001A3E"/>
	</linearGradient>
	<path class="st8" d="M117,37.2c-1.2-2.8-2.9,3.9-5.1,7.8s-5.4,10.1-3.3,11.7c4.1,3.1,7.9-1.5,9.3-4.5c1.5-3.2,4.2-7.1,5.4-9.2
		C124.3,41.1,119.4,42.7,117,37.2z"/>
	
		<linearGradient id="SVGID_6_" gradientUnits="userSpaceOnUse" x1="32.6534" y1="43.0297" x2="19.7528" y2="43.0297" gradientTransform="matrix(0.8721 0.4893 -0.4564 0.8134 99.5962 -5.5347)">
		<stop  offset="0" style="stop-color:#231F20"/>
		<stop  offset="0.5397" style="stop-color:#0E1C32"/>
		<stop  offset="1" style="stop-color:#001A3E"/>
	</linearGradient>
	<path class="st9" d="M103.6,31.5c-1.9-2.3-3.9,3.5-5.9,7.5s-2.6,11.2-0.4,12.7c4.2,2.9,9.2-2.2,10.5-5.3c1.4-3.3,3.1-8.6,3.3-11.3
		C111.4,32.8,107.5,36.1,103.6,31.5z"/>
	
		<linearGradient id="SVGID_7_" gradientUnits="userSpaceOnUse" x1="18.7324" y1="45.2545" x2="6.0361" y2="45.2545" gradientTransform="matrix(0.8019 0.5974 -0.5572 0.748 104.8427 -4.2409)">
		<stop  offset="0" style="stop-color:#231F20"/>
		<stop  offset="0.5397" style="stop-color:#0E1C32"/>
		<stop  offset="1" style="stop-color:#001A3E"/>
	</linearGradient>
	<path class="st10" d="M91.3,27.3c-2.2-2.1-5.7,4.5-7.6,9.1c-1.7,4.1-1.1,8.5,0.9,10.2c3.8,3.4,7.7-2.1,9.3-5
		c1.8-3.1,5-7.3,5.2-10.3C99.2,29.1,94.2,30.1,91.3,27.3z"/>
	
		<linearGradient id="SVGID_8_" gradientUnits="userSpaceOnUse" x1="6.3435" y1="53.8873" x2="-3.794" y2="53.8873" gradientTransform="matrix(0.8019 0.5974 -0.5572 0.748 104.8427 -4.2409)">
		<stop  offset="0" style="stop-color:#231F20"/>
		<stop  offset="0.5397" style="stop-color:#0E1C32"/>
		<stop  offset="1" style="stop-color:#001A3E"/>
	</linearGradient>
	<path class="st11" d="M78.2,28.1c-2.2-2.1-5.1,4.5-7.6,8.2c-2.5,3.7-1.8,6.8,0.2,8.6c3.8,3.4,8.3-3.4,9.2-6.3
		c1-3.4,2.7-4.5,4.1-6.4C85.3,30.3,81.1,30.9,78.2,28.1z"/>
	<g>
		<path class="st2" d="M86.1,29.6c-0.9-1.3-2.1-2.3-3.6-2.8c-1.4-0.6-3-0.7-4.4-0.3c-1.4,0.5-2.6,1.6-3.5,2.7
			c-1,1.2-1.8,2.5-2.6,3.8c-0.8,1.3-1.5,2.7-2.2,4.1c-0.7,1.4-1.3,2.8-1.9,4.2c-1.1,2.9-1.8,5.9-2.5,8.9c-0.3,1.5-0.6,3-0.8,4.5
			c-0.1,0.8-0.2,1.5-0.3,2.3c0,0.4-0.1,0.8-0.1,1.1c0,0.3,0.1,0.8-0.1,1.3c-0.2,0.5-0.5,0.8-0.7,1.1c-0.2,0.3-0.3,0.6-0.5,0.9
			c-0.2,0.7-0.4,1.4-0.4,2.2c-0.1,0.8-0.1,1.5-0.2,2.3c-0.1,0.8,0,1.5-0.2,2.4c-0.2,0.9-0.7,1.5-1.1,2.2c-0.4,0.6-0.7,1.3-0.9,2
			c-0.5,1.4-0.9,2.9-1.2,4.4c-0.1,0.4-0.1,0.7-0.1,1.1c0,0.4,0.1,0.8-0.2,1.3c-0.4,0.5-0.7,0.6-1,0.9c-0.3,0.2-0.5,0.5-0.9,0.7
			c-0.8,0.5-1.6,0.5-2.2,0.8c-0.7,0.3-1.3,0.7-1.8,1.2c-1.1,1-2,2.2-2.9,3.5c-0.8,1.3-1.6,2.6-2.1,4c-0.5,1.4-0.8,2.9-0.7,4.4
			c0.1,1.5,0.6,2.9,1.5,4.2c0.4,0.6,0.9,1.3,1,2.2c0,0.4-0.1,0.9-0.2,1.3c-0.2,0.4-0.5,0.7-0.7,1c-0.2,0.3-0.3,0.6-0.2,0.9
			c0.1,0.3,0.4,0.6,0.6,0.8c0.6,0.5,1.2,1,1.8,1.3c1.3,0.8,2.8,1.3,4.2,2c1.4,0.6,2.8,1.4,4,2.3c2.6,1.7,5.3,3.1,8.1,4.5
			c2.8,1.3,5.6,2.6,8.4,3.8c2.8,1.2,5.7,2.2,8.6,3.3l2.2,0.8c0.7,0.3,1.5,0.6,2.1,0.7c0.2,0,0.3,0,0.4-0.1c0.1-0.1,0.3-0.2,0.3-0.3
			c0.2-0.3,0.4-0.6,0.6-1c0.2-0.3,0.4-0.7,0.8-1c0.2-0.1,0.4-0.2,0.7-0.3c0.2,0,0.5,0.1,0.6,0.1c0.5,0.1,1.1-0.5,1.4-1.2
			c0.1-0.3,0.3-0.7,0.3-1c0-0.2,0-0.3,0-0.4c-0.1-0.4,0-0.5,0-0.7c0.3-1.6,0.9-3,1.5-4.4c1.2-2.9,2.6-5.7,4.2-8.3
			c0.8-1.3,1.6-2.6,2.3-4c0.3-0.7,0.7-1.4,0.8-2c0.1-0.3,0.1-0.8,0.1-0.9c-0.1-0.1,0.1,0,0,0c-0.1,0-0.2,0-0.3,0
			c-0.1,0-0.2,0-0.3-0.1c-0.1-0.1-0.2-0.2-0.3-0.3c-0.1-0.2,0-0.4,0-0.5c0-0.1,0-0.2,0.1-0.3c0.1-0.2,0.1-0.4,0.2-0.6
			c0.1-0.4,0.3-0.7,0.4-1.1c0.3-0.7,0.7-1.4,1.1-2.1c0.4-0.7,0.9-1.3,1.6-1.9c0.7-0.5,1.4-0.8,2.2-1.1c2.9-1.2,5.8-2.1,8.4-3.7
			c1.2-0.8,2.1-2,1.7-3.4c-0.1-0.7-0.4-1.5-0.5-2.3c-0.1-0.8-0.1-1.6,0-2.4c0.2-1.6,0.5-3.1,0.9-4.6c0.2-0.7,0.3-1.5,0.4-2.2
			c0-0.3,0-0.7-0.1-0.8c0-0.1-0.1-0.1-0.2-0.2l-0.5-0.2c-0.4-0.1-0.7-0.3-1.2-0.6c-0.4-0.3-0.7-0.9-0.7-1.3c-0.1-0.5,0-0.9,0-1.3
			c0.1-0.4,0.2-0.8,0.3-1.2c0.5-1.5,1.1-2.9,1.7-4.4c1.2-2.9,2.4-5.7,3.5-8.6c0.6-1.4,1-2.9,1.6-4.4c0.5-1.5,1.3-2.9,2-4.2
			c0.3-0.7,0.6-1.4,0.6-2c0-0.6-0.2-1.4-0.5-2c-0.6-1.3-1.7-2.4-2.9-3.2c-1.2-0.8-2.7-1.4-4.1-1.5c-0.7,0-1.4,0.2-2,0.6
			c-0.6,0.4-1.1,0.9-1.6,1.5c-0.2,0.2-0.3,0.3-0.6,0.4c-0.1,0.1-0.3,0.1-0.5,0.1c-0.2,0-0.4-0.1-0.5-0.3c-0.4-0.5-0.4-0.9-0.4-1.3
			c-0.1-0.8-0.1-1.6-0.1-2.3c-0.1-1.4-1.1-2.6-2.4-3.4c-1.3-0.8-2.7-1.3-4.2-1.2c-0.7,0-1.5,0.2-2.2,0.4c-0.4,0.1-0.7,0.3-1,0.4
			c-0.2,0.1-0.3,0.2-0.5,0.3l-0.2,0.1c0,0-0.1,0.1-0.2,0.1c-0.1,0.1-0.4,0-0.4-0.1c-0.5-3.3-3.7-4.8-6.6-5.5
			c-0.7-0.1-1.5-0.1-2.2,0.2c-0.7,0.3-1.3,0.7-2,1.1C88.6,27.7,87.4,28.6,86.1,29.6z M86.1,29.5c1.1-0.9,2.4-1.9,3.6-2.8
			c0.6-0.4,1.3-0.9,2-1.2c0.7-0.3,1.6-0.4,2.4-0.2c0.8,0.1,1.5,0.4,2.3,0.7c0.7,0.3,1.4,0.6,2.1,1.1c0.7,0.4,1.3,1,1.7,1.7
			c0.2,0.3,0.4,0.7,0.5,1.1c0.1,0.2,0.1,0.4,0.2,0.6c0,0.2,0.1,0.4,0.1,0.5c0,0-0.1-0.1-0.1,0c0,0,0,0,0.1,0l0.3-0.2
			c0.2-0.1,0.3-0.2,0.5-0.3c0.4-0.2,0.7-0.3,1.1-0.5c0.7-0.3,1.5-0.4,2.3-0.5c1.6-0.1,3.2,0.4,4.6,1.3c1.3,0.9,2.6,2.2,2.7,3.9
			c0,0.8,0,1.5,0.1,2.3c0,0.3,0.1,0.7,0.3,0.9c0.1,0,0,0,0.1,0c0.1,0,0.2-0.2,0.3-0.3c0.5-0.5,1-1.2,1.7-1.6
			c0.7-0.5,1.6-0.7,2.4-0.7c0.8,0,1.6,0.2,2.4,0.5c0.7,0.3,1.5,0.6,2.2,1.1c1.4,0.9,2.5,2,3.3,3.5c0.4,0.8,0.6,1.5,0.6,2.4
			c0,0.9-0.4,1.7-0.7,2.4c-0.7,1.4-1.4,2.7-1.9,4.2c-0.5,1.4-1,2.9-1.6,4.4c-1.1,2.9-2.3,5.7-3.5,8.6c-0.6,1.4-1.2,2.9-1.6,4.3
			c-0.1,0.4-0.2,0.7-0.3,1c0,0.4-0.1,0.7,0,1c0,0.3,0.1,0.5,0.3,0.6c0.2,0.2,0.6,0.3,0.9,0.4l0.6,0.2c0.3,0.1,0.5,0.3,0.7,0.6
			c0.3,0.5,0.3,1,0.3,1.4c-0.1,0.9-0.2,1.6-0.4,2.4c-0.3,1.5-0.7,3-0.9,4.5c-0.1,0.7-0.1,1.5,0,2.2c0.1,0.7,0.3,1.4,0.5,2.2
			c0.1,0.4,0.1,0.8,0.1,1.3c-0.1,0.5-0.2,0.9-0.4,1.3c-0.2,0.4-0.5,0.7-0.8,1c-0.3,0.3-0.6,0.6-1,0.8c-2.7,1.7-5.7,2.6-8.5,3.8
			c-0.7,0.3-1.4,0.6-2,1c-0.5,0.4-1,1-1.4,1.6c-0.4,0.6-0.8,1.3-1.1,2c-0.2,0.3-0.3,0.7-0.4,1c-0.1,0.2-0.1,0.3-0.2,0.5
			c0,0.1-0.1,0.4-0.1,0.3c0,0,0-0.1-0.1-0.1c0,0-0.1,0,0,0l0.3,0c0.1,0,0.3,0,0.5,0.2c0.2,0.1,0.3,0.3,0.3,0.5
			c0.1,0.6,0,0.9-0.1,1.4c-0.2,0.8-0.6,1.5-0.9,2.2c-0.8,1.4-1.6,2.7-2.4,4c-1.7,2.6-3,5.3-4.2,8.2c-0.6,1.4-1.2,2.9-1.5,4.3
			c0,0.2-0.1,0.4,0,0.4c0.1,0.3,0.1,0.5,0.1,0.7c-0.1,0.4-0.2,0.8-0.4,1.2c-0.2,0.4-0.4,0.7-0.7,1c-0.3,0.3-0.8,0.6-1.3,0.4
			c-0.4-0.1-0.6-0.1-0.9,0.1c-0.2,0.2-0.4,0.5-0.6,0.8c-0.2,0.3-0.4,0.7-0.6,1c-0.1,0.2-0.3,0.3-0.5,0.5c-0.2,0.1-0.5,0.2-0.7,0.1
			c-0.8-0.1-1.5-0.5-2.3-0.7l-2.2-0.8c-2.9-1.1-5.8-2.2-8.6-3.4c-2.8-1.2-5.7-2.5-8.4-3.9c-2.8-1.4-5.5-2.8-8.1-4.5
			c-1.3-0.9-2.6-1.6-4-2.3c-1.4-0.6-2.9-1.2-4.2-2c-0.7-0.4-1.3-0.9-1.9-1.4c-0.3-0.3-0.6-0.6-0.8-1c-0.2-0.5,0-1,0.2-1.3
			c0.5-0.6,0.9-1.2,0.8-1.9c-0.1-0.7-0.5-1.3-0.9-2c-0.9-1.3-1.5-2.8-1.7-4.4c-0.1-1.6,0.1-3.2,0.7-4.7c0.5-1.5,1.3-2.9,2.1-4.2
			c0.9-1.3,1.8-2.6,3-3.7c0.6-0.5,1.3-1,2-1.3c0.8-0.3,1.6-0.4,2.1-0.8c0.2-0.1,0.6-0.5,0.9-0.7c0.3-0.2,0.7-0.5,0.8-0.6
			c0.1-0.1,0.1-0.6,0.1-0.9c0-0.4,0.1-0.8,0.1-1.2c0.3-1.6,0.7-3.1,1.2-4.6c0.3-0.7,0.6-1.5,1-2.2c0.4-0.7,0.9-1.3,1-1.9
			c0.2-0.7,0.1-1.5,0.2-2.2c0-0.8,0.1-1.6,0.2-2.3c0.1-0.8,0.2-1.6,0.5-2.4c0.1-0.4,0.3-0.8,0.6-1.1c0.2-0.4,0.5-0.6,0.6-0.9
			c0.1-0.3,0-0.6,0-1c0-0.4,0-0.8,0.1-1.2c0.1-0.8,0.2-1.6,0.3-2.3c0.2-1.5,0.5-3.1,0.8-4.6c0.7-3,1.5-6,2.6-8.9
			c0.6-1.4,1.2-2.9,2-4.2c0.7-1.4,1.5-2.7,2.3-4.1c0.8-1.3,1.7-2.6,2.7-3.8c1-1.2,2.2-2.3,3.8-2.8C81.1,25.3,84.5,27,86.1,29.5z"/>
	</g>
	<g>
		<path class="st12" d="M101.4,97.3c-1.2-0.9-2.7-1.5-4.2-1.9L92.8,94c-3-0.9-6-1.9-8.9-3c-2.9-1.1-5.8-2.2-8.6-3.4l-8.5-3.6
			c-1.4-0.6-2.8-1.2-4.2-1.6c-1.3-0.5-2.8-0.6-4.3-0.7c-1.5-0.1-3,0.1-4.2,0.7c-0.3,0.1-0.6,0.3-0.8,0.5c-0.3,0.2-0.5,0.5-0.8,0.8
			c-0.5,0.6-1,1.1-1.5,1.7c-1.8,2.4-3.4,5.2-3.6,8.2c0,0.4,0,0.7,0,1.1c0.1,0.4,0.1,0.7,0.2,1.1c0.2,0.7,0.5,1.4,0.8,2.1
			c0.7,1.3,1.6,2.4,2.8,3.3c1.2,0.9,2.5,1.5,3.9,2.1l4.2,1.9l8.4,3.9l8.4,3.9l4.2,1.9c1.4,0.6,2.9,1.2,4.3,1.8
			c1.4,0.7,2.8,1.3,4.2,2c0.7,0.3,1.4,0.7,2,0.9c0.3,0.1,0.8,0.4,1.1,0.5c0.2,0.1,0.3,0.1,0.3,0.1c0.1,0,0,0-0.2,0
			c-0.2,0.1-0.3,0.2-0.2,0.2c0,0,0.1-0.1,0.1-0.2c0.2-0.3,0.3-0.7,0.4-0.9c0.1-0.2,0.1-0.4,0.2-0.8l0.1-0.6l0.1-0.4l0.1-0.3
			c0.5-1.7,1.2-3,1.9-4.5c0.7-1.4,1.5-2.8,2.3-4.1c0.4-0.7,0.9-1.3,1.3-2c0.4-0.6,0.8-1.3,1.1-2l1-2.1c0.2-0.3,0.4-0.7,0.8-1
			c0.2-0.1,0.5-0.5,0.7-0.8c0.4-0.6,0.8-1.3,0.9-2c0-0.2,0-0.3-0.1-0.4l-0.5-0.3L101.4,97.3z M101.5,97l1,0.6L103,98
			c0,0,0.1,0.1,0.2,0.1c0.1,0.1,0,0.1,0.1,0.2c0,0.1,0,0.2,0,0.3c-0.1,0.8-0.5,1.5-0.9,2.2c-0.2,0.3-0.4,0.7-0.8,1
			c-0.2,0.1-0.4,0.5-0.5,0.8c-0.3,0.7-0.6,1.4-0.8,2.2c-0.5,1.5-1.3,2.9-1.9,4.3c-0.6,1.4-1.2,2.8-1.7,4.3c-0.5,1.4-1,2.9-1.3,4.3
			l0,0.2l0,0.2l0,0.6c0,0.4,0,0.9-0.2,1.5c-0.2,0.5-0.3,0.9-0.5,1.2c-0.1,0.2-0.2,0.5-0.4,0.8c-0.2,0.3-0.6,0.7-1.1,0.9
			c-0.6,0.2-1.1,0.1-1.4,0c-0.3-0.1-0.6-0.2-0.8-0.3l-1-0.4c-0.8-0.3-1.5-0.6-2.2-1c-1.4-0.6-2.8-1.3-4.2-1.9
			c-2.8-1.2-5.8-2.4-8.5-3.8c-2.8-1.4-5.6-2.8-8.3-4.2c-2.8-1.4-5.5-2.9-8.2-4.3l-4.1-2.2c-1.4-0.7-2.8-1.6-4-2.7
			c-1.2-1.1-2.3-2.5-2.9-4c-0.3-0.8-0.6-1.5-0.7-2.3c-0.1-0.4-0.1-0.8-0.2-1.2c0-0.4,0-0.8,0-1.2c0.2-1.6,0.7-3.2,1.4-4.6
			c0.7-1.4,1.5-2.8,2.4-4.1c0.5-0.6,0.9-1.3,1.4-1.9c0.3-0.3,0.5-0.6,0.8-0.9c0.3-0.3,0.7-0.6,1.1-0.8c1.5-0.8,3.2-1.1,4.8-1.2
			c1.6-0.1,3.2-0.1,4.9,0.3c1.6,0.4,3.1,0.8,4.6,1.3c5.9,2.1,11.5,4.7,17,7.6c2.7,1.5,5.5,2.9,8.3,4c1.4,0.6,2.9,1.1,4.3,1.7
			C98.8,95.5,100.3,96.1,101.5,97z"/>
	</g>
	<g>
		<path class="st13" d="M85.2,29.4c-0.3,2.1-1.5,4-2.6,5.7c-0.6,0.9-1.2,1.7-1.6,2.6c-0.2,0.4-0.4,0.9-0.4,1.3c0,0.4-0.1,1,0,1.4
			c0,0,0,0,0,0c0,0-0.2-0.1-0.3-0.1c-0.1,0,0,0,0.1-0.1c0.1-0.1,0.3-0.3,0.5-0.5c0.3-0.4,0.6-0.8,0.9-1.2c0.6-0.8,1.1-1.7,1.6-2.6
			c1-1.8,1.9-3.7,3-5.5c-0.8,1.9-1.4,3.9-2.3,5.8c-0.4,1-0.9,1.9-1.5,2.8c-0.3,0.4-0.6,0.9-0.9,1.3c-0.2,0.2-0.3,0.4-0.6,0.7
			c-0.1,0.1-0.2,0.2-0.6,0.3c-0.2,0-0.5-0.1-0.6-0.3c-0.1-0.2-0.1-0.3-0.2-0.4c-0.1-0.7-0.1-1.1,0-1.7c0.1-0.6,0.3-1.1,0.6-1.6
			c0.5-1,1.2-1.8,1.8-2.6C83.2,33,84.5,31.4,85.2,29.4z"/>
	</g>
	<g>
		<path class="st13" d="M99.4,29.3c0.2,1.4-0.1,2.8-0.6,4.1c-0.4,1.3-1.1,2.6-1.7,3.8c-0.6,1.2-1.3,2.4-2,3.6
			c-0.3,0.6-0.6,1.2-0.9,1.8c-0.2,0.5-0.3,1.2-0.3,1.8c0,0.1,0,0.3,0.1,0.3c0,0,0-0.1-0.1-0.1c-0.1,0-0.1,0-0.1,0
			c0.1,0,0.4-0.3,0.6-0.5c0.4-0.5,0.8-1,1.1-1.6c0.6-1.2,1.1-2.5,1.6-3.7c1.1-2.5,2.4-5,4.1-7.1c-1.4,2.4-2.6,4.8-3.5,7.4
			c-0.5,1.3-0.9,2.6-1.5,3.9c-0.3,0.6-0.7,1.3-1.1,1.8c-0.3,0.3-0.4,0.6-0.9,0.8c-0.1,0.1-0.3,0.1-0.6,0.1c-0.3-0.1-0.4-0.3-0.5-0.4
			C93,44.8,93,44.6,93,44.4c0-0.8,0.1-1.5,0.4-2.2c0.3-0.7,0.6-1.3,1-1.9c0.7-1.2,1.5-2.3,2.2-3.5c0.7-1.2,1.3-2.4,1.9-3.6
			C99,32,99.4,30.7,99.4,29.3z"/>
	</g>
	<g>
		<path class="st13" d="M111.2,35.1c0.1,2.8-0.7,5.5-1.4,8.1c-0.4,1.3-0.8,2.6-1.5,3.9c-0.2,0.4-0.3,0.5-0.4,0.8
			c-0.1,0.3-0.1,0.6-0.2,0.9c0,0.3,0,0.6,0,0.9c0,0.3,0.1,0.6,0.2,0.7c0.1,0.1,0,0-0.1,0c0,0,0.1-0.1,0.2-0.1
			c0.2-0.2,0.4-0.4,0.5-0.7c0.3-0.6,0.7-1.2,1-1.8l1.8-3.7c0.6-1.2,1.2-2.5,1.9-3.7c0.7-1.2,1.3-2.4,2.3-3.4c-0.9,1.1-1.4,2.3-2,3.6
			l-1.6,3.8c-0.5,1.3-1,2.5-1.6,3.8c-0.3,0.6-0.6,1.2-1,1.9c-0.2,0.3-0.4,0.6-0.7,0.9c-0.2,0.1-0.3,0.3-0.7,0.4
			c-0.2,0-0.4,0-0.6-0.1c-0.2-0.1-0.3-0.2-0.4-0.3c-0.3-0.4-0.3-0.8-0.4-1.2c0-0.4,0-0.8,0-1.1c0-0.4,0.1-0.7,0.2-1.1
			c0.1-0.4,0.3-0.8,0.5-1c0.6-1.1,1.1-2.4,1.6-3.7c0.5-1.3,0.9-2.6,1.3-3.9C110.7,37.7,111.1,36.4,111.2,35.1z"/>
	</g>
	<g>
		<path class="st13" d="M123.2,43c-0.8,1.3-1.6,2.6-2.3,4c-0.7,1.4-1.4,2.7-2.1,4.2l-1.9,4.3c-0.7,1.4-1.4,2.8-2.1,4.2
			c-1.4,2.7-3.1,5.4-4,8.3c-0.2,0.7-0.3,1.5-0.2,2.2c0.1,0.7,0.6,1.4,1.1,1.8c1.1,1,2.8,1,4.3,0.7c-1.4,0.5-3.2,0.6-4.6-0.4
			c-0.7-0.5-1.2-1.2-1.4-2c-0.2-0.8-0.1-1.7,0-2.5c0.3-1.6,1-3,1.7-4.4c0.7-1.4,1.4-2.8,2.1-4.2c0.7-1.4,1.5-2.7,2.1-4.1
			c0.7-1.4,1.3-2.8,2.1-4.2C119.5,48.1,121.2,45.4,123.2,43z"/>
	</g>
	
		<linearGradient id="SVGID_9_" gradientUnits="userSpaceOnUse" x1="91.9393" y1="80.818" x2="116.3502" y2="80.818" gradientTransform="matrix(0.992 0.1265 -0.1265 0.992 10.1018 -10.4408)">
		<stop  offset="0" style="stop-color:#231F20"/>
		<stop  offset="0.1151" style="stop-color:#1E2230"/>
		<stop  offset="0.3374" style="stop-color:#16264A"/>
		<stop  offset="0.5382" style="stop-color:#11295A"/>
		<stop  offset="0.6973" style="stop-color:#0F2A5F"/>
		<stop  offset="0.7909" style="stop-color:#14274F"/>
		<stop  offset="0.9718" style="stop-color:#212027"/>
		<stop  offset="1" style="stop-color:#231F20"/>
	</linearGradient>
	<path class="st14" d="M115,76.7c-0.2,3.3,1.7,8.4-1.2,9.2c-2.8,0.7-7.4,2.5-8.9,4.5s-8.5,3.4-12.5-0.7c-4-4.1-0.6-12.5,5.2-14
		s11.6-0.3,14.6-1C115.2,73.8,115.1,75.8,115,76.7z"/>
	
		<linearGradient id="SVGID_10_" gradientUnits="userSpaceOnUse" x1="79.161" y1="85.909" x2="88.3755" y2="51.52" gradientTransform="matrix(0.992 0.1265 -0.1265 0.992 10.1018 -10.4408)">
		<stop  offset="0" style="stop-color:#231F20"/>
		<stop  offset="0.174" style="stop-color:#212025"/>
		<stop  offset="0.3873" style="stop-color:#1D2334"/>
		<stop  offset="0.6202" style="stop-color:#15274D"/>
		<stop  offset="0.7568" style="stop-color:#0F2A5F"/>
		<stop  offset="0.8811" style="stop-color:#192541"/>
		<stop  offset="1" style="stop-color:#231F20"/>
	</linearGradient>
	<path class="st15" d="M66.4,79.2c2.3,2.8,10.8,5.4,15,4.7c4.2-0.7,6.1-3.1,8.8-8.1c2.7-5,9.2-4.8,13.5-5c4.4-0.2,9.1-8.1,5.2-10.8
		c-3.9-2.7-12.6-6.1-20.8-9.1c-8.1-3-13.7-4.9-17.6-3.1c-4,1.8-5.8,9.7-6,15.8S63.1,75.1,66.4,79.2z"/>
</g>
<g id="Left">
	<path class="st2" d="M13.2,21c-2.5-0.9-6.4-0.7-8.8,1.9s-2,8.2-0.7,16.3s7.3,19.5,8.7,21s-0.5,1.6,1.9,5.7s2.7,3.5,2.9,6.3
		c0.1,2.7,2.1,7.3,3,8.6c1,1.3,0.5,1.1,0.1,3s-2.9,1.9-2.7,9.1c0.2,7.2,2.7,11.3,7.5,12.9s0.3,4.7,4.5,4.9c4.2,0.2,6.3-1.4,11.8-1.6
		c5.5-0.2,17.3-2.4,25.8-4.9s9-2.2,9.2-3.3c0.2-1.1-0.8-3.1,0.7-3.5c1.5-0.4,0.6-3.6-0.1-3.9c-0.6-0.3-2.2-5.9-2.9-10.8
		c-0.8-4.9-0.5-9.6-1.6-11.9c-1.1-2.3-1.4-0.2-1.9-1c-0.5-0.8-1.4-4.8-1-6.9s6.4-8.8,6.5-12.2c0.1-3.4-2.5-3.4-4.7-7.6
		s-2.9-7.7-4.6-7.3c-1.7,0.4-2.5,1-3.6-1.2c-1.2-2.2-3.5-13.8-5.2-18.9c-1.7-5.2-1.1-7.7-2.6-9.2S50.9,4,47.2,4.8s-4.7,2.5-4.9,5.4
		c-0.2,2.8-2.2-0.1-3.3-1.5c-1.1-1.4-3.7-2.2-6.9-1.1s-4.7,4.4-5,5.1s-1.2-2.3-6.1-1.4c-4.9,0.8-5.4,2.6-6.1,4.3S13.2,21,13.2,21z"
		/>
	
		<linearGradient id="SVGID_11_" gradientUnits="userSpaceOnUse" x1="18.3668" y1="106.9776" x2="59.8866" y2="83.0061" gradientTransform="matrix(0.9766 -0.215 0.215 0.9766 -11.9483 11.4379)">
		<stop  offset="0" style="stop-color:#0A4890"/>
		<stop  offset="0.1156" style="stop-color:#084183"/>
		<stop  offset="0.4983" style="stop-color:#042C5E"/>
		<stop  offset="0.8067" style="stop-color:#011F46"/>
		<stop  offset="1" style="stop-color:#001A3E"/>
	</linearGradient>
	<path class="st16" d="M19.4,92c2.8-1.3,1.9,6,5.5,8.2c4.2,2.5,39.8-5.6,45.8-7s10.1,2.5,5.8,3.5c-4.3,1.1-46.9,14.1-54.5,7.6
		c-4-3.4-3.6-8.6-3.5-9.8C18.6,93.3,19.4,92,19.4,92z"/>
	
		<linearGradient id="SVGID_12_" gradientUnits="userSpaceOnUse" x1="14.5176" y1="89.1102" x2="67.7329" y2="89.1102" gradientTransform="matrix(0.9766 -0.215 0.215 0.9766 -11.9483 11.4379)">
		<stop  offset="0" style="stop-color:#231F20"/>
		<stop  offset="5.087928e-02" style="stop-color:#1E2230"/>
		<stop  offset="0.1491" style="stop-color:#16264A"/>
		<stop  offset="0.2378" style="stop-color:#11295A"/>
		<stop  offset="0.3081" style="stop-color:#0F2A5F"/>
		<stop  offset="0.3479" style="stop-color:#122957"/>
		<stop  offset="0.4902" style="stop-color:#19243F"/>
		<stop  offset="0.6406" style="stop-color:#1F212E"/>
		<stop  offset="0.8033" style="stop-color:#222023"/>
		<stop  offset="1" style="stop-color:#231F20"/>
	</linearGradient>
	<path class="st17" d="M71.3,74.3c-3.4-1-10,2-20.9,4.8s-25.8,5.1-27.7,9c-1.9,4-1.9,10.4,1.6,12.9c3.5,2.5,9.6,3,18.2,0.3
		s22.7-5.1,26.9-6.4c7.1-2.2,5.8-1,4.1-5S71.3,74.3,71.3,74.3z"/>
	
		<linearGradient id="SVGID_13_" gradientUnits="userSpaceOnUse" x1="48.5074" y1="77.7093" x2="68.3091" y2="89.1418" gradientTransform="matrix(0.9766 -0.215 0.215 0.9766 -11.9483 11.4379)">
		<stop  offset="0" style="stop-color:#231F20;stop-opacity:0"/>
		<stop  offset="7.433750e-02" style="stop-color:#3B4148;stop-opacity:0.1495"/>
		<stop  offset="0.1761" style="stop-color:#586A79;stop-opacity:0.354"/>
		<stop  offset="0.2725" style="stop-color:#6E8AA0;stop-opacity:0.548"/>
		<stop  offset="0.361" style="stop-color:#7FA1BB;stop-opacity:0.7259"/>
		<stop  offset="0.4387" style="stop-color:#89AFCC;stop-opacity:0.8822"/>
		<stop  offset="0.4973" style="stop-color:#8CB4D2"/>
		<stop  offset="0.5555" style="stop-color:#85AAC6;stop-opacity:0.8842"/>
		<stop  offset="0.6599" style="stop-color:#7390A7;stop-opacity:0.6765"/>
		<stop  offset="0.7984" style="stop-color:#556675;stop-opacity:0.401"/>
		<stop  offset="0.9641" style="stop-color:#2C2C30;stop-opacity:7.146871e-02"/>
		<stop  offset="1" style="stop-color:#231F20;stop-opacity:0"/>
	</linearGradient>
	<path class="st18" d="M51,80.4c3-0.7,15.1-4.1,17.5-3.8c2.4,0.3,1.5,5.9,2.3,7.8c0.8,1.8,1.5,4.6,1.5,4.6s-2.8-6-3.9-8.2
		c-1.1-2.3-1.8-2.7-5.7-1.7C58.7,79.9,51,80.4,51,80.4z"/>
	<path class="st6" d="M12.3,20.8c0.3,4.3-0.8,10.6,0.6,12.6c1.4,1.8,3.3,2.6,3.3,0c0-2.4-2.1-15.5-2.1-15.5l-1,3.2L12.3,20.8z"/>
	<path class="st6" d="M24.8,12.3c2.4,4.7,1,14,2.4,15.9c1.4,1.8,5,1.2,5-1.5c0-2.4-3.7-12.5-3.4-15.6c0.1-1.3-1.9,2.5-1.9,2.5
		L24.8,12.3z"/>
	<path class="st6" d="M37.9,8.4c3.2,4.7,2.7,14.4,4.1,16.3c1.4,1.8,4.5,1.3,4.4-1.3c0-2.4-2.7-12.6-1.9-16c0.1-0.6-1.1-1.9-2,1
		c-0.4,1.3-0.8,2.9-0.8,2.9L37.9,8.4z"/>
	<path class="st13" d="M68.2,36.7c3.2,4.7,3.9,9.2,7.1,11c2,1.1-1.6-6-3.5-9c-1.6-2.4-2.6-3-3.6-3C66.8,35.9,68.2,36.7,68.2,36.7z"
		/>
	<path class="st6" d="M54.5,6.3c-0.9,5.6,1.2,28.6,6.3,34.9c2.9,3.6,8.9-5.7,6.4-4.9c-4.6,1.6-6-7.8-6.8-11.2
		C59.3,20.5,56.6,10,56.6,10L54.5,6.3z"/>
	
		<linearGradient id="SVGID_14_" gradientUnits="userSpaceOnUse" x1="58.0149" y1="59.2068" x2="68.5142" y2="69.706" gradientTransform="matrix(0.9766 -0.215 0.215 0.9766 -11.9483 11.4379)">
		<stop  offset="0" style="stop-color:#0A4890"/>
		<stop  offset="0.1156" style="stop-color:#084183"/>
		<stop  offset="0.4983" style="stop-color:#042C5E"/>
		<stop  offset="0.8067" style="stop-color:#011F46"/>
		<stop  offset="1" style="stop-color:#001A3E"/>
	</linearGradient>
	<path class="st19" d="M72.7,47.8c1.3,2.1,4.2,1.4-3.8,11.5c-2.8,3.5-0.4,9.3-1.7,9.6c-1.8,0.5-17.6,6.8-19.3,3
		c-0.7-1.7,15.3-6.1,13.3-15.9c-1.1-5.4,6.3-15.3,6.8-14C69,44.5,71.8,46.4,72.7,47.8z"/>
	
		<linearGradient id="SVGID_15_" gradientUnits="userSpaceOnUse" x1="21.4903" y1="32.8333" x2="7.5065" y2="40.9069" gradientTransform="matrix(0.9766 -0.215 0.215 0.9766 -11.9483 11.4379)">
		<stop  offset="0" style="stop-color:#0A4890"/>
		<stop  offset="0.6092" style="stop-color:#042D5F"/>
		<stop  offset="1" style="stop-color:#001A3E"/>
	</linearGradient>
	<path class="st20" d="M4.4,26.1c-0.7,4.6-1.2,14,3.1,22.9s4.1,10.2,5.9,9.9c1.7-0.2,6.6-2.7,9.7-3.4c3.1-0.7-0.4-1.7-6.5-3.3
		c-4.1-1.1-4.9-3.6-8.1-9.7C5.7,37.4,4.4,26.1,4.4,26.1z"/>
	
		<linearGradient id="SVGID_16_" gradientUnits="userSpaceOnUse" x1="40.0106" y1="50.8613" x2="16.8031" y2="64.2601" gradientTransform="matrix(0.9766 -0.215 0.215 0.9766 -11.9483 11.4379)">
		<stop  offset="0" style="stop-color:#0A4890"/>
		<stop  offset="0.6092" style="stop-color:#042D5F"/>
		<stop  offset="1" style="stop-color:#001A3E"/>
	</linearGradient>
	<path class="st21" d="M16.9,69.1c-2.3-2.6-4-6-2.9-7.3s4.7-3.7,8-4.8c3.6-1.2,16.7-4.9,15.7-3.5c-1.1,1.6-12.9,3.9-9.2,6.8
		c1.8,1.4,5,0.5,8.3-0.2s9.4-1.2,7-0.4c-2.5,0.8-8.8,4.1-13.9,5.4C24.7,66.4,16.9,69.1,16.9,69.1z"/>
	
		<linearGradient id="SVGID_17_" gradientUnits="userSpaceOnUse" x1="34.319" y1="65.1023" x2="16.5035" y2="75.3881" gradientTransform="matrix(0.9766 -0.215 0.215 0.9766 -11.9483 11.4379)">
		<stop  offset="0" style="stop-color:#0A4890"/>
		<stop  offset="0.3419" style="stop-color:#06366F"/>
		<stop  offset="0.7704" style="stop-color:#02224C"/>
		<stop  offset="1" style="stop-color:#001A3E"/>
	</linearGradient>
	<path class="st22" d="M35.8,68.1c-2.4-2.5-2.9-2.5-5.7-1.9c-2.8,0.6-10.2,3.5-11.3,4c-1.1,0.5-0.1,7.2,1.8,9.1
		c1.8,1.8,0.2,4.5,1.5,3.3c1.3-1.2,8-4.2,10.6-4.6c2.6-0.4,6.1,0.1,7.6-2.1S37.4,69.7,35.8,68.1z"/>
	
		<linearGradient id="SVGID_18_" gradientUnits="userSpaceOnUse" x1="29.0584" y1="18.6887" x2="25.0037" y2="18.6887" gradientTransform="matrix(0.9766 -0.215 0.215 0.9766 -11.9483 11.4379)">
		<stop  offset="0" style="stop-color:#0A4890"/>
		<stop  offset="0.3419" style="stop-color:#06366F"/>
		<stop  offset="0.7704" style="stop-color:#02224C"/>
		<stop  offset="1" style="stop-color:#001A3E"/>
	</linearGradient>
	<path class="st23" d="M16.6,14.8c-1.7,2.8-1.5,3.6-0.1,8.6c1.3,5,1.5,11.2,3.2,10.3c1.7-0.8,3.2-2.7,1.4-6.1
		c-1.8-3.4-2.9-7.1-2.6-9.9C18.7,15,18,12.5,16.6,14.8z"/>
	
		<linearGradient id="SVGID_19_" gradientUnits="userSpaceOnUse" x1="43.9937" y1="17.7237" x2="40.0567" y2="17.7237" gradientTransform="matrix(0.9766 -0.215 0.215 0.9766 -11.9483 11.4379)">
		<stop  offset="0" style="stop-color:#0A4890"/>
		<stop  offset="0.3419" style="stop-color:#06366F"/>
		<stop  offset="0.7704" style="stop-color:#02224C"/>
		<stop  offset="1" style="stop-color:#001A3E"/>
	</linearGradient>
	<path class="st24" d="M30,10.1c-1.7,2.8,0.1,3.5,1.4,8.5c1.3,5,2.8,8.2,2.6,11.1c-0.2,2.5,2.8-3,1.6-6.6c-1.3-3.9-2-5.6-2.7-8.3
		C32.3,12.1,31.4,7.7,30,10.1z"/>
	
		<linearGradient id="SVGID_20_" gradientUnits="userSpaceOnUse" x1="57.8959" y1="18.9209" x2="53.9589" y2="18.9209" gradientTransform="matrix(0.9971 -7.578742e-02 7.578742e-02 0.9971 -10.1202 1.8575)">
		<stop  offset="0" style="stop-color:#0A4890"/>
		<stop  offset="0.3419" style="stop-color:#06366F"/>
		<stop  offset="0.7704" style="stop-color:#02224C"/>
		<stop  offset="1" style="stop-color:#001A3E"/>
	</linearGradient>
	<path class="st25" d="M45.6,6.5c-2.1,2.5-0.4,3.4,0.2,8.6s1.7,8.5,1,11.3c-0.6,2.5,3.2-2.5,2.5-6.3c-0.7-4-1.2-5.9-1.5-8.6
		C47.5,8.9,47.3,4.4,45.6,6.5z"/>
	
		<linearGradient id="SVGID_21_" gradientUnits="userSpaceOnUse" x1="37.3835" y1="45.0241" x2="38.8915" y2="27.7875" gradientTransform="matrix(0.9766 -0.215 0.215 0.9766 -11.9483 11.4379)">
		<stop  offset="0" style="stop-color:#0A4890;stop-opacity:0"/>
		<stop  offset="0.1377" style="stop-color:#19569A;stop-opacity:0.1377"/>
		<stop  offset="0.4014" style="stop-color:#3F7BB5;stop-opacity:0.4014"/>
		<stop  offset="0.7606" style="stop-color:#7DB6E0;stop-opacity:0.7606"/>
		<stop  offset="1" style="stop-color:#AAE1FF"/>
	</linearGradient>
	<path class="st26" d="M10,39.9c1.4-2,4.2-2.5,7.3-2.4s2.8-1.9,7.7-3.2s9.6-1.2,12.4-2.7c2.8-1.5,11.2-3.8,13.4-3.7s3.3,1,4.4,6
		c1.1,5,1.7,7,1,8.1c-1.6,2.7-5.9,5.4-9.6,0.6c-3.7-4.9-8.3-2.1-14.9-0.7c-16.6,3.5-18.5,3.3-20.1,1.6C9.9,41.4,10,39.9,10,39.9z"/>
	
		<linearGradient id="SVGID_22_" gradientUnits="userSpaceOnUse" x1="16.1729" y1="22.501" x2="16.8957" y2="14.239" gradientTransform="matrix(0.9766 -0.215 0.215 0.9766 -11.9483 11.4379)">
		<stop  offset="0" style="stop-color:#0A4890;stop-opacity:0"/>
		<stop  offset="0.1377" style="stop-color:#19569A;stop-opacity:0.1377"/>
		<stop  offset="0.4014" style="stop-color:#3F7BB5;stop-opacity:0.4014"/>
		<stop  offset="0.7606" style="stop-color:#7DB6E0;stop-opacity:0.7606"/>
		<stop  offset="1" style="stop-color:#AAE1FF"/>
	</linearGradient>
	<path class="st27" d="M5,23.7c1.3-2.1,4-2.4,5.2-1.7c1.2,0.6,0.4,8.8-0.9,7.8s0.1-3.8-1.2-5.1C7.3,23.9,5,23.7,5,23.7z"/>
	
		<linearGradient id="SVGID_23_" gradientUnits="userSpaceOnUse" x1="30.9993" y1="21.5101" x2="32.1662" y2="8.1733" gradientTransform="matrix(0.9766 -0.215 0.215 0.9766 -11.9483 11.4379)">
		<stop  offset="0" style="stop-color:#0A4890;stop-opacity:0"/>
		<stop  offset="0.1377" style="stop-color:#19569A;stop-opacity:0.1377"/>
		<stop  offset="0.4014" style="stop-color:#3F7BB5;stop-opacity:0.4014"/>
		<stop  offset="0.7606" style="stop-color:#7DB6E0;stop-opacity:0.7606"/>
		<stop  offset="1" style="stop-color:#AAE1FF"/>
	</linearGradient>
	<path class="st28" d="M19.6,14.3c-1.8-1.8,2.3-2.2,3.5-1.5c1.2,0.6,1.7,13.9,0.4,12.8s-1.9-5.7-2.4-7.7
		C20.8,16.8,20.9,15.7,19.6,14.3z"/>
	
		<linearGradient id="SVGID_24_" gradientUnits="userSpaceOnUse" x1="45.9123" y1="20.7041" x2="47.0752" y2="7.4117" gradientTransform="matrix(0.9766 -0.215 0.215 0.9766 -11.9483 11.4379)">
		<stop  offset="0" style="stop-color:#0A4890;stop-opacity:0"/>
		<stop  offset="0.1377" style="stop-color:#19569A;stop-opacity:0.1377"/>
		<stop  offset="0.4014" style="stop-color:#3F7BB5;stop-opacity:0.4014"/>
		<stop  offset="0.7606" style="stop-color:#7DB6E0;stop-opacity:0.7606"/>
		<stop  offset="1" style="stop-color:#AAE1FF"/>
	</linearGradient>
	<path class="st29" d="M33.7,10.4c-1.8-1.8,2.3-2.2,3.5-1.5s3.2,13.6,1.9,12.6s-2.2-5.7-2.6-7.6C36.2,12.7,35.1,11.8,33.7,10.4z"/>
	
		<linearGradient id="SVGID_25_" gradientUnits="userSpaceOnUse" x1="60.2386" y1="22.8804" x2="61.4015" y2="9.588" gradientTransform="matrix(0.9992 -4.055006e-02 4.055006e-02 0.9992 -10.1112 -1.3625)">
		<stop  offset="0" style="stop-color:#0A4890;stop-opacity:0"/>
		<stop  offset="0.1377" style="stop-color:#19569A;stop-opacity:0.1377"/>
		<stop  offset="0.4014" style="stop-color:#3F7BB5;stop-opacity:0.4014"/>
		<stop  offset="0.7606" style="stop-color:#7DB6E0;stop-opacity:0.7606"/>
		<stop  offset="1" style="stop-color:#AAE1FF"/>
	</linearGradient>
	<path class="st30" d="M49.4,7.2c-1.4-2,2.6-1.7,3.7-0.9c1.1,0.9,0.8,14-0.3,12.7s-1.2-6-1.3-8C51.5,9.9,50.5,8.8,49.4,7.2z"/>
	
		<linearGradient id="SVGID_26_" gradientUnits="userSpaceOnUse" x1="47.9517" y1="60.827" x2="49.0978" y2="47.7273" gradientTransform="matrix(0.9766 -0.215 0.215 0.9766 -11.9483 11.4379)">
		<stop  offset="0" style="stop-color:#0A4890;stop-opacity:0"/>
		<stop  offset="0.1377" style="stop-color:#19569A;stop-opacity:0.1377"/>
		<stop  offset="0.4014" style="stop-color:#3F7BB5;stop-opacity:0.4014"/>
		<stop  offset="0.7606" style="stop-color:#7DB6E0;stop-opacity:0.7606"/>
		<stop  offset="1" style="stop-color:#AAE1FF"/>
	</linearGradient>
	<path class="st31" d="M33.4,58.8c-2-1.1,1.3-3.2,8.5-4.6c10.4-2.1,14.5-6.6,17.3-8c4.6-2.2-2.7,3.2-1,8c0.9,2.6-1.4,7-2.6,4.4
		c-1.3-2.6-2.3-4.5-5.3-3.4c-3,1.1-9.6,1.7-11.9,3.4C36.2,60.2,33.4,58.8,33.4,58.8z"/>
	
		<linearGradient id="SVGID_27_" gradientUnits="userSpaceOnUse" x1="38.5991" y1="66.1358" x2="39.2448" y2="58.7556" gradientTransform="matrix(0.9766 -0.215 0.215 0.9766 -11.9483 11.4379)">
		<stop  offset="0" style="stop-color:#0A4890;stop-opacity:0"/>
		<stop  offset="0.1377" style="stop-color:#19569A;stop-opacity:0.1377"/>
		<stop  offset="0.4014" style="stop-color:#3F7BB5;stop-opacity:0.4014"/>
		<stop  offset="0.7606" style="stop-color:#7DB6E0;stop-opacity:0.7606"/>
		<stop  offset="1" style="stop-color:#AAE1FF"/>
	</linearGradient>
	<path class="st32" d="M26.7,66c3-1.4,21.2-7.3,23.8-7c2.6,0.3,1.4,3,1.8,6.5c0.2,1.6-3.2,0.2-6.1,0.2c-2.9,0-5.7,1.1-8.1,0.2
		C35.7,64.9,26.7,66,26.7,66z"/>
	<g>
		<path class="st2" d="M13.2,21.1c-1.6-0.5-3.3-0.6-4.9-0.2c-1.6,0.4-3.1,1.3-4.1,2.6c-1,1.3-1.2,3-1.3,4.7c-0.1,1.6,0,3.3,0.2,5
			c0.2,1.7,0.4,3.3,0.7,4.9c0.2,1.7,0.6,3.3,1.1,4.9c0.9,3.2,2.2,6.3,3.5,9.3c0.7,1.5,1.4,3,2.2,4.5c0.4,0.7,0.8,1.5,1.2,2.2
			c0.2,0.4,0.4,0.7,0.7,1c0.2,0.3,0.6,0.7,0.8,1.2c0.2,0.5,0.1,1,0.1,1.4c0,0.4,0.1,0.8,0.2,1.1c0.2,0.7,0.6,1.5,1,2.2
			c0.4,0.7,0.9,1.4,1.3,2.1c0.4,0.7,1,1.3,1.3,2.2c0.4,0.9,0.4,1.8,0.4,2.6c0.1,0.8,0.3,1.6,0.5,2.4c0.4,1.6,1,3.1,1.8,4.6
			c0.2,0.4,0.4,0.7,0.6,1c0.2,0.3,0.6,0.6,0.7,1.3c0,0.7-0.2,1-0.3,1.4c-0.1,0.4-0.2,0.7-0.4,1.2c-0.4,0.9-1.1,1.4-1.4,2.1
			c-0.4,0.7-0.7,1.4-0.8,2.2c-0.3,1.6-0.4,3.2-0.3,4.9c0.1,1.6,0.3,3.3,0.7,4.9c0.4,1.6,1.2,3.1,2.2,4.3c1.1,1.2,2.5,2.1,4,2.7
			c0.8,0.3,1.6,0.6,2.3,1.3c0.3,0.3,0.5,0.8,0.6,1.2c0.1,0.4,0,0.9,0,1.3c0,0.4,0.1,0.7,0.4,0.9c0.3,0.2,0.7,0.3,1.1,0.3
			c0.8,0.1,1.6,0.1,2.5,0c1.6-0.1,3.3-0.6,4.9-0.9c1.6-0.3,3.3-0.5,5-0.6c3.3-0.2,6.6-0.7,9.9-1.3c3.3-0.6,6.5-1.3,9.8-2.1
			c3.2-0.8,6.4-1.7,9.7-2.6l2.4-0.7c0.8-0.2,1.6-0.4,2.3-0.8c0.2-0.1,0.3-0.2,0.3-0.3c0.1-0.1,0.1-0.3,0.1-0.5
			c0-0.4-0.1-0.8-0.1-1.2c0-0.4-0.1-0.9,0-1.4c0.1-0.2,0.2-0.5,0.4-0.7c0.2-0.2,0.5-0.3,0.6-0.3c0.6-0.2,0.6-1.2,0.5-1.9
			c-0.1-0.4-0.2-0.8-0.4-1.1c-0.1-0.2-0.2-0.3-0.3-0.4c-0.3-0.3-0.3-0.4-0.5-0.6c-0.7-1.6-1.1-3.2-1.5-4.8c-0.8-3.3-1.4-6.6-1.7-9.9
			c-0.2-1.7-0.2-3.3-0.5-5c-0.1-0.8-0.3-1.6-0.6-2.3c-0.2-0.3-0.4-0.7-0.5-0.9c-0.1,0,0.1,0-0.1,0c-0.1,0-0.1,0.1-0.3,0.2
			c-0.1,0-0.2,0.1-0.3,0.1c-0.2,0-0.3,0-0.4-0.1c-0.2-0.2-0.3-0.3-0.3-0.4C70,70,70,69.9,69.9,69.8c-0.1-0.2-0.2-0.4-0.2-0.6
			c-0.1-0.4-0.2-0.8-0.3-1.3c-0.2-0.8-0.3-1.7-0.4-2.5c0-0.9-0.1-1.7,0.2-2.7c0.3-0.9,0.8-1.6,1.2-2.3l2.7-4.3
			c0.9-1.4,1.7-2.9,2.3-4.4c0.6-1.5,0.5-3.1-0.7-4.1c-0.6-0.5-1.3-1.1-1.9-1.7c-0.6-0.6-1.1-1.3-1.6-2.1c-0.9-1.5-1.5-3-2.2-4.6
			c-0.3-0.8-0.7-1.5-1.1-2.2c-0.2-0.3-0.4-0.6-0.7-0.7c-0.1,0-0.2,0-0.3,0l-0.6,0.1c-0.4,0.1-0.8,0.2-1.4,0.2
			c-0.6,0-1.2-0.3-1.5-0.7c-0.3-0.4-0.6-0.8-0.8-1.1c-0.2-0.4-0.4-0.8-0.5-1.2c-0.5-1.6-0.9-3.2-1.4-4.9c-0.8-3.2-1.6-6.5-2.4-9.7
			c-0.4-1.6-0.9-3.2-1.4-4.8c-0.5-1.6-0.7-3.3-1-5c-0.2-0.8-0.3-1.6-0.7-2.2c-0.4-0.6-1.1-1.1-1.8-1.4c-1.4-0.8-3-1-4.6-0.9
			c-1.6,0.1-3.3,0.5-4.5,1.4c-0.6,0.4-1.1,1.1-1.4,1.8c-0.3,0.7-0.4,1.5-0.4,2.4c0,0.2-0.1,0.5-0.2,0.7c-0.1,0.1-0.2,0.3-0.4,0.4
			c-0.2,0.1-0.4,0.1-0.5,0.1c-0.6-0.2-0.9-0.5-1.2-0.8c-0.6-0.6-1.1-1.3-1.6-2c-1-1.2-2.7-1.6-4.3-1.5C32.8,7.5,31.1,8,29.9,9
			c-0.6,0.5-1.2,1.1-1.6,1.8c-0.2,0.3-0.4,0.7-0.6,1c-0.1,0.2-0.2,0.4-0.3,0.5l-0.1,0.3c0,0,0,0.1-0.1,0.2c0,0.1-0.3,0.2-0.4,0.1
			c-2.6-2.6-6.3-1.8-9.3-0.6c-0.7,0.4-1.4,0.9-1.8,1.6c-0.4,0.7-0.7,1.5-1,2.3C14.2,17.9,13.7,19.4,13.2,21.1z M13.1,21
			c0.4-1.5,0.9-3.2,1.4-4.8c0.3-0.8,0.5-1.6,1-2.3c0.4-0.7,1.1-1.3,1.9-1.7c0.8-0.4,1.6-0.7,2.4-0.9c0.8-0.2,1.6-0.4,2.5-0.4
			c0.9,0,1.7,0,2.6,0.3c0.4,0.1,0.8,0.4,1.2,0.6c0.2,0.1,0.4,0.3,0.5,0.4c0.1,0.1,0.4,0.3,0.4,0.3c0,0-0.1,0-0.1,0c0,0,0,0,0-0.1
			l0.1-0.3c0.1-0.2,0.2-0.4,0.3-0.6c0.2-0.4,0.4-0.7,0.7-1.1c0.5-0.7,1-1.4,1.7-1.9c1.3-1.2,3.1-1.7,4.8-1.8C36,6.7,37.9,7,39.2,8.5
			c0.5,0.7,1,1.3,1.6,1.9c0.3,0.3,0.6,0.6,0.8,0.6c0.1,0,0,0,0.1-0.1c0.1-0.1,0.1-0.3,0.1-0.5c0.1-0.8,0.1-1.7,0.4-2.5
			c0.3-0.8,0.9-1.6,1.6-2.2c0.7-0.5,1.6-0.9,2.4-1.1c0.8-0.2,1.7-0.4,2.5-0.5c1.7-0.1,3.5,0.2,5.1,1C54.7,5.5,55.4,6,56,6.8
			c0.6,0.8,0.7,1.7,0.9,2.5c0.3,1.7,0.6,3.3,1,4.9c0.5,1.6,1,3.2,1.4,4.8c0.9,3.2,1.6,6.5,2.5,9.7c0.4,1.6,0.8,3.2,1.3,4.8
			c0.1,0.4,0.3,0.8,0.4,1.1c0.2,0.3,0.4,0.7,0.6,0.9c0.2,0.2,0.4,0.4,0.7,0.4c0.3,0,0.7-0.1,1.1-0.2l0.6-0.2c0.3-0.1,0.6,0,0.9,0.1
			c0.6,0.3,0.9,0.7,1.1,1c0.5,0.8,0.8,1.5,1.2,2.3c0.7,1.5,1.3,3.1,2.1,4.5c0.4,0.7,0.9,1.3,1.4,1.9c0.5,0.6,1.2,1.1,1.8,1.7
			c0.3,0.3,0.6,0.7,0.9,1.1c0.2,0.4,0.4,0.9,0.4,1.4c0.1,0.5,0.1,0.9,0,1.4c-0.1,0.5-0.2,0.9-0.4,1.3c-1.3,3.2-3.3,5.9-5,8.8
			c-0.4,0.7-0.9,1.4-1.1,2.1c-0.2,0.7-0.2,1.5-0.1,2.3c0.1,0.8,0.2,1.6,0.3,2.4c0.1,0.4,0.2,0.8,0.3,1.2c0.1,0.2,0.1,0.4,0.2,0.6
			c0.1,0.2,0.2,0.4,0.2,0.3c0,0-0.1,0-0.1,0c-0.1,0-0.1,0,0,0l0.2-0.2c0.1-0.1,0.3-0.2,0.5-0.2c0.2,0,0.4,0.1,0.6,0.2
			c0.5,0.4,0.6,0.8,0.8,1.2c0.4,0.8,0.5,1.7,0.6,2.5c0.2,1.7,0.3,3.4,0.4,5c0.2,3.3,0.8,6.6,1.5,9.8c0.4,1.6,0.8,3.3,1.4,4.7
			c0.1,0.2,0.2,0.4,0.2,0.4c0.3,0.2,0.4,0.4,0.5,0.6c0.2,0.4,0.3,0.8,0.4,1.3c0.1,0.4,0.1,0.9,0,1.3c-0.1,0.4-0.3,1-0.8,1.2
			c-0.4,0.1-0.6,0.3-0.7,0.6c-0.1,0.3-0.1,0.7,0,1.1c0,0.4,0.1,0.8,0.1,1.3c0,0.2,0,0.5-0.1,0.7c-0.1,0.3-0.3,0.4-0.5,0.6
			c-0.8,0.4-1.6,0.6-2.4,0.8l-2.4,0.7c-3.2,0.9-6.4,1.8-9.7,2.6c-3.3,0.8-6.5,1.4-9.8,2c-3.3,0.6-6.6,1.1-10,1.3
			c-1.7,0.1-3.3,0.2-4.9,0.6c-1.6,0.3-3.2,0.8-4.9,1c-0.8,0.1-1.7,0.1-2.5,0c-0.4,0-0.9-0.1-1.3-0.4c-0.4-0.3-0.6-0.8-0.6-1.3
			c0-0.9,0-1.7-0.5-2.2c-0.5-0.6-1.3-0.8-2.1-1.1c-0.8-0.3-1.6-0.7-2.3-1.1c-0.7-0.5-1.4-1-2-1.7c-1.1-1.3-1.9-2.9-2.4-4.5
			c-0.5-1.6-0.7-3.3-0.8-5c-0.1-1.7-0.1-3.4,0.2-5.1c0.2-0.8,0.5-1.7,0.9-2.5c0.4-0.8,1.1-1.4,1.4-2c0.1-0.3,0.2-0.8,0.3-1.2
			c0.1-0.4,0.3-0.9,0.3-1c0-0.2-0.3-0.6-0.5-0.9c-0.3-0.4-0.5-0.7-0.7-1.1c-0.8-1.5-1.4-3.1-1.9-4.7c-0.2-0.8-0.4-1.7-0.5-2.5
			c-0.1-0.9-0.1-1.7-0.4-2.3c-0.3-0.7-0.8-1.4-1.3-2.1c-0.5-0.7-0.9-1.4-1.3-2.2c-0.4-0.7-0.8-1.5-1.1-2.4c-0.1-0.4-0.2-0.9-0.2-1.3
			c0-0.5,0-0.9-0.1-1.1c-0.1-0.3-0.3-0.5-0.6-0.9c-0.3-0.4-0.5-0.7-0.7-1.1c-0.4-0.7-0.8-1.5-1.2-2.2c-0.8-1.5-1.5-3-2.2-4.5
			c-1.4-3.1-2.6-6.2-3.5-9.4c-0.4-1.6-0.8-3.3-1-4.9c-0.2-1.7-0.5-3.3-0.6-5c-0.2-1.7-0.3-3.4-0.1-5c0.1-1.7,0.4-3.4,1.5-4.8
			C6.1,20.5,10.1,19.8,13.1,21z"/>
	</g>
	<g>
		<path class="st12" d="M69.9,70.3c-1.7,0-3.3,0.4-4.9,1l-4.7,1.7c-1.6,0.6-3.2,1.1-4.8,1.6c-1.6,0.5-3.3,0.9-4.9,1.4
			c-6.5,1.8-13,3.3-19.5,4.8c-1.6,0.4-3.2,0.8-4.7,1.3c-1.5,0.5-2.9,1.3-4.2,2.2c-1.3,0.9-2.5,2-3.3,3.3c-0.2,0.3-0.3,0.7-0.4,1
			c-0.1,0.4-0.1,0.8-0.2,1.2c-0.1,0.8-0.1,1.6-0.2,2.5c0,1.6,0.1,3.3,0.4,4.9c0.3,1.6,0.8,3.2,1.7,4.5c0.2,0.3,0.5,0.6,0.7,0.9
			c0.3,0.3,0.5,0.5,0.9,0.8c0.6,0.5,1.3,0.9,2,1.3c1.4,0.7,3,1.1,4.5,1.1c1.6,0,3.2-0.3,4.8-0.7c1.6-0.4,3.3-0.7,4.9-1l9.9-2
			c3.3-0.6,6.6-1.3,9.8-2l4.9-1c1.6-0.4,3.3-0.8,4.9-1.1c1.7-0.3,3.3-0.7,5-1c0.8-0.2,1.7-0.3,2.4-0.5c0.4-0.1,0.9-0.2,1.3-0.3
			c0.2,0,0.3-0.1,0.4-0.1c0.1,0,0,0-0.1,0.1c-0.1,0.2-0.1,0.3-0.1,0.2c0-0.1,0-0.1,0-0.3c-0.1-0.4-0.1-0.8-0.2-1.1
			c0-0.2-0.2-0.5-0.4-0.8l-0.3-0.6l-0.2-0.4L75.2,93c-0.6-1.8-0.9-3.4-1.2-5.1c-0.3-1.7-0.5-3.4-0.6-5.1c-0.1-0.9-0.1-1.7-0.1-2.5
			c-0.1-0.8-0.2-1.6-0.3-2.5l-0.4-2.5c0-0.4-0.2-0.9,0.1-1.4c0.1-0.3,0.1-0.7,0.1-1.1c0-0.8-0.2-1.7-0.5-2.4
			c-0.1-0.2-0.2-0.3-0.3-0.3l-0.6,0L69.9,70.3z M69.9,70l1.3-0.1l0.6,0c0,0,0.1,0,0.2,0c0.1,0,0.1,0.1,0.2,0.1
			c0.1,0.1,0.2,0.2,0.2,0.3c0.4,0.8,0.5,1.7,0.6,2.5c0,0.4,0.1,0.8-0.1,1.4c-0.1,0.3,0,0.7,0.1,1.1c0.2,0.8,0.4,1.6,0.6,2.4
			c0.5,1.6,0.7,3.4,1,5c0.3,1.6,0.7,3.2,1.2,4.8c0.5,1.6,1,3.2,1.6,4.5l0.1,0.2l0.1,0.1l0.4,0.5c0.2,0.3,0.6,0.8,0.8,1.4
			c0.2,0.6,0.3,1,0.4,1.4c0,0.2,0.1,0.6,0.1,0.9c0,0.4-0.1,0.9-0.4,1.4c-0.3,0.5-0.8,0.7-1.1,0.9c-0.3,0.1-0.6,0.2-0.8,0.3l-1.2,0.3
			c-0.9,0.2-1.7,0.4-2.5,0.6c-1.6,0.3-3.3,0.7-4.9,1.1c-3.2,0.7-6.6,1.6-9.9,2.1c-3.3,0.6-6.6,1.1-9.9,1.7c-3.3,0.6-6.6,1-10,1.5
			c-1.7,0.2-3.3,0.5-5,0.7c-1.7,0.2-3.4,0.4-5.2,0.3c-1.8-0.1-3.5-0.7-5.1-1.6c-0.8-0.4-1.5-1-2.1-1.5c-0.3-0.3-0.6-0.6-1-0.9
			c-0.3-0.3-0.5-0.7-0.8-1.1c-0.9-1.5-1.4-3.2-1.7-4.9c-0.3-1.7-0.5-3.4-0.5-5.1c0-0.9,0-1.7,0-2.6c0-0.4,0.1-0.9,0.1-1.3
			c0.1-0.5,0.2-0.9,0.4-1.4c0.8-1.7,2-3,3.4-4.1c1.3-1.1,2.8-2.1,4.5-2.8c1.6-0.7,3.2-1.3,4.8-1.8c6.5-2,13.1-3.3,19.7-4.3
			c3.3-0.5,6.6-1,9.8-1.9c1.6-0.4,3.2-0.9,4.8-1.4C66.5,70.4,68.2,69.9,69.9,70z"/>
	</g>
	<g>
		<path class="st13" d="M12.2,21.5c0.5,1.2,0.4,2.6,0.5,3.9c0,1.3,0,2.6,0,3.8c0,1.2,0.1,2.5,0.7,3.2c0.3,0.4,0.7,0.9,1.1,1.2
			c0.2,0.2,0.4,0.3,0.6,0.4c0.2,0.1,0.3,0.1,0.3,0.1c-0.1,0-0.1,0.1,0,0c0.1-0.1,0.1-0.4,0.1-0.6c0-0.5,0-1.2-0.1-1.8
			c-0.1-1.3-0.2-2.5-0.3-3.8c-0.2-2.5-0.4-5.1-0.9-7.6c0.6,1.2,1,2.4,1.3,3.7c0.4,1.2,0.7,2.5,0.9,3.8c0.2,1.3,0.5,2.5,0.7,3.8
			c0.1,0.7,0.2,1.3,0.2,2c0,0.4,0,0.8-0.2,1.3c-0.1,0.2-0.2,0.5-0.4,0.7c-0.2,0.2-0.5,0.4-0.9,0.5c-0.7,0.2-1.2,0-1.6-0.2
			c-0.4-0.2-0.7-0.4-1-0.6c-0.6-0.5-1.1-1-1.5-1.6c-0.1-0.1-0.2-0.3-0.3-0.5c-0.1-0.2-0.2-0.4-0.2-0.6c-0.1-0.4-0.2-0.8-0.2-1.1
			c-0.1-0.7-0.1-1.4,0-2.1c0.1-1.3,0.3-2.6,0.6-3.9l0.4-1.9C12.1,22.8,12.3,22.2,12.2,21.5z"/>
	</g>
	<g>
		<path class="st13" d="M24.6,12.3c0.6,0.6,0.9,1.4,1.1,2.1c0.2,0.8,0.4,1.5,0.6,2.3c0.3,1.6,0.5,3.1,0.6,4.7
			c0.2,1.5,0.3,3.1,0.6,4.5c0.2,0.7,0.3,1.1,0.7,1.5c0.4,0.4,1,0.6,1.6,0.7c0.6,0.1,1.1,0,1.3-0.3c0.2-0.2,0.3-0.7,0.2-1.5
			c-0.2-1.5-0.5-3-0.8-4.5c-0.3-1.5-0.7-3-1-4.6c-0.3-1.5-0.6-3.1-0.6-4.7c0.4,1.5,1,3,1.5,4.4c0.5,1.5,1.1,2.9,1.5,4.4
			c0.5,1.5,0.9,3,1.2,4.6c0,0.4,0.1,0.8,0.1,1.4c0,0.5-0.2,1.1-0.6,1.6c-0.4,0.5-1,0.8-1.5,0.9c-0.5,0.1-1.1,0.1-1.5,0.1
			c-1-0.2-1.9-0.6-2.6-1.3c-0.4-0.3-0.7-0.8-0.9-1.3c-0.2-0.5-0.3-0.9-0.4-1.3c-0.2-1.7-0.3-3.2-0.3-4.8c0-1.6,0-3.1,0-4.7
			c0-0.8-0.1-1.5-0.1-2.3C25.1,13.8,25,13,24.6,12.3z"/>
	</g>
	<g>
		<path class="st13" d="M38.5,9.8c0.6,0.6,0.9,1.3,1.2,2c0.3,0.7,0.6,1.5,0.8,2.2c0.4,1.5,0.8,3,1.1,4.6c0.3,1.5,0.5,3.1,0.7,4.6
			c0,0.3,0.4,0.7,0.9,1.1c0.5,0.3,1.2,0.6,1.7,0.6c0.3,0,0.4,0,0.5-0.1c0,0,0.1-0.1,0.1-0.3c0-0.2,0-0.6,0-1c0-0.4-0.1-0.7-0.1-1.1
			l-0.6-4.6c-0.2-1.5-0.3-3.1-0.4-4.6c-0.1-1.5-0.2-3.1,0.2-4.7c0,1.5,0.4,3,0.7,4.6l1,4.5c0.3,1.5,0.7,3,0.9,4.6
			c0.1,0.4,0.1,0.8,0.2,1.2c0,0.4,0.1,0.8,0.1,1.3c0,0.5-0.3,1.2-0.9,1.7c-0.6,0.4-1.2,0.5-1.7,0.5c-1-0.1-1.9-0.4-2.6-0.9
			c-0.4-0.3-0.7-0.6-1.1-1c-0.2-0.2-0.3-0.4-0.4-0.7c-0.1-0.1-0.1-0.3-0.2-0.4c0-0.2-0.1-0.4-0.1-0.4L40,18.8
			c-0.1-1.5-0.3-3-0.5-4.6c-0.1-0.8-0.2-1.5-0.4-2.3C39.1,11.2,38.9,10.5,38.5,9.8z"/>
	</g>
	<g>
		<path class="st13" d="M54.1,9c0.4,3.4,1.1,6.6,1.8,9.9c0.4,1.6,0.8,3.2,1.2,4.9c0.3,1.7,0.6,3.3,0.9,5l0.7,5
			c0.3,1.6,0.5,3.3,1,4.7c0.3,0.7,0.6,1.4,1.1,1.9c0.5,0.5,1.2,0.8,1.9,0.9c1.5,0.2,3.1-0.8,4.2-1.9c-0.4,0.7-1,1.4-1.7,1.9
			c-0.7,0.5-1.6,0.9-2.5,0.9c-1,0-1.9-0.3-2.7-0.9c-0.8-0.6-1.3-1.4-1.7-2.3c-0.8-1.6-1.2-3.3-1.5-5c-0.4-1.7-0.6-3.3-0.8-5
			c-0.4-3.4-1.1-6.5-1.6-9.9C53.9,15.8,53.7,12.4,54.1,9z"/>
	</g>
</g>
</svg>
