<svg xmlns="http://www.w3.org/2000/svg" xmlns:xlink="http://www.w3.org/1999/xlink" viewBox="0 0 359.14 331.16"><defs><style>.cls-1,.cls-4{fill:none;}.cls-2{isolation:isolate;}.cls-3,.cls-6{fill:#fff;}.cls-4{stroke:#343378;stroke-miterlimit:10;stroke-width:3px;}.cls-5{opacity:0.52;fill:url(#radial-gradient);}.cls-5,.cls-8{mix-blend-mode:darken;}.cls-6{fill-rule:evenodd;opacity:0.27;}.cls-7{clip-path:url(#clip-path);}.cls-8{fill:#2e3192;}</style><radialGradient id="radial-gradient" cx="897.07" cy="223.2" r="185.74" gradientTransform="matrix(0.87, -0.71, 0.4, 0.53, -464.38, 930.62)" gradientUnits="userSpaceOnUse"><stop offset="0.79" stop-color="#fff"/><stop offset="1"/></radialGradient><clipPath id="clip-path" transform="translate(-227.14 -249.37)"><path class="cls-1" d="M566.95,284c41.39,54.43,2.64,157.28-86.55,229.73s-195,87-236.43,32.61S241.34,389,330.53,316.57,525.57,229.53,566.95,284Z"/></clipPath></defs><title>rugby</title><g class="cls-2"><g id="Layer_1" data-name="Layer 1"><path class="cls-3" d="M568.19,283.78c41.39,54.44,2.64,157.28-86.54,229.73s-195,87-236.43,32.61-2.63-157.28,86.56-229.73S526.81,229.35,568.19,283.78Z" transform="translate(-227.14 -249.37)"/><path class="cls-4" d="M568.19,283.78c41.39,54.44,2.64,157.28-86.54,229.73s-195,87-236.43,32.61-2.63-157.28,86.56-229.73S526.81,229.35,568.19,283.78Z" transform="translate(-227.14 -249.37)"/><path class="cls-5" d="M567.14,284.36c41.39,54.43,2.64,157.28-86.55,229.73s-195,87-236.43,32.61S241.54,389.42,330.73,317,525.76,229.94,567.14,284.36Z" transform="translate(-227.14 -249.37)"/><path class="cls-6" d="M332.76,325.8c57.34-46.57,117.81-66.52,134.62-44.42s-16.25,78.11-73.58,124.69S276,472.58,259.2,450.47,275.43,372.36,332.76,325.8Z" transform="translate(-227.14 -249.37)"/><g class="cls-7"><path class="cls-1" d="M566.95,284c41.39,54.43,2.64,157.28-86.55,229.73s-195,87-236.43,32.61S241.34,389,330.53,316.57,525.57,229.53,566.95,284Z" transform="translate(-227.14 -249.37)"/><path class="cls-8" d="M539.61,261.61s-33.89-20.22-94.67-4.68c0,0-43.44,3.08-114.94,73.47,0,0-40.63,44.23-71.45,100.2,0,0-18.47,37.59-21.88,63.24,0,0-1.52,25.34-8,14.47,0,0,9.32,72.42,93.2,70.9,0,0-9.75-6.76,5.86-9.46,0,0,107.16-33.34,190.66-122.05,0,0,67.93-70.09,65.57-107.2C583.92,340.5,589.1,282.74,539.61,261.61ZM515.76,422.19c-78.62,100-215.85,107.63-215.85,107.63-29.55.87-28.52-30.31-28.52-30.31-3.07-91.69,66.46-165.19,66.46-165.19,65.89-66.41,114.53-71.37,114.53-71.37,36.18-9.16,75,.28,75,.28C609.85,302.36,515.76,422.19,515.76,422.19Z" transform="translate(-227.14 -249.37)"/></g></g></g></svg>