<svg xmlns="http://www.w3.org/2000/svg" xmlns:xlink="http://www.w3.org/1999/xlink" viewBox="0 0 161.25 112.77"><defs><style>.cls-1{isolation:isolate;}.cls-2{opacity:0.4;}.cls-10,.cls-11,.cls-12,.cls-13,.cls-14,.cls-15,.cls-16,.cls-17,.cls-19,.cls-20,.cls-21,.cls-22,.cls-24,.cls-25,.cls-26,.cls-27,.cls-28,.cls-29,.cls-3,.cls-30,.cls-31,.cls-32,.cls-34,.cls-35,.cls-36,.cls-37,.cls-39,.cls-4,.cls-40,.cls-41,.cls-42,.cls-43,.cls-44,.cls-45,.cls-46,.cls-47,.cls-49,.cls-5,.cls-50,.cls-51,.cls-52,.cls-54,.cls-55,.cls-56,.cls-57,.cls-59,.cls-6,.cls-60,.cls-61,.cls-62,.cls-64,.cls-65,.cls-66,.cls-67,.cls-69,.cls-7,.cls-70,.cls-71,.cls-72,.cls-74,.cls-75,.cls-76,.cls-77,.cls-8,.cls-9{mix-blend-mode:screen;}.cls-3{fill:url(#radial-gradient);}.cls-4{fill:url(#linear-gradient);}.cls-5{fill:url(#linear-gradient-2);}.cls-6{fill:url(#linear-gradient-3);}.cls-7{fill:url(#linear-gradient-4);}.cls-8{fill:url(#radial-gradient-2);}.cls-9{fill:url(#linear-gradient-5);}.cls-10{fill:url(#linear-gradient-6);}.cls-11{fill:url(#linear-gradient-7);}.cls-12{fill:url(#linear-gradient-8);}.cls-13{fill:url(#radial-gradient-3);}.cls-14{fill:url(#linear-gradient-9);}.cls-15{fill:url(#linear-gradient-10);}.cls-16{fill:url(#linear-gradient-11);}.cls-17{fill:url(#linear-gradient-12);}.cls-18{fill:url(#radial-gradient-4);}.cls-19{fill:url(#linear-gradient-13);}.cls-20{fill:url(#linear-gradient-14);}.cls-21{fill:url(#linear-gradient-15);}.cls-22{fill:url(#linear-gradient-16);}.cls-23{fill:url(#radial-gradient-5);}.cls-24{fill:url(#linear-gradient-17);}.cls-25{fill:url(#linear-gradient-18);}.cls-26{fill:url(#linear-gradient-19);}.cls-27{fill:url(#linear-gradient-20);}.cls-28{fill:url(#radial-gradient-6);}.cls-29{fill:url(#linear-gradient-21);}.cls-30{fill:url(#linear-gradient-22);}.cls-31{fill:url(#linear-gradient-23);}.cls-32{fill:url(#linear-gradient-24);}.cls-33{fill:url(#radial-gradient-7);}.cls-34{fill:url(#linear-gradient-25);}.cls-35{fill:url(#linear-gradient-26);}.cls-36{fill:url(#linear-gradient-27);}.cls-37{fill:url(#linear-gradient-28);}.cls-38{fill:url(#radial-gradient-8);}.cls-39{fill:url(#linear-gradient-29);}.cls-40{fill:url(#linear-gradient-30);}.cls-41{fill:url(#linear-gradient-31);}.cls-42{fill:url(#linear-gradient-32);}.cls-43{fill:url(#radial-gradient-9);}.cls-44{fill:url(#linear-gradient-33);}.cls-45{fill:url(#linear-gradient-34);}.cls-46{fill:url(#linear-gradient-35);}.cls-47{fill:url(#linear-gradient-36);}.cls-48{fill:url(#radial-gradient-10);}.cls-49{fill:url(#linear-gradient-37);}.cls-50{fill:url(#linear-gradient-38);}.cls-51{fill:url(#linear-gradient-39);}.cls-52{fill:url(#linear-gradient-40);}.cls-53{fill:url(#radial-gradient-11);}.cls-54{fill:url(#linear-gradient-41);}.cls-55{fill:url(#linear-gradient-42);}.cls-56{fill:url(#linear-gradient-43);}.cls-57{fill:url(#linear-gradient-44);}.cls-58{fill:url(#radial-gradient-12);}.cls-59{fill:url(#linear-gradient-45);}.cls-60{fill:url(#linear-gradient-46);}.cls-61{fill:url(#linear-gradient-47);}.cls-62{fill:url(#linear-gradient-48);}.cls-63{fill:url(#radial-gradient-13);}.cls-64{fill:url(#linear-gradient-49);}.cls-65{fill:url(#linear-gradient-50);}.cls-66{fill:url(#linear-gradient-51);}.cls-67{fill:url(#linear-gradient-52);}.cls-68{fill:url(#radial-gradient-14);}.cls-69{fill:url(#linear-gradient-53);}.cls-70{fill:url(#linear-gradient-54);}.cls-71{fill:url(#linear-gradient-55);}.cls-72{fill:url(#linear-gradient-56);}.cls-73{fill:url(#radial-gradient-15);}.cls-74{fill:url(#linear-gradient-57);}.cls-75{fill:url(#linear-gradient-58);}.cls-76{fill:url(#linear-gradient-59);}.cls-77{fill:url(#linear-gradient-60);}</style><radialGradient id="radial-gradient" cx="-410.12" cy="-169.24" r="33.47" gradientTransform="translate(176.54 115.34) scale(0.33 0.37)" gradientUnits="userSpaceOnUse"><stop offset="0" stop-color="#333"/><stop offset="0.29" stop-color="#2f2f2f"/><stop offset="0.56" stop-color="#242424"/><stop offset="0.83" stop-color="#111"/><stop offset="1"/></radialGradient><linearGradient id="linear-gradient" x1="118.01" y1="53.72" x2="118.01" y2="56.88" gradientTransform="matrix(-1, 0, 0, 1, 162, 0)" gradientUnits="userSpaceOnUse"><stop offset="0" stop-color="#818181"/><stop offset="0.02" stop-color="#7d7d7d"/><stop offset="0.19" stop-color="#5e5e5e"/><stop offset="0.36" stop-color="#464646"/><stop offset="0.55" stop-color="#353535"/><stop offset="0.75" stop-color="#2b2b2b"/><stop offset="1" stop-color="#282828"/></linearGradient><linearGradient id="linear-gradient-2" x1="121.87" y1="53.72" x2="121.87" y2="56.86" xlink:href="#linear-gradient"/><linearGradient id="linear-gradient-3" x1="118.28" y1="53.69" x2="118.28" y2="56.54" xlink:href="#linear-gradient"/><linearGradient id="linear-gradient-4" x1="121.59" y1="53.7" x2="121.59" y2="56.53" xlink:href="#linear-gradient"/><radialGradient id="radial-gradient-2" cx="-410.94" cy="-169.24" r="33.47" gradientTransform="matrix(-0.33, 0, 0, 0.37, -10.54, 115.34)" xlink:href="#radial-gradient"/><linearGradient id="linear-gradient-5" x1="118.29" y1="53.72" x2="118.29" y2="56.88" gradientTransform="translate(4)" xlink:href="#linear-gradient"/><linearGradient id="linear-gradient-6" x1="122.14" y1="53.72" x2="122.14" y2="56.86" gradientTransform="translate(4)" xlink:href="#linear-gradient"/><linearGradient id="linear-gradient-7" x1="118.55" y1="53.69" x2="118.55" y2="56.54" gradientTransform="translate(4)" xlink:href="#linear-gradient"/><linearGradient id="linear-gradient-8" x1="121.86" y1="53.7" x2="121.86" y2="56.53" gradientTransform="translate(4)" xlink:href="#linear-gradient"/><radialGradient id="radial-gradient-3" cx="-4838.52" cy="-169.24" r="33.47" gradientTransform="matrix(-0.33, 0, 0, 0.37, -1500.99, 115.34)" xlink:href="#radial-gradient"/><linearGradient id="linear-gradient-9" x1="1571.86" y1="53.72" x2="1571.86" y2="56.88" gradientTransform="translate(-1486.44)" xlink:href="#linear-gradient"/><linearGradient id="linear-gradient-10" x1="1575.72" y1="53.72" x2="1575.72" y2="56.86" gradientTransform="translate(-1486.44)" xlink:href="#linear-gradient"/><linearGradient id="linear-gradient-11" x1="1572.12" y1="53.69" x2="1572.12" y2="56.54" gradientTransform="translate(-1486.44)" xlink:href="#linear-gradient"/><linearGradient id="linear-gradient-12" x1="1575.44" y1="53.7" x2="1575.44" y2="56.53" gradientTransform="translate(-1486.44)" xlink:href="#linear-gradient"/><radialGradient id="radial-gradient-4" cx="142.92" cy="26.7" r="37.73" gradientTransform="matrix(-1, 0, 0, 1, 163.49, -28.1)" gradientUnits="userSpaceOnUse"><stop offset="0" stop-color="red"/><stop offset="0.15" stop-color="#fb0000"/><stop offset="0.3" stop-color="#f00000"/><stop offset="0.44" stop-color="#d00"/><stop offset="0.58" stop-color="#c20000"/><stop offset="0.72" stop-color="#a00000"/><stop offset="0.86" stop-color="#750000"/><stop offset="0.99" stop-color="#400"/><stop offset="1" stop-color="#410000"/></radialGradient><linearGradient id="linear-gradient-13" x1="135.81" y1="29.55" x2="135.81" y2="43.52" gradientTransform="matrix(-1, 0, 0, 1, 166, 0)" gradientUnits="userSpaceOnUse"><stop offset="0" stop-color="#999"/><stop offset="1" stop-color="#282828"/></linearGradient><linearGradient id="linear-gradient-14" x1="150.61" y1="29.55" x2="150.61" y2="43.52" xlink:href="#linear-gradient-13"/><linearGradient id="linear-gradient-15" x1="136.86" y1="29.55" x2="136.86" y2="43.52" xlink:href="#linear-gradient-13"/><linearGradient id="linear-gradient-16" x1="149.51" y1="29.55" x2="149.51" y2="43.52" xlink:href="#linear-gradient-13"/><radialGradient id="radial-gradient-5" cx="98.7" cy="27.37" r="37.73" gradientTransform="matrix(-1, 0, 0, 1, 159.49, -28.1)" xlink:href="#radial-gradient-4"/><linearGradient id="linear-gradient-17" x1="91.59" y1="30.22" x2="91.59" y2="44.19" gradientTransform="matrix(-1, 0, 0, 1, 162, 0)" xlink:href="#linear-gradient-13"/><linearGradient id="linear-gradient-18" x1="106.39" y1="30.22" x2="106.39" y2="44.19" gradientTransform="matrix(-1, 0, 0, 1, 162, 0)" xlink:href="#linear-gradient-13"/><linearGradient id="linear-gradient-19" x1="92.64" y1="30.22" x2="92.64" y2="44.19" gradientTransform="matrix(-1, 0, 0, 1, 162, 0)" xlink:href="#linear-gradient-13"/><linearGradient id="linear-gradient-20" x1="105.29" y1="30.22" x2="105.29" y2="44.19" gradientTransform="matrix(-1, 0, 0, 1, 162, 0)" xlink:href="#linear-gradient-13"/><radialGradient id="radial-gradient-6" cx="-359.74" cy="-120.69" r="36.23" xlink:href="#radial-gradient"/><linearGradient id="linear-gradient-21" x1="101.31" y1="71.88" x2="101.31" y2="75.29" xlink:href="#linear-gradient"/><linearGradient id="linear-gradient-22" x1="105.48" y1="71.88" x2="105.48" y2="75.27" xlink:href="#linear-gradient"/><linearGradient id="linear-gradient-23" x1="101.59" y1="71.84" x2="101.59" y2="74.92" xlink:href="#linear-gradient"/><linearGradient id="linear-gradient-24" x1="105.18" y1="71.85" x2="105.18" y2="74.91" xlink:href="#linear-gradient"/><radialGradient id="radial-gradient-7" cx="1633.64" cy="26.7" r="37.73" gradientTransform="translate(-1492.95 -28.1)" xlink:href="#radial-gradient-4"/><linearGradient id="linear-gradient-25" x1="1626.52" y1="29.55" x2="1626.52" y2="43.52" gradientTransform="translate(-1490.44)" xlink:href="#linear-gradient-13"/><linearGradient id="linear-gradient-26" x1="1641.33" y1="29.55" x2="1641.33" y2="43.52" gradientTransform="translate(-1490.44)" xlink:href="#linear-gradient-13"/><linearGradient id="linear-gradient-27" x1="1627.58" y1="29.55" x2="1627.58" y2="43.52" gradientTransform="translate(-1490.44)" xlink:href="#linear-gradient-13"/><linearGradient id="linear-gradient-28" x1="1640.22" y1="29.55" x2="1640.22" y2="43.52" gradientTransform="translate(-1490.44)" xlink:href="#linear-gradient-13"/><radialGradient id="radial-gradient-8" cx="1589.42" cy="27.37" r="37.73" gradientTransform="translate(-1488.95 -28.1)" xlink:href="#radial-gradient-4"/><linearGradient id="linear-gradient-29" x1="1582.31" y1="30.22" x2="1582.31" y2="44.19" gradientTransform="translate(-1486.44)" xlink:href="#linear-gradient-13"/><linearGradient id="linear-gradient-30" x1="1597.11" y1="30.22" x2="1597.11" y2="44.19" gradientTransform="translate(-1486.44)" xlink:href="#linear-gradient-13"/><linearGradient id="linear-gradient-31" x1="1583.36" y1="30.22" x2="1583.36" y2="44.19" gradientTransform="translate(-1486.44)" xlink:href="#linear-gradient-13"/><linearGradient id="linear-gradient-32" x1="1596" y1="30.22" x2="1596" y2="44.19" gradientTransform="translate(-1486.44)" xlink:href="#linear-gradient-13"/><radialGradient id="radial-gradient-9" cx="-4900.45" cy="-120.69" r="36.23" gradientTransform="matrix(-0.33, 0, 0, 0.37, -1500.99, 115.34)" xlink:href="#radial-gradient"/><linearGradient id="linear-gradient-33" x1="1592.02" y1="71.88" x2="1592.02" y2="75.29" gradientTransform="translate(-1486.44)" xlink:href="#linear-gradient"/><linearGradient id="linear-gradient-34" x1="1596.19" y1="71.88" x2="1596.19" y2="75.27" gradientTransform="translate(-1486.44)" xlink:href="#linear-gradient"/><linearGradient id="linear-gradient-35" x1="1592.31" y1="71.84" x2="1592.31" y2="74.92" gradientTransform="translate(-1486.44)" xlink:href="#linear-gradient"/><linearGradient id="linear-gradient-36" x1="1595.89" y1="71.85" x2="1595.89" y2="74.91" gradientTransform="translate(-1486.44)" xlink:href="#linear-gradient"/><radialGradient id="radial-gradient-10" cx="123.62" cy="17.22" r="40.46" gradientTransform="matrix(1, 0, 0, 1, 0, 0)" xlink:href="#radial-gradient-4"/><linearGradient id="linear-gradient-37" x1="118.5" y1="48.37" x2="118.5" y2="63.36" gradientTransform="matrix(1, 0, 0, 1, 0, 0)" xlink:href="#linear-gradient-13"/><linearGradient id="linear-gradient-38" x1="134.37" y1="48.37" x2="134.37" y2="63.36" gradientTransform="matrix(1, 0, 0, 1, 0, 0)" xlink:href="#linear-gradient-13"/><linearGradient id="linear-gradient-39" x1="119.63" y1="48.37" x2="119.63" y2="63.36" gradientTransform="matrix(1, 0, 0, 1, 0, 0)" xlink:href="#linear-gradient-13"/><linearGradient id="linear-gradient-40" x1="133.19" y1="48.37" x2="133.19" y2="63.36" gradientTransform="matrix(1, 0, 0, 1, 0, 0)" xlink:href="#linear-gradient-13"/><radialGradient id="radial-gradient-11" cx="125.85" cy="45.32" r="40.46" xlink:href="#radial-gradient-4"/><linearGradient id="linear-gradient-41" x1="118.23" y1="48.37" x2="118.23" y2="63.36" xlink:href="#linear-gradient-13"/><linearGradient id="linear-gradient-42" x1="134.1" y1="48.37" x2="134.1" y2="63.36" xlink:href="#linear-gradient-13"/><linearGradient id="linear-gradient-43" x1="119.36" y1="48.37" x2="119.36" y2="63.36" xlink:href="#linear-gradient-13"/><linearGradient id="linear-gradient-44" x1="132.92" y1="48.37" x2="132.92" y2="63.36" xlink:href="#linear-gradient-13"/><radialGradient id="radial-gradient-12" cx="78.72" cy="44.57" r="40.46" gradientTransform="matrix(-1, 0, 0, 1, 159.49, -28.1)" xlink:href="#radial-gradient-4"/><linearGradient id="linear-gradient-45" x1="71.09" y1="47.62" x2="71.09" y2="62.61" gradientTransform="matrix(-1, 0, 0, 1, 162, 0)" xlink:href="#linear-gradient-13"/><linearGradient id="linear-gradient-46" x1="86.97" y1="47.62" x2="86.97" y2="62.61" gradientTransform="matrix(-1, 0, 0, 1, 162, 0)" xlink:href="#linear-gradient-13"/><linearGradient id="linear-gradient-47" x1="72.22" y1="47.62" x2="72.22" y2="62.61" gradientTransform="matrix(-1, 0, 0, 1, 162, 0)" xlink:href="#linear-gradient-13"/><linearGradient id="linear-gradient-48" x1="85.78" y1="47.62" x2="85.78" y2="62.61" gradientTransform="matrix(-1, 0, 0, 1, 162, 0)" xlink:href="#linear-gradient-13"/><radialGradient id="radial-gradient-13" cx="105.39" cy="39.24" r="42.99" gradientTransform="matrix(1, 0, 0, 1, 0, 0)" xlink:href="#radial-gradient-4"/><linearGradient id="linear-gradient-49" x1="99.8" y1="70.58" x2="99.8" y2="84.89" gradientTransform="matrix(1, 0, 0, 1, 0, 0)" xlink:href="#linear-gradient-13"/><linearGradient id="linear-gradient-50" x1="116.66" y1="70.58" x2="116.66" y2="84.89" gradientTransform="matrix(1, 0, 0, 1, 0, 0)" xlink:href="#linear-gradient-13"/><linearGradient id="linear-gradient-51" x1="101" y1="70.58" x2="101" y2="84.89" gradientTransform="matrix(1, 0, 0, 1, 0, 0)" xlink:href="#linear-gradient-13"/><linearGradient id="linear-gradient-52" x1="115.41" y1="70.58" x2="115.41" y2="84.89" gradientTransform="matrix(1, 0, 0, 1, 0, 0)" xlink:href="#linear-gradient-13"/><radialGradient id="radial-gradient-14" cx="103.63" cy="67.34" r="42.99" gradientTransform="matrix(-1, 0, 0, 1, 159.49, -28.1)" xlink:href="#radial-gradient-4"/><linearGradient id="linear-gradient-53" x1="95.53" y1="70.58" x2="95.53" y2="84.89" gradientTransform="matrix(-1, 0, 0, 1, 162, 0)" xlink:href="#linear-gradient-13"/><linearGradient id="linear-gradient-54" x1="112.39" y1="70.58" x2="112.39" y2="84.89" gradientTransform="matrix(-1, 0, 0, 1, 162, 0)" xlink:href="#linear-gradient-13"/><linearGradient id="linear-gradient-55" x1="96.73" y1="70.58" x2="96.73" y2="84.89" gradientTransform="matrix(-1, 0, 0, 1, 162, 0)" xlink:href="#linear-gradient-13"/><linearGradient id="linear-gradient-56" x1="111.14" y1="70.58" x2="111.14" y2="84.89" gradientTransform="matrix(-1, 0, 0, 1, 162, 0)" xlink:href="#linear-gradient-13"/><radialGradient id="radial-gradient-15" cx="80.41" cy="59.2" r="48.46" gradientTransform="matrix(1, 0, 0, 1, 0, 0)" xlink:href="#radial-gradient-4"/><linearGradient id="linear-gradient-57" x1="73.79" y1="90.96" x2="73.79" y2="108.9" gradientTransform="matrix(1, 0, 0, 1, 0, 0)" xlink:href="#linear-gradient-13"/><linearGradient id="linear-gradient-58" x1="92.8" y1="90.96" x2="92.8" y2="108.9" gradientTransform="matrix(1, 0, 0, 1, 0, 0)" xlink:href="#linear-gradient-13"/><linearGradient id="linear-gradient-59" x1="75.14" y1="90.96" x2="75.14" y2="108.9" gradientTransform="matrix(1, 0, 0, 1, 0, 0)" xlink:href="#linear-gradient-13"/><linearGradient id="linear-gradient-60" x1="91.38" y1="90.96" x2="91.38" y2="108.9" gradientTransform="matrix(1, 0, 0, 1, 0, 0)" xlink:href="#linear-gradient-13"/></defs><title>Snooker</title><g class="cls-1"><g id="Layer_1" data-name="Layer 1"><g class="cls-2"><path class="cls-3" d="M47.89,59.54c0,2.39-2.62,6.54-5.85,6.65s-5.89-4.3-5.89-6.65,2.56-6.75,5.89-6.65S47.89,57.15,47.89,59.54Z" transform="translate(-2.51 -28.1)"/><path class="cls-4" d="M42.23,53.73a5.83,5.83,0,0,1,3.51,1.43l-.33.17a10,10,0,0,0-3.18-.61Z" transform="translate(-2.51 -28.1)"/><path class="cls-5" d="M38.67,55.35a2.89,2.89,0,0,0-.36-.19,5.82,5.82,0,0,1,3.64-1.43v1A10,10,0,0,0,38.67,55.35Z" transform="translate(-2.51 -28.1)"/><path class="cls-6" d="M45.21,55.47a2.81,2.81,0,0,0-.84,1,10,10,0,0,0-2.11-.24h0V54.94A10,10,0,0,1,45.21,55.47Z" transform="translate(-2.51 -28.1)"/><path class="cls-7" d="M41.95,56.21a9.91,9.91,0,0,0-2.23.32,2.8,2.8,0,0,0-.85-1,10,10,0,0,1,3.08-.55Z" transform="translate(-2.51 -28.1)"/></g><g class="cls-2"><path class="cls-8" d="M118.38,59.54c0,2.39,2.62,6.54,5.85,6.65s5.89-4.3,5.89-6.65-2.56-6.75-5.89-6.65S118.38,57.15,118.38,59.54Z" transform="translate(-2.51 -28.1)"/><path class="cls-9" d="M124,53.73a5.83,5.83,0,0,0-3.51,1.43l.33.17a10,10,0,0,1,3.18-.61Z" transform="translate(-2.51 -28.1)"/><path class="cls-10" d="M127.6,55.35a2.89,2.89,0,0,1,.36-.19,5.82,5.82,0,0,0-3.64-1.43v1A10,10,0,0,1,127.6,55.35Z" transform="translate(-2.51 -28.1)"/><path class="cls-11" d="M121.06,55.47a2.81,2.81,0,0,1,.84,1,10,10,0,0,1,2.11-.24h0V54.94A10,10,0,0,0,121.06,55.47Z" transform="translate(-2.51 -28.1)"/><path class="cls-12" d="M124.32,56.21a9.91,9.91,0,0,1,2.23.32,2.8,2.8,0,0,1,.85-1,10,10,0,0,0-3.08-.55Z" transform="translate(-2.51 -28.1)"/></g><g class="cls-2"><path class="cls-13" d="M81.51,59.54c0,2.39,2.62,6.54,5.85,6.65s5.89-4.3,5.89-6.65-2.56-6.75-5.89-6.65S81.51,57.15,81.51,59.54Z" transform="translate(-2.51 -28.1)"/><path class="cls-14" d="M87.17,53.73a5.83,5.83,0,0,0-3.51,1.43l.33.17a10,10,0,0,1,3.18-.61Z" transform="translate(-2.51 -28.1)"/><path class="cls-15" d="M90.73,55.35a2.9,2.9,0,0,1,.36-.19,5.82,5.82,0,0,0-3.64-1.43v1A10,10,0,0,1,90.73,55.35Z" transform="translate(-2.51 -28.1)"/><path class="cls-16" d="M84.19,55.47a2.81,2.81,0,0,1,.84,1,10,10,0,0,1,2.11-.24h0V54.94A10,10,0,0,0,84.19,55.47Z" transform="translate(-2.51 -28.1)"/><path class="cls-17" d="M87.45,56.21a9.91,9.91,0,0,1,2.23.32,2.8,2.8,0,0,1,.85-1,10,10,0,0,0-3.08-.55Z" transform="translate(-2.51 -28.1)"/></g><circle class="cls-18" cx="20.16" cy="20.16" r="20.16"/><path class="cls-19" d="M23.45,29.57a20.09,20.09,0,0,1,13.48,5.9q-.69.57-1.31,1.21A40.09,40.09,0,0,0,23.45,34.6Z" transform="translate(-2.51 -28.1)"/><path class="cls-20" d="M9.83,36.8A18.13,18.13,0,0,0,8.4,35.47a20.09,20.09,0,0,1,14-5.91v5A40.12,40.12,0,0,0,9.83,36.8Z" transform="translate(-2.51 -28.1)"/><path class="cls-21" d="M34.83,37.54a18,18,0,0,0-3.26,5.52,32.67,32.67,0,0,0-8-1h-.11V35.67A39,39,0,0,1,34.83,37.54Z" transform="translate(-2.51 -28.1)"/><path class="cls-22" d="M22.38,42.1a32,32,0,0,0-8.46,1.42,18.05,18.05,0,0,0-3.31-5.86,39,39,0,0,1,11.76-2Z" transform="translate(-2.51 -28.1)"/><circle class="cls-23" cx="60.37" cy="20.82" r="20.16"/><path class="cls-24" d="M63.67,30.24a20.09,20.09,0,0,1,13.48,5.9q-.69.57-1.31,1.21a40.09,40.09,0,0,0-12.17-2.07Z" transform="translate(-2.51 -28.1)"/><path class="cls-25" d="M50,37.47a18.13,18.13,0,0,0-1.43-1.34,20.09,20.09,0,0,1,14-5.91v5A40.12,40.12,0,0,0,50,37.47Z" transform="translate(-2.51 -28.1)"/><path class="cls-26" d="M75,38.21a18,18,0,0,0-3.26,5.52,32.67,32.67,0,0,0-8-1h-.11V36.34A39,39,0,0,1,75,38.21Z" transform="translate(-2.51 -28.1)"/><path class="cls-27" d="M62.59,42.77a32,32,0,0,0-8.46,1.42,18.05,18.05,0,0,0-3.31-5.86,39,39,0,0,1,11.76-2Z" transform="translate(-2.51 -28.1)"/><g class="cls-2"><path class="cls-28" d="M64.92,78.17c0,2.58-2.83,7.08-6.33,7.19s-6.37-4.65-6.37-7.19S55,70.86,58.59,71,64.92,75.59,64.92,78.17Z" transform="translate(-2.51 -28.1)"/><path class="cls-29" d="M58.8,71.88a6.31,6.31,0,0,1,3.79,1.55l-.36.19A10.82,10.82,0,0,0,58.8,73Z" transform="translate(-2.51 -28.1)"/><path class="cls-30" d="M54.94,73.64a3.14,3.14,0,0,0-.39-.21,6.3,6.3,0,0,1,3.94-1.55V73A10.85,10.85,0,0,0,54.94,73.64Z" transform="translate(-2.51 -28.1)"/><path class="cls-31" d="M62,73.76a3,3,0,0,0-.91,1.06,10.81,10.81,0,0,0-2.28-.26h0V73.19A10.82,10.82,0,0,1,62,73.76Z" transform="translate(-2.51 -28.1)"/><path class="cls-32" d="M58.49,74.57a10.72,10.72,0,0,0-2.41.34,3,3,0,0,0-.92-1.13,10.85,10.85,0,0,1,3.33-.6Z" transform="translate(-2.51 -28.1)"/></g><circle class="cls-33" cx="141.1" cy="20.16" r="20.16"/><path class="cls-34" d="M142.82,29.57a20.09,20.09,0,0,0-13.48,5.9q.69.57,1.31,1.21a40.09,40.09,0,0,1,12.17-2.07Z" transform="translate(-2.51 -28.1)"/><path class="cls-35" d="M156.44,36.8a18.13,18.13,0,0,1,1.43-1.34,20.09,20.09,0,0,0-14-5.91v5A40.12,40.12,0,0,1,156.44,36.8Z" transform="translate(-2.51 -28.1)"/><path class="cls-36" d="M131.44,37.54a18,18,0,0,1,3.26,5.52,32.67,32.67,0,0,1,8-1h.11V35.67A39,39,0,0,0,131.44,37.54Z" transform="translate(-2.51 -28.1)"/><path class="cls-37" d="M143.9,42.1a32,32,0,0,1,8.46,1.42,18.05,18.05,0,0,1,3.31-5.86,39,39,0,0,0-11.76-2Z" transform="translate(-2.51 -28.1)"/><circle class="cls-38" cx="100.88" cy="20.82" r="20.16"/><path class="cls-39" d="M102.6,30.24a20.09,20.09,0,0,0-13.48,5.9q.69.57,1.31,1.21a40.09,40.09,0,0,1,12.17-2.07Z" transform="translate(-2.51 -28.1)"/><path class="cls-40" d="M116.22,37.47a18.13,18.13,0,0,1,1.43-1.34,20.09,20.09,0,0,0-14-5.91v5A40.12,40.12,0,0,1,116.22,37.47Z" transform="translate(-2.51 -28.1)"/><path class="cls-41" d="M91.23,38.21a18,18,0,0,1,3.26,5.52,32.67,32.67,0,0,1,8-1h.11V36.34A39,39,0,0,0,91.23,38.21Z" transform="translate(-2.51 -28.1)"/><path class="cls-42" d="M103.68,42.77a32,32,0,0,1,8.46,1.42,18.05,18.05,0,0,1,3.31-5.86,39,39,0,0,0-11.76-2Z" transform="translate(-2.51 -28.1)"/><g class="cls-2"><path class="cls-43" d="M101.35,78.17c0,2.58,2.83,7.08,6.33,7.19s6.37-4.65,6.37-7.19-2.77-7.31-6.37-7.19S101.35,75.59,101.35,78.17Z" transform="translate(-2.51 -28.1)"/><path class="cls-44" d="M107.47,71.88a6.31,6.31,0,0,0-3.79,1.55l.36.19a10.82,10.82,0,0,1,3.44-.66Z" transform="translate(-2.51 -28.1)"/><path class="cls-45" d="M111.33,73.64a3.14,3.14,0,0,1,.39-.21,6.3,6.3,0,0,0-3.94-1.55V73A10.85,10.85,0,0,1,111.33,73.64Z" transform="translate(-2.51 -28.1)"/><path class="cls-46" d="M104.25,73.76a3,3,0,0,1,.91,1.06,10.81,10.81,0,0,1,2.28-.26h0V73.19A10.82,10.82,0,0,0,104.25,73.76Z" transform="translate(-2.51 -28.1)"/><path class="cls-47" d="M107.78,74.57a10.72,10.72,0,0,1,2.41.34,3,3,0,0,1,.92-1.13,10.85,10.85,0,0,0-3.33-.6Z" transform="translate(-2.51 -28.1)"/></g><circle class="cls-48" cx="124.06" cy="40.34" r="21.62"/><path class="cls-49" d="M125.73,48.39a21.55,21.55,0,0,0-14.46,6.32q.74.62,1.41,1.3a43,43,0,0,1,13.05-2.23Z" transform="translate(-2.51 -28.1)"/><path class="cls-50" d="M140.33,56.15a19.44,19.44,0,0,1,1.53-1.44,21.55,21.55,0,0,0-15-6.34v5.41A43,43,0,0,1,140.33,56.15Z" transform="translate(-2.51 -28.1)"/><path class="cls-51" d="M113.52,56.94A19.35,19.35,0,0,1,117,62.86a35,35,0,0,1,8.59-1.05h.12V54.94A41.82,41.82,0,0,0,113.52,56.94Z" transform="translate(-2.51 -28.1)"/><path class="cls-52" d="M126.88,61.84a34.35,34.35,0,0,1,9.07,1.52,19.36,19.36,0,0,1,3.55-6.28,41.85,41.85,0,0,0-12.62-2.14Z" transform="translate(-2.51 -28.1)"/><circle class="cls-53" cx="37.19" cy="40.34" r="21.62"/><path class="cls-54" d="M40.54,48.39A21.55,21.55,0,0,1,55,54.72q-.74.62-1.41,1.3a43,43,0,0,0-13.05-2.23Z" transform="translate(-2.51 -28.1)"/><path class="cls-55" d="M25.94,56.15a19.43,19.43,0,0,0-1.53-1.44,21.55,21.55,0,0,1,15-6.34v5.41A43,43,0,0,0,25.94,56.15Z" transform="translate(-2.51 -28.1)"/><path class="cls-56" d="M52.75,56.94a19.35,19.35,0,0,0-3.49,5.92,35,35,0,0,0-8.59-1.05h-.12V54.94A41.82,41.82,0,0,1,52.75,56.94Z" transform="translate(-2.51 -28.1)"/><path class="cls-57" d="M39.39,61.84a34.35,34.35,0,0,0-9.07,1.52,19.36,19.36,0,0,0-3.55-6.28,41.85,41.85,0,0,1,12.62-2.14Z" transform="translate(-2.51 -28.1)"/><circle class="cls-58" cx="80.33" cy="39.59" r="21.62"/><path class="cls-59" d="M83.68,47.64A21.55,21.55,0,0,1,98.13,54q-.74.62-1.41,1.3A43,43,0,0,0,83.68,53Z" transform="translate(-2.51 -28.1)"/><path class="cls-60" d="M69.07,55.4A19.43,19.43,0,0,0,67.54,54a21.55,21.55,0,0,1,15-6.34V53A43,43,0,0,0,69.07,55.4Z" transform="translate(-2.51 -28.1)"/><path class="cls-61" d="M95.88,56.19a19.35,19.35,0,0,0-3.49,5.92,35,35,0,0,0-8.59-1.05h-.12V54.19A41.82,41.82,0,0,1,95.88,56.19Z" transform="translate(-2.51 -28.1)"/><path class="cls-62" d="M82.52,61.09a34.35,34.35,0,0,0-9.07,1.52,19.36,19.36,0,0,0-3.55-6.28,41.85,41.85,0,0,1,12.62-2.14Z" transform="translate(-2.51 -28.1)"/><circle class="cls-63" cx="105.86" cy="63.8" r="22.97"/><path class="cls-64" d="M107.48,70.6a24.17,24.17,0,0,0-15.36,6q.78.59,1.49,1.24a50.37,50.37,0,0,1,13.87-2.12Z" transform="translate(-2.51 -28.1)"/><path class="cls-65" d="M123,78a20,20,0,0,1,1.63-1.37,24.22,24.22,0,0,0-15.92-6.05v5.17A50.38,50.38,0,0,1,123,78Z" transform="translate(-2.51 -28.1)"/><path class="cls-66" d="M94.51,78.77a18.17,18.17,0,0,1,3.71,5.65,41.22,41.22,0,0,1,9.13-1h.13V76.85A49,49,0,0,0,94.51,78.77Z" transform="translate(-2.51 -28.1)"/><path class="cls-67" d="M108.7,83.44a40.26,40.26,0,0,1,9.64,1.46,18.09,18.09,0,0,1,3.77-6,49,49,0,0,0-13.41-2Z" transform="translate(-2.51 -28.1)"/><circle class="cls-68" cx="55.39" cy="63.8" r="22.97"/><path class="cls-69" d="M58.79,70.6a24.17,24.17,0,0,1,15.36,6q-.78.59-1.49,1.24a50.37,50.37,0,0,0-13.87-2.12Z" transform="translate(-2.51 -28.1)"/><path class="cls-70" d="M43.27,78a20,20,0,0,0-1.63-1.37,24.22,24.22,0,0,1,15.92-6.05v5.17A50.38,50.38,0,0,0,43.27,78Z" transform="translate(-2.51 -28.1)"/><path class="cls-71" d="M71.76,78.77A18.17,18.17,0,0,0,68,84.42a41.22,41.22,0,0,0-9.13-1h-.13V76.85A49,49,0,0,1,71.76,78.77Z" transform="translate(-2.51 -28.1)"/><path class="cls-72" d="M57.57,83.44a40.26,40.26,0,0,0-9.64,1.46,18.09,18.09,0,0,0-3.77-6,49,49,0,0,1,13.41-2Z" transform="translate(-2.51 -28.1)"/><circle class="cls-73" cx="80.94" cy="86.88" r="25.89"/><path class="cls-74" d="M82.45,91a25.8,25.8,0,0,0-17.32,7.57q.88.74,1.68,1.56a51.5,51.5,0,0,1,15.63-2.67Z" transform="translate(-2.51 -28.1)"/><path class="cls-75" d="M99.94,100.27a23.28,23.28,0,0,1,1.84-1.72A25.81,25.81,0,0,0,83.82,91v6.48A51.53,51.53,0,0,1,99.94,100.27Z" transform="translate(-2.51 -28.1)"/><path class="cls-76" d="M67.83,101.22A23.18,23.18,0,0,1,72,108.31a42,42,0,0,1,10.29-1.26h.14V98.82A50.09,50.09,0,0,0,67.83,101.22Z" transform="translate(-2.51 -28.1)"/><path class="cls-77" d="M83.82,107.08a41.14,41.14,0,0,1,10.86,1.83,23.19,23.19,0,0,1,4.25-7.52,50.12,50.12,0,0,0-15.11-2.57Z" transform="translate(-2.51 -28.1)"/></g></g></svg>