<svg id="Layer_1" data-name="Layer 1" xmlns="http://www.w3.org/2000/svg" xmlns:xlink="http://www.w3.org/1999/xlink" viewBox="0 0 165.05 165.05"><defs><style>.cls-1{fill:url(#radial-gradient);}.cls-2{fill:url(#radial-gradient-2);}.cls-3{fill:url(#radial-gradient-3);}.cls-4{fill:url(#radial-gradient-4);}.cls-5{fill:url(#radial-gradient-5);}.cls-6{fill:url(#radial-gradient-6);}.cls-7{opacity:0.22;}</style><radialGradient id="radial-gradient" cx="70.55" cy="65.52" r="125.44" gradientUnits="userSpaceOnUse"><stop offset="0" stop-color="#fff"/><stop offset="0.43" stop-color="#d6d6e0"/><stop offset="0.5" stop-color="#c8c8d1"/><stop offset="0.62" stop-color="#a3a3ab"/><stop offset="0.65" stop-color="#9a9aa2"/><stop offset="0.89" stop-color="#d1d1d1"/></radialGradient><radialGradient id="radial-gradient-2" cx="495.04" cy="440.79" r="114.11" gradientUnits="userSpaceOnUse"><stop offset="0" stop-color="#e6e6e6"/><stop offset="0.43" stop-color="#bdbdc7"/><stop offset="0.5" stop-color="#afafb8"/><stop offset="0.62" stop-color="#8a8a92"/><stop offset="0.65" stop-color="#818189"/><stop offset="0.89" stop-color="#b8b8b8"/></radialGradient><radialGradient id="radial-gradient-3" cx="491.52" cy="429.58" r="132.11" gradientUnits="userSpaceOnUse"><stop offset="0.08" stop-color="#67c8f0"/><stop offset="0.15" stop-color="#63c1ec"/><stop offset="0.26" stop-color="#59aee2"/><stop offset="0.39" stop-color="#478fd0"/><stop offset="0.42" stop-color="#4387cc"/><stop offset="0.49" stop-color="#3678c1"/><stop offset="0.62" stop-color="#1352a3"/><stop offset="0.65" stop-color="#0b4a9c"/><stop offset="0.87" stop-color="#29579c"/></radialGradient><radialGradient id="radial-gradient-4" cx="491.98" cy="429.58" r="132.07" gradientUnits="userSpaceOnUse"><stop offset="0.08" stop-color="#4bacd4"/><stop offset="0.15" stop-color="#47a5d0"/><stop offset="0.26" stop-color="#3d92c6"/><stop offset="0.39" stop-color="#2b73b4"/><stop offset="0.42" stop-color="#276bb0"/><stop offset="0.49" stop-color="#1e5ca5"/><stop offset="0.62" stop-color="#053687"/><stop offset="0.65" stop-color="#002e80"/><stop offset="0.87" stop-color="#0d3b80"/></radialGradient><radialGradient id="radial-gradient-5" cx="487.28" cy="426.76" r="130.53" gradientUnits="userSpaceOnUse"><stop offset="0.08" stop-color="#ffed0d"/><stop offset="0.17" stop-color="#fee60b"/><stop offset="0.3" stop-color="#fad306"/><stop offset="0.43" stop-color="#f5ba00"/><stop offset="0.5" stop-color="#e6ac00"/><stop offset="0.64" stop-color="#c08700"/><stop offset="0.65" stop-color="#bd8400"/><stop offset="0.87" stop-color="#db9100"/></radialGradient><radialGradient id="radial-gradient-6" cx="487.28" cy="426.76" r="130.49" gradientUnits="userSpaceOnUse"><stop offset="0.08" stop-color="#d9c700"/><stop offset="0.17" stop-color="#d8c000"/><stop offset="0.3" stop-color="#d4ad00"/><stop offset="0.43" stop-color="#cf9400"/><stop offset="0.5" stop-color="#c08600"/><stop offset="0.64" stop-color="#9a6100"/><stop offset="0.65" stop-color="#975e00"/><stop offset="0.87" stop-color="#b56b00"/></radialGradient></defs><title>volley</title><circle class="cls-1" cx="82.52" cy="82.52" r="82.52"/><path class="cls-2" d="M549.57,462.33c-25.73,9.8-53.19,11.2-61.09,11.39.85-16.39,2.49-30.69,3-34.66,5.09-2.31,28-12.57,44.51-17.35,11-3.19,21.74-4.46,29.71-3.74,3.66.33,9.06,2.79,12.47,8.79-.82-2.42-1.73-4.8-2.77-7.12A17.79,17.79,0,0,0,566,414.4c-1.71-3.57-7.78-14.61-22.59-27.31-11.5-9.85-22.67-14.38-36.22-16.11-2.38-.21-4.77-.36-7.2-.36-.36,0-.7,0-1.05.05,15.91,1.57,29,7.24,41.53,17.95s18.71,20.65,21.12,25.13c-8.78-.73-19,1.63-26.82,3.89-2,.58-4.09,1.25-6.23,2-2.83-3.6-13.57-16.26-34.65-30.11-14.34-9.42-24.09-11.08-30.1-10.42-1.08.53-2.19,1-3.24,1.57,4.26-.56,14.65,1.47,31,12.37,18.42,12.28,28.9,23.59,32.7,28.06-14.87,5.28-30.71,12.38-34.67,14.18a419.78,419.78,0,0,1-45.8-29.37,63,63,0,0,0-7.67-5c-.6.73-1.13,1.52-1.71,2.28.46.49,1.29,1.34,2.61,2.53-3.38,5.18-14.89,25.07-14.52,54.74.14,11.45,3.5,28.53,9.36,39.18,1.24,1.82,2.57,3.57,3.95,5.28l-1.72-4.5c-18.59-48.66.89-85,5.49-92.52.67.55,1.38,1.12,2.17,1.72,3.56,2.72,8.23,6.08,13.69,9.77-2.43,5.73-10.11,26.25-10.7,57.58-.57,30.1,8.21,43,17.88,49.65q3.42,1.75,7,3.18c-10.23-5.77-21.29-20-20.66-52.75.55-29,7.52-48.91,10.08-55.27,8.23,5.43,17.88,11.38,28.17,17-.82,6.9-3.78,37.15-3.33,61.75.21,11.49,1,31.6,13.46,35,.89,0,1.77.13,2.66.13.54,0,1.07-.07,1.62-.08l1.36-.07c-6.43-.32-11.08-6.65-13.26-18.66,3,.29,8,.67,14.33.67,19.48,0,49.82-4,66.16-21.17,1-1.54,1.9-3.09,2.75-4.7-28.28,24.59-73.45,22.36-83.82,21.46-.51-3.76-.85-8-1-12.73-.26-7.23-.14-15,.18-22.44,7.85-.18,36.22-1.54,62.79-11.66,24.2-9.22,29-10,31.25-9.21,0-.86.12-1.72.13-2.59C579,453.38,571.62,453.94,549.57,462.33Z" transform="translate(-417.48 -370.62)"/><path class="cls-3" d="M417.48,453.14A82.5,82.5,0,0,0,499,535.62c-5.79-1.49-9.67-7.59-12.6-22.23-3.17-15.85,1.58-68.67,2.29-72.19s.35-3.87-.35-4.23c-9.78-2.95-45-28.73-53.2-34.8A82.09,82.09,0,0,0,417.48,453.14Z" transform="translate(-417.48 -370.62)"/><path class="cls-4" d="M499,535.62c-5.79-1.49-9.67-7.59-12.6-22.23-3.17-15.85,1.58-68.67,2.29-72.19s.35-3.87-.35-4.23c-9.78-2.95-45-28.73-53.2-34.8-.27.34-.5.71-.76,1.05.46.49,1.29,1.33,2.6,2.51-3.38,5.18-14.89,25.07-14.52,54.74.14,11.41,3.48,28.4,9.3,39.06q1.76,2.58,3.71,5c.1.13.19.27.29.39l-1.72-4.5c-18.59-48.66.89-85,5.49-92.52.67.55,1.38,1.12,2.17,1.72,3.56,2.72,8.23,6.08,13.69,9.77-2.43,5.73-10.11,26.25-10.7,57.58-.57,29.89,8.09,42.77,17.68,49.5.5.26,1,.5,1.52.75,1.63.8,3.28,1.56,5,2.25l.49.18c-10.17-5.85-21.05-20.12-20.43-52.61.55-29,7.52-48.91,10.08-55.27,8.23,5.43,17.88,11.38,28.17,17-.82,6.9-3.78,37.15-3.33,61.75.21,11.47,1,31.53,13.4,35,.58,0,1.14.1,1.72.11Z" transform="translate(-417.48 -370.62)"/><path class="cls-5" d="M582.52,453.14a82.2,82.2,0,0,0-6-30.87A19.4,19.4,0,0,0,562,415.67c-13.21,0-33.46,3.69-72.72,21.83-.53,3.7-3,24.65-3.17,36.28s-2.12,41.91,4.22,53c3.4,5.94,5.84,8,8.67,8.84.34,0,.67.05,1,.05A82.53,82.53,0,0,0,582.52,453.14Z" transform="translate(-417.48 -370.62)"/><path class="cls-6" d="M489.71,516.86c3,.29,8,.67,14.33.67,19.48,0,49.82-4,66.16-21.16l0,0c.95-1.54,1.89-3.07,2.74-4.67-28.28,24.59-73.45,22.36-83.82,21.46-.51-3.76-.85-8-1-12.73-.26-7.23-.14-15,.18-22.44,7.85-.18,36.22-1.54,62.79-11.66,24.2-9.22,29-10,31.25-9.21,0-.8.11-1.59.12-2.39,0-.07,0-.13,0-.2-3.5-1.11-10.84-.55-32.88,7.84-25.73,9.8-53.19,11.2-61.09,11.39.85-16.39,2.49-30.69,3-34.66,5.09-2.31,28-12.57,44.51-17.35,11-3.19,21.74-4.46,29.71-3.74,3.61.33,8.91,2.74,12.33,8.57q-.27-.79-.55-1.57c-.35-1-.73-1.92-1.12-2.87A19.34,19.34,0,0,0,562,415.67c-13.21,0-33.46,3.69-72.72,21.83-.53,3.7-3,24.65-3.17,36.28s-2.12,41.91,4.22,53c3.4,5.94,5.84,8,8.67,8.84.34,0,.67.05,1,.05,1,0,2-.11,3-.15C496.54,535.19,491.89,528.86,489.71,516.86Z" transform="translate(-417.48 -370.62)"/><path class="cls-7" d="M572.65,492.29a63.09,63.09,0,0,1-11.94,8.79c-29.18,16.56-65.92,13.56-72.62,12.84-.49-3.62-.82-7.72-1-12.39-.28-7.87-.14-16.41.19-24.62,6.6-.11,35.79-1.19,63.11-11.61,22.71-8.65,29.06-9.65,32-8.89,0-.49.06-1,.07-1.48-3.87-1-10.51-.09-32.78,8.39-26.77,10.2-55.48,11.29-62.27,11.45.79-17.7,2.45-33.33,2.79-36.43,3.76-1.72,27.94-12.65,45.19-17.65,13.79-4,28.45-5.86,36.85-1.15a20.47,20.47,0,0,1,5.32,5.54c-.4-1.11-.77-2.24-1.21-3.32a16.58,16.58,0,0,0-4.11-3.88,20.55,20.55,0,0,0-7.3-2.73c-1.16-2.49-7.34-14.57-23.22-28.18a66.14,66.14,0,0,0-35-16c-1.85-.15-3.71-.26-5.59-.28,15.11,1.65,27.25,6.93,39.47,17.41,14.48,12.42,20.9,23.68,22.53,26.85-8.16-1-18.3.84-28.29,3.73-2.21.64-4.53,1.38-6.91,2.18-1.85-2.37-12.81-15.78-34.85-30.47-15.38-10.26-24.84-11.43-29.87-11-.65.33-1.33.6-2,.95,4.14-.22,14.14.82,30.66,11.8,20.44,13.58,31.18,26.05,33.9,29.44-15.9,5.53-33.48,13.49-36.51,14.87a407.88,407.88,0,0,1-39.39-24.68c-6.91-4.87-11.88-8.66-14.08-10.37-.27.34-.51.71-.78,1,.63.63,1.63,1.67,3.36,3.2-2.63,4-15.85,25.92-14.67,58.46.4,11,4,26.35,9.06,36.74.57.81,1.17,1.59,1.78,2.37a117.46,117.46,0,0,1-7.53-26c-6.42-39.12,9.85-66.43,12.51-70.57a111.47,111.47,0,0,0,9.17,6.89c2.51,1.71,5.26,3.59,8.2,5.55-1.8,4.13-10.36,25.43-11,58-.55,29.13,8.58,43.09,18.19,50.27,1.3.63,2.58,1.31,3.92,1.87-10.12-6.27-20.6-20.35-20-52.11.6-31.31,8.61-52.06,10.65-56.85,8.55,5.69,18.6,12.07,29.4,17.95-.63,5.15-4,37.9-3.06,63.39.8,22.3,4.82,31.67,13.28,34,.58,0,1.15.09,1.73.09.81,0,1.6-.1,2.4-.12-7.21-.55-11.83-6.31-14-19.55,2.54.14,7.68.36,14.46.36,11.55,0,27.1-1.31,41.75-6.17,9.72-3.23,19-8,26.5-15.34C571.63,494,572.18,493.16,572.65,492.29Z" transform="translate(-417.48 -370.62)"/></svg>