<svg viewBox="0 0 13 15" fill="none" xmlns="http://www.w3.org/2000/svg">
<path d="M10.3736 6.25V3.75C10.3736 1.67938 8.51538 0 6.22419 0C3.93299 0 2.07473 1.67938 2.07473 3.75V6.25H0V15H12.4484V6.25H10.3736ZM6.91576 11.0769V12.5H5.53261V11.0769C5.12112 10.86 4.84103 10.4619 4.84103 10C4.84103 9.31 5.46069 8.75 6.22419 8.75C6.98769 8.75 7.60734 9.31 7.60734 10C7.60734 10.4613 7.32794 10.86 6.91576 11.0769ZM3.45788 6.25V3.75C3.45788 2.37125 4.69857 1.25 6.22419 1.25C7.74911 1.25 8.99049 2.37125 8.99049 3.75V6.25H3.45788Z" fill="white"/>
</svg>
