<svg width="100%" viewBox="0 0 17 15" fill="none" xmlns="http://www.w3.org/2000/svg">
<path d="M6.89017 5.16313C6.49874 4.7975 6.51949 4.22375 6.92268 3.86937L11.0362 0.264375C11.2374 0.08875 11.4954 0 11.752 0C12.012 0 12.2706 0.09125 12.4677 0.275L6.89017 5.16313ZM0.127942 14.3481C0.0428777 14.4219 0 14.5212 0 14.6206C0 14.8287 0.187417 15 0.419787 15C0.524906 15 0.630718 14.9644 0.712324 14.8931L1.40321 14.2856L0.818826 13.7406L0.127942 14.3481ZM7.6924 8.93875L5.32929 11.0131C4.56924 11.6788 3.84586 12.12 2.83477 12.505C3.29121 11.6019 3.80159 10.9619 4.56233 10.2956L6.92475 8.2225L5.96485 7.32687L3.60035 9.39812C2.32992 10.5112 1.68191 11.59 1.08301 13.0956L2.1266 14.07C3.80989 13.5762 5.02223 13.0244 6.29265 11.9106L8.65646 9.83875L7.6924 8.93875ZM13.8225 1.84125L8.72493 6.30875L9.8681 7.375L14.9643 2.90875C15.7479 2.22312 14.586 1.17375 13.8225 1.84125ZM16.5978 2.37563C16.5978 2.89625 16.3738 3.41625 15.927 3.8075L9.83698 9.14375L6.76915 6.28187L12.8592 0.944375C13.3052 0.55375 13.8433 0.38 14.3716 0.38C15.51 0.379375 16.5978 1.18688 16.5978 2.37563Z" fill="white"/>
</svg>
