<svg viewBox="0 0 38 22" fill="none" xmlns="http://www.w3.org/2000/svg">
<path d="M31.4286 9.427C27.9573 9.427 25.1429 12.243 25.1429 15.7143C25.1429 19.1856 27.9573 22 31.4286 22C34.8999 22 37.7143 19.1856 37.7143 15.7143C37.7143 12.243 34.8999 9.427 31.4286 9.427ZM31.4286 20.4286C28.8294 20.4286 26.7143 18.3134 26.7143 15.7143C26.7143 13.1151 28.8294 10.9984 31.4286 10.9984C34.0277 10.9984 36.1429 13.1151 36.1429 15.7143C36.1429 18.3134 34.0277 20.4286 31.4286 20.4286ZM31.691 18.3056V18.8571H31.1661V18.3339C30.6256 18.3244 30.063 18.1956 29.5947 17.9536L29.8336 17.0924C30.2327 17.248 30.7356 17.4099 31.1866 17.4099L31.5213 17.3753C32.1231 17.2401 32.2473 16.621 31.5826 16.3224C31.0939 16.0946 29.6026 15.8997 29.6026 14.6237C29.6026 13.9087 30.1463 13.2707 31.1646 13.1309V12.5714H31.6894V13.1041C32.0666 13.1136 32.494 13.1811 32.9686 13.3257L32.7784 14.1869C32.4139 14.0596 32.0131 13.9417 31.6187 13.9417L31.4993 13.9449C30.7199 13.9904 30.6491 14.6661 31.196 14.949C32.0901 15.3701 33.2609 15.6829 33.2609 16.8049C33.2624 17.7053 32.56 18.1846 31.691 18.3056ZM11 9.42857C11 12.0309 13.112 14.1429 15.7143 14.1429C18.3166 14.1429 20.4286 12.0309 20.4286 9.42857C20.4286 6.82629 18.3166 4.71429 15.7143 4.71429C13.112 4.71429 11 6.82629 11 9.42857ZM17.1019 7.27886L16.9321 8.05357C16.5707 7.92786 16.17 7.81157 15.7803 7.83514C15.0794 7.876 15.0166 8.48414 15.5069 8.73871C16.3146 9.119 17.3643 9.39871 17.3643 10.4091C17.3674 11.2184 16.7341 11.6521 15.9531 11.7606V12.2556H15.4786V11.7857C14.9899 11.7779 14.4854 11.6616 14.0674 11.4447L14.2796 10.67C14.7306 10.8429 15.3309 11.0299 15.8007 10.9246C16.3429 10.802 16.4529 10.2441 15.8541 9.97543C15.4157 9.77271 14.0737 9.59514 14.0737 8.44643C14.0737 7.80371 14.564 7.22857 15.4801 7.10286V6.60157H15.9531V7.08086C16.291 7.08871 16.6744 7.14843 17.1019 7.27886ZM23.8889 18.8571H0V0H31.4286V7.54129C30.3144 7.54129 29.2537 7.76914 28.2857 8.173V6.25743C26.7787 5.59743 26.0936 4.64986 25.4351 3.14286H5.99343C5.335 4.64986 4.64986 5.59743 3.14286 6.25743V12.5997C4.64986 13.2597 5.335 14.2057 5.99343 15.7143H23.2571C23.2571 16.8269 23.4834 17.8891 23.8889 18.8571Z" fill="white"/>
</svg>
